<svg width="18" height="18" viewBox="0 0 18 18" fill="none" xmlns="http://www.w3.org/2000/svg">
<g id="Group 2479">
<path id="Vector" d="M7.40933 8.99998L0.329603 1.92103C-0.109867 1.48156 -0.109867 0.769039 0.329603 0.329603C0.769073 -0.109868 1.48159 -0.109868 1.92103 0.329603L9.00002 7.4093L16.079 0.329603C16.5184 -0.109868 17.231 -0.109868 17.6704 0.329603C18.1098 0.769074 18.1099 1.48159 17.6704 1.92103L10.5907 8.99998L17.6704 16.079C18.1099 16.5184 18.1099 17.231 17.6704 17.6704C17.2309 18.1098 16.5184 18.1099 16.079 17.6704L9.00002 10.5907L1.92106 17.6704C1.48159 18.1099 0.769073 18.1099 0.329638 17.6704C-0.109833 17.2309 -0.109833 16.5184 0.329638 16.079L7.40933 8.99998Z" fill="black"/>
</g>
</svg>
