<svg width="18" height="18" viewBox="0 0 18 18" fill="none" xmlns="http://www.w3.org/2000/svg">
<path id="border-heart" d="M8.79885 17.2275L1.40635 9.41253C0.214099 8.17827 -0.264781 6.36515 0.150318 4.65637C0.565277 2.94756 1.81116 1.60268 3.41851 1.12827C5.02589 0.653869 6.75062 1.1221 7.94294 2.35637C8.26238 2.68 8.53677 3.04969 8.7581 3.45465L8.79121 3.51633L8.82432 3.45465H8.82418C9.50622 2.24502 10.6444 1.4011 11.9525 1.13499C13.2603 0.868886 14.6137 1.206 15.6717 2.06155C16.7296 2.91711 17.3915 4.20962 17.4907 5.61378C17.59 7.01789 17.1173 8.40008 16.1915 9.41253L8.79885 17.2275ZM4.71352 2.1448C3.76444 2.14466 2.85428 2.54319 2.18312 3.2527C1.51209 3.96221 1.13524 4.9245 1.13552 5.92784C1.13579 6.93115 1.51317 7.89332 2.18461 8.6024L8.79895 15.5822L15.4133 8.58991C16.2581 7.63049 16.573 6.27713 16.2451 5.01304C15.9174 3.74892 14.9938 2.7542 13.8043 2.38454C12.6147 2.01472 11.3288 2.32228 10.4059 3.19765C10.1576 3.44539 9.94416 3.72931 9.77168 4.04087L8.79898 5.83834L7.82629 4.04087C7.51119 3.46306 7.05754 2.98362 6.51096 2.65068C5.96451 2.31772 5.34449 2.14315 4.71362 2.14473L4.71352 2.1448Z" fill="white"/>
</svg>
