<svg width="24" height="24" viewBox="0 0 24 24" fill="none" xmlns="http://www.w3.org/2000/svg">
<g id="Group 33707">
<circle id="Ellipse 344" cx="12" cy="12" r="11.35" stroke="#EA4335" stroke-width="1.3"/>
<g id="Vector">
<mask id="path-2-outside-1_1332_3094" maskUnits="userSpaceOnUse" x="4" y="4" width="18" height="16" fill="black">
<rect fill="white" x="4" y="4" width="18" height="16"/>
<path d="M20.8909 10.9579L11.1407 5.16726C10.8608 5.00155 10.5284 4.95678 10.2164 5.04276C9.90438 5.12874 9.63826 5.33846 9.47632 5.62595L7.60654 8.95724C7.44536 9.24534 7.40183 9.58744 7.48548 9.9085C7.56914 10.2296 7.77316 10.5034 8.0528 10.67L11.3957 12.6553L10.8758 13.5673C10.8067 13.688 10.7082 13.7881 10.59 13.8577C10.4718 13.9274 10.338 13.9642 10.2018 13.9645H8.25005V12.4342C8.25005 12.3746 8.227 12.3173 8.18598 12.2751C8.14495 12.2329 8.08931 12.2092 8.0313 12.2092H6.84378V11.9188C6.84348 11.6546 6.74132 11.4013 6.5597 11.2145C6.37809 11.0277 6.13185 10.9226 5.87501 10.9223H5.21875C5.19002 10.9222 5.16157 10.928 5.13502 10.9393C5.10847 10.9507 5.08435 10.9672 5.06403 10.9881C5.04372 11.009 5.02761 11.0338 5.01662 11.0612C5.00563 11.0885 4.99998 11.1177 5 11.1473V18.775C4.99998 18.8045 5.00563 18.8338 5.01662 18.8611C5.02761 18.8884 5.04372 18.9132 5.06403 18.9341C5.08435 18.955 5.10847 18.9716 5.13502 18.9829C5.16157 18.9942 5.19002 19 5.21875 19H5.87501C6.13185 18.9997 6.37809 18.8946 6.5597 18.7078C6.74132 18.5209 6.84348 18.2676 6.84378 18.0034V17.2886H8.0313C8.08931 17.2886 8.14495 17.2649 8.18598 17.2227C8.227 17.1805 8.25005 17.1232 8.25005 17.0635V15.9576H10.2018C10.6757 15.9566 11.1412 15.8287 11.5524 15.5864C11.9636 15.3441 12.3064 14.9959 12.5471 14.5759L13.0737 13.6521L14.9062 14.7404C15.0906 14.8505 15.3001 14.9086 15.5134 14.9089C15.6206 14.9088 15.7274 14.8943 15.8309 14.8656C16.0299 14.8112 16.2121 14.7055 16.3603 14.5584C16.6 14.6728 16.861 14.7322 17.1252 14.7326C17.2871 14.7324 17.4483 14.7105 17.6047 14.6672C18.0035 14.5582 18.3547 14.3134 18.6011 13.9728L19.0491 14.2389C19.074 14.2537 19.1014 14.2633 19.1299 14.2672C19.1584 14.271 19.1874 14.2691 19.2151 14.2614C19.2429 14.2538 19.2689 14.2406 19.2917 14.2225C19.3145 14.2045 19.3336 14.1821 19.348 14.1565L20.9705 11.2656C20.9849 11.24 20.9943 11.2118 20.9981 11.1824C21.0019 11.1531 21 11.1233 20.9926 11.0948C20.9852 11.0662 20.9724 11.0394 20.955 11.0159C20.9375 10.9924 20.9157 10.9727 20.8909 10.9579ZM6.40627 18.0034C6.40614 18.1483 6.35013 18.2872 6.25052 18.3897C6.15092 18.4922 6.01587 18.5498 5.87501 18.5499H5.43751V11.3723H5.87501C6.01587 11.3725 6.15092 11.4301 6.25052 11.5325C6.35013 11.635 6.40614 11.7739 6.40627 11.9188V18.0034ZM7.81254 16.8385H6.84378V12.6593H7.81254V16.8385ZM12.1696 14.3482C11.9677 14.7006 11.6801 14.9928 11.3351 15.1961C10.99 15.3995 10.5995 15.5068 10.2018 15.5077H8.25005V14.4147H10.2018C10.4143 14.4142 10.623 14.3568 10.8073 14.2482C10.9917 14.1396 11.1453 13.9834 11.2532 13.7951L11.7751 12.8806L12.6954 13.4271L12.1696 14.3482ZM15.1252 14.3506L8.27155 10.2802C8.09227 10.1735 7.96146 9.99791 7.90784 9.79208C7.85423 9.58625 7.88217 9.36694 7.98555 9.18228L8.62306 8.04591L16.8297 12.9201L16.192 14.0569L16.1912 14.0583C16.1745 14.0874 16.1561 14.1153 16.136 14.1419V14.1428C16.0207 14.2977 15.8546 14.4041 15.6686 14.4423C15.4826 14.4806 15.2895 14.448 15.1252 14.3506ZM17.4923 14.2325C17.2058 14.3122 16.902 14.2957 16.6252 14.1855L17.2093 13.1448L18.221 13.7456C18.0346 13.9836 17.7792 14.1542 17.4921 14.2325H17.4923ZM19.0792 13.7361L8.84206 7.65615L9.8552 5.85098C9.959 5.66659 10.1297 5.53209 10.3297 5.47698C10.5298 5.42187 10.743 5.45066 10.9225 5.55702L20.4826 11.2352L19.0792 13.7361Z"/>
<path d="M18.1445 12.5129C18.2718 12.5891 18.4165 12.6292 18.5638 12.6293C18.6378 12.6292 18.7114 12.6192 18.7828 12.5995C18.9708 12.5477 19.1356 12.4304 19.249 12.2677C19.3623 12.105 19.4174 11.9068 19.4047 11.707C19.3919 11.5072 19.3123 11.3181 19.1793 11.172C19.0462 11.0258 18.8681 10.9317 18.6751 10.9055C18.4821 10.8794 18.2863 10.9228 18.121 11.0285C17.9557 11.1342 17.8312 11.2956 17.7686 11.4852C17.706 11.6748 17.7093 11.8809 17.7778 12.0682C17.8463 12.2556 17.9759 12.4128 18.1445 12.5129ZM18.2156 11.5558C18.242 11.5086 18.2773 11.4673 18.3194 11.4342C18.3615 11.4011 18.4095 11.3769 18.4607 11.3629C18.495 11.3535 18.5303 11.3487 18.5657 11.3487C18.6547 11.3487 18.7411 11.3789 18.8117 11.4346C18.8823 11.4903 18.933 11.5685 18.956 11.6569C18.979 11.7453 18.9731 11.839 18.939 11.9236C18.9049 12.0081 18.8447 12.0787 18.7677 12.1245C18.6906 12.1702 18.601 12.1885 18.5128 12.1766C18.4246 12.1646 18.3427 12.123 18.2798 12.0583C18.2169 11.9936 18.1766 11.9093 18.165 11.8186C18.1534 11.7279 18.1712 11.6357 18.2157 11.5565L18.2156 11.5558Z"/>
<path d="M10.6876 10.2339L8.89506 9.16903C8.87017 9.15403 8.84264 9.14423 8.81406 9.14021C8.78548 9.13619 8.7564 9.13802 8.72851 9.14561C8.70062 9.15319 8.67447 9.16638 8.65155 9.18441C8.62863 9.20244 8.60941 9.22495 8.59498 9.25065C8.58056 9.27635 8.57122 9.30473 8.5675 9.33416C8.56378 9.36359 8.56576 9.39349 8.57332 9.42213C8.58087 9.45077 8.59387 9.47759 8.61154 9.50105C8.62922 9.5245 8.65123 9.54413 8.67631 9.5588L10.4693 10.6235C10.5194 10.6504 10.5776 10.6564 10.6318 10.6402C10.686 10.624 10.732 10.5868 10.7602 10.5365C10.7884 10.4861 10.7966 10.4265 10.7831 10.3702C10.7695 10.3138 10.7353 10.2649 10.6876 10.2339Z"/>
</mask>
<path d="M20.8909 10.9579L11.1407 5.16726C10.8608 5.00155 10.5284 4.95678 10.2164 5.04276C9.90438 5.12874 9.63826 5.33846 9.47632 5.62595L7.60654 8.95724C7.44536 9.24534 7.40183 9.58744 7.48548 9.9085C7.56914 10.2296 7.77316 10.5034 8.0528 10.67L11.3957 12.6553L10.8758 13.5673C10.8067 13.688 10.7082 13.7881 10.59 13.8577C10.4718 13.9274 10.338 13.9642 10.2018 13.9645H8.25005V12.4342C8.25005 12.3746 8.227 12.3173 8.18598 12.2751C8.14495 12.2329 8.08931 12.2092 8.0313 12.2092H6.84378V11.9188C6.84348 11.6546 6.74132 11.4013 6.5597 11.2145C6.37809 11.0277 6.13185 10.9226 5.87501 10.9223H5.21875C5.19002 10.9222 5.16157 10.928 5.13502 10.9393C5.10847 10.9507 5.08435 10.9672 5.06403 10.9881C5.04372 11.009 5.02761 11.0338 5.01662 11.0612C5.00563 11.0885 4.99998 11.1177 5 11.1473V18.775C4.99998 18.8045 5.00563 18.8338 5.01662 18.8611C5.02761 18.8884 5.04372 18.9132 5.06403 18.9341C5.08435 18.955 5.10847 18.9716 5.13502 18.9829C5.16157 18.9942 5.19002 19 5.21875 19H5.87501C6.13185 18.9997 6.37809 18.8946 6.5597 18.7078C6.74132 18.5209 6.84348 18.2676 6.84378 18.0034V17.2886H8.0313C8.08931 17.2886 8.14495 17.2649 8.18598 17.2227C8.227 17.1805 8.25005 17.1232 8.25005 17.0635V15.9576H10.2018C10.6757 15.9566 11.1412 15.8287 11.5524 15.5864C11.9636 15.3441 12.3064 14.9959 12.5471 14.5759L13.0737 13.6521L14.9062 14.7404C15.0906 14.8505 15.3001 14.9086 15.5134 14.9089C15.6206 14.9088 15.7274 14.8943 15.8309 14.8656C16.0299 14.8112 16.2121 14.7055 16.3603 14.5584C16.6 14.6728 16.861 14.7322 17.1252 14.7326C17.2871 14.7324 17.4483 14.7105 17.6047 14.6672C18.0035 14.5582 18.3547 14.3134 18.6011 13.9728L19.0491 14.2389C19.074 14.2537 19.1014 14.2633 19.1299 14.2672C19.1584 14.271 19.1874 14.2691 19.2151 14.2614C19.2429 14.2538 19.2689 14.2406 19.2917 14.2225C19.3145 14.2045 19.3336 14.1821 19.348 14.1565L20.9705 11.2656C20.9849 11.24 20.9943 11.2118 20.9981 11.1824C21.0019 11.1531 21 11.1233 20.9926 11.0948C20.9852 11.0662 20.9724 11.0394 20.955 11.0159C20.9375 10.9924 20.9157 10.9727 20.8909 10.9579ZM6.40627 18.0034C6.40614 18.1483 6.35013 18.2872 6.25052 18.3897C6.15092 18.4922 6.01587 18.5498 5.87501 18.5499H5.43751V11.3723H5.87501C6.01587 11.3725 6.15092 11.4301 6.25052 11.5325C6.35013 11.635 6.40614 11.7739 6.40627 11.9188V18.0034ZM7.81254 16.8385H6.84378V12.6593H7.81254V16.8385ZM12.1696 14.3482C11.9677 14.7006 11.6801 14.9928 11.3351 15.1961C10.99 15.3995 10.5995 15.5068 10.2018 15.5077H8.25005V14.4147H10.2018C10.4143 14.4142 10.623 14.3568 10.8073 14.2482C10.9917 14.1396 11.1453 13.9834 11.2532 13.7951L11.7751 12.8806L12.6954 13.4271L12.1696 14.3482ZM15.1252 14.3506L8.27155 10.2802C8.09227 10.1735 7.96146 9.99791 7.90784 9.79208C7.85423 9.58625 7.88217 9.36694 7.98555 9.18228L8.62306 8.04591L16.8297 12.9201L16.192 14.0569L16.1912 14.0583C16.1745 14.0874 16.1561 14.1153 16.136 14.1419V14.1428C16.0207 14.2977 15.8546 14.4041 15.6686 14.4423C15.4826 14.4806 15.2895 14.448 15.1252 14.3506ZM17.4923 14.2325C17.2058 14.3122 16.902 14.2957 16.6252 14.1855L17.2093 13.1448L18.221 13.7456C18.0346 13.9836 17.7792 14.1542 17.4921 14.2325H17.4923ZM19.0792 13.7361L8.84206 7.65615L9.8552 5.85098C9.959 5.66659 10.1297 5.53209 10.3297 5.47698C10.5298 5.42187 10.743 5.45066 10.9225 5.55702L20.4826 11.2352L19.0792 13.7361Z" fill="#EA4335"/>
<path d="M18.1445 12.5129C18.2718 12.5891 18.4165 12.6292 18.5638 12.6293C18.6378 12.6292 18.7114 12.6192 18.7828 12.5995C18.9708 12.5477 19.1356 12.4304 19.249 12.2677C19.3623 12.105 19.4174 11.9068 19.4047 11.707C19.3919 11.5072 19.3123 11.3181 19.1793 11.172C19.0462 11.0258 18.8681 10.9317 18.6751 10.9055C18.4821 10.8794 18.2863 10.9228 18.121 11.0285C17.9557 11.1342 17.8312 11.2956 17.7686 11.4852C17.706 11.6748 17.7093 11.8809 17.7778 12.0682C17.8463 12.2556 17.9759 12.4128 18.1445 12.5129ZM18.2156 11.5558C18.242 11.5086 18.2773 11.4673 18.3194 11.4342C18.3615 11.4011 18.4095 11.3769 18.4607 11.3629C18.495 11.3535 18.5303 11.3487 18.5657 11.3487C18.6547 11.3487 18.7411 11.3789 18.8117 11.4346C18.8823 11.4903 18.933 11.5685 18.956 11.6569C18.979 11.7453 18.9731 11.839 18.939 11.9236C18.9049 12.0081 18.8447 12.0787 18.7677 12.1245C18.6906 12.1702 18.601 12.1885 18.5128 12.1766C18.4246 12.1646 18.3427 12.123 18.2798 12.0583C18.2169 11.9936 18.1766 11.9093 18.165 11.8186C18.1534 11.7279 18.1712 11.6357 18.2157 11.5565L18.2156 11.5558Z" fill="#EA4335"/>
<path d="M10.6876 10.2339L8.89506 9.16903C8.87017 9.15403 8.84264 9.14423 8.81406 9.14021C8.78548 9.13619 8.7564 9.13802 8.72851 9.14561C8.70062 9.15319 8.67447 9.16638 8.65155 9.18441C8.62863 9.20244 8.60941 9.22495 8.59498 9.25065C8.58056 9.27635 8.57122 9.30473 8.5675 9.33416C8.56378 9.36359 8.56576 9.39349 8.57332 9.42213C8.58087 9.45077 8.59387 9.47759 8.61154 9.50105C8.62922 9.5245 8.65123 9.54413 8.67631 9.5588L10.4693 10.6235C10.5194 10.6504 10.5776 10.6564 10.6318 10.6402C10.686 10.624 10.732 10.5868 10.7602 10.5365C10.7884 10.4861 10.7966 10.4265 10.7831 10.3702C10.7695 10.3138 10.7353 10.2649 10.6876 10.2339Z" fill="#EA4335"/>
<path d="M20.8909 10.9579L11.1407 5.16726C10.8608 5.00155 10.5284 4.95678 10.2164 5.04276C9.90438 5.12874 9.63826 5.33846 9.47632 5.62595L7.60654 8.95724C7.44536 9.24534 7.40183 9.58744 7.48548 9.9085C7.56914 10.2296 7.77316 10.5034 8.0528 10.67L11.3957 12.6553L10.8758 13.5673C10.8067 13.688 10.7082 13.7881 10.59 13.8577C10.4718 13.9274 10.338 13.9642 10.2018 13.9645H8.25005V12.4342C8.25005 12.3746 8.227 12.3173 8.18598 12.2751C8.14495 12.2329 8.08931 12.2092 8.0313 12.2092H6.84378V11.9188C6.84348 11.6546 6.74132 11.4013 6.5597 11.2145C6.37809 11.0277 6.13185 10.9226 5.87501 10.9223H5.21875C5.19002 10.9222 5.16157 10.928 5.13502 10.9393C5.10847 10.9507 5.08435 10.9672 5.06403 10.9881C5.04372 11.009 5.02761 11.0338 5.01662 11.0612C5.00563 11.0885 4.99998 11.1177 5 11.1473V18.775C4.99998 18.8045 5.00563 18.8338 5.01662 18.8611C5.02761 18.8884 5.04372 18.9132 5.06403 18.9341C5.08435 18.955 5.10847 18.9716 5.13502 18.9829C5.16157 18.9942 5.19002 19 5.21875 19H5.87501C6.13185 18.9997 6.37809 18.8946 6.5597 18.7078C6.74132 18.5209 6.84348 18.2676 6.84378 18.0034V17.2886H8.0313C8.08931 17.2886 8.14495 17.2649 8.18598 17.2227C8.227 17.1805 8.25005 17.1232 8.25005 17.0635V15.9576H10.2018C10.6757 15.9566 11.1412 15.8287 11.5524 15.5864C11.9636 15.3441 12.3064 14.9959 12.5471 14.5759L13.0737 13.6521L14.9062 14.7404C15.0906 14.8505 15.3001 14.9086 15.5134 14.9089C15.6206 14.9088 15.7274 14.8943 15.8309 14.8656C16.0299 14.8112 16.2121 14.7055 16.3603 14.5584C16.6 14.6728 16.861 14.7322 17.1252 14.7326C17.2871 14.7324 17.4483 14.7105 17.6047 14.6672C18.0035 14.5582 18.3547 14.3134 18.6011 13.9728L19.0491 14.2389C19.074 14.2537 19.1014 14.2633 19.1299 14.2672C19.1584 14.271 19.1874 14.2691 19.2151 14.2614C19.2429 14.2538 19.2689 14.2406 19.2917 14.2225C19.3145 14.2045 19.3336 14.1821 19.348 14.1565L20.9705 11.2656C20.9849 11.24 20.9943 11.2118 20.9981 11.1824C21.0019 11.1531 21 11.1233 20.9926 11.0948C20.9852 11.0662 20.9724 11.0394 20.955 11.0159C20.9375 10.9924 20.9157 10.9727 20.8909 10.9579ZM6.40627 18.0034C6.40614 18.1483 6.35013 18.2872 6.25052 18.3897C6.15092 18.4922 6.01587 18.5498 5.87501 18.5499H5.43751V11.3723H5.87501C6.01587 11.3725 6.15092 11.4301 6.25052 11.5325C6.35013 11.635 6.40614 11.7739 6.40627 11.9188V18.0034ZM7.81254 16.8385H6.84378V12.6593H7.81254V16.8385ZM12.1696 14.3482C11.9677 14.7006 11.6801 14.9928 11.3351 15.1961C10.99 15.3995 10.5995 15.5068 10.2018 15.5077H8.25005V14.4147H10.2018C10.4143 14.4142 10.623 14.3568 10.8073 14.2482C10.9917 14.1396 11.1453 13.9834 11.2532 13.7951L11.7751 12.8806L12.6954 13.4271L12.1696 14.3482ZM15.1252 14.3506L8.27155 10.2802C8.09227 10.1735 7.96146 9.99791 7.90784 9.79208C7.85423 9.58625 7.88217 9.36694 7.98555 9.18228L8.62306 8.04591L16.8297 12.9201L16.192 14.0569L16.1912 14.0583C16.1745 14.0874 16.1561 14.1153 16.136 14.1419V14.1428C16.0207 14.2977 15.8546 14.4041 15.6686 14.4423C15.4826 14.4806 15.2895 14.448 15.1252 14.3506ZM17.4923 14.2325C17.2058 14.3122 16.902 14.2957 16.6252 14.1855L17.2093 13.1448L18.221 13.7456C18.0346 13.9836 17.7792 14.1542 17.4921 14.2325H17.4923ZM19.0792 13.7361L8.84206 7.65615L9.8552 5.85098C9.959 5.66659 10.1297 5.53209 10.3297 5.47698C10.5298 5.42187 10.743 5.45066 10.9225 5.55702L20.4826 11.2352L19.0792 13.7361Z" stroke="#EA4335" stroke-width="0.4" mask="url(#path-2-outside-1_1332_3094)"/>
<path d="M18.1445 12.5129C18.2718 12.5891 18.4165 12.6292 18.5638 12.6293C18.6378 12.6292 18.7114 12.6192 18.7828 12.5995C18.9708 12.5477 19.1356 12.4304 19.249 12.2677C19.3623 12.105 19.4174 11.9068 19.4047 11.707C19.3919 11.5072 19.3123 11.3181 19.1793 11.172C19.0462 11.0258 18.8681 10.9317 18.6751 10.9055C18.4821 10.8794 18.2863 10.9228 18.121 11.0285C17.9557 11.1342 17.8312 11.2956 17.7686 11.4852C17.706 11.6748 17.7093 11.8809 17.7778 12.0682C17.8463 12.2556 17.9759 12.4128 18.1445 12.5129ZM18.2156 11.5558C18.242 11.5086 18.2773 11.4673 18.3194 11.4342C18.3615 11.4011 18.4095 11.3769 18.4607 11.3629C18.495 11.3535 18.5303 11.3487 18.5657 11.3487C18.6547 11.3487 18.7411 11.3789 18.8117 11.4346C18.8823 11.4903 18.933 11.5685 18.956 11.6569C18.979 11.7453 18.9731 11.839 18.939 11.9236C18.9049 12.0081 18.8447 12.0787 18.7677 12.1245C18.6906 12.1702 18.601 12.1885 18.5128 12.1766C18.4246 12.1646 18.3427 12.123 18.2798 12.0583C18.2169 11.9936 18.1766 11.9093 18.165 11.8186C18.1534 11.7279 18.1712 11.6357 18.2157 11.5565L18.2156 11.5558Z" stroke="#EA4335" stroke-width="0.4" mask="url(#path-2-outside-1_1332_3094)"/>
<path d="M10.6876 10.2339L8.89506 9.16903C8.87017 9.15403 8.84264 9.14423 8.81406 9.14021C8.78548 9.13619 8.7564 9.13802 8.72851 9.14561C8.70062 9.15319 8.67447 9.16638 8.65155 9.18441C8.62863 9.20244 8.60941 9.22495 8.59498 9.25065C8.58056 9.27635 8.57122 9.30473 8.5675 9.33416C8.56378 9.36359 8.56576 9.39349 8.57332 9.42213C8.58087 9.45077 8.59387 9.47759 8.61154 9.50105C8.62922 9.5245 8.65123 9.54413 8.67631 9.5588L10.4693 10.6235C10.5194 10.6504 10.5776 10.6564 10.6318 10.6402C10.686 10.624 10.732 10.5868 10.7602 10.5365C10.7884 10.4861 10.7966 10.4265 10.7831 10.3702C10.7695 10.3138 10.7353 10.2649 10.6876 10.2339Z" stroke="#EA4335" stroke-width="0.4" mask="url(#path-2-outside-1_1332_3094)"/>
</g>
<line id="Line 53" x1="3.49622" y1="4.43762" x2="20.4962" y2="19.4376" stroke="#EA4335" stroke-width="1.5"/>
</g>
</svg>
