<svg width="20" height="20" viewBox="0 0 20 20" fill="none" xmlns="http://www.w3.org/2000/svg">
<g id="copy 1">
<g id="Group">
<g id="Group_2">
<path id="Vector" d="M12.8712 3.49785H3.57361C2.7012 3.49785 1.99261 4.20643 1.99261 5.07884V18.419C1.99261 19.2914 2.7012 20 3.57361 20H12.8712C13.7436 20 14.4522 19.2914 14.4522 18.419V5.07884C14.4481 4.20643 13.7395 3.49785 12.8712 3.49785ZM13.3422 18.4149C13.3422 18.677 13.1292 18.89 12.8671 18.89H3.56951C3.30738 18.89 3.0944 18.677 3.0944 18.4149V5.07884C3.0944 4.81671 3.30738 4.60373 3.56951 4.60373H12.8671C13.1292 4.60373 13.3422 4.81671 13.3422 5.07884V18.4149Z" fill="black"/>
<path id="Vector_2" d="M16.4263 0H7.12879C6.25637 0 5.54779 0.708581 5.54779 1.581C5.54779 1.88818 5.79354 2.13393 6.10073 2.13393C6.40792 2.13393 6.65367 1.88818 6.65367 1.581C6.65367 1.31886 6.86665 1.10588 7.12879 1.10588H16.4263C16.6885 1.10588 16.9015 1.31886 16.9015 1.581V14.9212C16.9015 15.1833 16.6885 15.3963 16.4263 15.3963C16.1192 15.3963 15.8734 15.642 15.8734 15.9492C15.8734 16.2564 16.1192 16.5021 16.4263 16.5021C17.2988 16.5021 18.0073 15.7936 18.0073 14.9212V1.581C18.0073 0.708581 17.2988 0 16.4263 0Z" fill="black"/>
</g>
</g>
</g>
</svg>
