<svg width="24" height="24" viewBox="0 0 24 24" fill="none" xmlns="http://www.w3.org/2000/svg">
<g id="Group 33711">
<path id="Vector" d="M11.7082 12.1182L11.7082 12.1182L10.3333 11.0421L11.7082 12.1182ZM11.7082 12.1182C12.0638 12.3964 12.2667 12.8134 12.2667 13.2637M11.7082 12.1182L12.2667 13.2637M12.2667 13.2637V15.1667C12.2667 15.8419 11.7169 16.3917 11.0417 16.3917H7.83333C7.15809 16.3917 6.60833 15.8419 6.60833 15.1667V13.2637C6.60833 12.8135 6.81163 12.3964 7.16684 12.1181L8.54112 11.0422C8.54117 11.0421 8.54122 11.0421 8.54127 11.042C8.80591 10.8357 9.12204 10.7324 9.4375 10.7324C9.75299 10.7324 10.0691 10.8357 10.3332 11.042L12.2667 13.2637ZM6.69909 11.5212L6.69906 11.5212C6.16001 11.9433 5.85 12.579 5.85 13.2637V15.1667C5.85 16.2606 6.73941 17.15 7.83333 17.15H11.0417C12.1356 17.15 13.025 16.2606 13.025 15.1667V13.4137H13.0255V13.2637C13.0255 12.579 12.7154 11.9433 12.1764 11.5212L12.1763 11.5212L10.8009 10.4451C10.8009 10.4451 10.8009 10.445 10.8009 10.445C9.999 9.81722 8.87684 9.8173 8.07414 10.445L8.07409 10.445L6.69909 11.5212ZM14.4792 11.8083C14.2698 11.8083 14.1 11.9782 14.1 12.1875C14.1 12.3968 14.2698 12.5667 14.4792 12.5667H14.9375C15.1468 12.5667 15.3167 12.3968 15.3167 12.1875C15.3167 11.9782 15.1468 11.8083 14.9375 11.8083H14.4792ZM14.4792 14.4H14.9375C15.1468 14.4 15.3167 14.2302 15.3167 14.0208C15.3167 13.8115 15.1468 13.6417 14.9375 13.6417H14.4792C14.2698 13.6417 14.1 13.8115 14.1 14.0208C14.1 14.2302 14.2698 14.4 14.4792 14.4ZM12.6458 8.9H13.1042C13.3135 8.9 13.4833 8.73018 13.4833 8.52083C13.4833 8.31149 13.3135 8.14167 13.1042 8.14167H12.6458C12.4365 8.14167 12.2667 8.31149 12.2667 8.52083C12.2667 8.73018 12.4365 8.9 12.6458 8.9ZM14.4792 8.9H14.9375C15.1468 8.9 15.3167 8.73018 15.3167 8.52083C15.3167 8.31149 15.1468 8.14167 14.9375 8.14167H14.4792C14.2698 8.14167 14.1 8.31149 14.1 8.52083C14.1 8.73018 14.2698 8.9 14.4792 8.9ZM14.4792 10.7333H14.9375C15.1468 10.7333 15.3167 10.5635 15.3167 10.3542C15.3167 10.1448 15.1468 9.975 14.9375 9.975H14.4792C14.2698 9.975 14.1 10.1448 14.1 10.3542C14.1 10.5635 14.2698 10.7333 14.4792 10.7333ZM13.1042 9.975H12.6458C12.4365 9.975 12.2667 10.1448 12.2667 10.3542C12.2667 10.5635 12.4365 10.7333 12.6458 10.7333H13.1042C13.3135 10.7333 13.4833 10.5635 13.4833 10.3542C13.4833 10.1448 13.3135 9.975 13.1042 9.975ZM14.9375 5.85H12.6458C11.4259 5.85 10.4333 6.84253 10.4333 8.0625V9.4375C10.4333 9.64684 10.6032 9.81667 10.8125 9.81667C11.0218 9.81667 11.1917 9.64684 11.1917 9.4375V8.0625C11.1917 7.26076 11.8441 6.60833 12.6458 6.60833H14.9375C15.7392 6.60833 16.3917 7.26076 16.3917 8.0625V14.9375C16.3917 15.7392 15.7392 16.3917 14.9375 16.3917H13.5625C13.3532 16.3917 13.1833 16.5615 13.1833 16.7708C13.1833 16.9802 13.3532 17.15 13.5625 17.15H14.9375C16.1575 17.15 17.15 16.1575 17.15 14.9375V8.0625C17.15 6.84253 16.1575 5.85 14.9375 5.85ZM10.7333 14.4792V13.5625C10.7333 13.1006 10.3577 12.725 9.89583 12.725H8.97917C8.51728 12.725 8.14167 13.1006 8.14167 13.5625V14.4792C8.14167 14.9411 8.51728 15.3167 8.97917 15.3167H9.89583C10.3577 15.3167 10.7333 14.9411 10.7333 14.4792ZM9.89583 13.4833C9.93903 13.4833 9.975 13.5193 9.975 13.5625V14.4792C9.975 14.5224 9.93903 14.5583 9.89583 14.5583H8.97917C8.93597 14.5583 8.9 14.5224 8.9 14.4792V13.5625C8.9 13.5193 8.93597 13.4833 8.97917 13.4833H9.89583Z" fill="#EA4335" stroke="#EA4335" stroke-width="0.3"/>
<circle id="Ellipse 344" cx="12" cy="12" r="11.35" stroke="#EA4335" stroke-width="1.3"/>
<line id="Line 53" x1="3.49622" y1="4.43762" x2="20.4962" y2="19.4376" stroke="#EA4335" stroke-width="1.5"/>
</g>
</svg>
