<svg width="128" height="128" viewBox="0 0 128 128" fill="none" xmlns="http://www.w3.org/2000/svg">
<g id="Group 67">
<g id="Ellipse 155" filter="url(#filter0_d_94_7128)">
<circle cx="64" cy="60" r="20" fill="white"/>
<circle cx="64" cy="60" r="19.5" stroke="#EAEAEA"/>
</g>
<path id="Vector" d="M55.25 55.1H72.75C73.4944 55.1 74.1 54.4944 74.1 53.75V51.25C74.1 50.5056 73.4944 49.9 72.75 49.9H55.25C54.5056 49.9 53.9 50.5056 53.9 51.25V53.75C53.9 54.4944 54.5056 55.1 55.25 55.1ZM54.9333 51.25C54.9333 51.0754 55.0759 50.9333 55.25 50.9333H72.75C72.9241 50.9333 73.0667 51.0754 73.0667 51.25V53.75C73.0667 53.9246 72.9241 54.0667 72.75 54.0667H55.25C55.0759 54.0667 54.9333 53.9246 54.9333 53.75V51.25ZM68.9 60C68.9 61.4336 70.0664 62.6 71.5 62.6C72.9336 62.6 74.1 61.4336 74.1 60C74.1 58.5664 72.9336 57.4 71.5 57.4C70.0664 57.4 68.9 58.5664 68.9 60ZM69.9333 60C69.9333 59.1361 70.6361 58.4333 71.5 58.4333C72.3639 58.4333 73.0667 59.1361 73.0667 60C73.0667 60.8639 72.3639 61.5667 71.5 61.5667C70.6361 61.5667 69.9333 60.8639 69.9333 60ZM68.9 67.5C68.9 68.9336 70.0664 70.1 71.5 70.1C72.9336 70.1 74.1 68.9336 74.1 67.5C74.1 66.0664 72.9336 64.9 71.5 64.9C70.0664 64.9 68.9 66.0664 68.9 67.5ZM69.9333 67.5C69.9333 66.6361 70.6361 65.9333 71.5 65.9333C72.3639 65.9333 73.0667 66.6361 73.0667 67.5C73.0667 68.3639 72.3639 69.0667 71.5 69.0667C70.6361 69.0667 69.9333 68.3639 69.9333 67.5ZM54.4167 59.2667H66.9167C67.2019 59.2667 67.4333 59.0352 67.4333 58.75C67.4333 58.4648 67.2019 58.2333 66.9167 58.2333H54.4167C54.1314 58.2333 53.9 58.4648 53.9 58.75C53.9 59.0352 54.1314 59.2667 54.4167 59.2667ZM54.4167 61.7667H66.9167C67.2019 61.7667 67.4333 61.5352 67.4333 61.25C67.4333 60.9648 67.2019 60.7333 66.9167 60.7333H54.4167C54.1314 60.7333 53.9 60.9648 53.9 61.25C53.9 61.5352 54.1314 61.7667 54.4167 61.7667ZM54.4167 66.7667H66.9167C67.2019 66.7667 67.4333 66.5352 67.4333 66.25C67.4333 65.9648 67.2019 65.7333 66.9167 65.7333H54.4167C54.1314 65.7333 53.9 65.9648 53.9 66.25C53.9 66.5352 54.1314 66.7667 54.4167 66.7667ZM54.4167 69.2667H66.9167C67.2019 69.2667 67.4333 69.0352 67.4333 68.75C67.4333 68.4648 67.2019 68.2333 66.9167 68.2333H54.4167C54.1314 68.2333 53.9 68.4648 53.9 68.75C53.9 69.0352 54.1314 69.2667 54.4167 69.2667Z" fill="#EA4335" stroke="#EA4335" stroke-width="0.2"/>
</g>
<defs>
<filter id="filter0_d_94_7128" x="0" y="0" width="128" height="128" filterUnits="userSpaceOnUse" color-interpolation-filters="sRGB">
<feFlood flood-opacity="0" result="BackgroundImageFix"/>
<feColorMatrix in="SourceAlpha" type="matrix" values="0 0 0 0 0 0 0 0 0 0 0 0 0 0 0 0 0 0 127 0" result="hardAlpha"/>
<feOffset dy="4"/>
<feGaussianBlur stdDeviation="22"/>
<feComposite in2="hardAlpha" operator="out"/>
<feColorMatrix type="matrix" values="0 0 0 0 0 0 0 0 0 0 0 0 0 0 0 0 0 0 0.12 0"/>
<feBlend mode="normal" in2="BackgroundImageFix" result="effect1_dropShadow_94_7128"/>
<feBlend mode="normal" in="SourceGraphic" in2="effect1_dropShadow_94_7128" result="shape"/>
</filter>
</defs>
</svg>
