<svg width="80" height="80" viewBox="0 0 80 80" fill="none" xmlns="http://www.w3.org/2000/svg">
<g id="Group 32">
<rect id="Rectangle 26" x="0.491699" y="0.685059" width="78.6787" height="78.6787" rx="24" fill="#EA4335"/>
<g id="excitingspaces">
<path id="Vector" d="M24.734 38.1416H29.3791V41.9078H24.734V38.1416Z" fill="#FFFBFB"/>
<path id="Vector_2" d="M31.7017 38.1416H36.3467V41.9078H31.7017V38.1416Z" fill="#FFFBFB"/>
<path id="Vector_3" d="M31.7017 32.4917H36.3467V36.2579H31.7017V32.4917Z" fill="#FFFBFB"/>
<path id="Vector_4" d="M24.734 32.4917H29.3791V36.2579H24.734V32.4917Z" fill="#FFFBFB"/>
<path id="Vector_5" d="M31.7017 26.8418H36.3467V30.608H31.7017V26.8418Z" fill="#FFFBFB"/>
<path id="Vector_6" d="M24.734 26.8418H29.3791V30.608H24.734V26.8418Z" fill="#FFFBFB"/>
<path id="Vector_7" d="M40.9923 28.7255V24.9593H42.1536V23.0762H18.9282V24.9593H20.0895V56.9724H59.5726V30.6087H60.7339V28.7255H40.9923ZM38.6698 28.7255V55.0892H22.412V24.9593H38.6698V28.7255ZM57.2501 55.0892H40.9923V30.6087H57.2501V55.0892Z" fill="#FFFBFB"/>
<path id="Vector_8" d="M43.3152 38.1416H47.9603V41.9078H43.3152V38.1416Z" fill="#FFFBFB"/>
<path id="Vector_9" d="M50.2822 38.1416H54.9272V41.9078H50.2822V38.1416Z" fill="#FFFBFB"/>
<path id="Vector_10" d="M50.2822 32.4917H54.9272V36.2579H50.2822V32.4917Z" fill="#FFFBFB"/>
<path id="Vector_11" d="M43.3152 32.4917H47.9603V36.2579H43.3152V32.4917Z" fill="#FFFBFB"/>
<path id="Vector_12" d="M24.734 49.4395H29.3791V53.2057H24.734V49.4395Z" fill="#FFFBFB"/>
<path id="Vector_13" d="M31.7017 49.4395H36.3467V53.2057H31.7017V49.4395Z" fill="#FFFBFB"/>
<path id="Vector_14" d="M31.7017 43.79H36.3467V47.5563H31.7017V43.79Z" fill="#FFFBFB"/>
<path id="Vector_15" d="M24.734 43.79H29.3791V47.5563H24.734V43.79Z" fill="#FFFBFB"/>
<path id="Vector_16" d="M43.3152 49.4395H47.9603V53.2057H43.3152V49.4395Z" fill="#FFFBFB"/>
<path id="Vector_17" d="M50.2822 49.4395H54.9272V53.2057H50.2822V49.4395Z" fill="#FFFBFB"/>
<path id="Vector_18" d="M50.2822 43.79H54.9272V47.5563H50.2822V43.79Z" fill="#FFFBFB"/>
<path id="Vector_19" d="M43.3152 43.79H47.9603V47.5563H43.3152V43.79Z" fill="#FFFBFB"/>
</g>
</g>
</svg>
