<svg width="128" height="128" viewBox="0 0 128 128" fill="none" xmlns="http://www.w3.org/2000/svg">
<g id="Group 67">
<g id="Ellipse 155" filter="url(#filter0_d_94_7220)">
<circle cx="64" cy="60" r="20" fill="white"/>
<circle cx="64" cy="60" r="19.5" stroke="#EAEAEA"/>
</g>
<g id="Vector">
<path d="M71.9583 58.6383H66.5026C66.0808 58.6378 65.6763 58.47 65.378 58.1716C65.0797 57.8733 64.9119 57.4689 64.9114 57.047V51.5913C64.9119 51.1694 65.0797 50.7649 65.378 50.4666C65.6763 50.1683 66.0808 50.0005 66.5026 50H71.9583C72.3802 50.0005 72.7846 50.1683 73.0829 50.4666C73.3812 50.7649 73.5491 51.1694 73.5496 51.5913V57.047C73.5491 57.4689 73.3812 57.8733 73.0829 58.1716C72.7846 58.47 72.3802 58.6378 71.9583 58.6383ZM66.5026 51.3639C66.4424 51.3641 66.3846 51.388 66.342 51.4306C66.2994 51.4733 66.2754 51.531 66.2753 51.5913V57.047C66.2754 57.1073 66.2994 57.165 66.342 57.2076C66.3846 57.2502 66.4424 57.2742 66.5026 57.2743H71.9583C72.0186 57.2742 72.0763 57.2502 72.1189 57.2076C72.1615 57.165 72.1855 57.1073 72.1857 57.047V51.5913C72.1855 51.531 72.1615 51.4733 72.1189 51.4306C72.0763 51.388 72.0186 51.3641 71.9583 51.3639H66.5026Z" fill="#EA4335"/>
<path d="M69.2305 70C69.0215 70.0004 68.8146 69.9596 68.6215 69.8797C68.4284 69.7998 68.253 69.6826 68.1054 69.5347L64.9265 66.3557C64.6286 66.0571 64.4613 65.6525 64.4613 65.2306C64.4613 64.8088 64.6286 64.4042 64.9265 64.1056L68.1054 60.9266C68.404 60.6285 68.8086 60.4611 69.2305 60.4611C69.6524 60.4611 70.057 60.6285 70.3555 60.9266L73.5345 64.1056C73.8326 64.4041 74 64.8088 74 65.2306C74 65.6525 73.8326 66.0572 73.5345 66.3557L70.3555 69.5347C70.2079 69.6826 70.0326 69.7998 69.8395 69.8797C69.6464 69.9596 69.4394 70.0004 69.2305 70ZM69.2305 61.8244C69.2006 61.8243 69.171 61.8301 69.1434 61.8416C69.1159 61.853 69.0908 61.8698 69.0698 61.891L65.8908 65.0699C65.8697 65.091 65.853 65.1161 65.8415 65.1437C65.8301 65.1712 65.8242 65.2008 65.8242 65.2306C65.8242 65.2605 65.8301 65.2901 65.8415 65.3176C65.853 65.3452 65.8697 65.3703 65.8908 65.3914L69.0698 68.5703C69.0909 68.5915 69.1159 68.6082 69.1435 68.6196C69.1711 68.6311 69.2006 68.6369 69.2305 68.6369C69.2603 68.6369 69.2899 68.6311 69.3175 68.6196C69.345 68.6082 69.3701 68.5915 69.3912 68.5703L72.5701 65.3914C72.5913 65.3703 72.608 65.3452 72.6194 65.3176C72.6309 65.2901 72.6367 65.2605 72.6367 65.2306C72.6367 65.2008 72.6309 65.1712 72.6194 65.1437C72.608 65.1161 72.5913 65.091 72.5701 65.0699L69.3912 61.891C69.3702 61.8698 69.3451 61.853 69.3175 61.8416C69.2899 61.8301 69.2603 61.8243 69.2305 61.8244Z" fill="#EA4335"/>
<path d="M61.0469 58.6383H55.5912C55.1694 58.6378 54.7649 58.47 54.4666 58.1716C54.1683 57.8733 54.0005 57.4689 54 57.047V51.5913C54.0005 51.1694 54.1683 50.7649 54.4666 50.4666C54.7649 50.1683 55.1694 50.0005 55.5912 50H61.0469C61.4688 50.0005 61.8732 50.1683 62.1716 50.4666C62.4699 50.7649 62.6377 51.1694 62.6382 51.5913V57.047C62.6377 57.4689 62.4699 57.8733 62.1716 58.1716C61.8732 58.47 61.4688 58.6378 61.0469 58.6383ZM55.5912 51.3639C55.531 51.3641 55.4732 51.388 55.4306 51.4306C55.388 51.4733 55.364 51.531 55.3639 51.5913V57.047C55.364 57.1073 55.388 57.165 55.4306 57.2076C55.4732 57.2502 55.531 57.2742 55.5912 57.2743H61.0469C61.1072 57.2742 61.1649 57.2502 61.2076 57.2076C61.2502 57.165 61.2741 57.1073 61.2743 57.047V51.5913C61.2741 51.531 61.2502 51.4733 61.2076 51.4306C61.1649 51.388 61.1072 51.3641 61.0469 51.3639H55.5912Z" fill="#EA4335"/>
<path d="M61.0469 69.5498H55.5912C55.1694 69.5493 54.7649 69.3815 54.4666 69.0832C54.1683 68.7848 54.0005 68.3804 54 67.9585V62.5028C54.0005 62.0809 54.1683 61.6765 54.4666 61.3781C54.7649 61.0798 55.1694 60.912 55.5912 60.9115H61.0469C61.4688 60.912 61.8732 61.0798 62.1716 61.3781C62.4699 61.6765 62.6377 62.0809 62.6382 62.5028V67.9585C62.6377 68.3804 62.4699 68.7848 62.1716 69.0832C61.8732 69.3815 61.4688 69.5493 61.0469 69.5498ZM55.5912 62.2754C55.531 62.2756 55.4732 62.2996 55.4306 62.3422C55.388 62.3848 55.364 62.4425 55.3639 62.5028V67.9585C55.364 68.0188 55.388 68.0765 55.4306 68.1191C55.4732 68.1617 55.531 68.1857 55.5912 68.1859H61.0469C61.1072 68.1857 61.1649 68.1617 61.2076 68.1191C61.2502 68.0765 61.2741 68.0188 61.2743 67.9585V62.5028C61.2741 62.4425 61.2502 62.3848 61.2076 62.3422C61.1649 62.2996 61.1072 62.2756 61.0469 62.2754H55.5912Z" fill="#EA4335"/>
</g>
</g>
<defs>
<filter id="filter0_d_94_7220" x="0" y="0" width="128" height="128" filterUnits="userSpaceOnUse" color-interpolation-filters="sRGB">
<feFlood flood-opacity="0" result="BackgroundImageFix"/>
<feColorMatrix in="SourceAlpha" type="matrix" values="0 0 0 0 0 0 0 0 0 0 0 0 0 0 0 0 0 0 127 0" result="hardAlpha"/>
<feOffset dy="4"/>
<feGaussianBlur stdDeviation="22"/>
<feComposite in2="hardAlpha" operator="out"/>
<feColorMatrix type="matrix" values="0 0 0 0 0 0 0 0 0 0 0 0 0 0 0 0 0 0 0.12 0"/>
<feBlend mode="normal" in2="BackgroundImageFix" result="effect1_dropShadow_94_7220"/>
<feBlend mode="normal" in="SourceGraphic" in2="effect1_dropShadow_94_7220" result="shape"/>
</filter>
</defs>
</svg>
