<svg width="19" height="19" viewBox="0 0 19 19" fill="none" xmlns="http://www.w3.org/2000/svg">
<path id="file-list-search" d="M9.05709 16.6982H3.49633C2.03477 16.6982 1.41104 16.0747 1.41104 14.6136V3.4953C1.41104 2.03418 2.03477 1.41063 3.49633 1.41063H8.36199V3.4953C8.30757 3.96474 8.36002 4.44039 8.51544 4.8867C8.67085 5.333 8.92521 5.73839 9.25946 6.07255C9.59372 6.40671 9.99924 6.66099 10.4457 6.81636C10.8921 6.97173 11.3679 7.02417 11.8375 6.96976H13.9228V9.05444C13.9228 9.23874 13.996 9.41548 14.1263 9.5458C14.2567 9.67612 14.4335 9.74933 14.6178 9.74933C14.8022 9.74933 14.979 9.67612 15.1094 9.5458C15.2397 9.41548 15.3129 9.23874 15.3129 9.05444V6.27487C15.313 6.18362 15.295 6.09326 15.26 6.00899C15.2251 5.92471 15.1737 5.84819 15.1091 5.78381L9.54829 0.224679C9.4839 0.160011 9.40735 0.108709 9.32305 0.0737272C9.23875 0.0387451 9.14836 0.0207729 9.05709 0.0208443H3.49633C3.02676 -0.0335648 2.55096 0.0188769 2.10453 0.174247C1.65809 0.329616 1.25258 0.583892 0.918321 0.918052C0.584063 1.25221 0.329713 1.65761 0.174298 2.10391C0.0188824 2.55021 -0.0335747 3.02587 0.0208504 3.4953V14.6136C-0.0335747 15.083 0.0188824 15.5587 0.174298 16.005C0.329713 16.4513 0.584063 16.8567 0.918321 17.1908C1.25258 17.525 1.65809 17.7793 2.10453 17.9346C2.55096 18.09 3.02676 18.1424 3.49633 18.088H9.05709C9.24144 18.088 9.41824 18.0148 9.54859 17.8845C9.67895 17.7542 9.75218 17.5774 9.75218 17.3931C9.75218 17.2088 9.67895 17.0321 9.54859 16.9018C9.41824 16.7715 9.24144 16.6982 9.05709 16.6982ZM9.75218 3.4953V2.39367L12.9394 5.57998H11.8375C10.3759 5.57998 9.75218 4.95643 9.75218 3.4953ZM5.11822 9.05444C5.11822 9.19187 5.07745 9.32622 5.00107 9.4405C4.92469 9.55477 4.81613 9.64384 4.68912 9.69643C4.56211 9.74903 4.42235 9.76279 4.28751 9.73598C4.15268 9.70917 4.02882 9.64298 3.93161 9.5458C3.8344 9.44862 3.7682 9.3248 3.74138 9.19C3.71456 9.05521 3.72833 8.91549 3.78094 8.78852C3.83355 8.66154 3.92264 8.55301 4.03695 8.47666C4.15125 8.4003 4.28564 8.35955 4.42312 8.35955C4.60747 8.35955 4.78427 8.43276 4.91463 8.56308C5.04498 8.69339 5.11822 8.87014 5.11822 9.05444ZM5.11822 12.7605C5.11822 12.898 5.07745 13.0323 5.00107 13.1466C4.92469 13.2609 4.81613 13.3499 4.68912 13.4025C4.56211 13.4551 4.42235 13.4689 4.28751 13.4421C4.15268 13.4153 4.02882 13.3491 3.93161 13.2519C3.8344 13.1547 3.7682 13.0309 3.74138 12.8961C3.71456 12.7613 3.72833 12.6216 3.78094 12.4946C3.83355 12.3676 3.92264 12.2591 4.03695 12.1827C4.15125 12.1064 4.28564 12.0656 4.42312 12.0656C4.60747 12.0656 4.78427 12.1388 4.91463 12.2692C5.04498 12.3995 5.11822 12.5762 5.11822 12.7605ZM10.9107 9.74933H6.7401C6.55575 9.74933 6.37895 9.67612 6.2486 9.5458C6.11824 9.41548 6.04501 9.23874 6.04501 9.05444C6.04501 8.87014 6.11824 8.69339 6.2486 8.56308C6.37895 8.43276 6.55575 8.35955 6.7401 8.35955H10.9107C11.095 8.35955 11.2718 8.43276 11.4022 8.56308C11.5325 8.69339 11.6058 8.87014 11.6058 9.05444C11.6058 9.23874 11.5325 9.41548 11.4022 9.5458C11.2718 9.67612 11.095 9.74933 10.9107 9.74933ZM6.7401 13.4554C6.55575 13.4554 6.37895 13.3822 6.2486 13.2519C6.11824 13.1216 6.04501 12.9448 6.04501 12.7605C6.04501 12.5762 6.11824 12.3995 6.2486 12.2692C6.37895 12.1388 6.55575 12.0656 6.7401 12.0656H8.13029C8.31464 12.0656 8.49144 12.1388 8.6218 12.2692C8.75216 12.3995 8.82539 12.5762 8.82539 12.7605C8.82539 12.9448 8.75216 13.1216 8.6218 13.2519C8.49144 13.3822 8.31464 13.4554 8.13029 13.4554H6.7401ZM18.8162 17.8286L17.3797 16.3925C17.7425 15.8425 17.9358 15.1982 17.9358 14.5395C17.9387 13.7801 17.6879 13.0415 17.2233 12.4408C16.7586 11.84 16.1066 11.4116 15.3708 11.2233C14.6349 11.035 13.8572 11.0977 13.161 11.4015C12.4648 11.7052 11.89 12.2326 11.5276 12.9C11.1653 13.5674 11.0362 14.3366 11.1608 15.0857C11.2854 15.8348 11.6565 16.5209 12.2154 17.0352C12.7743 17.5494 13.4889 17.8625 14.246 17.9246C15.003 17.9868 15.7592 17.7945 16.3945 17.3783L17.831 18.8135C17.9628 18.9362 18.1371 19.0031 18.3172 18.9999C18.4972 18.9967 18.6691 18.9238 18.7964 18.7965C18.9238 18.6692 18.9967 18.4974 18.9999 18.3174C19.0031 18.1373 18.9362 17.9631 18.8134 17.8314L18.8162 17.8286ZM12.5326 14.5367C12.5324 14.1395 12.65 13.7513 12.8706 13.421C13.0912 13.0907 13.4048 12.8332 13.7717 12.6811C14.1387 12.529 14.5425 12.4891 14.9322 12.5664C15.3218 12.6438 15.6798 12.835 15.9607 13.1157C16.2417 13.3965 16.4331 13.7542 16.5106 14.1437C16.5882 14.5332 16.5485 14.9369 16.3965 15.3039C16.2445 15.6708 15.9871 15.9844 15.6568 16.2051C15.3265 16.4257 14.9382 16.5435 14.5409 16.5435C14.0086 16.543 13.4982 16.3315 13.1217 15.9552C12.7452 15.579 12.5333 15.0689 12.5326 14.5367Z" fill="#EA4335"/>
</svg>
