<svg width="26" height="26" viewBox="0 0 26 26" fill="none" xmlns="http://www.w3.org/2000/svg">
<g id="Group 33712">
<path id="Vector" d="M4.54991 4.54991L21.4501 21.4501M25 13C25 19.6274 19.6274 25 13 25C6.37258 25 1 19.6274 1 13C1 6.37258 6.37258 1 13 1C19.6274 1 25 6.37258 25 13ZM20.5685 8.61826V17.3817L15.7884 14.5934V11.4066L20.5685 8.61826ZM14.2946 18.1784H6.92531C6.1003 18.1784 5.43154 17.5097 5.43154 16.6846V9.31535C5.43154 8.49034 6.1003 7.82158 6.92531 7.82158H14.2946C15.1196 7.82158 15.7884 8.49034 15.7884 9.31535V16.6846C15.7884 17.5097 15.1196 18.1784 14.2946 18.1784Z" stroke="#EA4335" stroke-width="1.5" stroke-miterlimit="10" stroke-linecap="round" stroke-linejoin="round"/>
</g>
</svg>
