<svg width="24" height="24" viewBox="0 0 24 24" fill="none" xmlns="http://www.w3.org/2000/svg">
<g id="meeting_6096398 (1) 3" clip-path="url(#clip0_21_5721)">
<g id="Group">
<path id="Vector" d="M4.65937 0.112169C4.55156 0.171206 4.41562 0.312893 4.35469 0.419159C4.25156 0.602173 4.24219 0.673016 4.24219 1.33422C4.24219 1.9364 4.25625 2.07218 4.32656 2.16664C4.3875 2.2552 4.40625 2.38507 4.40625 2.70387V3.12893H3.40781C2.6625 3.12893 2.34844 3.15255 2.175 3.21749C1.91719 3.31195 1.60312 3.61894 1.4625 3.91412C1.41094 4.01448 1.13906 4.88822 0.857812 5.84462C0.360937 7.55077 0.351562 7.598 0.351562 8.088C0.351562 8.92042 0.39375 9.00307 1.41562 10.3078C2.29219 11.4236 2.29687 11.4295 2.29687 11.6951C2.29687 11.8368 2.24531 12.8818 2.17969 14.0212L2.0625 16.0875L1.49062 19.671C1.02656 22.6228 0.932812 23.2722 0.984375 23.3489C1.03594 23.4257 1.25156 23.4375 2.5125 23.4375C3.91875 23.4375 3.98437 23.4316 4.03125 23.3253C4.05469 23.2604 4.07812 23.1895 4.07812 23.1659C4.07812 23.1482 3.90937 22.9121 3.70781 22.6464L3.33281 22.1682L3.89062 19.364L4.44375 16.5597L4.52812 15.0366C4.575 14.2042 4.62656 13.5194 4.65 13.5194C4.66875 13.5194 4.6875 15.7214 4.6875 18.4076C4.6875 22.1328 4.70156 23.3135 4.74375 23.3667C4.78594 23.4198 5.17031 23.4375 6.1875 23.4375C7.93594 23.4375 7.94531 23.4316 7.3125 22.6405L6.9375 22.1682V21.6192C6.9375 21.3122 6.95625 21.076 6.975 21.0878C6.99844 21.0997 7.33594 21.2886 7.725 21.5188L8.43281 21.9262L8.44687 22.6346C8.46094 23.225 8.475 23.3489 8.54531 23.4021C8.60156 23.4493 8.64844 23.4493 8.70937 23.4021C8.775 23.3489 8.78906 23.2309 8.80312 22.735L8.81719 22.1387L9.04687 22.2863C9.3 22.4457 9.42187 22.4693 9.50156 22.3689C9.52969 22.3335 9.88594 21.3004 10.2937 20.0665L11.0391 17.829L11.0531 19.9957L11.0625 22.1623L10.6875 22.6405C10.0594 23.4375 10.0641 23.4375 11.8125 23.4375C12.8297 23.4375 13.2141 23.4198 13.2562 23.3667C13.2937 23.3194 13.3125 23.0242 13.3125 22.4221V21.5483H14.0625H14.8125V21.8612C14.8125 22.1682 14.8125 22.1741 14.4375 22.6405C13.8516 23.3726 13.8937 23.4375 14.9297 23.4375H15.6797L16.1812 22.8058L16.6828 22.1682L16.6969 18.8327L16.7109 15.4971L16.8375 15.1724C17.0766 14.5643 17.3672 14.2986 17.4844 14.5879C17.5266 14.6824 17.5219 14.7355 17.4609 14.8359C17.4234 14.9067 17.3344 15.0543 17.2734 15.1665C17.2078 15.2727 17.1375 15.4617 17.1094 15.5797C17.0812 15.7096 17.0625 17.0557 17.0625 19.0688V22.3512L16.8 22.67C16.4766 23.0715 16.4344 23.1659 16.5 23.3194C16.5469 23.4316 16.5984 23.4375 17.6859 23.4375C18.5109 23.4375 18.8391 23.4198 18.8812 23.3667C18.9187 23.3194 18.9375 23.0242 18.9375 22.4221V21.5424L20.2687 21.5601L21.6047 21.5778L21.7453 21.7491C21.825 21.8494 21.8906 21.9498 21.8906 21.9852C21.8906 22.0147 21.8203 22.1328 21.7406 22.245C21.6094 22.4103 21.5859 22.4811 21.5859 22.7291C21.5859 22.9829 21.6094 23.0479 21.7406 23.2132C21.8719 23.3785 21.9234 23.408 22.125 23.408C22.3266 23.408 22.3781 23.3785 22.5094 23.2132C22.6453 23.0479 22.6641 22.9829 22.6641 22.7232C22.6641 22.4457 22.65 22.4044 22.4719 22.2036C22.3687 22.0856 22.2656 21.9203 22.2469 21.8258C22.2047 21.5956 21.8812 21.2118 21.6703 21.141C21.5719 21.1056 21.0844 21.076 20.5922 21.076H19.6875V19.423V17.77H20.9437C21.8578 17.77 22.2141 17.7523 22.2562 17.6992C22.2937 17.6519 22.3125 17.4217 22.3125 17.0616C22.3125 16.4417 22.2844 16.3531 22.0594 16.3531C21.9328 16.3531 21.9281 16.3472 21.9937 16.2469C22.2141 15.9399 22.2844 15.627 22.3031 14.9362L22.3219 14.2514L22.4812 14.1215C22.5703 14.0507 22.7016 13.8854 22.7719 13.7555C22.8422 13.6256 22.9359 13.5253 22.9781 13.5194C23.0578 13.5194 23.0625 13.8027 23.0719 18.4253C23.0859 23.0301 23.0906 23.343 23.1703 23.4021C23.2266 23.4493 23.2734 23.4493 23.3344 23.4021C23.4094 23.343 23.4141 23.0301 23.4281 18.4312L23.4375 13.5253L23.5875 13.5076C23.7656 13.4839 23.8594 13.3304 23.7844 13.177C23.7422 13.1002 23.6531 13.0707 23.3859 13.0589L23.0391 13.0412L23.0531 11.1697C23.0672 9.2156 23.0531 9.00307 22.8656 8.70789C22.6641 8.38319 22.4672 8.32415 21.5766 8.32415H20.7656V7.96993C20.7656 7.69836 20.7891 7.56848 20.8641 7.44451C20.9531 7.29101 20.9578 7.21426 20.9437 6.60619C20.9297 6.00992 20.9156 5.90956 20.8172 5.73245C20.6391 5.41955 20.4 5.31329 19.8375 5.31329C19.1437 5.31329 18.9375 5.47859 18.9375 6.02763C18.9375 6.32872 19.0828 6.6298 19.2656 6.70065C19.35 6.73607 19.3594 6.7951 19.3594 7.23197C19.3594 7.78101 19.4109 7.98174 19.575 8.09391C19.6359 8.13523 19.6875 8.20017 19.6875 8.2474C19.6875 8.30644 19.5094 8.32415 18.8203 8.32415C18.1359 8.32415 17.9109 8.34186 17.775 8.41861C17.6109 8.50126 17.5969 8.50126 17.5547 8.4009C17.4328 8.11752 17.0719 7.7574 16.7812 7.62162C16.125 7.32053 15.9422 7.09029 15.7781 6.35823C15.6891 5.96269 15.4547 5.60257 15.1687 5.41365C14.8969 5.24244 14.2359 5.20112 13.9406 5.34281C13.6453 5.48449 13.4109 5.75606 13.2844 6.11028C13.1812 6.38185 13.1719 6.48221 13.1719 7.35595V8.30644L12.8062 8.34186C12.3703 8.37728 12.0094 8.5721 11.7422 8.91452C11.6437 9.03849 11.4562 9.41633 11.3156 9.75283L11.0672 10.3609L11.0625 9.00897V7.65704L11.3437 7.32643C11.5781 7.04896 11.625 6.96041 11.625 6.80101C11.625 6.53534 11.4469 6.31691 11.2312 6.31691C11.0906 6.31691 11.0672 6.29329 11.0391 6.1457C11.025 6.05124 10.9594 5.91546 10.8937 5.84462C10.8328 5.76787 10.7812 5.6616 10.7812 5.60257C10.7812 5.54943 10.9312 4.64617 11.1094 3.60123C11.2875 2.55628 11.4375 1.65302 11.4375 1.59399C11.4375 1.35194 11.2828 1.23386 10.6875 1.02724C10.3641 0.920969 10.0547 0.826511 9.99375 0.826511C9.93281 0.826511 9.81562 0.909163 9.73594 1.01543C9.63281 1.14531 9.53437 1.20435 9.40312 1.21615C9.30469 1.22796 9.17812 1.287 9.12656 1.34013C9.04219 1.44049 8.90625 1.72387 8.90625 1.80061C8.90625 1.82423 9.02344 1.98363 9.16875 2.16074C9.31406 2.33194 9.42187 2.50905 9.4125 2.55038C9.39844 2.5917 9.27656 3.25882 9.14062 4.02629C9 4.79967 8.87812 5.43136 8.86406 5.43136C8.85 5.43136 8.67187 5.0181 8.47031 4.51629C7.93125 3.16436 7.88906 3.13484 6.48281 3.12893H5.53125V2.98134C5.53125 2.89279 5.55937 2.83375 5.59687 2.83375C5.63437 2.83375 5.70937 2.76291 5.76094 2.68026C5.84062 2.55038 5.85937 2.43821 5.85937 2.03086C5.85937 1.55266 5.86406 1.52905 6.01875 1.31651C6.24844 0.98591 6.28125 0.873741 6.28125 0.419159V0H5.56875C4.96875 0 4.81875 0.0236149 4.65937 0.112169ZM5.36719 1.36965C5.47969 1.43459 5.48437 1.4582 5.48437 1.93049C5.48437 2.40869 5.47969 2.4205 5.37187 2.4205C5.20781 2.4205 5.16094 2.52676 5.14687 2.94592C5.12812 3.3946 5.03906 3.52448 4.87969 3.34147C4.79062 3.24111 4.78125 3.15845 4.78125 2.62122C4.78125 2.07218 4.77187 2.00134 4.6875 1.9364C4.51406 1.80061 4.57031 1.70025 4.8 1.74158C5.00625 1.7829 5.01094 1.777 5.11875 1.54085C5.175 1.41097 5.23125 1.2988 5.23594 1.2988C5.24062 1.2988 5.30156 1.32832 5.36719 1.36965ZM10.5703 1.47591C10.8047 1.55266 11.0062 1.62941 11.025 1.64712C11.0484 1.67664 10.8516 3.00496 10.8141 3.05219C10.8 3.064 10.4062 2.94592 10.0078 2.80424L9.76875 2.72158L9.7875 2.47363C9.80625 2.24929 9.79219 2.21387 9.58125 1.97772C9.32344 1.68844 9.31875 1.57627 9.57187 1.80652C9.7875 2.00134 9.90937 1.9364 9.96094 1.6117C9.99844 1.34013 10.0266 1.28109 10.0969 1.31651C10.125 1.32832 10.3406 1.39917 10.5703 1.47591ZM10.2656 3.37689C10.4859 3.44183 10.6781 3.51858 10.6969 3.53629C10.7156 3.554 10.65 4.0381 10.5562 4.59895L10.3781 5.63208L9.96094 5.76196C9.525 5.90365 9.34219 6.02763 9.24844 6.26377C9.20625 6.35823 9.1875 6.71245 9.1875 7.32643C9.1875 8.35367 9.19687 8.32415 8.86406 8.32415C8.5125 8.32415 8.20312 8.15885 7.95 7.83415C7.74844 7.57439 7.67344 7.40908 7.45781 6.74788C7.31719 6.31691 7.17187 5.95088 7.13437 5.93317C7.00312 5.87413 6.89531 5.96269 6.87187 6.15751C6.85781 6.26377 6.79219 7.15523 6.72656 8.14704C6.66094 9.13885 6.59531 10.0067 6.58125 10.0775C6.5625 10.2074 6.54375 10.2133 6.04687 10.2133H5.53125V9.6938C5.52656 9.41042 5.49844 8.20017 5.46562 6.99583C5.4 4.88232 5.40469 4.80557 5.48906 4.59304C5.60625 4.30376 5.60156 4.25653 5.43281 3.99677C5.18906 3.62484 5.24062 3.60123 6.37969 3.60123C7.3875 3.60123 7.53281 3.63075 7.72969 3.85509C7.79062 3.92593 8.03906 4.48678 8.28281 5.10666C8.75625 6.2992 8.82656 6.43498 8.95781 6.43498C9.00469 6.43498 9.06094 6.38775 9.08437 6.32872C9.1125 6.27558 9.25312 5.54353 9.40312 4.70521C9.66094 3.27062 9.67969 3.18207 9.76875 3.21159C9.825 3.2352 10.0453 3.30605 10.2656 3.37689ZM4.65937 3.70749C4.72969 3.81376 4.72969 3.83147 4.59375 4.044C4.51875 4.16798 4.45312 4.27424 4.45312 4.28015C4.45312 4.28605 4.48594 4.41593 4.52812 4.56943C4.59844 4.82328 4.59844 5.04762 4.55156 6.83643C4.52344 7.92861 4.48594 9.07982 4.47187 9.39271L4.44375 9.95356L4.21875 10.0126L3.98906 10.0716L3.41719 9.35139L2.84531 8.63114L2.925 7.14342C3.00937 5.59076 3.00469 5.4904 2.8125 5.4904C2.76562 5.4904 2.70937 5.52582 2.68125 5.56124C2.62969 5.6498 1.96875 8.00535 1.96875 8.11162C1.96875 8.14704 2.27344 8.5603 2.64844 9.03259L3.32812 9.88862L2.89687 10.4318L2.46094 10.9808L1.72031 10.0539C0.853125 8.96174 0.745312 8.76692 0.717187 8.21788C0.69375 7.83415 0.707812 7.76921 1.19531 6.08076C1.47187 5.12437 1.73906 4.25063 1.79062 4.15027C1.89375 3.93183 2.1 3.73111 2.2875 3.66026C2.35781 3.63075 2.90156 3.60713 3.49687 3.60713C4.49062 3.60123 4.58437 3.60713 4.65937 3.70749ZM10.5984 6.1398C10.6687 6.18703 10.6875 6.26377 10.6875 6.48811C10.6875 6.86595 10.7625 6.9486 11.0109 6.85414C11.1094 6.81872 11.2031 6.7892 11.2219 6.7892C11.2406 6.7892 11.1281 6.93679 10.9734 7.1198L10.6875 7.45041V9.47536C10.6875 11.1697 10.6969 11.5062 10.7578 11.5712C10.875 11.6951 10.9875 11.6066 11.1234 11.2937L11.2547 10.9867L11.6625 11.2878C11.8875 11.4472 12.0797 11.5889 12.0891 11.6007C12.1312 11.6597 11.7187 12.498 11.5594 12.6692C10.9641 13.3127 10.0687 13.0825 9.68906 12.191C9.58594 11.9608 9.58594 11.8959 9.57187 9.2156C9.5625 7.5921 9.57656 6.45269 9.6 6.42317C9.62812 6.38775 9.83437 6.3051 10.0594 6.22835C10.2891 6.15161 10.4812 6.08667 10.4906 6.08667C10.5 6.08076 10.5469 6.11028 10.5984 6.1398ZM14.4094 6.71836C14.4469 7.03125 14.5875 7.18475 14.7469 7.09619C14.8078 7.05486 14.8828 7.02535 14.9062 7.02535C14.9766 7.02535 14.9625 7.17884 14.8828 7.26149C14.8266 7.32053 14.8125 7.47993 14.8125 7.99355C14.8125 8.71379 14.8359 8.79644 15.0609 8.79644C15.1969 8.79644 15.2016 8.80235 15.1734 9.06801C15.1312 9.56392 14.7141 9.88271 14.3906 9.67018C14.2266 9.55801 14.0625 9.22151 14.0625 8.99717C14.0625 8.81415 14.0766 8.79644 14.1984 8.79644C14.4 8.79644 14.4422 8.68427 14.4281 8.19427C14.4141 7.76921 14.4141 7.7633 14.2734 7.73378L14.1328 7.70427L14.1187 7.17294C14.1047 6.68884 14.1141 6.6298 14.2078 6.54125C14.3344 6.40546 14.3719 6.44089 14.4094 6.71836ZM20.0766 6.84824C20.175 7.03715 20.2031 7.05486 20.3812 7.03715C20.6016 7.01944 20.6391 7.108 20.4844 7.2792C20.4047 7.36776 20.3906 7.45041 20.3906 7.92861C20.3906 8.39499 20.3766 8.50126 20.3016 8.58391C20.2219 8.67247 20.2125 8.67247 20.1516 8.58391C20.1141 8.53078 20.0766 8.32415 20.0625 8.12343C20.0391 7.78101 20.0344 7.7633 19.8984 7.73378L19.7578 7.70427L19.7437 7.23197C19.7344 6.83643 19.7437 6.74788 19.8141 6.68884C19.9172 6.58848 19.9406 6.60028 20.0766 6.84824ZM7.67344 8.15885C7.98281 8.55439 8.3625 8.76102 8.8125 8.76102L9.16406 8.76692L9.1875 10.3904C9.21094 11.9136 9.21562 12.0316 9.31406 12.2973C9.375 12.4567 9.48281 12.6869 9.5625 12.8168L9.70781 13.0471L8.7375 13.0589C7.875 13.0766 7.7625 13.0884 7.71562 13.1829C7.67812 13.2537 7.67812 13.3127 7.71562 13.3895C7.75781 13.4662 7.84687 13.4957 8.10469 13.5076L8.4375 13.5253V16.0166V18.508L8.175 19.3049C8.025 19.7418 7.89375 20.1256 7.87031 20.1551C7.85156 20.1846 7.63125 20.3086 7.3875 20.4266L6.9375 20.651V15.5325C6.9375 10.3373 6.95625 9.59934 7.15312 7.49764L7.18125 7.17294L7.32187 7.52716C7.40156 7.72198 7.55625 8.00535 7.67344 8.15885ZM2.50781 7.95222C2.48437 8.10571 2.46562 8.14704 2.42812 8.09981C2.39062 8.05258 2.39062 7.96403 2.44219 7.78101C2.51719 7.49764 2.55937 7.60981 2.50781 7.95222ZM13.6875 8.97945C13.6875 9.94175 14.5219 10.5262 15.1453 10.0067C15.3797 9.81187 15.5156 9.51078 15.5484 9.11524L15.5766 8.79054L16.2469 8.80825L16.9219 8.82596L17.0719 9.02078L17.2266 9.2097L17.2406 10.4199L17.2547 11.6302H16.6922H16.1297L16.1156 10.7387C16.1016 9.95946 16.0922 9.83548 16.0219 9.77645C15.9609 9.72922 15.9141 9.72922 15.8578 9.77645C15.7828 9.83548 15.7734 9.99488 15.7594 11.4472L15.75 13.0471H14.3437H12.9375V11.9667V10.8863L12.8016 10.6915C12.5672 10.3668 12.5672 10.048 12.8016 9.67018C12.9516 9.43404 12.9656 9.32777 12.8812 9.22151C12.7828 9.09753 12.6656 9.14476 12.5016 9.39271C12.2344 9.78235 12.1781 10.3609 12.3703 10.7387C12.4219 10.8332 12.3047 11.1815 12.2344 11.1461C12.0937 11.0812 11.4375 10.5852 11.4375 10.5498C11.4375 10.5203 11.5453 10.231 11.6812 9.90633C12.0469 9.00307 12.3094 8.80825 13.1859 8.80235L13.6875 8.79644V8.97945ZM19.9078 8.95584C19.9687 9.06801 19.9594 9.09753 19.8234 9.29825L19.6734 9.51078L19.7531 9.84139C19.8187 10.1071 19.8328 10.2724 19.8047 10.6915C19.7859 10.9808 19.7625 11.2169 19.7531 11.2169C19.7391 11.2169 19.65 11.1638 19.5516 11.1048C19.3875 10.9985 19.3687 10.9572 19.3172 10.6325C19.2516 10.2074 19.125 9.99488 18.9187 9.94175C18.7641 9.90633 18.4687 10.0421 18.4687 10.1425C18.4687 10.172 18.4406 10.2369 18.4078 10.296C18.3562 10.3845 18.3281 10.3904 18.225 10.3255C18.0469 10.2251 17.8312 10.3491 17.7187 10.6207L17.6297 10.8332V10.0362C17.6297 8.78463 17.6156 8.79644 18.9094 8.81415C19.8047 8.82596 19.8422 8.83186 19.9078 8.95584ZM22.4297 8.86729C22.6641 8.99717 22.6875 9.15656 22.6875 10.4495V11.6302H22.2187H21.7547L21.7406 10.7387C21.7266 9.95946 21.7172 9.83548 21.6469 9.77645C21.5859 9.72922 21.5391 9.72922 21.4828 9.77645C21.4078 9.83548 21.3984 9.97127 21.3844 11.0044C21.3797 11.642 21.3609 12.1615 21.3516 12.1615C21.3375 12.1615 21.1828 12.0789 21.0094 11.9785L20.6859 11.8014L20.6531 10.9454C20.625 10.1602 20.6344 10.0716 20.7187 9.8591C20.8406 9.55211 20.8406 9.5344 20.6484 9.25102C20.4937 9.02668 20.4891 9.00307 20.5641 8.90271C20.6297 8.80825 20.7281 8.79644 21.4734 8.79644C22.0219 8.79644 22.35 8.82006 22.4297 8.86729ZM4.12969 10.5203C4.50937 10.4081 4.5375 10.4258 4.36875 10.6443C4.28437 10.7506 4.21875 10.8745 4.21875 10.9218C4.21875 10.969 4.28437 11.093 4.36875 11.1992L4.51875 11.394L4.0875 11.9431L3.65625 12.4862L3.1875 11.8959L2.71875 11.3055L3.15 10.7624L3.58125 10.2133L3.73594 10.4022C3.88594 10.5852 3.89062 10.5852 4.12969 10.5203ZM18.9187 10.5498C18.9328 10.6443 18.9703 10.845 19.0031 11.0103L19.0547 11.3055L19.7156 11.7188C20.0766 11.949 20.6437 12.2914 20.9719 12.4862C21.6703 12.8936 21.7172 12.8877 21.7406 12.4036L21.7547 12.1025H22.2234H22.6875V12.4803C22.6875 13.1002 22.8234 13.0471 21.2344 13.0471H19.8422L18.7922 12.4213C18.2156 12.073 17.7328 11.7837 17.7234 11.766C17.7 11.7424 18.0516 10.8037 18.0844 10.8037C18.0937 10.8037 18.2062 10.8509 18.3234 10.904C18.6047 11.028 18.6844 10.9867 18.7266 10.7033C18.7781 10.3373 18.8672 10.2724 18.9187 10.5498ZM12.5625 12.3091V13.0471H12.1828H11.8031L11.9578 12.8227C12.0469 12.7047 12.2109 12.3682 12.3281 12.0848C12.4453 11.8014 12.5437 11.5712 12.5531 11.5712C12.5578 11.5712 12.5625 11.9018 12.5625 12.3091ZM17.25 12.5748V13.0471H16.6875H16.125V12.5748V12.1025H16.6875H17.25V12.5748ZM17.8359 12.3622C17.9906 12.4449 18 12.4626 18 12.746V13.0471H17.8125H17.625V12.6633C17.625 12.4508 17.6344 12.2796 17.6484 12.2796C17.6625 12.2796 17.7469 12.3209 17.8359 12.3622ZM18.9328 13.0235C18.9422 13.0353 18.825 13.0471 18.6656 13.0471C18.375 13.0471 18.375 13.0471 18.375 12.8759V12.6988L18.6469 12.8523C18.7922 12.9349 18.9234 13.0176 18.9328 13.0235ZM12.5625 13.7555V13.9917H11.8219C10.7437 13.9917 10.3172 14.1629 9.84844 14.7886C9.59062 15.1311 9.4875 15.3672 9.14062 16.4122C9.00469 16.8195 8.87812 17.1914 8.85469 17.2387C8.83125 17.2918 8.8125 16.5302 8.8125 15.4203V13.5194H10.6875H12.5625V13.7555ZM15.75 13.7555V13.9917H14.3437H12.9375V13.7555V13.5194H14.3437H15.75V13.7555ZM17.25 13.7555V13.9917H16.6875H16.125V13.7555V13.5194H16.6875H17.25V13.7555ZM18 13.7732C18 14.0212 17.9953 14.0271 17.8125 14.092L17.625 14.1511V13.8382V13.5194H17.8125H18V13.7732ZM19.6875 13.7555V13.9917H19.0312H18.375V13.7555V13.5194H19.0312H19.6875V13.7555ZM22.2797 13.6965C22.1016 13.9031 21.7969 14.0153 21.5391 13.9739C21.4359 13.9621 21.1922 13.85 21 13.7378L20.6484 13.5312L21.5391 13.5253H22.4297L22.2797 13.6965ZM15.9094 14.3282C15.9469 14.4403 15.9 14.6411 15.8391 14.6411C15.7547 14.6411 15.4125 15.0838 15.3187 15.3141C15.2578 15.4676 15.2109 15.7273 15.1922 16.0225C15.1594 16.5302 15.0844 16.6837 14.9203 16.5538C14.85 16.5007 14.8359 16.4003 14.8359 15.993C14.8406 15.3908 14.9672 14.9835 15.2859 14.5879C15.5953 14.1983 15.8391 14.0979 15.9094 14.3282ZM11.9578 14.3577C12.0047 14.4699 11.9859 14.5112 11.7469 14.7768C11.3297 15.2373 11.2828 15.3967 11.25 16.4358C11.2312 17.1855 11.2125 17.3213 11.1422 17.3804C11.0859 17.4276 11.0391 17.4276 10.9781 17.3804C10.9078 17.3213 10.8984 17.2091 10.8984 16.4358C10.8984 15.4617 10.95 15.1901 11.2031 14.7886C11.5219 14.2868 11.8453 14.0979 11.9578 14.3577ZM14.8125 17.0616V17.2977H14.0625H13.3125V17.0616V16.8254H14.0625H14.8125V17.0616ZM21.9375 17.0616V17.2977H20.4375H18.9375V17.0616V16.8254H20.4375H21.9375V17.0616ZM14.0625 19.423V21.076H13.6875H13.3125V19.423V17.77H13.6875H14.0625V19.423ZM14.8125 19.423V21.076H14.625H14.4375V19.423V17.77H14.625H14.8125V19.423ZM19.3125 19.423V21.076H19.125H18.9375V19.423V17.77H19.125H19.3125V19.423Z" fill="black"/>
</g>
</g>
<defs>
<clipPath id="clip0_21_5721">
<rect width="24" height="24" fill="white"/>
</clipPath>
</defs>
</svg>
