<svg width="128" height="128" viewBox="0 0 128 128" fill="none" xmlns="http://www.w3.org/2000/svg">
<g id="Group 67">
<g id="Ellipse 155" filter="url(#filter0_d_94_7182)">
<circle cx="64" cy="60" r="20" fill="white"/>
<circle cx="64" cy="60" r="19.5" stroke="#EAEAEA"/>
</g>
<path id="Vector" d="M71.6272 55.8389H67.7135C67.9381 55.5091 68.0707 55.1111 68.0707 54.6818V54.419C68.0707 54.1727 67.8731 53.9728 67.6287 53.9728H67.4969V53.8559C67.4969 52.3699 66.5656 51.1026 65.2629 50.6082C65.2934 50.4984 65.3147 50.386 65.3147 50.2686C65.3147 49.5689 64.7511 49 64.0575 49C63.3649 49 62.8009 49.5689 62.8009 50.2686C62.8009 50.3855 62.8221 50.4984 62.8526 50.6078C61.5499 51.1022 60.6186 52.3695 60.6186 53.8554V53.9723H60.4869C60.2429 53.9723 60.0448 54.1722 60.0448 54.4186V54.6814C60.0448 55.1107 60.1775 55.5087 60.402 55.8385H58.2869V53.5783C58.2869 52.6372 57.5284 51.871 56.5957 51.871H53.1042C52.4955 51.871 52 52.3713 52 52.9857C52 53.6002 52.4955 54.1004 53.1042 54.1004H56.0458V55.8844C54.9483 56.0946 54.1146 57.0669 54.1146 58.2352V64.0687C54.1146 64.7421 54.4351 65.336 54.9244 65.7216V68.9134C54.9244 69.1602 55.1225 69.3597 55.3665 69.3597H57.0541C57.2574 70.2959 58.0831 71 59.0706 71C60.0581 71 60.8834 70.2959 61.0867 69.3597H67.0279C67.2313 70.2959 68.057 71 69.0445 71C70.0319 71 70.8576 70.2959 71.0605 69.3597H72.7482C72.9926 69.3597 73.1902 69.1602 73.1902 68.9134V65.8478C73.6786 65.5109 74 64.9451 74 64.3043V58.2347C74.0004 56.9134 72.936 55.8389 71.6272 55.8389ZM63.6849 50.2686C63.6849 50.0611 63.852 49.8925 64.0575 49.8925C64.2631 49.8925 64.4306 50.0611 64.4306 50.2686C64.4306 50.3159 64.4191 50.3601 64.4032 50.4012C64.2896 50.3896 64.1742 50.3833 64.0575 50.3833C63.9408 50.3833 63.8259 50.3896 63.7123 50.4012C63.6964 50.3601 63.6849 50.3159 63.6849 50.2686ZM61.5022 53.8559C61.5022 52.4333 62.6484 51.2762 64.0571 51.2762C65.4663 51.2762 66.6124 52.4333 66.6124 53.8559V53.9728H61.5022V53.8559ZM60.943 54.8652H67.1725C67.085 55.4163 66.6107 55.8389 66.0405 55.8389H62.0746C61.5044 55.8389 61.0301 55.4163 60.943 54.8652ZM53.1042 53.2075C52.9831 53.2075 52.884 53.108 52.884 52.9853C52.884 52.8626 52.9826 52.7631 53.1042 52.7631H56.5953C57.0404 52.7631 57.4024 53.1285 57.4024 53.5779V55.8385H56.9303V53.6533C56.9303 53.407 56.7323 53.207 56.4883 53.207L53.1042 53.2075ZM54.9987 58.2347C54.9987 57.4061 55.6666 56.7314 56.4879 56.7314H71.6272C72.4481 56.7314 73.1164 57.4056 73.1164 58.2347V64.3039C73.1164 64.8425 72.6828 65.2802 72.1492 65.2802H71.6829C71.1494 65.2802 70.7158 64.8425 70.7158 64.3039C70.7158 63.6988 70.5129 63.1423 70.1756 62.6943V61.0558C70.1756 60.809 69.978 60.6095 69.7336 60.6095C69.4891 60.6095 69.2916 60.809 69.2916 61.0558V61.9389C68.9264 61.7465 68.5127 61.6359 68.0729 61.6359C67.7701 61.6359 67.4806 61.6899 67.2096 61.7849V59.56C67.2096 59.3137 67.012 59.1138 66.7676 59.1138C66.5232 59.1138 66.3256 59.3137 66.3256 59.56V62.3075C65.7779 62.7965 65.43 63.5091 65.43 64.3039C65.43 64.8425 64.9964 65.2802 64.4629 65.2802H63.8865C63.2243 65.2802 62.6859 64.7363 62.6859 64.0683C62.6859 62.7269 61.6047 61.6354 60.276 61.6354H59.8097C59.7089 61.6354 59.6103 61.6435 59.5131 61.656V59.8831C59.5131 59.6368 59.3151 59.4369 59.0711 59.4369C58.8271 59.4369 58.629 59.6368 58.629 59.8831V61.95C57.8966 62.3681 57.4002 63.1602 57.4002 64.0683C57.4002 64.7363 56.8618 65.2802 56.1997 65.2802C55.538 65.2802 54.9996 64.7363 54.9996 64.0683V58.2347H54.9987ZM59.0706 70.1066C58.42 70.1066 57.8904 69.573 57.8887 68.9161C57.8887 68.9148 57.8895 68.9139 57.8895 68.9125C57.8895 68.9112 57.8887 68.9103 57.8887 68.909C57.8909 68.2526 58.42 67.7189 59.0706 67.7189C59.7226 67.7189 60.253 68.2544 60.253 68.9125C60.253 69.5712 59.7226 70.1066 59.0706 70.1066ZM69.0449 70.1066C68.3925 70.1066 67.862 69.5712 67.862 68.9125C67.862 68.2544 68.3925 67.7189 69.0449 67.7189C69.6956 67.7189 70.2256 68.253 70.2269 68.9094C70.2269 68.9103 70.2264 68.9112 70.2264 68.9121C70.2264 68.913 70.2269 68.9139 70.2269 68.9148C70.2251 69.5725 69.6956 70.1066 69.0449 70.1066ZM72.3066 68.4663H71.061C70.8576 67.5301 70.0324 66.8264 69.0449 66.8264C68.0574 66.8264 67.2317 67.5301 67.0284 68.4663H61.0867C60.8834 67.5301 60.0577 66.8264 59.0706 66.8264C58.0831 66.8264 57.2574 67.5301 57.0541 68.4663H55.8085V66.1325C55.9353 66.1571 56.0653 66.1722 56.1992 66.1722C57.3485 66.1722 58.2838 65.2285 58.2838 64.0678C58.2838 63.2187 58.9681 62.5274 59.8097 62.5274H60.276C61.1172 62.5274 61.8019 63.2187 61.8019 64.0678C61.8019 65.2285 62.7372 66.1722 63.8865 66.1722H64.4629C65.484 66.1722 66.3141 65.3338 66.3141 64.3034C66.3141 63.3244 67.1031 62.5279 68.0729 62.5279C69.0423 62.5279 69.8317 63.3244 69.8317 64.3034C69.8317 65.3342 70.6623 66.1722 71.6829 66.1722H72.1492C72.2032 66.1722 72.254 66.1606 72.3066 66.1562V68.4663Z" fill="#EA4335"/>
</g>
<defs>
<filter id="filter0_d_94_7182" x="0" y="0" width="128" height="128" filterUnits="userSpaceOnUse" color-interpolation-filters="sRGB">
<feFlood flood-opacity="0" result="BackgroundImageFix"/>
<feColorMatrix in="SourceAlpha" type="matrix" values="0 0 0 0 0 0 0 0 0 0 0 0 0 0 0 0 0 0 127 0" result="hardAlpha"/>
<feOffset dy="4"/>
<feGaussianBlur stdDeviation="22"/>
<feComposite in2="hardAlpha" operator="out"/>
<feColorMatrix type="matrix" values="0 0 0 0 0 0 0 0 0 0 0 0 0 0 0 0 0 0 0.12 0"/>
<feBlend mode="normal" in2="BackgroundImageFix" result="effect1_dropShadow_94_7182"/>
<feBlend mode="normal" in="SourceGraphic" in2="effect1_dropShadow_94_7182" result="shape"/>
</filter>
</defs>
</svg>
