<svg width="28" height="28" viewBox="0 0 28 28" fill="none" xmlns="http://www.w3.org/2000/svg">
<g id="Group 54">
<circle id="Ellipse 154" cx="14" cy="14" r="13.5" fill="white" stroke="#E1E1E1"/>
<path id="Vector" d="M14.5 8C13.0419 8.00158 11.644 8.57161 10.6129 9.58504C9.58179 10.5985 9.00175 11.9725 9 13.4058C9 14.7979 10.0966 16.9765 12.2594 19.8809C12.5169 20.2276 12.8541 20.5097 13.2434 20.7042C13.6327 20.8986 14.0633 21 14.5 21C14.9367 21 15.3673 20.8986 15.7566 20.7042C16.1459 20.5097 16.4831 20.2276 16.7406 19.8809C18.9034 16.9765 20 14.7979 20 13.4058C19.9983 11.9725 19.4182 10.5985 18.3871 9.58504C17.356 8.57161 15.9581 8.00158 14.5 8ZM14.5 15.5606C14.0641 15.5606 13.6379 15.4335 13.2754 15.1954C12.9129 14.9573 12.6304 14.619 12.4636 14.2231C12.2968 13.8271 12.2531 13.3915 12.3382 12.9712C12.4232 12.5509 12.6331 12.1649 12.9414 11.8618C13.2497 11.5588 13.6424 11.3525 14.07 11.2689C14.4976 11.1853 14.9407 11.2282 15.3435 11.3922C15.7463 11.5562 16.0905 11.8339 16.3327 12.1902C16.5749 12.5465 16.7042 12.9654 16.7042 13.3939C16.7042 13.9685 16.472 14.5196 16.0586 14.926C15.6452 15.3323 15.0846 15.5606 14.5 15.5606Z" fill="#EA4335"/>
</g>
</svg>
