<svg width="114" height="22" viewBox="0 0 114 22" fill="none" xmlns="http://www.w3.org/2000/svg">
<g id="Group 3">
<path id="Vector" d="M20.8603 14.8481L18.4778 6.26128C17.9691 4.42445 16.8606 2.81055 15.3287 1.67647C13.7968 0.54238 11.9296 -0.0467301 10.0243 0.00289743C8.11895 0.052525 6.28496 0.738038 4.8142 1.95033C3.34345 3.16263 2.32045 4.83204 1.90802 6.69287L0.0652998 14.9856C-0.0238648 15.3873 -0.0216899 15.804 0.0716639 16.2048C0.165018 16.6056 0.347168 16.9803 0.604677 17.3013C0.862186 17.6223 1.18848 17.8814 1.55949 18.0595C1.9305 18.2375 2.33675 18.33 2.74828 18.3301H6.05345C6.26376 19.3658 6.82566 20.297 7.64394 20.9658C8.46223 21.6346 9.48657 22 10.5434 22C11.6003 22 12.6246 21.6346 13.4429 20.9658C14.2612 20.297 14.8231 19.3658 15.0334 18.3301H18.213C18.6364 18.3299 19.0541 18.2319 19.4334 18.0437C19.8128 17.8556 20.1435 17.5823 20.3998 17.2452C20.6561 16.9082 20.8311 16.5165 20.9112 16.1007C20.9912 15.6849 20.9732 15.2562 20.8603 14.8481ZM10.5434 20.1628C9.97689 20.1604 9.42493 19.9831 8.96304 19.655C8.50115 19.327 8.1519 18.8643 7.96306 18.3301H13.1238C12.9349 18.8643 12.5857 19.327 12.1238 19.655C11.6619 19.9831 11.1099 20.1604 10.5434 20.1628ZM18.9415 16.1355C18.856 16.2489 18.7452 16.3406 18.6179 16.4035C18.4906 16.4663 18.3504 16.4985 18.2084 16.4975H2.74828C2.61107 16.4975 2.47562 16.4666 2.35193 16.4073C2.22823 16.3479 2.11945 16.2615 2.0336 16.1545C1.94776 16.0474 1.88705 15.9225 1.85596 15.7888C1.82487 15.6552 1.82418 15.5163 1.85396 15.3823L3.69667 7.08964C4.02137 5.62921 4.82494 4.31924 5.97964 3.36796C7.13434 2.41668 8.5739 1.87868 10.0695 1.8395C11.565 1.80032 13.0308 2.26221 14.2337 3.15172C15.4366 4.04124 16.3077 5.30735 16.7084 6.74876L19.0908 15.3356C19.1297 15.4714 19.1365 15.6144 19.1106 15.7532C19.0847 15.892 19.0268 16.0229 18.9415 16.1355Z" fill="#EA4335"/>
<g id="Vector_2">
<path d="M67.9791 10.3214C67.8466 8.17859 67.09 6.12135 65.8025 4.40332C64.515 2.68529 62.7529 1.38159 60.7334 0.652927C58.7139 -0.075734 56.5253 -0.197496 54.4374 0.302653C52.3496 0.802801 50.4537 1.90299 48.9836 3.4676C47.5135 5.03221 46.5333 6.99282 46.164 9.10775C45.7947 11.2227 46.0523 13.3994 46.9052 15.3697C47.758 17.34 49.1688 19.0176 50.9636 20.1957C52.7584 21.3739 54.8587 22.0011 57.0056 22H63.4003C64.6143 21.9988 65.7782 21.516 66.6366 20.6576C67.495 19.7992 67.9778 18.6352 67.9791 17.4212V10.3214ZM66.1476 17.4212C66.1476 18.1499 65.8581 18.8486 65.3429 19.3638C64.8277 19.8791 64.1289 20.1685 63.4003 20.1685H57.0056C55.7134 20.1679 54.4359 19.895 53.2562 19.3675C52.0766 18.84 51.0214 18.0698 50.1595 17.1071C49.2933 16.1449 48.6429 15.0087 48.2519 13.7745C47.8608 12.5404 47.7381 11.2369 47.8921 9.95147C48.1351 7.92394 49.0461 6.03497 50.4813 4.58235C51.9165 3.12973 53.7943 2.19607 55.8188 1.92857C56.2137 1.87908 56.6113 1.854 57.0093 1.85348C59.1434 1.84766 61.2115 2.59332 62.8508 3.95971C63.8083 4.75544 64.5942 5.73732 65.1609 6.84581C65.7275 7.95431 66.0632 9.16634 66.1476 10.4084V17.4212Z" fill="#EA4335"/>
<path d="M53.327 8.26373H56.99C57.2329 8.26373 57.4658 8.16725 57.6376 7.99552C57.8093 7.82378 57.9058 7.59086 57.9058 7.34798C57.9058 7.10511 57.8093 6.87219 57.6376 6.70045C57.4658 6.52871 57.2329 6.43223 56.99 6.43223H53.327C53.0842 6.43223 52.8512 6.52871 52.6795 6.70045C52.5078 6.87219 52.4113 7.10511 52.4113 7.34798C52.4113 7.59086 52.5078 7.82378 52.6795 7.99552C52.8512 8.16725 53.0842 8.26373 53.327 8.26373Z" fill="#EA4335"/>
<path d="M60.653 10.0952H53.327C53.0842 10.0952 52.8512 10.1917 52.6795 10.3635C52.5078 10.5352 52.4113 10.7681 52.4113 11.011C52.4113 11.2539 52.5078 11.4868 52.6795 11.6585C52.8512 11.8303 53.0842 11.9267 53.327 11.9267H60.653C60.8959 11.9267 61.1288 11.8303 61.3006 11.6585C61.4723 11.4868 61.5688 11.2539 61.5688 11.011C61.5688 10.7681 61.4723 10.5352 61.3006 10.3635C61.1288 10.1917 60.8959 10.0952 60.653 10.0952Z" fill="#EA4335"/>
<path d="M60.653 13.7582H53.327C53.0842 13.7582 52.8512 13.8547 52.6795 14.0265C52.5078 14.1982 52.4113 14.4311 52.4113 14.674C52.4113 14.9169 52.5078 15.1498 52.6795 15.3215C52.8512 15.4933 53.0842 15.5897 53.327 15.5897H60.653C60.8959 15.5897 61.1288 15.4933 61.3006 15.3215C61.4723 15.1498 61.5688 14.9169 61.5688 14.674C61.5688 14.4311 61.4723 14.1982 61.3006 14.0265C61.1288 13.8547 60.8959 13.7582 60.653 13.7582Z" fill="#EA4335"/>
</g>
<path id="Vector_3" d="M113.513 8.40725C113.337 7.84671 112.985 7.35773 112.51 7.01261C112.034 6.66749 111.46 6.48456 110.873 6.49087H107.111L105.969 2.93016C105.789 2.36968 105.436 1.88073 104.961 1.53383C104.485 1.18693 103.912 1 103.323 1C102.735 1 102.162 1.18693 101.686 1.53383C101.211 1.88073 100.858 2.36968 100.678 2.93016L99.5355 6.49087H95.7742C95.1886 6.49171 94.6182 6.67759 94.1445 7.02197C93.6708 7.36635 93.3181 7.85161 93.1366 8.40845C92.9552 8.96528 92.9544 9.5652 93.1344 10.1225C93.3143 10.6798 93.6657 11.166 94.1385 11.5117L97.1998 13.75L96.0359 17.3547C95.8478 17.9137 95.8454 18.5186 96.0291 19.0791C96.2128 19.6397 96.5727 20.1258 97.0552 20.4651C97.5294 20.8153 98.1041 21.0029 98.6937 21C99.2832 20.997 99.856 20.8037 100.327 20.4488L103.323 18.2431L106.321 20.4462C106.795 20.7944 107.366 20.9835 107.954 20.9863C108.541 20.9892 109.115 20.8057 109.592 20.4621C110.068 20.1185 110.424 19.6326 110.607 19.0743C110.79 18.5159 110.792 17.9139 110.611 17.3547L109.447 13.75L112.512 11.5117C112.99 11.1704 113.346 10.6842 113.526 10.1251C113.706 9.56594 113.702 8.96362 113.513 8.40725ZM111.496 10.1213L107.928 12.729C107.782 12.8359 107.673 12.9863 107.617 13.1589C107.561 13.3314 107.561 13.5172 107.617 13.6898L108.973 17.8824C109.041 18.095 109.041 18.324 108.971 18.5363C108.901 18.7486 108.766 18.9333 108.585 19.0639C108.404 19.1945 108.185 19.2642 107.962 19.2631C107.739 19.2619 107.521 19.19 107.341 19.0575L103.833 16.4748C103.685 16.3663 103.507 16.3077 103.323 16.3077C103.14 16.3077 102.962 16.3663 102.814 16.4748L99.3056 19.0575C99.1258 19.1918 98.9078 19.2652 98.6834 19.2672C98.459 19.2693 98.2398 19.1998 98.0575 19.0688C97.8752 18.9379 97.7394 18.7523 97.6697 18.539C97.6 18.3257 97.6001 18.0957 97.6699 17.8824L99.0301 13.6898C99.086 13.5172 99.086 13.3314 99.03 13.1589C98.9741 12.9863 98.865 12.8359 98.7185 12.729L95.1509 10.1213C94.9712 9.98977 94.8377 9.8048 94.7695 9.59284C94.7012 9.38088 94.7017 9.15278 94.7708 8.9411C94.8399 8.72942 94.9742 8.545 95.1544 8.41418C95.3346 8.28337 95.5515 8.21284 95.7742 8.21269H100.165C100.347 8.21268 100.525 8.15483 100.672 8.04746C100.819 7.94009 100.929 7.78874 100.984 7.61522L102.319 3.45618C102.387 3.24335 102.522 3.05774 102.702 2.92607C102.883 2.7944 103.101 2.72346 103.324 2.72346C103.548 2.72346 103.766 2.7944 103.946 2.92607C104.127 3.05774 104.261 3.24335 104.33 3.45618L105.664 7.61522C105.72 7.78874 105.829 7.94009 105.977 8.04746C106.124 8.15483 106.302 8.21268 106.484 8.21269H110.874C111.097 8.21284 111.314 8.28337 111.494 8.41418C111.675 8.545 111.809 8.72942 111.878 8.9411C111.947 9.15278 111.947 9.38088 111.879 9.59284C111.811 9.8048 111.677 9.98977 111.498 10.1213H111.496Z" fill="#EA4335"/>
</g>
</svg>
