<svg width="16" height="16" viewBox="0 0 16 16" fill="none" xmlns="http://www.w3.org/2000/svg">
<g id="hexagon-check (1) 1" clip-path="url(#clip0_1390_159)">
<path id="Vector" d="M15.5707 6.32008L13.2367 2.32008C12.6413 1.30008 11.5387 0.666748 10.358 0.666748H5.64334C4.46267 0.666748 3.35934 1.30075 2.76401 2.32008L0.430673 6.32008C-0.173994 7.35608 -0.173994 8.64341 0.430673 9.67941L2.76401 13.6794C3.35934 14.6994 4.46201 15.3327 5.64334 15.3327H10.358C11.5387 15.3327 12.642 14.6987 13.2373 13.6794L15.5707 9.67941C16.1747 8.64341 16.1747 7.35608 15.5707 6.32008ZM12.1333 7.00741L9.18267 9.90408C8.66067 10.4161 7.98867 10.6714 7.31667 10.6714C6.65134 10.6714 5.98534 10.4207 5.46534 9.91875L4.19934 8.67342C3.93667 8.41542 3.93334 7.99341 4.19134 7.73075C4.44934 7.46741 4.87067 7.46408 5.13401 7.72275L6.39601 8.96342C6.91467 9.46342 7.73067 9.46075 8.25001 8.95142L11.2 6.05542C11.462 5.79675 11.8827 5.80141 12.1427 6.06408C12.4007 6.32675 12.3967 6.74941 12.1333 7.00741Z" fill="#4B93FF"/>
</g>
<defs>
<clipPath id="clip0_1390_159">
<rect width="16" height="16" fill="white"/>
</clipPath>
</defs>
</svg>
