<svg width="45" height="45" viewBox="0 0 45 45" fill="none" xmlns="http://www.w3.org/2000/svg">
<path d="M15.9661 24.2441H4.78982C2.14448 24.2441 0 26.3886 0 29.0339V40.2102C0 42.8555 2.14448 45 4.78982 45H15.9661C18.6114 45 20.7559 42.8555 20.7559 40.2102V29.0339C20.7559 26.3886 18.6114 24.2441 15.9661 24.2441Z" fill="white"/>
<path d="M34.3271 45C40.0587 45 44.705 40.3536 44.705 34.622C44.705 28.8905 40.0587 24.2441 34.3271 24.2441C28.5955 24.2441 23.9491 28.8905 23.9491 34.622C23.9491 40.3536 28.5955 45 34.3271 45Z" fill="white"/>
<path d="M15.2939 21.0509H29.4111C30.2632 21.0508 31.0999 20.8235 31.8349 20.3922C32.5698 19.961 33.1764 19.3415 33.5921 18.5977C34.0078 17.8538 34.2175 17.0126 34.1996 16.1606C34.1818 15.3087 33.937 14.4769 33.4905 13.7512L26.4318 2.27955C26.0031 1.58287 25.4031 1.00759 24.689 0.608546C23.9749 0.209505 23.1705 0 22.3525 0C21.5345 0 20.7301 0.209505 20.016 0.608546C19.3019 1.00759 18.7019 1.58287 18.2732 2.27955L11.2146 13.7512C10.7681 14.4769 10.5233 15.3087 10.5054 16.1606C10.4875 17.0126 10.6972 17.8538 11.1129 18.5977C11.5286 19.3415 12.1352 19.961 12.8702 20.3922C13.6051 20.8235 14.4418 21.0508 15.2939 21.0509Z" fill="white"/>
</svg>
