<svg width="12" height="13" viewBox="0 0 12 13" fill="none" xmlns="http://www.w3.org/2000/svg">
<path d="M1.17832 2.19667H2.96148V1.02305C2.96148 0.919306 2.99906 0.819755 3.06593 0.746404C3.13279 0.673054 3.22355 0.631836 3.31812 0.631836H9.02426C9.11883 0.631836 9.20958 0.673054 9.27645 0.746404C9.34331 0.819755 9.38089 0.919306 9.38089 1.02305V2.19667H11.1641C11.2586 2.19667 11.3494 2.23789 11.4162 2.31124C11.4831 2.38459 11.5207 2.48414 11.5207 2.58788V11.9769C11.5207 12.0806 11.4831 12.1802 11.4162 12.2535C11.3494 12.3269 11.2586 12.3681 11.1641 12.3681H1.17832C1.08375 12.3681 0.992993 12.3269 0.926126 12.2535C0.859258 12.1802 0.821683 12.0806 0.821683 11.9769V2.58788C0.821683 2.48414 0.859258 2.38459 0.926126 2.31124C0.992993 2.23789 1.08375 2.19667 1.17832 2.19667ZM9.38089 11.5857H10.8074V2.97909H9.38089V11.5857ZM7.59772 2.19667H6.88445C6.75701 2.19667 6.63927 2.27125 6.57559 2.39228C6.5119 2.51331 6.5119 2.66246 6.57559 2.78349C6.63927 2.90452 6.75701 2.97909 6.88445 2.97909H7.59772C7.72517 2.97909 7.8429 2.90452 7.90659 2.78349C7.97027 2.66246 7.97027 2.51331 7.90659 2.39228C7.8429 2.27125 7.72517 2.19667 7.59772 2.19667ZM7.59772 3.76151H6.88445C6.75701 3.76151 6.63927 3.83608 6.57559 3.95712C6.5119 4.07815 6.5119 4.2273 6.57559 4.34832C6.63927 4.46935 6.75701 4.54393 6.88445 4.54393H7.59772C7.72517 4.54393 7.8429 4.46936 7.90659 4.34832C7.97027 4.22729 7.97027 4.07814 7.90659 3.95712C7.8429 3.83609 7.72517 3.76151 7.59772 3.76151ZM7.59772 5.32635H6.88445C6.75701 5.32635 6.63927 5.40092 6.57559 5.52195C6.5119 5.64298 6.5119 5.79213 6.57559 5.91316C6.63927 6.03419 6.75701 6.10877 6.88445 6.10877H7.59772C7.72517 6.10877 7.8429 6.03419 7.90659 5.91316C7.97027 5.79213 7.97027 5.64298 7.90659 5.52195C7.8429 5.40092 7.72517 5.32635 7.59772 5.32635ZM7.59772 6.89119H6.88445C6.75701 6.89119 6.63927 6.96576 6.57559 7.08679C6.5119 7.20782 6.5119 7.35697 6.57559 7.478C6.63927 7.59903 6.75701 7.6736 6.88445 7.6736H7.59772C7.72517 7.6736 7.8429 7.59903 7.90659 7.478C7.97027 7.35697 7.97027 7.20782 7.90659 7.08679C7.8429 6.96576 7.72517 6.89119 7.59772 6.89119ZM7.95435 8.84723C7.95435 8.74349 7.91678 8.64394 7.84991 8.57059C7.78304 8.49724 7.69229 8.45602 7.59772 8.45602H6.88445C6.75701 8.45602 6.63927 8.5306 6.57559 8.65163C6.5119 8.77266 6.5119 8.92181 6.57559 9.04284C6.63927 9.16387 6.75701 9.23844 6.88445 9.23844H7.59772C7.69229 9.23844 7.78304 9.19722 7.84991 9.12387C7.91678 9.05052 7.95435 8.95097 7.95435 8.84723ZM4.74465 11.5857H7.59772V10.4121C7.59772 10.3083 7.56015 10.2088 7.49328 10.1354C7.42641 10.0621 7.33566 10.0209 7.24109 10.0209H5.10129C5.00672 10.0209 4.91596 10.0621 4.8491 10.1354C4.78223 10.2088 4.74465 10.3083 4.74465 10.4121V11.5857ZM4.74465 9.23844H5.45792C5.58537 9.23844 5.7031 9.16387 5.76678 9.04284C5.83047 8.92181 5.83047 8.77266 5.76678 8.65163C5.7031 8.5306 5.58536 8.45602 5.45792 8.45602H4.74465C4.6172 8.45602 4.49947 8.5306 4.43579 8.65163C4.3721 8.77266 4.3721 8.92181 4.43579 9.04284C4.49947 9.16387 4.61721 9.23844 4.74465 9.23844ZM4.74465 7.6736H5.45792C5.58537 7.6736 5.7031 7.59903 5.76678 7.478C5.83047 7.35697 5.83047 7.20782 5.76678 7.08679C5.7031 6.96576 5.58536 6.89119 5.45792 6.89119H4.74465C4.6172 6.89119 4.49947 6.96576 4.43579 7.08679C4.3721 7.20782 4.3721 7.35697 4.43579 7.478C4.49947 7.59903 4.61721 7.6736 4.74465 7.6736ZM4.74465 6.10877H5.45792C5.58537 6.10877 5.7031 6.03419 5.76678 5.91316C5.83047 5.79213 5.83047 5.64298 5.76678 5.52195C5.7031 5.40092 5.58536 5.32635 5.45792 5.32635H4.74465C4.6172 5.32635 4.49947 5.40092 4.43579 5.52195C4.3721 5.64298 4.3721 5.79213 4.43579 5.91316C4.49947 6.03419 4.61721 6.10877 4.74465 6.10877ZM4.74465 4.54393H5.45792C5.58537 4.54393 5.7031 4.46936 5.76678 4.34832C5.83047 4.22729 5.83047 4.07814 5.76678 3.95712C5.7031 3.83609 5.58536 3.76151 5.45792 3.76151H4.74465C4.6172 3.76151 4.49947 3.83608 4.43579 3.95712C4.3721 4.07815 4.3721 4.2273 4.43579 4.34832C4.49947 4.46935 4.61721 4.54393 4.74465 4.54393ZM4.74465 2.97909H5.45792C5.58537 2.97909 5.7031 2.90452 5.76678 2.78349C5.83047 2.66246 5.83047 2.51331 5.76678 2.39228C5.7031 2.27125 5.58536 2.19667 5.45792 2.19667H4.74465C4.6172 2.19667 4.49947 2.27125 4.43579 2.39228C4.3721 2.51331 4.3721 2.66246 4.43579 2.78349C4.49947 2.90452 4.61721 2.97909 4.74465 2.97909ZM1.53495 11.5857H2.96148V2.97909H1.53495V11.5857Z" fill="#EA4335"/>
</svg>
