<svg width="15" height="15" viewBox="0 0 15 15" fill="none" xmlns="http://www.w3.org/2000/svg">
<path fill-rule="evenodd" clip-rule="evenodd" d="M6.03774 14.6457L14.8217 8.73254L11.628 3.02378L11.752 2.94049L11.2023 1.95793L11.2433 0.806039L10.4951 0.77412L9.96747 2.31215L11.1138 3.37011L10.5621 3.74173L9.41554 2.68378L8.26709 3.45695L9.41346 4.51467L8.86172 4.8863L7.71535 3.82834L6.56669 4.60152L7.71324 5.65947L7.1614 6.03086L6.01503 4.9729L4.86659 5.74608L6.01295 6.80404L5.4611 7.17542L4.31474 6.1177L3.16629 6.89088L4.31266 7.9486L3.76092 8.32022L2.61437 7.26227L1.97646 7.69176L2.72002 9.02088L2.84403 8.93736L6.03769 14.6461L6.03774 14.6457ZM9.84818 0.746547L8.50156 0.688999L7.97401 2.22703L9.32063 2.28458L9.84818 0.746547ZM7.85471 0.661309L6.50831 0.603762L5.98076 2.14191L7.32716 2.19923L7.85471 0.661198V0.661309ZM5.86135 0.576303L4.51474 0.518756L3.98719 2.05679L5.33359 2.11434L5.86125 0.576303H5.86135ZM3.86789 0.491066L2.52127 0.433518L1.99372 1.97167L3.34034 2.02922L3.86789 0.491066ZM1.87442 0.40606L0.654125 0.354004L0.598846 1.91216L1.347 1.94408L1.87455 0.406045L1.87442 0.40606ZM9.26221 7.03245L4.60349 10.1684L4.92619 10.7452L9.58491 7.60918L9.26221 7.03245ZM9.93826 8.24075L6.62686 10.4697L6.94935 11.0464L10.2608 8.81748L9.93826 8.24075Z" fill="#EA4335"/>
</svg>
