<svg width="34" height="42" viewBox="0 0 34 42" fill="none" xmlns="http://www.w3.org/2000/svg">
<path d="M20.061 24.964C19.0604 24.9163 18.0783 25.2959 17.3701 26.0041C17.1656 26.2086 16.8344 26.2086 16.6299 26.0041C15.9224 25.2955 14.9365 24.9155 13.939 24.964C12.9235 25.0124 12.004 25.4745 11.351 26.2651C10.1992 27.6603 10.358 29.8155 11.7123 31.1705L16.3832 35.8407C16.724 36.1801 17.276 36.1801 17.6168 35.8407L22.2877 31.1705C23.6427 29.8148 23.8015 27.6603 22.6489 26.2651C21.996 25.4745 21.0765 25.0124 20.061 24.964Z" fill="white"/>
<path d="M33.0976 18.6682C31.9539 15.2003 30.8866 10.5083 32.2988 7.8522C32.4031 7.6559 32.3724 7.4153 32.2218 7.25172C32.0711 7.08746 31.8346 7.03771 31.6302 7.12495C31.5661 7.15289 26.1332 9.55479 24.3761 15.2903L24.1164 13.7772C23.6952 11.3255 22.4131 9.03474 20.41 7.1529C18.0067 4.89618 17.5255 0.512925 17.5207 0.469303C17.503 0.298908 17.4028 0.147595 17.2529 0.0651262C17.1016 -0.0180263 16.9203 -0.0214323 16.7676 0.0542174C11.0757 2.87461 9.52441 9.52957 9.14954 14.0076C7.05163 9.19355 2.42846 7.15017 2.36984 7.12495C2.16537 7.03771 1.92886 7.08746 1.77823 7.25172C1.6276 7.41531 1.59692 7.6559 1.70121 7.8522C3.11345 10.5083 2.04609 15.2003 0.902397 18.6682C-0.790651 23.8019 -0.0797648 29.3384 2.85308 33.8586C5.96706 38.6951 11.3177 41.571 17 41.5271C22.6822 41.5712 28.0325 38.6955 31.1469 33.8586C34.0798 29.3384 34.7907 23.8019 33.0976 18.6682ZM23.0279 31.9107L18.357 36.5809C17.9944 36.9435 17.5126 37.1432 17 37.1432C16.4875 37.1432 16.0056 36.9435 15.643 36.5809L10.9721 31.9107C9.24019 30.1781 9.05207 27.4054 10.5441 25.5985C11.3872 24.5775 12.5752 23.9811 13.8893 23.9184C15.0152 23.8653 16.1269 24.2299 17 24.932C17.8731 24.2299 18.9868 23.8646 20.1107 23.9184C21.4248 23.9811 22.6128 24.5775 23.4559 25.5985C24.9486 27.4047 24.7605 30.1774 23.0279 31.9107Z" fill="white"/>
</svg>
