<svg width="25" height="21" viewBox="0 0 25 21" fill="none" xmlns="http://www.w3.org/2000/svg">
<path fill-rule="evenodd" clip-rule="evenodd" d="M12.9225 18.4465V18.4457C12.9225 17.3414 12.0277 16.4465 10.9233 16.4465H2.24726C1.14298 16.4465 0.248047 17.3412 0.248047 18.4457V18.4465C0.248047 19.5508 1.14278 20.4457 2.24726 20.4457H10.9233C12.0276 20.4457 12.9225 19.5509 12.9225 18.4465ZM24.7519 10.5604V10.5587C24.7519 9.45516 23.8571 8.55946 22.7527 8.55946H2.24726C1.14298 8.55946 0.248047 9.45516 0.248047 10.5587V10.5604C0.248047 11.6639 1.14278 12.5596 2.24726 12.5596H22.7527C23.8569 12.5596 24.7519 11.6639 24.7519 10.5604ZM24.7519 2.6738V2.67304C24.7519 1.56876 23.8571 0.673828 22.7527 0.673828H2.24726C1.14298 0.673828 0.248047 1.56856 0.248047 2.67304V2.6738C0.248047 3.77808 1.14278 4.67301 2.24726 4.67301H22.7527C23.8569 4.67301 24.7519 3.77827 24.7519 2.6738Z" fill="white"/>
</svg>
