<svg width="40" height="38" viewBox="0 0 40 38" fill="none" xmlns="http://www.w3.org/2000/svg">
<path d="M4.14607 23.0782C4.29485 27.7774 11.1094 27.7763 11.2575 23.0781C11.1087 18.379 4.29414 18.3801 4.14607 23.0782Z" fill="white"/>
<path d="M24.5575 29.6671C24.0327 29.1903 23.4462 28.7863 22.8136 28.4661C22.4591 28.834 22.0575 29.1534 21.6193 29.4161C20.7287 29.9604 19.7045 30.247 18.6607 30.2439C17.165 30.2435 15.7284 29.6592 14.6571 28.6154C14.1031 28.9234 13.5882 29.297 13.1236 29.7282C12.2253 30.5407 11.5442 31.5647 11.1421 32.7071C10.5561 34.4757 10.1049 37.9082 12.7707 38H24.9714C25.5119 37.9998 26.0303 37.7855 26.4131 37.404C26.7959 37.0224 27.012 36.5048 27.0139 35.9643C27.1233 34.7959 26.9581 33.618 26.5316 32.5247C26.1052 31.4314 25.4292 30.4529 24.5575 29.6671Z" fill="white"/>
<path d="M14.2704 24.5032C14.2725 25.6663 14.736 26.7811 15.5591 27.6029C16.3822 28.4247 17.4976 28.8864 18.6607 28.8868C24.4656 28.6791 24.4572 20.318 18.6606 20.1129C17.4965 20.1136 16.3802 20.5764 15.5571 21.3996C14.7339 22.2228 14.2711 23.3391 14.2704 24.5032Z" fill="white"/>
<path d="M33.3857 26.0096C32.6324 26.8809 31.5986 27.4621 30.4627 27.6528C29.3267 27.8436 28.1599 27.632 27.1632 27.0546C26.7454 26.811 26.3677 26.5043 26.0436 26.1454C25.7695 26.325 25.5108 26.527 25.27 26.7493C24.0312 27.9423 24.3085 27.6792 25.4669 28.656C26.8796 29.9115 27.8444 31.5935 28.215 33.4468H34.5461C35.0058 33.4456 35.4463 33.262 35.7708 32.9363C36.0952 32.6106 36.2771 32.1694 36.2764 31.7096C36.3778 30.584 36.1604 29.4526 35.6493 28.4447C35.1381 27.4368 34.3537 26.5929 33.3857 26.0096Z" fill="white"/>
<path d="M33.2025 22.8204C33.0536 18.1248 26.2477 18.119 26.0979 22.8204C26.2484 27.5228 33.0543 27.5148 33.2025 22.8204Z" fill="white"/>
<path d="M13.1032 13.6257L16.8761 16.2789C17.1062 16.4413 17.3816 16.5267 17.6632 16.5232C17.9695 16.5417 18.2708 16.4388 18.5019 16.2369C18.733 16.035 18.8754 15.7503 18.8982 15.4443V13.6257C20.8273 13.7982 22.819 12.8868 22.8271 11.1489V2.47679C22.8271 1.08571 21.4021 0 19.5904 0H3.23679C1.41821 0 0 1.08571 0 2.47679V11.1489C0 12.54 1.41821 13.6257 3.23679 13.6257H13.1032ZM17.2018 4.69571C17.2012 4.87552 17.1296 5.0478 17.0024 5.17494C16.8753 5.30208 16.703 5.37375 16.5232 5.37429H6.30393C6.12396 5.37429 5.95136 5.30279 5.82411 5.17554C5.69685 5.04828 5.62536 4.87568 5.62536 4.69571C5.62536 4.51575 5.69685 4.34315 5.82411 4.21589C5.95136 4.08863 6.12396 4.01714 6.30393 4.01714H16.5232C16.703 4.01768 16.8753 4.08934 17.0024 4.21648C17.1296 4.34363 17.2012 4.51591 17.2018 4.69571ZM6.30393 7.85786H16.5232C16.7014 7.8605 16.8715 7.93316 16.9966 8.06013C17.1217 8.18709 17.1918 8.35818 17.1918 8.53643C17.1918 8.71467 17.1217 8.88576 16.9966 9.01273C16.8715 9.1397 16.7014 9.21236 16.5232 9.215H6.30393C6.12578 9.21224 5.95586 9.13953 5.83086 9.01258C5.70585 8.88562 5.63579 8.7146 5.63579 8.53643C5.63579 8.35826 5.70585 8.18724 5.83086 8.06028C5.95586 7.93332 6.12578 7.86062 6.30393 7.85786Z" fill="white"/>
<path d="M12.1668 28.7646C12.4914 28.4512 12.8434 28.1673 13.2186 27.9164C12.7411 27.2514 12.1311 26.6923 11.4271 26.2743C10.9671 26.8127 10.3959 27.2449 9.75276 27.5413C9.10964 27.8377 8.40992 27.9911 7.70179 27.9911C6.82768 27.9945 5.96913 27.7599 5.21821 27.3125C4.80098 27.0678 4.42154 26.7638 4.09179 26.41C3.81628 26.5851 3.55734 26.7849 3.31821 27.0071C2.72074 27.5431 2.24143 28.1975 1.91081 28.9289C1.58018 29.6602 1.40549 30.4524 1.39786 31.255V31.9675C1.39874 32.4279 1.58205 32.8693 1.90763 33.1949C2.23322 33.5205 2.67455 33.7038 3.135 33.7046H9.48643C9.80781 31.8065 10.7506 30.0688 12.1668 28.7646Z" fill="white"/>
<path d="M36.3171 5.15714H24.1843C24.1859 6.02582 24.1831 10.1907 24.1843 11.1489C24.2241 13.1556 22.3187 14.7237 20.3232 14.9354C20.6407 16.0066 22.0947 16.6295 23.4244 16.5096C23.4895 17.2909 23.1537 18.3394 23.9739 18.7286C24.1768 18.8334 24.4042 18.8818 24.6322 18.8687C24.8602 18.8556 25.0805 18.7814 25.27 18.6539L28.31 16.5096H36.3171C37.8575 16.5096 39.0721 15.5732 39.0721 14.3654V7.30143C39.0721 6.10036 37.8575 5.15714 36.3171 5.15714Z" fill="white"/>
</svg>
