<svg width="40" height="40" viewBox="0 0 40 40" fill="none" xmlns="http://www.w3.org/2000/svg">
<path d="M39.9101 5.48931C39.7293 5.05103 39.3012 4.76603 38.8275 4.76603H35.2338V1.17236C35.2339 0.698609 34.9489 0.27064 34.5106 0.0897809C34.0723 -0.093344 33.5687 0.00970278 33.2334 0.343843L28.546 5.10939C28.3262 5.32915 28.2026 5.62665 28.2026 5.9379V10.1401L17.9993 20.3436C17.5416 20.8013 17.5416 21.543 17.9993 22.0007C18.457 22.4584 19.1987 22.4584 19.6564 22.0007L29.8598 11.7974H34.0619C34.3732 11.7974 34.6708 11.6738 34.8905 11.454L39.656 6.7665C39.9913 6.43118 40.092 5.92767 39.9101 5.48931Z" fill="white"/>
<path d="M35.9248 13.5981C35.3705 13.9467 34.7321 14.141 34.0619 14.141H30.8302L30.0763 14.8949C31.1182 16.7545 31.7183 18.8934 31.7183 21.1722C31.7183 28.28 25.9356 34.0627 18.8278 34.0627C11.72 34.0627 5.93742 28.2799 5.93742 21.1722C5.93742 14.0645 11.7201 8.28173 18.8279 8.28173C21.1067 8.28173 23.2456 8.88181 25.1051 9.92368L25.8591 9.16978V5.93798C25.8591 5.26783 26.0534 4.62939 26.4019 4.07517C24.0326 3.02228 21.4839 2.42236 18.8279 2.42236C8.48945 2.42236 0 10.8336 0 21.1721C0 31.5106 8.48937 40 18.8278 40C29.1662 40 37.5776 31.5106 37.5776 21.1721C37.5776 18.5162 36.9776 15.9674 35.9248 13.5981Z" fill="white"/>
<path d="M28.3177 16.6535L23.4834 21.4878C23.318 23.9266 21.3085 25.8595 18.8279 25.8595C16.2391 25.8595 14.1405 23.7609 14.1405 21.1721C14.1405 18.6913 16.0735 16.682 18.5122 16.5166L23.3465 11.6823C21.9716 11.0244 20.4512 10.6254 18.8279 10.6254C13.0121 10.6254 8.28117 15.3563 8.28117 21.1721C8.28117 26.9879 13.0121 31.7188 18.8279 31.7188C24.6437 31.7188 29.3746 26.9879 29.3746 21.1721C29.3746 19.5488 28.9756 18.0284 28.3177 16.6535Z" fill="white"/>
</svg>
