<svg width="35" height="27" viewBox="0 0 35 27" fill="none" xmlns="http://www.w3.org/2000/svg">
<path d="M34.4201 5.54118C34.2567 5.29496 33.925 5.22669 33.6788 5.39084C33.4322 5.55386 33.3651 5.88588 33.5277 6.1321C33.5449 6.15784 33.9351 6.7689 33.1069 7.41841C33.0745 7.44415 33.042 7.4684 33.0092 7.49228C33.0081 7.48631 33.0066 7.48034 33.0051 7.474C32.7451 6.35481 32.1366 6.06725 31.7972 5.99563C31.2645 5.88371 30.6791 6.12992 30.3065 6.62497C29.9801 7.05809 29.9144 7.55947 30.13 7.96534C30.4053 8.48351 30.8862 8.8491 31.4499 8.96849C31.5364 8.98714 31.6323 9.00132 31.7367 9.00803C31.3271 9.62096 30.59 9.93172 30.4031 10.003C28.6202 5.93669 23.5161 3.17305 18.8043 2.76832C17.5871 2.66461 16.2777 2.72206 14.9107 2.94067C14.838 2.95298 14.7604 2.9306 14.6977 2.88098C11.501 0.331173 7.75291 0.635539 6.28868 0.884417C5.77013 0.97283 5.39596 1.44288 5.41946 1.97705C5.49295 3.69313 6.40695 4.957 7.16122 5.71548C7.23024 5.78449 7.23546 5.86395 7.2321 5.90462C7.22912 5.94752 7.21159 6.02885 7.12802 6.09077C5.68547 7.16851 4.67296 8.37948 4.11933 9.68967C4.08165 9.77845 3.98391 9.84597 3.86976 9.86165L1.48183 10.1933C0.790182 10.2895 0.28022 10.8864 0.295118 11.5822C0.322724 12.867 0.58088 15.3373 1.99658 17.4462C2.1999 17.7487 2.51102 17.9696 2.87289 18.0681C3.30339 18.1852 3.97269 18.3296 4.7176 18.3538C4.89816 18.3594 5.05447 18.4463 5.14625 18.5922C5.52266 19.1898 6.36542 20.3134 7.89384 21.379L7.12086 24.1362C6.96941 24.6779 7.07759 25.2456 7.41707 25.6934C7.75692 26.141 8.27398 26.3981 8.83652 26.3981H12.3969C13.3792 26.3981 14.1782 25.599 14.1782 24.6168V23.7311C15.0515 23.8632 15.9282 23.9378 16.8407 23.9579C17.9648 23.9811 19.0678 23.9214 20.1158 23.7751L20.0456 24.4258C19.9912 24.9275 20.1538 25.4311 20.4911 25.8068C20.8283 26.1825 21.3114 26.3981 21.8165 26.3981H24.9524C25.6874 26.3981 26.3548 25.9407 26.6137 25.2599C27.0196 24.193 27.5135 22.5213 27.6083 20.5277C29.9119 18.4789 31.1665 15.678 31.0575 12.8069C31.034 12.1862 30.9307 11.5863 30.7647 11.0073C31.5402 10.726 32.7146 9.97281 33.0123 8.73577C33.2496 8.62237 33.501 8.46718 33.7659 8.25975C35.044 7.25851 34.7526 6.04382 34.4198 5.54129L34.4201 5.54118ZM9.53322 10.7214C8.83187 10.7214 8.26295 10.1529 8.26295 9.45112C8.26295 8.74978 8.83148 8.18085 9.53322 8.18085C10.2346 8.18085 10.8035 8.74938 10.8035 9.45112C10.8035 10.1528 10.2346 10.7214 9.53322 10.7214ZM21.386 17.5147C20.8988 17.9031 20.2493 18.131 19.4636 18.2097V19.2457C19.4636 19.4282 19.3155 19.5755 19.1335 19.5755H18.5951C18.4127 19.5755 18.265 19.4278 18.265 19.2457V18.2068C18.0027 18.1762 17.7479 18.1307 17.5092 18.0583C17.0832 17.93 16.7093 17.7311 16.396 17.4663C16.08 17.1999 15.8301 16.8656 15.6536 16.4735C15.479 16.084 15.3906 15.6244 15.3906 15.1081C15.3906 14.9253 15.5387 14.7772 15.7215 14.7772H16.5139C16.6859 14.7772 16.8291 14.9093 16.8433 15.0809C16.8709 15.4189 16.9459 15.7054 17.0649 15.9326C17.1813 16.156 17.3316 16.3392 17.5122 16.4765C17.6965 16.6175 17.914 16.7212 18.1576 16.7858C18.7145 16.9331 19.4297 16.9189 19.8856 16.7626C20.1202 16.682 20.3101 16.575 20.4511 16.444C20.5922 16.3131 20.6921 16.1669 20.7589 15.9964C20.8276 15.8195 20.8622 15.6297 20.8622 15.4323C20.8622 15.1701 20.8067 14.9612 20.6973 14.8116C20.5757 14.6448 20.4131 14.5057 20.2135 14.3978C19.9945 14.2792 19.7379 14.1822 19.4502 14.1095C19.1361 14.03 18.8149 13.9524 18.4855 13.8771C18.1449 13.7991 17.8084 13.7055 17.4838 13.5988C17.1373 13.485 16.8247 13.3283 16.5538 13.1324C16.2714 12.9291 16.0394 12.6646 15.8637 12.346C15.6853 12.023 15.5947 11.6164 15.5947 11.1366C15.5947 10.7953 15.6671 10.4599 15.8092 10.1391C15.9521 9.8164 16.1658 9.52766 16.4445 9.28144C16.7191 9.0382 17.0649 8.8431 17.4727 8.70134C17.7111 8.61815 17.9834 8.56742 18.2654 8.53384V7.4412C18.2654 7.25915 18.4135 7.11142 18.5956 7.11142H19.1339C19.3159 7.11142 19.464 7.25915 19.464 7.4412V8.53909C19.7442 8.57528 20.0135 8.629 20.2467 8.71629C20.6526 8.86775 20.9962 9.08039 21.2681 9.34788C21.5401 9.61536 21.7482 9.93134 21.8851 10.2869C22.019 10.6345 22.0866 11.0095 22.0866 11.4016C22.0866 11.5844 21.9385 11.7324 21.7557 11.7324H20.9764C20.7936 11.7324 20.6455 11.5843 20.6455 11.4016C20.6455 11.1255 20.5977 10.8875 20.5041 10.6942C20.4112 10.5003 20.2877 10.3469 20.128 10.2249C19.962 10.0992 19.7688 10.0045 19.555 9.9444C18.9798 9.78361 18.3274 9.8351 17.9285 9.99849C17.6913 10.0951 17.504 10.2186 17.3697 10.3652C17.2354 10.5126 17.1455 10.6696 17.0951 10.8446C17.0448 11.0218 17.0358 11.1926 17.0675 11.3665C17.1037 11.5802 17.1821 11.7395 17.3059 11.8585C17.4518 11.9977 17.6368 12.1152 17.8539 12.2066C18.0912 12.3069 18.3568 12.3894 18.6422 12.4524C18.9518 12.5211 19.2678 12.5931 19.589 12.6695C19.921 12.7486 20.2448 12.8426 20.5511 12.949C20.882 13.0635 21.1812 13.2209 21.4401 13.4175C21.712 13.6238 21.9318 13.8902 22.0933 14.2099C22.2563 14.5307 22.3388 14.9303 22.3388 15.3974C22.3384 16.2983 22.0179 17.0111 21.386 17.5147ZM31.6715 7.92156C31.4145 7.8671 31.2026 7.70445 31.0758 7.46718C31.0571 7.38101 31.2362 7.09935 31.4783 7.04451C31.4951 7.04078 31.5107 7.03929 31.5264 7.03929C31.7775 7.03929 31.9144 7.50561 31.9636 7.71601C31.9808 7.79136 31.9935 7.86448 32.0013 7.93574C31.8853 7.94805 31.7745 7.94357 31.6715 7.92156Z" fill="white"/>
</svg>
