<svg width="35" height="42" viewBox="0 0 35 42" fill="none" xmlns="http://www.w3.org/2000/svg">
<path d="M17.5 13.8372C21.321 13.8372 24.4186 10.7396 24.4186 6.9186C24.4186 3.09756 21.321 0 17.5 0C13.679 0 10.5814 3.09756 10.5814 6.9186C10.5814 10.7396 13.679 13.8372 17.5 13.8372Z" fill="white"/>
<path d="M22.5839 14.7745C21.119 15.7257 19.373 16.2791 17.5 16.2791C15.627 16.2791 13.881 15.7257 12.4161 14.7745C10.7968 15.3933 9.29535 16.3063 7.98985 17.4781L17.5 21.0444L27.0102 17.4781C25.7047 16.3063 24.2032 15.3932 22.5839 14.7745Z" fill="white"/>
<path d="M32.1512 25.2326H31.3372C30.6629 25.2326 30.1163 25.7792 30.1163 26.4535V29.7093C30.1163 30.3836 30.6629 30.9302 31.3372 30.9302H32.1512C33.7245 30.9302 35 29.6548 35 28.0814C35 26.508 33.7245 25.2326 32.1512 25.2326Z" fill="white"/>
<path d="M3.7813 19.069C3.45214 19.2971 3.25581 19.672 3.25581 20.0725V22.7907H3.66279C5.68245 22.7907 7.32558 24.4338 7.32558 26.4535V29.7093C7.32558 31.729 5.68245 33.3721 3.66279 33.3721H3.25581V35.9446C3.25581 36.4536 3.57155 36.9091 4.04804 37.0878L16.2791 41.6744V23.1944L4.90545 18.9293C4.53047 18.7886 4.11038 18.8407 3.7813 19.069Z" fill="white"/>
<path d="M27.6744 29.7093V26.4535C27.6744 24.4338 29.3175 22.7907 31.3372 22.7907H31.7442V20.0725C31.7442 19.672 31.5479 19.2971 31.2187 19.069C30.8895 18.8407 30.4694 18.7886 30.0945 18.9293L18.7209 23.1944V41.6744L30.952 37.0878C31.4285 36.9091 31.7442 36.4536 31.7442 35.9446V33.3721H31.3372C29.3175 33.3721 27.6744 31.729 27.6744 29.7093Z" fill="white"/>
<path d="M4.88372 29.7093V26.4535C4.88372 25.7792 4.33707 25.2326 3.66279 25.2326H2.84884C1.27547 25.2326 0 26.508 0 28.0814C0 29.6548 1.27547 30.9302 2.84884 30.9302H3.66279C4.33707 30.9302 4.88372 30.3836 4.88372 29.7093Z" fill="white"/>
</svg>
