<svg width="45" height="35" viewBox="0 0 45 35" fill="none" xmlns="http://www.w3.org/2000/svg">
<path d="M9.26167 10.5908C9.98975 10.5908 10.58 11.1811 10.58 11.9092V18.5229H15.8809C16.609 18.5229 17.1992 17.9326 17.1992 17.2046V7.93213C17.2006 7.93213 17.2021 7.9323 17.2035 7.9323C17.6295 7.9323 18.0476 7.72611 18.3016 7.34511C18.7056 6.73928 18.5418 5.92076 17.936 5.5169L9.99292 0.221504C9.55004 -0.0736321 8.97322 -0.0736321 8.53034 0.221504L0.587241 5.51681C-0.0186758 5.92076 -0.182328 6.73928 0.221616 7.34502C0.476499 7.72743 0.896615 7.93309 1.32403 7.93169V17.2045C1.32403 17.9326 1.9143 18.5228 2.64238 18.5228H7.94323V11.9091C7.94332 11.1811 8.53359 10.5908 9.26167 10.5908ZM9.26167 7.93213C8.5226 7.93213 7.97531 7.32806 7.94332 6.61377C7.91141 5.90177 8.57208 5.29542 9.26167 5.29542C10.0007 5.29542 10.548 5.89949 10.58 6.61377C10.6118 7.32577 9.95126 7.93213 9.26167 7.93213Z" fill="white"/>
<path d="M45 10.5908V7.9394C45 6.48148 43.8139 5.2954 42.356 5.2954H39.7046V2.43896C39.7046 1.09415 38.6105 0 37.2656 0H34.2115C32.8666 0 31.7725 1.09415 31.7725 2.43896V5.2954H29.1211C27.6632 5.2954 26.4771 6.48156 26.4771 7.9394V10.5908H45ZM34.4092 2.63671H37.0679V5.2954H34.4092V2.63671Z" fill="white"/>
<path d="M26.4771 13.2275V15.8788C26.4771 17.3368 27.6632 18.5229 29.1211 18.5229H34.4202V19.6893C34.4202 20.5121 33.7507 21.1816 32.9279 21.1816H12.0723C11.2494 21.1816 10.58 20.5121 10.58 19.6893L10.58 18.5229L7.94328 18.5229V19.6893C7.94328 21.966 9.79557 23.8183 12.0723 23.8183H21.1817V26.477H19.8524C16.2056 26.477 13.2387 29.4439 13.2387 33.0907C13.2387 33.8188 13.8289 34.409 14.557 34.409H30.4431C31.1712 34.409 31.7615 33.8188 31.7615 33.0907C31.7615 29.4439 28.7946 26.477 25.1478 26.477H23.8184V23.8183H32.9279C35.2046 23.8183 37.0569 21.966 37.0569 19.6893V18.5229H42.3559C43.8138 18.5229 44.9999 17.3368 44.9999 15.8788V13.2275H26.4771Z" fill="white"/>
</svg>
