<svg width="38" height="38" viewBox="0 0 38 38" fill="none" xmlns="http://www.w3.org/2000/svg">
<path d="M27.7817 8.44025C28.2606 9.47191 28.6177 10.5559 28.8457 11.6702C30.5776 12.6107 32.0662 13.9423 33.193 15.5592C34.3198 17.1761 35.0538 19.0336 35.3365 20.984C35.6192 22.9345 35.4429 24.9239 34.8216 26.7942C34.2004 28.6645 33.1512 30.3641 31.7576 31.7576C30.3641 33.1512 28.6645 34.2004 26.7942 34.8216C24.9239 35.4429 22.9345 35.6192 20.984 35.3365C19.0336 35.0538 17.1761 34.3198 15.5592 33.193C13.9423 32.0662 12.6107 30.5776 11.6702 28.8457C10.5559 28.6177 9.47191 28.2606 8.44025 27.7817C9.28423 30.2147 10.7325 32.3934 12.6493 34.1133C14.566 35.8332 16.8883 37.0379 19.3982 37.6143C21.9081 38.1908 24.5233 38.12 26.9983 37.4088C29.4734 36.6976 31.7272 35.3691 33.5481 33.5481C35.3691 31.7272 36.6976 29.4734 37.4088 26.9983C38.12 24.5233 38.1908 21.9081 37.6143 19.3982C37.0379 16.8883 35.8332 14.566 34.1133 12.6493C32.3934 10.7325 30.2147 9.28423 27.7817 8.44025Z" fill="white"/>
<path d="M22.8039 7.60427C24.4984 7.60042 26.1814 7.88306 27.7817 8.44025C26.7957 6.31319 25.3109 4.45556 23.4533 3.02517C21.5957 1.59478 19.4203 0.633904 17.1119 0.224172C14.8035 -0.185559 12.4304 -0.032038 10.194 0.671693C7.95762 1.37542 5.92416 2.60857 4.26637 4.26637C2.60857 5.92416 1.37542 7.95762 0.671693 10.194C-0.032038 12.4304 -0.185559 14.8035 0.224172 17.1119C0.633904 19.4203 1.59478 21.5957 3.02517 23.4533C4.45556 25.3109 6.31319 26.7957 8.44025 27.7817C7.88306 26.1814 7.60042 24.4984 7.60427 22.8039C7.60427 18.7727 9.20565 14.9066 12.0561 12.0561C14.9066 9.20565 18.7727 7.60427 22.8039 7.60427Z" fill="white"/>
<path d="M10.1375 22.8039C10.1372 24.914 10.664 26.9909 11.6702 28.8457C14.0276 29.3248 16.4671 29.2126 18.7706 28.5191C21.0742 27.8255 23.1701 26.5722 24.8712 24.8712C26.5722 23.1701 27.8255 21.0742 28.5191 18.7706C29.2126 16.4671 29.3248 14.0276 28.8457 11.6702C26.9163 10.623 24.7479 10.0953 22.5532 10.1388C20.3584 10.1822 18.2126 10.7954 16.3262 11.918C14.4397 13.0407 12.8775 14.6343 11.7926 16.5427C10.7076 18.4511 10.1373 20.6087 10.1375 22.8039Z" fill="white"/>
</svg>
