<svg width="33" height="33" viewBox="0 0 33 33" fill="none" xmlns="http://www.w3.org/2000/svg">
<path d="M32.0796 14.919C31.9484 15.1744 31.7482 15.3882 31.5021 15.536C31.2576 15.6841 30.9773 15.7625 30.6914 15.7625C30.4343 15.7637 30.1812 15.6992 29.956 15.5753L16.4494 8.55092L3.04147 15.5289C2.67477 15.7198 2.24715 15.7581 1.85251 15.6352C1.45761 15.512 1.12769 15.238 0.934273 14.8723C0.743121 14.5051 0.704837 14.0772 0.827743 13.6818C0.950643 13.2867 1.22491 12.9557 1.5906 12.7618L15.7278 5.39954C16.1803 5.16305 16.7196 5.16305 17.1721 5.39954L23.3329 8.59982C23.0347 8.70106 22.803 8.93906 22.7095 9.23977C22.6161 9.54048 22.6723 9.86789 22.8604 10.1202C23.0485 10.3728 23.3462 10.5202 23.661 10.5166C24.0519 10.5166 24.4269 10.6718 24.7032 10.9483C24.9797 11.2246 25.1349 11.5994 25.1349 11.9902C25.1349 12.342 25.3225 12.6672 25.6272 12.843C25.932 13.019 26.3072 13.019 26.6119 12.843C26.9167 12.6672 27.1043 12.3421 27.1043 11.9902C27.1073 11.5454 27.3111 11.1256 27.6589 10.848L31.427 12.8175C31.7902 13.0115 32.0625 13.3406 32.1846 13.7338C32.307 14.1269 32.2695 14.5525 32.0801 14.9182L32.0796 14.919Z" fill="white"/>
<path d="M31.7586 32.315H1.0723C0.890967 32.315 0.744141 32.1682 0.744141 31.9868C0.744141 31.8055 0.890967 31.6587 1.0723 31.6587H31.7586C31.9399 31.6587 32.0867 31.8055 32.0867 31.9868C32.0867 32.1682 31.9399 32.315 31.7586 32.315Z" fill="white"/>
<path d="M16.499 11.8237C15.7696 11.8245 15.0702 12.1149 14.5547 12.6307C14.0389 13.1465 13.749 13.8459 13.7485 14.5755C13.7478 15.3048 14.0366 16.0047 14.5517 16.5213C15.0664 17.0381 15.7653 17.3295 16.4947 17.3315C17.2241 17.3335 17.9245 17.0459 18.4423 16.5321C18.9598 16.0183 19.2527 15.3202 19.256 14.5906C19.2588 13.8577 18.9694 13.1541 18.4521 12.6347C17.9348 12.1157 17.2318 11.8238 16.499 11.8238V11.8237ZM16.499 16.6749C15.9421 16.6741 15.4084 16.4517 15.0158 16.0571C14.6229 15.6624 14.4031 15.1278 14.4048 14.5709C14.4066 14.0141 14.6297 13.4809 15.0251 13.0885C15.4203 12.6964 15.9552 12.4775 16.512 12.48C17.0689 12.4828 17.6017 12.7067 17.9934 13.1026C18.3851 13.4985 18.6032 14.0337 18.5996 14.5905C18.5953 15.1449 18.372 15.675 17.9786 16.0654C17.5852 16.4557 17.0532 16.6749 16.499 16.6749Z" fill="white"/>
<path d="M6.89471 23.7124H10.4199V27.2409H6.89471V23.7124Z" fill="white"/>
<path d="M11.0766 23.7124H14.6018V27.2409H11.0766V23.7124Z" fill="white"/>
<path d="M6.89471 19.5303H10.4199V23.0587H6.89471V19.5303Z" fill="white"/>
<path d="M24.4717 26.0856C24.4717 26.5233 23.8154 26.5233 23.8154 26.0856C23.8154 25.6479 24.4717 25.6479 24.4717 26.0856Z" fill="white"/>
<path d="M11.0766 19.5303H14.6018V23.0587H11.0766V19.5303Z" fill="white"/>
<path d="M15.2583 27.5689C15.2583 27.6558 15.2235 27.7394 15.162 27.8009C15.1003 27.8626 15.017 27.8971 14.9298 27.8971H6.56695C6.38562 27.8971 6.23879 27.7503 6.23879 27.569V19.2022C6.23879 19.0211 6.38562 18.874 6.56695 18.874H14.9298C15.017 18.874 15.1003 18.9085 15.162 18.9702C15.2235 19.0317 15.2583 19.1153 15.2583 19.2022V27.5689ZM26.4902 31.9869C26.4902 32.0738 26.4555 32.1574 26.394 32.2188C26.3323 32.2805 26.249 32.315 26.1618 32.315H17.9988C17.8175 32.315 17.6706 32.1682 17.6706 31.9869V20.1966C17.6706 20.0152 17.8175 19.8684 17.9988 19.8684H26.1618C26.249 19.8684 26.3323 19.9029 26.394 19.9646C26.4555 20.0261 26.4902 20.1097 26.4902 20.1966V31.9869ZM16.4497 9.28955L3.77032 15.8801V31.9637C3.77032 32.0506 3.80483 32.1342 3.86653 32.1956C3.92798 32.2573 4.0116 32.2918 4.09849 32.2918H28.7977C28.8846 32.2918 28.9682 32.2573 29.0297 32.1956C29.0914 32.1342 29.1259 32.0506 29.1259 31.9637V15.8807L16.4497 9.28955ZM16.4988 16.6744C15.942 16.6736 15.4083 16.4512 15.0157 16.0566C14.6228 15.6619 14.4029 15.1273 14.4047 14.5704C14.4065 14.0136 14.6296 13.4804 15.025 13.088C15.4202 12.6959 15.9551 12.477 16.5119 12.4795C17.0687 12.4823 17.6016 12.7062 17.9933 13.1021C18.3849 13.498 18.603 14.0332 18.5995 14.59C18.5952 15.1444 18.3718 15.6745 17.9784 16.0649C17.5851 16.4553 17.0531 16.6744 16.4988 16.6744Z" fill="white"/>
<path d="M18.3274 31.6587H25.834V20.5254H18.3274V31.6587ZM24.1436 25.094C24.4048 25.094 24.6554 25.1978 24.84 25.3824C25.0246 25.567 25.1284 25.8176 25.1284 26.0788C25.1284 26.3399 25.0246 26.5903 24.84 26.7751C24.6554 26.9597 24.4048 27.0635 24.1436 27.0635C23.8824 27.0635 23.6321 26.9597 23.4475 26.7751C23.2626 26.5903 23.1589 26.3399 23.1589 26.0788C23.1589 25.8176 23.2626 25.567 23.4475 25.3824C23.6321 25.1978 23.8824 25.094 24.1436 25.094Z" fill="white"/>
<path d="M23.6544 3.92995C23.0902 3.93095 22.5495 4.1551 22.1503 4.55378C21.7511 4.95221 21.526 5.49265 21.5242 6.05679C21.5242 6.23813 21.3774 6.38521 21.1961 6.38521C21.0147 6.38521 20.8679 6.23813 20.8679 6.05679C20.8679 5.49139 20.643 4.94888 20.2428 4.54946C19.8426 4.14978 19.2999 3.92588 18.7343 3.92663C18.5532 3.92663 18.4061 3.77981 18.4061 3.59847C18.4061 3.41714 18.5532 3.27006 18.7343 3.27006C19.3007 3.27006 19.8439 3.0449 20.2441 2.64421C20.6443 2.24326 20.8687 1.6998 20.8679 1.13333C20.8679 0.952002 21.0148 0.805176 21.1961 0.805176C21.3774 0.805176 21.5243 0.952002 21.5243 1.13333C21.5225 1.64862 21.7106 2.14654 22.0526 2.53164C22.0813 2.57043 22.1131 2.60669 22.1478 2.63994C22.5468 3.04063 23.0893 3.26528 23.6544 3.26352C23.8357 3.26352 23.9828 3.4106 23.9828 3.59194C23.9828 3.77302 23.8357 3.9201 23.6544 3.9201L23.6544 3.92995Z" fill="white"/>
<path d="M28.8999 9.53213C28.8999 9.61927 28.8651 9.70263 28.8036 9.76409C28.7422 9.82579 28.6586 9.8603 28.5714 9.8603C28.0063 9.85954 27.464 10.0837 27.0644 10.4834C26.6647 10.8831 26.4405 11.4253 26.4413 11.9905C26.4413 12.1718 26.2945 12.3189 26.1131 12.3189C25.9318 12.3189 25.785 12.1718 25.785 11.9905C25.784 11.4261 25.5591 10.885 25.1599 10.4864C24.7604 10.0877 24.2189 9.86358 23.6545 9.86358C23.4735 9.86358 23.3264 9.71675 23.3264 9.53542C23.3264 9.35409 23.4735 9.20726 23.6545 9.20726C23.8316 9.20651 24.0081 9.18459 24.1799 9.14153C24.5977 9.03903 24.9737 8.80959 25.2563 8.48493C25.5978 8.09683 25.7859 7.59713 25.7849 7.08011C25.7849 6.89903 25.9317 6.75195 26.1131 6.75195C26.2944 6.75195 26.4412 6.89903 26.4412 7.08011C26.4392 7.59741 26.6274 8.09731 26.9696 8.48493C26.9981 8.52094 27.0288 8.55494 27.0615 8.58693C27.4612 8.98838 28.005 9.21303 28.5714 9.21051C28.7502 9.21051 28.8961 9.35331 28.8999 9.53213Z" fill="white"/>
<path d="M9.42225 4.82929C9.42225 4.91643 9.38775 4.99979 9.3263 5.0615C9.26459 5.12295 9.18123 5.15745 9.09409 5.15745C8.29345 5.15846 7.52609 5.4768 6.95988 6.04293C6.39367 6.60907 6.07536 7.37651 6.0744 8.17714C6.0744 8.35848 5.92757 8.50556 5.74624 8.50556C5.56491 8.50556 5.41808 8.35848 5.41808 8.17714C5.41884 7.37399 5.09899 6.60385 4.52957 6.03739C3.96014 5.47123 3.18819 5.15539 2.38504 5.16068C2.20371 5.16068 2.05688 5.01385 2.05688 4.83252C2.05688 4.65118 2.20371 4.50436 2.38504 4.50436C3.18671 4.50511 3.95556 4.18753 4.52248 3.62113C5.08939 3.05472 5.40796 2.28607 5.40796 1.48467C5.40796 1.30333 5.55504 1.15625 5.73637 1.15625C5.91746 1.15625 6.06453 1.30333 6.06453 1.48467C6.0668 2.21 6.33276 2.91012 6.81275 3.45389C6.85456 3.50703 6.89939 3.5574 6.94749 3.605C7.5139 4.17167 8.2828 4.48952 9.08421 4.48797C9.17538 4.48495 9.26353 4.52021 9.3275 4.58493C9.39172 4.64966 9.42597 4.73831 9.4222 4.82923L9.42225 4.82929Z" fill="white"/>
</svg>
