<svg width="14" height="17" viewBox="0 0 14 17" fill="none" xmlns="http://www.w3.org/2000/svg">
<g id="Vector">
<path d="M6.785 4.05008C6.25116 4.05008 5.7293 4.20838 5.28543 4.50497C4.84156 4.80156 4.4956 5.22311 4.29131 5.71631C4.08701 6.20952 4.03356 6.75223 4.13771 7.27582C4.24186 7.7994 4.49893 8.28034 4.87641 8.65783C5.25389 9.03531 5.73484 9.29238 6.25842 9.39653C6.78201 9.50068 7.32472 9.44722 7.81792 9.24293C8.31113 9.03864 8.73268 8.69268 9.02926 8.24881C9.32585 7.80493 9.48415 7.28308 9.48415 6.74924C9.48415 6.03338 9.19978 5.34684 8.69359 4.84065C8.1874 4.33446 7.50086 4.05008 6.785 4.05008ZM6.785 8.09881C6.51808 8.09881 6.25715 8.01966 6.03521 7.87137C5.81328 7.72308 5.6403 7.5123 5.53815 7.2657C5.43601 7.01909 5.40928 6.74774 5.46135 6.48595C5.51343 6.22415 5.64196 5.98368 5.8307 5.79494C6.01945 5.6062 6.25992 5.47766 6.52171 5.42559C6.7835 5.37352 7.05486 5.40024 7.30146 5.50239C7.54806 5.60454 7.75884 5.77751 7.90713 5.99945C8.05543 6.22139 8.13458 6.48232 8.13458 6.74924C8.13458 7.10717 7.99239 7.45044 7.73929 7.70353C7.4862 7.95663 7.14293 8.09881 6.785 8.09881Z" fill="#717171"/>
<path d="M6.785 16.1963C6.21679 16.1992 5.65615 16.0659 5.15003 15.8076C4.64391 15.5493 4.20703 15.1736 3.87599 14.7117C1.30437 11.1644 0 8.49761 0 6.785C0 4.98551 0.714846 3.25972 1.98728 1.98728C3.25971 0.714846 4.98551 0 6.785 0C8.58449 0 10.3103 0.714846 11.5827 1.98728C12.8552 3.25972 13.57 4.98551 13.57 6.785C13.57 8.49761 12.2656 11.1644 9.69401 14.7117C9.36297 15.1736 8.92609 15.5493 8.41997 15.8076C7.91385 16.0659 7.35321 16.1992 6.785 16.1963ZM6.785 1.47306C5.37632 1.47467 4.0258 2.03498 3.02971 3.03106C2.03363 4.02715 1.47332 5.37767 1.47171 6.78635C1.47171 8.14268 2.74909 10.6509 5.06766 13.8487C5.26449 14.1198 5.52272 14.3405 5.82121 14.4926C6.1197 14.6448 6.44997 14.7241 6.785 14.7241C7.12003 14.7241 7.4503 14.6448 7.74879 14.4926C8.04728 14.3405 8.3055 14.1198 8.50234 13.8487C10.8209 10.6509 12.0983 8.14268 12.0983 6.78635C12.0967 5.37767 11.5364 4.02715 10.5403 3.03106C9.5442 2.03498 8.19368 1.47467 6.785 1.47306Z" fill="#717171"/>
</g>
</svg>
