<svg width="44" height="42" viewBox="0 0 44 42" fill="none" xmlns="http://www.w3.org/2000/svg">
<path d="M30.2939 17.6769C25.7134 13.0681 18.2881 13.0681 13.7076 17.6769C9.12722 22.2858 9.12722 29.7574 13.7076 34.3662C18.2881 38.9751 25.7134 38.9751 30.2939 34.3662C34.8648 29.7574 34.8648 22.2858 30.2939 17.6769ZM16.8466 38.2213C15.0258 37.4388 13.4042 36.2556 12.1144 34.7766L9.14619 39.9484L12.1619 39.4713C12.4179 39.4236 12.6834 39.5095 12.8541 39.729L14.6939 42L16.8466 38.2213ZM31.887 34.7766C30.5878 36.2556 28.9757 37.4388 27.1454 38.2213L29.3076 41.9905L31.1474 39.7194C31.3181 39.5095 31.5836 39.4141 31.8396 39.4618L34.8553 39.9389L31.887 34.7766ZM26.6713 21.3221C24.0918 18.7266 19.9097 18.7266 17.3302 21.3221C14.7508 23.9175 14.7508 28.1257 17.3302 30.7211C19.9097 33.3166 24.0918 33.3166 26.6713 30.7211C29.2507 28.1257 29.2507 23.9175 26.6713 21.3221ZM21.996 17.9155C26.4437 17.9155 30.0568 21.5415 30.0568 26.0264C30.0568 30.5017 26.4531 34.1372 21.996 34.1372C17.5484 34.1372 13.9352 30.5112 13.9352 26.0264C13.9447 21.5415 17.5484 17.9155 21.996 17.9155ZM18.2406 26.5607C18.0415 26.2077 18.1553 25.7687 18.5062 25.5683C18.857 25.368 19.2933 25.4825 19.4924 25.8355L20.6494 27.8489L24.6134 23.8603C24.8979 23.574 25.3626 23.574 25.6376 23.8603C25.9221 24.1466 25.9221 24.6046 25.6376 24.8908L21.0097 29.5474C20.6778 29.8814 20.1088 29.8146 19.8718 29.3948L18.2406 26.5607ZM38.734 7.29504L40.1659 10.2817L43.4282 10.7302C43.9877 10.8066 44.1868 11.4936 43.798 11.8753L41.4177 14.1654L42.0057 17.4289C42.1005 17.9823 41.522 18.3926 41.0384 18.135L38.1365 16.5701L35.2346 18.135C34.7605 18.3926 34.1441 17.9918 34.2768 17.3907L34.8553 14.1654L32.475 11.8753C32.0767 11.4936 32.2948 10.8066 32.8543 10.7302L36.1071 10.2817L37.5391 7.29504C37.7762 6.78931 38.4874 6.79885 38.734 7.29504ZM6.45294 7.29504L7.88491 10.2817L11.1472 10.7302C11.6972 10.8066 11.9058 11.4936 11.517 11.8753L9.1367 14.1654L9.72467 17.4289C9.8195 17.9823 9.24102 18.3926 8.76686 18.135L5.86498 16.5701L2.9631 18.135C2.48894 18.3926 1.88201 17.9918 2.00529 17.3907L2.58377 14.1654L0.203472 11.8753C-0.194825 11.4936 0.0232901 10.8066 0.582802 10.7302L3.83556 10.2817L5.26753 7.29504C5.50461 6.78931 6.21586 6.79885 6.45294 7.29504ZM22.5935 0.376951L24.0254 3.36366L27.2877 3.81214C27.8377 3.88848 28.0463 4.57552 27.6575 4.9572L25.2772 7.24733L25.8652 10.5108C25.96 11.0642 25.3815 11.4745 24.8979 11.2169L21.996 9.64242L19.0941 11.2073C18.62 11.465 18.013 11.0642 18.1363 10.4631L18.7148 7.23779L16.3345 4.94766C15.9362 4.56597 16.1543 3.87894 16.7138 3.8026L19.9666 3.35412L21.3986 0.367409C21.6451 -0.128785 22.3564 -0.119243 22.5935 0.376951Z" fill="white"/>
</svg>
