<svg width="50" height="50" viewBox="0 0 50 50" fill="none" xmlns="http://www.w3.org/2000/svg">
<path d="M23.2143 28.5714V26.7857H8.92857V28.5714C8.92857 32.5163 12.1265 35.7143 16.0714 35.7143C20.0164 35.7143 23.2143 32.5163 23.2143 28.5714Z" fill="white"/>
<path d="M7.14286 25H25C25.987 25 26.7857 24.2013 26.7857 23.2143C26.7857 22.2273 25.987 21.4286 25 21.4286C25 17.7693 22.7936 14.6327 19.6429 13.2538V16.9643C19.6429 17.4578 19.2435 17.8571 18.75 17.8571C18.2565 17.8571 17.8571 17.4578 17.8571 16.9643V12.6799C17.28 12.5628 16.6831 12.5 16.0714 12.5C15.4598 12.5 14.8628 12.5628 14.2857 12.6799V16.9643C14.2857 17.4578 13.8864 17.8571 13.3929 17.8571C12.8993 17.8571 12.5 17.4578 12.5 16.9643V13.2538C9.34928 14.6327 7.14286 17.7693 7.14286 21.4286C6.15583 21.4286 5.35714 22.2273 5.35714 23.2143C5.35714 24.2013 6.15583 25 7.14286 25Z" fill="white"/>
<path d="M49.013 5.54548L38.2987 0.188337C37.7965 -0.062779 37.2035 -0.062779 36.7013 0.188337L25.987 5.54548C25.3819 5.84891 25 6.46624 25 7.14286C25 14.4845 28.2349 21.3885 33.8728 26.0882L36.356 28.1581C36.6874 28.4337 37.0937 28.5714 37.5 28.5714C37.9063 28.5714 38.3126 28.4337 38.644 28.1581L41.1255 26.0882C46.7651 21.3885 50 14.4845 50 7.14286C50 6.46624 49.6181 5.84891 49.013 5.54548ZM42.7298 8.49435L37.3727 17.4229C37.2314 17.6601 36.989 17.817 36.717 17.8502C36.6804 17.8554 36.6438 17.8571 36.6071 17.8571C36.3717 17.8571 36.145 17.7647 35.9759 17.5956L32.4044 14.0241C32.0557 13.6754 32.0557 13.1104 32.4044 12.7616C32.7532 12.4128 33.3182 12.4128 33.667 12.7616L36.4293 15.5239L41.1987 7.57708C41.4551 7.15332 42.0079 7.0173 42.4229 7.27016C42.8467 7.52302 42.9844 8.07234 42.7298 8.49435Z" fill="white"/>
<path d="M8.92857 35.7143H23.2143V42.8571H8.92857V35.7143Z" fill="white"/>
<path d="M5.35714 44.6429C5.35714 43.6566 6.15659 42.8571 7.14286 42.8571V35.7143C3.19792 35.7143 0 38.9122 0 42.8571V50H5.35714V44.6429Z" fill="white"/>
<path d="M25 35.7143V42.8571C25.9863 42.8571 26.7857 43.6566 26.7857 44.6429V50H32.1429V42.8571C32.1429 38.9122 28.9449 35.7143 25 35.7143Z" fill="white"/>
<path d="M7.14286 44.6429H25V50H7.14286V44.6429Z" fill="white"/>
</svg>
