<svg width="36" height="38" viewBox="0 0 36 38" fill="none" xmlns="http://www.w3.org/2000/svg">
<path fill-rule="evenodd" clip-rule="evenodd" d="M29.0375 4.95863L35.4097 1.37083C35.6738 1.22218 36 1.40945 36 1.7098V35.2689C36 35.4838 35.8226 35.6591 35.6052 35.6591H29.233C29.0155 35.6591 28.8381 35.4838 28.8381 35.2689V34.5586C30.3773 32.5903 31.2937 30.1222 31.2937 27.4425C31.2937 24.7627 30.3773 22.2947 28.8381 20.3263V5.29767C28.8382 5.15363 28.9109 5.02995 29.0375 4.95863ZM22.8817 1.07642C22.5848 1.00931 22.3991 0.716927 22.4671 0.42353C22.5351 0.130133 22.8309 -0.0533184 23.1278 0.0138665L26.8353 0.856603C27.1322 0.923788 27.3179 1.21609 27.2499 1.50949L26.3969 5.17313C26.3289 5.46653 26.0331 5.64998 25.7361 5.5828C25.4392 5.51561 25.2536 5.22331 25.3216 4.92991L25.9011 2.44056L0.813003 15.8319C0.544672 15.9744 0.210166 15.8751 0.0658925 15.61C-0.0783809 15.3448 0.0221445 15.0143 0.290476 14.8717L25.1637 1.59517L22.8817 1.07642ZM19.5039 20.0306C15.3612 20.0306 12.0031 23.3489 12.0031 27.4425C12.0031 31.5361 15.3612 34.8543 19.5039 34.8543C23.6465 34.8543 27.0047 31.5361 27.0047 27.4425C27.0047 23.3489 23.6465 20.0306 19.5039 20.0306ZM20.0655 31.7919L20.0802 32.3935C20.0873 32.694 19.8466 32.9433 19.5425 32.9504C19.2384 32.9575 18.9861 32.7196 18.9789 32.4191L18.9638 31.8019C18.279 31.6849 17.8102 31.3367 17.3143 30.8745C17.0925 30.6683 17.0819 30.3234 17.2906 30.1043C17.4993 29.8851 17.8482 29.8746 18.0701 30.0808C18.53 30.5096 18.8467 30.7525 19.5038 30.7525C20.2909 30.7525 21.1161 30.228 21.1161 29.3882C21.1161 28.5484 20.2909 28.0239 19.5038 28.0239C18.1103 28.0239 16.7858 27.0131 16.7858 25.5671C16.7859 24.3367 17.7645 23.3879 18.9438 23.1629L18.9275 22.4915C18.9204 22.191 19.1611 21.9416 19.4651 21.9345C19.7692 21.9275 20.0215 22.1654 20.0287 22.4659L20.0459 23.1788C20.6828 23.3186 21.5209 23.6938 21.8846 24.2406C22.0515 24.4916 21.9809 24.8288 21.727 24.9938C21.4729 25.1587 21.1317 25.089 20.9647 24.838C20.7509 24.5166 19.8854 24.2006 19.5038 24.2006C18.7215 24.2006 17.8892 24.7261 17.8892 25.5671C17.8892 26.4069 18.7167 26.9314 19.5038 26.9314C20.9001 26.9314 22.2218 27.9446 22.2218 29.3882C22.2218 30.6168 21.2429 31.5666 20.0655 31.7919ZM19.5039 16.8848C13.6031 16.8848 8.81951 21.6116 8.81951 27.4424C8.81951 33.2732 13.603 38 19.5039 38C25.4047 38 30.1882 33.2732 30.1882 27.4424C30.1882 21.6116 25.4047 16.8848 19.5039 16.8848ZM19.5039 35.9467C14.7508 35.9467 10.8975 32.1391 10.8975 27.4424C10.8975 22.7458 14.7509 18.9381 19.5039 18.9381C24.2568 18.9381 28.1102 22.7458 28.1102 27.4424C28.1102 32.139 24.2569 35.9467 19.5039 35.9467ZM3.20714 17.7311C3.08047 17.8024 3.00774 17.9261 3.00782 18.0702V35.2688C3.00774 35.4837 3.1851 35.6591 3.40266 35.6591H9.77485C9.99233 35.6591 10.1697 35.4838 10.1697 35.2689V34.5586C8.63054 32.5903 7.71412 30.1221 7.71412 27.4424C7.71412 24.7626 8.63054 22.2946 10.1697 20.3262V14.4823C10.1698 14.182 9.84356 13.9946 9.57941 14.1432C7.45527 15.3392 5.3312 16.5352 3.20714 17.7311ZM16.1223 11.3449C15.9957 11.4162 15.9229 11.5399 15.9229 11.6839V16.3403C17.0523 15.9847 18.2553 15.7923 19.5039 15.7923C20.7524 15.7923 21.9555 15.9847 23.0848 16.3403V8.0961C23.0849 7.79568 22.7587 7.60833 22.4945 7.75706C20.3705 8.95289 18.2464 10.1489 16.1223 11.3449Z" fill="white"/>
</svg>
