<svg width="47" height="37" viewBox="0 0 47 37" fill="none" xmlns="http://www.w3.org/2000/svg">
<path fill-rule="evenodd" clip-rule="evenodd" d="M11.0862 9.97874C11.4425 9.22353 12.1596 8.68962 13.272 8.34992C13.9542 8.16574 14.5166 8.00419 14.9752 7.86919L17.111 11.5691C17.1793 11.6873 17.2776 11.7855 17.3959 11.8538C17.5141 11.922 17.6483 11.958 17.7849 11.958C17.9215 11.958 18.0557 11.922 18.1739 11.8538C18.2922 11.7855 18.3905 11.6873 18.4588 11.5691L20.5945 7.86919C21.054 8.00556 21.6156 8.16574 22.2977 8.34992C23.4106 8.68962 24.1272 9.22353 24.4835 9.97874L24.4908 11.4249C24.321 11.4717 24.1415 11.5213 23.9542 11.5718C23.9458 11.5737 23.9375 11.576 23.9294 11.5787C22.5741 11.9901 21.5931 12.6773 21.0036 13.624H11.0678L11.0861 9.97874H11.0862ZM46.2577 28.2912L25.9953 36.5498C25.5914 36.7236 25.1483 36.7859 24.7121 36.7302C24.2759 36.6746 23.8626 36.503 23.5153 36.2334L17.2785 31.5801C17.0387 31.3979 16.7635 31.268 16.4705 31.1985C16.1774 31.1291 15.8731 31.1218 15.5771 31.177L12.0039 31.8096L10.4004 22.87L17.5741 20.5782C18.299 20.3469 18.9606 20.3993 19.5974 20.738L31.1656 26.8959C31.2956 27.2139 31.3394 27.5606 31.2927 27.901C31.246 28.2413 31.1105 28.5634 30.8997 28.8347C30.689 29.1061 30.4104 29.317 30.0922 29.4465C29.7739 29.5759 29.4272 29.6191 29.0869 29.5719L23.2784 26.4804C23.1881 26.4324 23.0893 26.4027 22.9876 26.3929C22.8859 26.3831 22.7833 26.3935 22.6856 26.4233C22.5879 26.4532 22.497 26.5021 22.4182 26.5671C22.3393 26.6321 22.2741 26.712 22.2261 26.8022C22.1782 26.8924 22.1485 26.9912 22.1387 27.0929C22.1289 27.1946 22.1392 27.2972 22.1691 27.3949C22.199 27.4927 22.2478 27.5835 22.3128 27.6624C22.3778 27.7412 22.4577 27.8064 22.548 27.8544L28.467 31.0061C28.5352 31.0425 28.6084 31.0683 28.6842 31.0828C29.4337 31.23 30.2107 31.1282 30.897 30.7931C31.5833 30.458 32.1413 29.9078 32.486 29.2263L45.5968 26.1373C45.8373 26.1594 46.0657 26.2525 46.2531 26.4048C46.4406 26.5571 46.5785 26.7616 46.6493 26.9925C46.7202 27.2233 46.7208 27.47 46.6511 27.7012C46.5814 27.9324 46.4445 28.1377 46.2579 28.2909L46.2577 28.2912ZM2.53592 36.1554L10.9324 34.6491L8.39681 20.5168L0 22.0222L2.53592 36.1554ZM43.0892 3.01026C43.0895 3.60596 42.9131 4.18837 42.5824 4.68383C42.2517 5.1793 41.7815 5.56558 41.2313 5.7938C40.681 6.02203 40.0755 6.08197 39.4912 5.96603C38.9069 5.85009 38.3701 5.56348 37.9486 5.14245C37.5272 4.72142 37.2401 4.18488 37.1237 3.60068C37.0072 3.01649 37.0666 2.41087 37.2943 1.86042C37.522 1.30997 37.9079 0.839419 38.403 0.508266C38.8982 0.177113 39.4805 0.000234626 40.0762 0C40.8746 0.000602766 41.6402 0.317861 42.205 0.882185C42.7699 1.44651 43.0878 2.21182 43.0892 3.01026ZM31.9877 7.73208C31.9875 8.32742 31.8108 8.90933 31.4799 9.40425C31.149 9.89916 30.6788 10.2849 30.1288 10.5126C29.5787 10.7403 28.9735 10.7997 28.3896 10.6835C27.8057 10.5672 27.2694 10.2805 26.8485 9.85943C26.4276 9.4384 26.141 8.90202 26.0249 8.31811C25.9089 7.7342 25.9685 7.12898 26.1964 6.57898C26.4243 6.02898 26.8101 5.5589 27.3051 5.22817C27.8001 4.89744 28.3821 4.72091 28.9774 4.72091C29.7756 4.7219 30.5409 5.0395 31.1052 5.60401C31.6696 6.16853 31.9869 6.93386 31.9877 7.73208ZM20.8894 3.01026C20.8896 3.60587 20.7132 4.18817 20.3825 4.68351C20.0517 5.17886 19.5815 5.565 19.0313 5.79311C18.4811 6.02122 17.8757 6.08105 17.2915 5.96503C16.7073 5.84901 16.1706 5.56236 15.7493 5.14132C15.328 4.72028 15.0411 4.18377 14.9247 3.59964C14.8083 3.0155 14.8678 2.40998 15.0956 1.85966C15.3234 1.30933 15.7093 0.838909 16.2044 0.507892C16.6996 0.176874 17.2818 0.000126335 17.8774 0C18.6757 0.000651498 19.4412 0.317957 20.0059 0.8823C20.5705 1.44664 20.8883 2.21193 20.8894 3.01026ZM36.7652 13.624C36.1743 12.6773 35.1942 11.9901 33.8375 11.5787C33.8301 11.5759 33.8224 11.5736 33.8146 11.5718C33.6268 11.5213 33.4477 11.4715 33.2774 11.4249L33.2853 9.97874C33.641 9.22353 34.3573 8.68962 35.4706 8.34992C36.1519 8.16574 36.7142 8.00556 37.1738 7.86919L39.3095 11.5691C39.3779 11.6873 39.4761 11.7855 39.5944 11.8538C39.7127 11.922 39.8469 11.958 39.9835 11.958C40.1201 11.958 40.2542 11.922 40.3725 11.8538C40.4908 11.7855 40.5891 11.6873 40.6574 11.5691L42.792 7.86919C43.251 8.00556 43.8157 8.16574 44.4951 8.34992C45.6108 8.68962 46.3269 9.22353 46.6804 9.97874L46.6986 13.624H36.7652ZM22.1674 18.3457H35.6009L35.5827 14.7C35.2264 13.9454 34.5103 13.4119 33.3969 13.0712C32.7161 12.8888 32.1537 12.7269 31.6941 12.5919L29.5584 16.2913C29.4902 16.4096 29.3919 16.5079 29.2736 16.5763C29.1553 16.6446 29.0211 16.6806 28.8845 16.6806C28.7478 16.6806 28.6136 16.6446 28.4953 16.5763C28.377 16.5079 28.2788 16.4096 28.2105 16.2913L26.0743 12.5919C25.6143 12.7269 25.0527 12.8885 24.3707 13.0712C23.2578 13.4119 22.5421 13.9454 22.1858 14.7L22.1674 18.3457Z" fill="white"/>
</svg>
