<svg width="35" height="32" viewBox="0 0 35 32" fill="none" xmlns="http://www.w3.org/2000/svg">
<path fill-rule="evenodd" clip-rule="evenodd" d="M13.1953 31.9643L34.0896 19.1418L26.4929 6.76257L26.7878 6.58196L25.4801 4.45131L25.5776 1.95349L23.798 1.88427L22.5429 5.21944L25.2697 7.51357L23.9573 8.31942L21.23 6.02528L18.4982 7.70189L21.2251 9.99551L19.9126 10.8014L17.1858 8.50722L14.4535 10.1838L17.1808 12.478L15.8681 13.2833L13.1413 10.9892L10.4095 12.6658L13.1363 14.9599L11.8236 15.7652L9.09678 13.4716L6.36498 15.1482L9.09183 17.4418L7.7794 18.2477L5.05211 15.9536L3.53474 16.8849L5.30343 19.767L5.59842 19.5859L13.1951 31.9651L13.1953 31.9643ZM22.2591 1.82448L19.0559 1.69969L17.8011 5.03486L21.0042 5.15965L22.2591 1.82448ZM17.5173 1.63965L14.3146 1.51486L13.0597 4.85028L16.2624 4.97457L17.5173 1.6394V1.63965ZM12.7757 1.45531L9.57251 1.33052L8.31763 4.66569L11.5203 4.79048L12.7754 1.45531H12.7757ZM8.03385 1.27048L4.83067 1.14569L3.57579 4.48111L6.77897 4.6059L8.03385 1.27048ZM3.29201 1.08615L0.389303 0.973267L0.257812 4.35207L2.03743 4.42128L3.29231 1.08612L3.29201 1.08615ZM20.8653 15.4552L9.78362 22.2555L10.5512 23.5061L21.6329 16.7058L20.8653 15.4552ZM22.4734 18.0754L14.5966 22.9088L15.3637 24.1594L23.2405 19.326L22.4734 18.0754Z" fill="white"/>
</svg>
