<svg width="31" height="31" viewBox="0 0 31 31" fill="none" xmlns="http://www.w3.org/2000/svg">
<path d="M18.5196 30.905H1.8803C0.825271 30.905 0.0102059 29.9459 0.153925 28.8909C0.681326 25.6303 2.79139 22.8008 5.71651 21.3145C6.91526 23.0888 8.73743 24.5272 10.2241 24.5272C11.7107 24.5272 13.4847 23.1367 14.7316 21.3145C15.4988 21.6981 16.1701 22.1776 16.8415 22.705C18.6636 24.2874 19.9105 26.4454 20.294 28.8906C20.39 29.8977 19.6226 30.9049 18.5197 30.9049L18.5196 30.905Z" fill="white"/>
<path d="M26.6237 18.2453C26.6237 20.5949 23.9863 23.52 22.4039 23.52C20.7735 23.52 18.184 20.5949 18.184 18.2453C18.184 15.8957 20.102 14.0254 22.4039 14.0254C24.7057 14.0254 26.6237 15.8955 26.6237 18.2453Z" fill="white"/>
<path d="M15.2114 17.3345C15.2114 20.1156 12.0944 23.5681 10.2243 23.5681C8.35424 23.5681 5.2373 20.0677 5.2373 17.3345C5.2373 14.6012 7.49108 12.3474 10.2243 12.3474C12.9576 12.2995 15.2114 14.5533 15.2114 17.3345Z" fill="white"/>
<path d="M29.3089 29.6105H21.1571C21.205 29.3228 21.205 29.0349 21.1571 28.7473C20.7735 26.2059 19.4789 23.8561 17.5607 22.1299C17.8483 21.9381 18.0881 21.7944 18.376 21.6025C19.431 23.185 21.0134 24.4318 22.404 24.4318C23.7945 24.4318 25.377 23.185 26.432 21.6025C28.7816 22.8494 30.4122 25.1511 30.8437 27.8362C30.9874 28.747 30.2679 29.6103 29.309 29.6103L29.3089 29.6105Z" fill="white"/>
<path d="M19.0957 4.77053C19.0957 5.30037 18.6663 5.72977 18.1367 5.72977C17.6069 5.72977 17.1775 5.30038 17.1775 4.77053C17.1775 4.24092 17.6069 3.81152 18.1367 3.81152C18.6663 3.81152 19.0957 4.24091 19.0957 4.77053Z" fill="white"/>
<path d="M8.59392 4.77053C8.59392 5.30037 8.16454 5.72977 7.63491 5.72977C7.10529 5.72977 6.6759 5.30038 6.6759 4.77053C6.6759 4.24092 7.10529 3.81152 7.63491 3.81152C8.16454 3.81152 8.59392 4.24091 8.59392 4.77053Z" fill="white"/>
<path d="M13.8202 4.77053C13.8202 5.30037 13.3908 5.72977 12.861 5.72977C12.3314 5.72977 11.902 5.30038 11.902 4.77053C11.902 4.24092 12.3314 3.81152 12.861 3.81152C13.3908 3.81152 13.8202 4.24091 13.8202 4.77053Z" fill="white"/>
<path d="M27.0553 0.215332H3.94215C3.12686 0.215332 2.50366 0.838754 2.50366 1.65382V7.88747C2.50366 8.70276 3.12708 9.32596 3.94215 9.32596H5.23692V11.34C5.23692 11.7716 5.81247 12.0113 6.10008 11.6277L7.97017 9.32595H23.0276L24.8977 11.6277C25.1853 11.9632 25.7608 11.7716 25.7608 11.34L25.7606 9.32596H27.0554C27.8225 9.32596 28.4939 8.70254 28.4939 7.88747V1.65382C28.4939 0.838754 27.8228 0.215332 27.0554 0.215332H27.0553ZM7.6343 6.68917C6.57927 6.68917 5.71628 5.82601 5.71628 4.77115C5.71628 3.71612 6.57944 2.85313 7.6343 2.85313C8.68933 2.85313 9.55232 3.71629 9.55232 4.77115C9.55254 5.82596 8.68933 6.68917 7.6343 6.68917ZM12.8611 6.68917C11.806 6.68917 10.9431 5.82601 10.9431 4.77115C10.9431 3.71612 11.8062 2.85313 12.8611 2.85313C13.9161 2.85313 14.7791 3.71629 14.7791 4.77115C14.7793 5.82596 13.9161 6.68917 12.8611 6.68917ZM18.136 6.68917C17.081 6.68917 16.218 5.82601 16.218 4.77115C16.218 3.71612 17.0811 2.85313 18.136 2.85313C19.191 2.85313 20.054 3.71629 20.054 4.77115C20.054 5.82601 19.1909 6.68917 18.136 6.68917ZM23.3628 6.68917C22.3077 6.68917 21.4448 5.82601 21.4448 4.77115C21.4448 3.71612 22.3079 2.85313 23.3628 2.85313C24.4178 2.85313 25.2808 3.71629 25.2808 4.77115C25.2808 5.82601 24.4176 6.68917 23.3628 6.68917Z" fill="white"/>
<path d="M24.3221 4.77053C24.3221 5.30037 23.8927 5.72977 23.3631 5.72977C22.8334 5.72977 22.4041 5.30038 22.4041 4.77053C22.4041 4.24092 22.8334 3.81152 23.3631 3.81152C23.8927 3.81152 24.3221 4.24091 24.3221 4.77053Z" fill="white"/>
</svg>
