<svg width="39" height="38" viewBox="0 0 39 38" fill="none" xmlns="http://www.w3.org/2000/svg">
<path d="M13.3 0C8.36 0 4.37 3.99 4.37 9.12C4.37 14.06 8.17 17.86 13.11 18.05H13.49C18.43 17.86 22.23 13.87 22.23 9.12C22.42 3.99 18.24 0 13.3 0Z" fill="white"/>
<path d="M22.99 22.99C17.67 19.38 9.12 19.38 3.8 22.99C1.33 24.7 0 26.79 0 29.07C0 31.35 1.33 33.63 3.8 35.15C6.27 37.05 9.88 38 13.3 38C16.72 38 20.33 37.05 22.99 35.34C25.46 33.63 26.79 31.54 26.79 29.26C26.6 26.79 25.27 24.7 22.99 22.99Z" fill="white"/>
<path d="M34.2 10.07C34.58 13.68 31.92 16.91 28.31 17.48C28.12 17.48 28.12 17.48 27.93 17.48C26.03 17.67 24.32 16.91 23.18 15.96C25.08 14.25 26.22 11.59 26.03 8.74C25.84 7.22 25.46 5.89 24.51 4.56C25.27 4.18 26.03 3.99 26.98 3.99C30.59 3.61 33.82 6.46 34.2 10.07Z" fill="white"/>
<path d="M38 27.74C37.81 29.64 36.67 31.16 34.77 32.3C32.87 33.25 30.4 33.82 28.12 33.82C29.45 32.68 30.21 30.97 30.4 29.45C30.59 27.17 29.45 24.89 27.17 22.99C25.84 22.04 24.51 21.28 22.8 20.52C26.98 19.38 32.3 20.14 35.53 22.8C37.24 24.13 38.19 25.84 38 27.74Z" fill="white"/>
</svg>
