<svg width="15" height="15" viewBox="0 0 15 15" fill="none" xmlns="http://www.w3.org/2000/svg">
<path id="Vector" d="M11.875 2.5H11.1875C11.0424 1.79463 10.6586 1.16084 10.1008 0.705449C9.54293 0.250056 8.84513 0.000909078 8.125 0H6.875C6.15487 0.000909078 5.45707 0.250056 4.89922 0.705449C4.34136 1.16084 3.95756 1.79463 3.8125 2.5H3.125C2.2965 2.50099 1.50222 2.83055 0.916387 3.41639C0.330551 4.00222 0.000992411 4.7965 0 5.625V11.875C0.000992411 12.7035 0.330551 13.4978 0.916387 14.0836C1.50222 14.6694 2.2965 14.999 3.125 15H11.875C12.7035 14.999 13.4978 14.6694 14.0836 14.0836C14.6694 13.4978 14.999 12.7035 15 11.875V5.625C14.999 4.7965 14.6694 4.00222 14.0836 3.41639C13.4978 2.83055 12.7035 2.50099 11.875 2.5ZM6.875 1.25H8.125C8.51141 1.2516 8.88789 1.37255 9.20294 1.5963C9.51798 1.82006 9.7562 2.13568 9.885 2.5H5.115C5.2438 2.13568 5.48202 1.82006 5.79706 1.5963C6.11211 1.37255 6.48859 1.2516 6.875 1.25ZM3.125 3.75H11.875C12.3723 3.75 12.8492 3.94754 13.2008 4.29918C13.5525 4.65081 13.75 5.12772 13.75 5.625V7.5H1.25V5.625C1.25 5.12772 1.44754 4.65081 1.79917 4.29918C2.15081 3.94754 2.62772 3.75 3.125 3.75ZM11.875 13.75H3.125C2.62772 13.75 2.15081 13.5525 1.79917 13.2008C1.44754 12.8492 1.25 12.3723 1.25 11.875V8.75H6.875V9.375C6.875 9.54076 6.94085 9.69973 7.05806 9.81694C7.17527 9.93415 7.33424 10 7.5 10C7.66576 10 7.82473 9.93415 7.94194 9.81694C8.05915 9.69973 8.125 9.54076 8.125 9.375V8.75H13.75V11.875C13.75 12.3723 13.5525 12.8492 13.2008 13.2008C12.8492 13.5525 12.3723 13.75 11.875 13.75Z" fill="#717171"/>
</svg>
