<svg width="38" height="38" viewBox="0 0 38 38" fill="none" xmlns="http://www.w3.org/2000/svg">
<path d="M0 38H6.67969V17.8867H0V38ZM2.22656 22.3398H4.45312V24.5664H2.22656V22.3398ZM2.22656 26.793H4.45312V29.0195H2.22656V26.793ZM2.22656 31.2461H4.45312V33.4727H2.22656V31.2461Z" fill="white"/>
<path d="M31.3203 17.8867V38H38V17.8867H31.3203ZM35.7734 33.4727H33.5469V31.2461H35.7734V33.4727ZM35.7734 29.0195H33.5469V26.793H35.7734V29.0195ZM35.7734 24.5664H33.5469V22.3398H35.7734V24.5664Z" fill="white"/>
<path d="M17.8867 33.4727H20.1133V38H17.8867V33.4727Z" fill="white"/>
<path d="M8.98047 38H15.6602V31.2461H22.3398V38H29.0195V8.98047H8.98047V38ZM13.4336 13.4336H24.5664V15.6602H13.4336V13.4336ZM13.4336 17.8867H24.5664V20.1133H13.4336V17.8867ZM13.4336 22.3398H24.5664V24.5664H13.4336V22.3398ZM13.4336 26.793H24.5664V29.0195H13.4336V26.793Z" fill="white"/>
<path d="M26.793 4.52734H20.1133V0H17.8867V4.52734H11.207V6.75391H26.793V4.52734Z" fill="white"/>
</svg>
