<svg width="36" height="38" viewBox="0 0 36 38" fill="none" xmlns="http://www.w3.org/2000/svg">
<path d="M17.8867 8.90625C20.3461 8.90625 22.3398 6.91252 22.3398 4.45312C22.3398 1.99373 20.3461 0 17.8867 0C15.4273 0 13.4336 1.99373 13.4336 4.45312C13.4336 6.91252 15.4273 8.90625 17.8867 8.90625Z" fill="white"/>
<path d="M12.3203 18.9258H23.4531C24.068 18.9258 24.5664 18.4273 24.5664 17.8125V14.4727C24.5664 12.4795 23.6886 10.6878 22.2997 9.46289C19.7763 11.6883 16.0005 11.6913 13.4737 9.46289C12.0848 10.6878 11.207 12.4795 11.207 14.4727V17.8125C11.207 18.4273 11.7055 18.9258 12.3203 18.9258Z" fill="white"/>
<path d="M15.6754 26.7432L12.1423 23.2475C10.5423 21.6609 8.07604 21.4791 6.27742 22.6988C5.89297 22.9596 5.84398 23.508 6.1724 23.8364L10.6029 28.2669C10.9902 28.6542 10.9694 29.2883 10.5575 29.6494C10.1809 29.9794 9.61252 29.9595 9.25998 29.6039L4.52734 24.829V13.916C4.52734 12.6658 3.51389 11.6523 2.26367 11.6523C1.01346 11.6523 0 12.6658 0 13.916V24.6208C0 26.0106 0.556863 27.3425 1.54605 28.3187L7.14526 33.8442V36.8867C7.14526 37.5015 7.64371 38 8.25854 38H15.6602C16.275 38 16.7734 37.5015 16.7734 36.8867V29.3783C16.7734 28.3887 16.3781 27.4401 15.6754 26.7432Z" fill="white"/>
<path d="M20.098 26.7432L23.6311 23.2475C25.2312 21.6609 27.6974 21.4791 29.496 22.6988C29.8805 22.9596 29.9295 23.508 29.601 23.8364L25.1705 28.2669C24.7832 28.6542 24.8041 29.2883 25.216 29.6494C25.5926 29.9794 26.1609 29.9595 26.5135 29.6039L31.2461 24.829V13.916C31.2461 12.6658 32.2596 11.6523 33.5098 11.6523C34.76 11.6523 35.7734 12.6658 35.7734 13.916V24.6208C35.7734 26.0106 35.2166 27.3425 34.2274 28.3187L28.6282 33.8442V36.8867C28.6282 37.5015 28.1297 38 27.5149 38H20.1133C19.4985 38 19 37.5015 19 36.8867V29.3783C19 28.3887 19.3953 27.4401 20.098 26.7432Z" fill="white"/>
</svg>
