<svg width="40" height="38" viewBox="0 0 40 38" fill="none" xmlns="http://www.w3.org/2000/svg">
<path d="M27.7331 13.8214H5.94634C5.57535 13.8213 5.20797 13.8943 4.8652 14.0362C4.52243 14.1782 4.21098 14.3862 3.94865 14.6486C3.68632 14.9109 3.47825 15.2223 3.33632 15.5651C3.19439 15.9079 3.12138 16.2753 3.12147 16.6462V30.5446C3.12247 31.2935 3.42041 32.0114 3.94996 32.541C4.47951 33.0705 5.19744 33.3684 5.94634 33.3694H9.87652L8.43495 36.9266C8.36879 37.0994 8.37304 37.2912 8.44678 37.4608C8.52053 37.6305 8.65788 37.7644 8.82933 37.8339C9.00077 37.9033 9.19262 37.9028 9.36365 37.8323C9.53467 37.7618 9.67122 37.627 9.74395 37.457L11.4004 33.3694H23.6841L25.4962 37.5825C25.572 37.7518 25.7114 37.8844 25.8841 37.9518C26.0569 38.0191 26.2493 38.0158 26.4197 37.9425C26.59 37.8693 26.7247 37.7319 26.7947 37.5601C26.8646 37.3884 26.8642 37.196 26.7934 37.0245L25.2214 33.3694H27.7331C28.4816 33.3672 29.1989 33.0689 29.7282 32.5396C30.2574 32.0103 30.5558 31.2931 30.558 30.5446V16.6462C30.557 15.8974 30.259 15.1794 29.7295 14.6499C29.1999 14.1203 28.482 13.8224 27.7331 13.8214ZM26.9563 26.8228H8.94775C8.76235 26.8199 8.58551 26.7443 8.45542 26.6121C8.32532 26.48 8.25241 26.302 8.25241 26.1166C8.25242 25.9312 8.32534 25.7532 8.45544 25.621C8.58554 25.4889 8.76238 25.4133 8.94779 25.4104H26.9563C27.1417 25.4133 27.3185 25.4889 27.4486 25.6211C27.5787 25.7532 27.6516 25.9312 27.6516 26.1166C27.6516 26.302 27.5787 26.48 27.4486 26.6122C27.3185 26.7443 27.1417 26.8199 26.9563 26.8228ZM8.24154 20.4598C8.2421 20.2727 8.31668 20.0934 8.449 19.9611C8.58132 19.8287 8.76063 19.7542 8.94775 19.7536H19.0466C19.2339 19.7536 19.4136 19.828 19.546 19.9604C19.6785 20.0929 19.7529 20.2725 19.7529 20.4598C19.7529 20.6471 19.6785 20.8267 19.546 20.9592C19.4136 21.0916 19.2339 21.166 19.0466 21.166H8.94775C8.76063 21.1655 8.58132 21.0909 8.449 20.9586C8.31668 20.8262 8.2421 20.6469 8.24154 20.4598ZM22.3941 21.6039V19.2875C22.3952 18.9132 22.5444 18.5546 22.809 18.29C23.0737 18.0253 23.4323 17.8762 23.8065 17.8751H26.13C26.5042 17.8762 26.8629 18.0253 27.1275 18.29C27.3922 18.5546 27.5413 18.9132 27.5424 19.2875V21.6039C27.5425 21.7894 27.506 21.9731 27.435 22.1445C27.364 22.3158 27.26 22.4716 27.1288 22.6027C26.9977 22.7339 26.8419 22.8379 26.6706 22.9089C26.4992 22.9799 26.3155 23.0164 26.13 23.0163H23.8065C23.621 23.0164 23.4373 22.9799 23.266 22.9089C23.0946 22.8379 22.9388 22.7339 22.8077 22.6027C22.6765 22.4716 22.5725 22.3158 22.5015 22.1445C22.4305 21.9731 22.3941 21.7894 22.3941 21.6039Z" fill="white"/>
<path d="M31.9704 19.2804V27.9174C32.1959 27.9753 32.4157 28.0533 32.6272 28.1505C32.6272 26.1183 32.6272 21.0797 32.6272 19.0474C32.418 19.1501 32.1976 19.2283 31.9704 19.2804Z" fill="white"/>
<path d="M38.8772 17.1759C38.6789 17.0424 38.4505 16.9602 38.2126 16.9368C37.9747 16.9134 37.7347 16.9494 37.5142 17.0417L34.0396 18.4683C34.0421 19.3795 34.0396 28.7296 34.0396 28.7296L37.5142 30.1632C37.741 30.2505 37.9857 30.2812 38.227 30.2527C38.4683 30.2242 38.6991 30.1374 38.8994 29.9997C39.0996 29.862 39.2633 29.6776 39.3764 29.4625C39.4894 29.2474 39.5483 29.0079 39.5481 28.7649V18.44C39.5494 18.1903 39.4888 17.9441 39.3717 17.7235C39.2546 17.503 39.0847 17.3148 38.8772 17.1759Z" fill="white"/>
<path d="M23.5452 0.000740881C17.2688 -0.084005 13.2473 7.1194 16.5609 12.409C17.4723 12.4045 26.5659 12.4121 27.7331 12.4089C28.5624 12.4104 29.373 12.656 30.0636 13.1151C34.1231 7.8543 30.2441 -0.0557564 23.5452 0.000740881ZM23.5523 11.1448C22.7681 11.1382 22.0183 10.822 21.4661 10.2652C20.914 9.7083 20.6041 8.95584 20.6042 8.17163C20.6042 7.38741 20.914 6.63496 21.4662 6.07811C22.0184 5.52125 22.7682 5.2051 23.5524 5.19849C24.3365 5.20512 25.0864 5.52129 25.6385 6.07815C26.1907 6.63501 26.5005 7.38747 26.5005 8.17169C26.5005 8.9559 26.1907 9.70836 25.6385 10.2652C25.0863 10.8221 24.3365 11.1382 23.5523 11.1448Z" fill="white"/>
<path d="M23.5523 6.61092C23.1414 6.61555 22.7489 6.78202 22.46 7.07421C22.1711 7.3664 22.009 7.76074 22.009 8.17166C22.009 8.58257 22.1711 8.97691 22.46 9.26911C22.7489 9.5613 23.1414 9.72777 23.5523 9.7324C23.9632 9.72777 24.3557 9.5613 24.6446 9.26911C24.9335 8.97691 25.0956 8.58257 25.0956 8.17166C25.0956 7.76074 24.9335 7.3664 24.6446 7.07421C24.3557 6.78202 23.9632 6.61555 23.5523 6.61092Z" fill="white"/>
<path d="M8.32629 10.4386C8.33072 10.6595 8.42158 10.8699 8.57937 11.0245C8.73716 11.1792 8.94929 11.2658 9.17023 11.2658C9.39117 11.2658 9.6033 11.1791 9.76108 11.0245C9.91887 10.8698 10.0097 10.6595 10.0141 10.4386C10.0097 10.2177 9.91884 10.0073 9.76105 9.85267C9.60327 9.69802 9.39113 9.6114 9.17019 9.61141C8.94925 9.61141 8.73712 9.69804 8.57934 9.8527C8.42156 10.0074 8.33071 10.2177 8.32629 10.4386Z" fill="white"/>
<path d="M5.31074 12.4584C5.73119 12.3656 7.62431 12.4246 8.08617 12.409C7.6479 12.1677 7.30233 11.7875 7.10385 11.3282C6.90537 10.869 6.86526 10.3567 6.98983 9.8722C7.1144 9.38765 7.39658 8.95829 7.79194 8.65171C8.18731 8.34514 8.67341 8.17875 9.17371 8.17875C9.67401 8.17875 10.1601 8.34514 10.5555 8.65171C10.9508 8.95829 11.233 9.38765 11.3576 9.8722C11.4822 10.3567 11.4421 10.869 11.2436 11.3282C11.0451 11.7875 10.6995 12.1677 10.2612 12.409C11.2395 12.4044 13.6372 12.4122 14.5903 12.409C14.879 11.6169 14.9906 10.7711 14.9173 9.93126C14.844 9.09139 14.5876 8.27778 14.1661 7.54765C13.7446 6.81752 13.1683 6.1886 12.4777 5.70512C11.787 5.22164 10.9988 4.89536 10.1685 4.7492C9.33823 4.60305 8.486 4.64058 7.67177 4.85916C6.85754 5.07773 6.10108 5.47205 5.45561 6.01437C4.81013 6.55668 4.29131 7.23383 3.93564 7.99819C3.57996 8.76255 3.39607 9.59555 3.3969 10.4386C3.3952 11.2917 3.5859 12.1341 3.95481 12.9033C4.37807 12.6787 4.83668 12.5282 5.31074 12.4584Z" fill="white"/>
<path d="M23.8065 19.2875H26.13V21.6039H23.8065V19.2875Z" fill="white"/>
<path d="M0 18.1787V21.0601C0.000965676 21.4325 0.149341 21.7894 0.41269 22.0528C0.676039 22.3161 1.03294 22.4645 1.40537 22.4655H1.70904C1.70904 20.8831 1.70904 18.3557 1.70904 16.7734C1.50217 16.7381 1.29013 16.7478 1.08732 16.8017C0.8845 16.8556 0.695644 16.9524 0.533554 17.0857C0.371464 17.219 0.23993 17.3856 0.147872 17.5742C0.0558132 17.7628 0.00538274 17.9689 0 18.1787Z" fill="white"/>
</svg>
