<svg width="34" height="35" viewBox="0 0 34 35" fill="none" xmlns="http://www.w3.org/2000/svg">
<path d="M25.967 8.96484C25.967 4.02136 21.9457 0 17.0022 0C12.0587 0 8.03735 4.02136 8.03735 8.96484C8.03735 13.9083 12.0587 17.9297 17.0022 17.9297C21.9457 17.9297 25.967 13.9083 25.967 8.96484ZM13.2055 14.2293L13.9254 10.0348L10.8777 7.06503L15.0888 6.45124L16.973 2.63613L18.8562 6.45124L23.0691 7.0641L20.0206 10.0348L20.7404 14.2293L16.973 12.2488L13.2055 14.2293Z" fill="white"/>
<path d="M17.5333 8.27223L16.973 7.13608L16.4118 8.27223L15.1579 8.45418L16.0655 9.33838L15.8514 10.5874L16.973 9.99793L18.0946 10.5874L17.8806 9.33838L18.7872 8.45511L17.5333 8.27223Z" fill="white"/>
<path d="M15.9375 34.0039V25.896C15.9375 24.5576 15.3918 23.2589 14.4413 22.3338C14.2407 22.1388 11.4659 19.4428 11.6666 19.6379C10.0931 18.0644 7.54196 18.0643 5.96826 19.6379C6.21981 19.8894 11.1671 24.8368 10.9617 24.6315L9.55334 26.04L3.98438 20.4711C3.98438 20.1768 3.98438 11.5722 3.98438 12.0899C3.98438 9.88929 2.2005 8.10548 0 8.10548C0 8.53327 0 20.6371 0 20.3777C0 21.4001 0.318086 22.3903 0.919129 23.2415L5.42991 29.6499C5.78206 30.1334 5.9765 30.7394 5.97656 31.3542V34.0039H15.9375Z" fill="white"/>
<path d="M28.0233 31.3541C28.0234 30.7393 28.2179 30.1333 28.57 29.6499L33.0807 23.2414C33.6818 22.3903 34 21.4 34 20.3776C34 20.6371 34 8.5332 34 8.10541C31.7994 8.10541 30.0155 9.88922 30.0156 12.0898C30.0156 11.5722 30.0156 20.1767 30.0156 20.471L24.4467 26.04L23.0381 24.6314C22.8327 24.8368 27.7801 19.8894 28.0316 19.6378C26.458 18.0642 23.9068 18.0644 22.3332 19.6378C22.534 19.4428 19.7593 22.1387 19.5586 22.3338C18.6082 23.2589 18.0625 24.5574 18.0625 25.896V34.0039H28.0233V31.3541Z" fill="white"/>
</svg>
