<svg width="35" height="46" viewBox="0 0 35 46" fill="none" xmlns="http://www.w3.org/2000/svg">
<path fill-rule="evenodd" clip-rule="evenodd" d="M20.0894 23.4954C20.1262 23.4443 20.1645 23.3937 20.2043 23.3435C21.0803 21.956 22.2123 20.8409 23.4854 20.3867C23.62 20.3385 23.73 20.2388 23.7911 20.1096C23.8523 19.9803 23.8595 19.8321 23.8114 19.6974C23.7632 19.5628 23.6635 19.4528 23.5343 19.3917C23.405 19.3305 23.2568 19.3233 23.1221 19.3714C21.6372 19.9025 20.3535 21.1307 19.3686 22.6474C19.3146 22.7286 19.2614 22.8115 19.2089 22.8963C19.0303 23.1838 18.8583 23.4924 18.693 23.8222C18.4337 24.3336 18.2063 24.8606 18.012 25.4C17.8132 24.5336 17.5416 23.6855 17.2 22.8648C17.2063 22.8619 17.2122 22.8585 17.2186 22.8558C17.2836 22.823 17.3413 22.7772 17.3881 22.7213C17.4349 22.6654 17.4698 22.6005 17.4906 22.5307C18.0487 20.6716 17.9073 18.6726 17.093 16.9107C16.2787 15.1487 14.8479 13.7456 13.0703 12.9659C11.1275 12.0578 8.99263 11.6368 6.85051 11.7395C6.7489 11.7444 6.65076 11.7779 6.56743 11.8363C6.48409 11.8946 6.41896 11.9753 6.37956 12.0691C6.34016 12.1629 6.3281 12.2659 6.34478 12.3663C6.36145 12.4666 6.40618 12.5602 6.47379 12.6362C7.11338 13.3546 7.5942 14.1999 7.88485 15.1169C8.1755 16.0338 8.26944 17.0018 8.16053 17.9575C8.1557 18.0012 8.156 18.0453 8.16142 18.0889C8.28052 18.9902 8.5942 19.8547 9.08071 20.6227C9.56722 21.3906 10.2149 22.0436 10.9789 22.5363C11.7429 23.0289 12.6049 23.3496 13.5051 23.476C14.4054 23.6024 15.3224 23.5314 16.1925 23.2681C16.949 25.0715 17.3436 27.0354 17.2842 28.7289V34.5375H9.58967V33.4935C9.59692 32.9969 9.47882 32.5065 9.24629 32.0676C9.01377 31.6287 8.67432 31.2555 8.25935 30.9826C6.04712 29.4833 4.23587 27.4649 2.98399 25.1039C1.73211 22.7428 1.07772 20.111 1.07804 17.4386C1.07804 8.41748 8.41658 1.07813 17.4378 1.07813C26.459 1.07813 33.7975 8.41757 33.7975 17.4387C33.7978 20.1111 33.1435 22.7428 31.8917 25.1039C30.6398 27.4649 28.8287 29.4834 26.6165 30.9827C26.2015 31.2556 25.862 31.6288 25.6294 32.0676C25.3968 32.5065 25.2786 32.997 25.2858 33.4936V34.5371H18.3625V28.77C18.4637 27.3358 18.932 25.7304 19.6614 24.2976C19.326 24.1662 19.0021 24.0071 18.693 23.822C18.6706 23.8077 18.6472 23.7945 18.6235 23.7793C18.5626 23.7395 18.5103 23.6879 18.4697 23.6276C18.4292 23.5672 18.4012 23.4993 18.3875 23.4279C18.0866 21.8431 18.3759 20.2031 19.2007 18.8168C20.0256 17.4306 21.329 16.394 22.8654 15.9025C24.5396 15.3238 26.3296 15.1613 28.0806 15.4291C28.1812 15.4446 28.2753 15.4883 28.3521 15.555C28.4289 15.6217 28.4852 15.7088 28.5147 15.8062C28.5441 15.9036 28.5454 16.0073 28.5184 16.1054C28.4914 16.2035 28.4372 16.292 28.3621 16.3606C27.7904 16.882 27.335 17.5182 27.0258 18.2276C26.7166 18.937 26.5605 19.7036 26.5677 20.4774C26.5682 20.5212 26.5634 20.5649 26.5533 20.6075C26.3813 21.3257 26.0591 21.9993 25.6079 22.5841C25.1568 23.1688 24.5869 23.6513 23.9358 23.9999C23.2847 24.3485 22.5672 24.5553 21.8305 24.6066C21.0937 24.6579 20.3545 24.5526 19.6614 24.2976C19.7668 24.012 19.9108 23.7421 20.0894 23.4955V23.4954ZM16.7437 21.8555C16.699 21.7712 16.6543 21.691 16.6096 21.6148C15.5788 19.6712 14.1227 18.0112 12.3156 17.1441C12.1872 17.0862 12.0413 17.0808 11.909 17.1291C11.7766 17.1775 11.6685 17.2757 11.6077 17.4027C11.5469 17.5298 11.5382 17.6756 11.5835 17.8089C11.6289 17.9423 11.7246 18.0526 11.8502 18.1163C13.4603 18.889 14.7902 20.4477 15.7315 22.2776C15.7619 22.3331 15.7911 22.3873 15.819 22.4401C15.9654 22.7084 16.0911 22.9874 16.1952 23.2748C16.5382 23.159 16.8737 23.0219 17.1997 22.8644C17.0663 22.5201 16.9141 22.1834 16.7437 21.8559V21.8555ZM27.2218 31.8746C29.5798 30.2767 31.5104 28.1254 32.8447 25.6088C34.1789 23.0922 34.8763 20.287 34.8757 17.4386C34.8755 7.82253 27.0529 0 17.4378 0C7.82271 0 3.90626e-07 7.82253 3.90626e-07 17.4387C-0.00060252 20.2871 0.696725 23.0923 2.03099 25.6089C3.36525 28.1254 5.29581 30.2767 7.65381 31.8746C7.92301 32.0489 8.14317 32.2892 8.29337 32.5725C8.44358 32.8559 8.51883 33.1729 8.51199 33.4935V34.6942C7.86597 34.9037 7.3029 35.3125 6.90355 35.8618C6.50421 36.4111 6.28911 37.0728 6.28911 37.752C6.28911 38.4311 6.50421 39.0928 6.90355 39.6421C7.3029 40.1915 7.86597 40.6002 8.51199 40.8097V40.8127C8.51349 42.188 9.06049 43.5065 10.033 44.479C11.0055 45.4515 12.324 45.9985 13.6993 46H21.176C22.5514 45.9986 23.8701 45.4517 24.8427 44.4792C25.8152 43.5067 26.3623 42.1881 26.3638 40.8127V40.8097C27.0098 40.6002 27.5729 40.1915 27.9722 39.6421C28.3716 39.0928 28.5867 38.4311 28.5867 37.752C28.5867 37.0728 28.3716 36.4111 27.9722 35.8618C27.5729 35.3125 27.0098 34.9037 26.3638 34.6942V33.4935C26.3569 33.1729 26.4321 32.8559 26.5823 32.5725C26.7325 32.2892 26.9526 32.0489 27.2218 31.8746Z" fill="white"/>
</svg>
