<svg width="40" height="40" viewBox="0 0 40 40" fill="none" xmlns="http://www.w3.org/2000/svg">
<path d="M10 7.14286V0H24.2857V7.14286C24.2857 7.52174 24.1352 7.8851 23.8673 8.15301C23.5994 8.42092 23.236 8.57143 22.8571 8.57143H11.4286C11.0497 8.57143 10.6863 8.42092 10.4184 8.15301C10.1505 7.8851 10 7.52174 10 7.14286ZM8.57143 40H31.4286V35.0857H8.57143V40ZM8.57143 32.2286H31.4286V29.3714H8.57143V32.2286ZM38.5714 9.57143L31.9571 1.55714C31.5556 1.07075 31.0516 0.678986 30.4811 0.40982C29.9107 0.140654 29.2879 0.000718843 28.6571 0H27.1429V7.14286C27.1429 8.2795 26.6913 9.36959 25.8876 10.1733C25.0839 10.977 23.9938 11.4286 22.8571 11.4286H11.4286C10.2919 11.4286 9.20184 10.977 8.39811 10.1733C7.59439 9.36959 7.14286 8.2795 7.14286 7.14286V0H4.28571C3.14907 0 2.05898 0.451529 1.25526 1.25526C0.451529 2.05898 0 3.14907 0 4.28571V35.7143C0 36.8509 0.451529 37.941 1.25526 38.7447C2.05898 39.5485 3.14907 40 4.28571 40H5.71429V25.7143C5.71429 24.5776 6.16582 23.4876 6.96954 22.6838C7.77327 21.8801 8.86336 21.4286 10 21.4286H30C31.1366 21.4286 32.2267 21.8801 33.0305 22.6838C33.8342 23.4876 34.2857 24.5776 34.2857 25.7143V40H35.7143C36.8509 40 37.941 39.5485 38.7447 38.7447C39.5485 37.941 40 36.8509 40 35.7143V12.7429C39.9968 12.1437 39.868 11.552 39.6219 11.0057C39.3759 10.4594 39.018 9.97084 38.5714 9.57143ZM30 24.2857H10C9.62112 24.2857 9.25776 24.4362 8.98985 24.7041C8.72194 24.972 8.57143 25.3354 8.57143 25.7143V26.5143H31.4286V25.7143C31.4286 25.3354 31.2781 24.972 31.0102 24.7041C30.7422 24.4362 30.3789 24.2857 30 24.2857Z" fill="white"/>
</svg>
