<svg width="38" height="38" viewBox="0 0 38 38" fill="none" xmlns="http://www.w3.org/2000/svg">
<path d="M25.129 12.871C26.7232 14.4651 28.2095 16.1359 29.5462 17.8177C30.2554 16.3008 30.6452 14.6214 30.6452 12.871C30.6452 9.46445 29.1662 6.40484 26.8268 4.27377C24.7257 5.17965 22.3967 6.56052 20.0193 8.31342C21.7176 9.65323 23.4368 11.1794 25.129 12.871Z" fill="white"/>
<path d="M25.1296 32.4839L25.129 30.6452H23.9032V28.1935H25.1296L25.129 26.3548H23.9032V23.8205C23.9032 23.5894 24.0332 23.3774 24.2397 23.2732C26.1673 22.3005 27.7345 20.851 28.8383 19.1109L28.8371 19.1097C28.842 19.1036 28.8463 19.0975 28.8512 19.0913C28.872 19.0588 28.8953 19.0276 28.9156 18.9945C27.5261 17.2097 25.9546 15.4305 24.2618 13.7376C22.4874 11.9633 20.7229 10.4114 19.0123 9.0771C17.241 10.4531 15.4586 12.0166 13.7376 13.7376C12.0209 15.4544 10.4598 17.2324 9.0869 18.9994C10.1938 20.7903 11.791 22.2796 13.7603 23.2732C13.9668 23.378 14.0968 23.5894 14.0968 23.8205V26.3548H12.871V28.1935H14.0968V30.6452H12.871V32.4839H15.3777V33.7097C15.6707 35.446 17.1809 36.7742 19 36.7742C20.8191 36.7742 22.3287 35.446 22.6223 33.7097V32.4839H25.1296ZM20.2258 16.5484C20.2258 16.386 20.2902 16.2297 20.4054 16.1151L22.2441 14.2764L23.1107 15.143L21.4516 16.8021V26.3548H20.2258V16.5484ZM14.8893 15.143L15.7559 14.2764L17.5946 16.1151C17.7098 16.2297 17.7742 16.386 17.7742 16.5484V26.3548H16.5484V16.8021L14.8893 15.143Z" fill="white"/>
<path d="M7.36342 13.1155C7.38242 14.022 7.50439 14.9076 7.72135 15.7614C7.90094 16.4699 8.14487 17.1545 8.45071 17.8091C9.76723 16.1543 11.2498 14.4921 12.8716 12.8704C14.5528 11.1892 16.2787 9.65752 17.9942 8.30361C15.5377 6.48942 13.2166 5.1441 11.1726 4.27316C8.83377 6.40545 7.35484 9.46507 7.35484 12.871C7.35484 12.9531 7.36158 13.034 7.36342 13.1155Z" fill="white"/>
<path d="M25.7591 3.40652C23.8511 2.03974 21.5209 1.22581 19 1.22581C16.4736 1.22581 14.1397 2.04342 12.2293 3.4151C14.3432 4.37981 16.6403 5.76435 19.0012 7.53197C21.3395 5.77906 23.6366 4.37981 25.7591 3.40652Z" fill="white"/>
<path d="M38 3.67742C38 1.64932 36.3507 0 34.3226 0C32.9534 0 31.7588 0.753258 31.1263 1.86629C29.9152 1.94045 28.5429 2.28368 27.0658 2.85552C27.4262 3.14665 27.7743 3.45187 28.1016 3.77916C29.0265 3.4531 29.8993 3.22632 30.6911 3.12703C30.6635 3.30661 30.6452 3.48987 30.6452 3.67742C30.6452 5.70552 32.2945 7.35484 34.3226 7.35484C34.5083 7.35484 34.6891 7.33645 34.8675 7.3101C34.5996 9.42277 33.4774 12.1251 31.6834 15.0388C31.3782 16.8481 30.6991 18.5471 29.6988 20.0389C30.0696 20.5421 30.43 21.0446 30.7677 21.5442C30.3148 21.9891 30.0323 22.6069 30.0323 23.2903C30.0323 24.6424 31.1318 25.7419 32.4839 25.7419C32.7241 25.7419 32.9521 25.6966 33.1722 25.6316C35.1187 29.5805 35.473 32.7254 34.0995 34.0995C32.7548 35.4436 29.7834 35.15 25.9957 33.3505C25.7738 33.5724 25.4674 33.7097 25.129 33.7097H24.0062C26.9794 35.3265 29.591 36.1515 31.6283 36.1515C33.0373 36.1515 34.173 35.7586 34.9661 34.9655C36.7914 33.1403 36.5229 29.6118 34.23 25.0065C34.6652 24.5645 34.9355 23.959 34.9355 23.2903C34.9355 21.9383 33.8359 20.8387 32.4839 20.8387C32.2583 20.8387 32.0438 20.8792 31.836 20.9368C31.4039 20.2945 30.9467 19.6491 30.4625 19.0025C33.9058 14.4051 35.9431 10.0522 36.1392 6.87065C37.2492 6.2369 38 5.04419 38 3.67742Z" fill="white"/>
<path d="M3.06452 14.7097C3.06452 16.0617 4.16406 17.1613 5.51613 17.1613C5.96784 17.1613 6.38706 17.0338 6.74868 16.8187C6.34784 15.5647 6.12903 14.2384 6.12903 12.871C6.12903 12.6963 6.14803 12.5271 6.15539 12.3543C5.95068 12.2973 5.73923 12.2581 5.51613 12.2581C5.27587 12.2581 5.04787 12.3034 4.82784 12.3684C2.88126 8.41945 2.52639 5.27465 3.90052 3.90052C4.959 2.84203 7.10355 2.80894 9.89716 3.78039C10.2202 3.45677 10.564 3.154 10.9201 2.86594C7.44064 1.52613 4.59126 1.4771 3.03387 3.03387C1.20865 4.8591 1.4771 8.38758 3.76997 12.9929C3.33481 13.4355 3.06452 14.041 3.06452 14.7097Z" fill="white"/>
<path d="M12.0037 33.3493C10.2477 34.1828 8.65664 34.7001 7.30948 34.8693C7.33645 34.6903 7.35484 34.5089 7.35484 34.3226C7.35484 32.2945 5.70552 30.6452 3.67742 30.6452C3.48987 30.6452 3.30661 30.6635 3.12642 30.6911C3.48313 27.8356 5.3819 24.0044 8.30239 20.0395C8.05355 19.6687 7.82494 19.2844 7.61655 18.8897C4.18429 23.4448 2.0661 27.8626 1.86629 31.1263C0.753258 31.7588 0 32.9534 0 34.3226C0 36.3507 1.64932 38 3.67742 38C5.04542 38 6.23936 37.2474 6.87248 36.1362C8.83745 36.0136 11.2835 35.1837 13.9944 33.7097H12.871C12.5326 33.7097 12.2256 33.5718 12.0037 33.3493Z" fill="white"/>
</svg>
