<svg width="34" height="34" viewBox="0 0 34 34" fill="none" xmlns="http://www.w3.org/2000/svg">
<path d="M30.0769 0H3.92308C2.88261 0 1.88476 0.413323 1.14904 1.14904C0.413323 1.88476 0 2.88261 0 3.92308V30.0769C0 31.1174 0.413323 32.1152 1.14904 32.851C1.88476 33.5867 2.88261 34 3.92308 34H30.0769C31.1174 34 32.1152 33.5867 32.851 32.851C33.5867 32.1152 34 31.1174 34 30.0769V3.92308C34 2.88261 33.5867 1.88476 32.851 1.14904C32.1152 0.413323 31.1174 0 30.0769 0ZM6.53846 14.3846H9.15385C9.50067 14.3846 9.83328 14.5224 10.0785 14.7676C10.3238 15.0129 10.4615 15.3455 10.4615 15.6923V18.3077C10.4615 18.6545 10.3238 18.9871 10.0785 19.2324C9.83328 19.4776 9.50067 19.6154 9.15385 19.6154H6.53846C6.19164 19.6154 5.85902 19.4776 5.61378 19.2324C5.36854 18.9871 5.23077 18.6545 5.23077 18.3077V15.6923C5.23077 15.3455 5.36854 15.0129 5.61378 14.7676C5.85902 14.5224 6.19164 14.3846 6.53846 14.3846ZM5.23077 10.4615V7.84615C5.23077 7.49933 5.36854 7.16672 5.61378 6.92148C5.85902 6.67624 6.19164 6.53846 6.53846 6.53846H9.15385C9.50067 6.53846 9.83328 6.67624 10.0785 6.92148C10.3238 7.16672 10.4615 7.49933 10.4615 7.84615V10.4615C10.4615 10.8084 10.3238 11.141 10.0785 11.3862C9.83328 11.6315 9.50067 11.7692 9.15385 11.7692H6.53846C6.19164 11.7692 5.85902 11.6315 5.61378 11.3862C5.36854 11.141 5.23077 10.8084 5.23077 10.4615ZM6.53846 22.2308H9.15385C9.50067 22.2308 9.83328 22.3685 10.0785 22.6138C10.3238 22.859 10.4615 23.1916 10.4615 23.5385V26.1538C10.4615 26.5007 10.3238 26.8333 10.0785 27.0785C9.83328 27.3238 9.50067 27.4615 9.15385 27.4615H6.53846C6.19164 27.4615 5.85902 27.3238 5.61378 27.0785C5.36854 26.8333 5.23077 26.5007 5.23077 26.1538V23.5385C5.23077 23.1916 5.36854 22.859 5.61378 22.6138C5.85902 22.3685 6.19164 22.2308 6.53846 22.2308ZM14.3846 23.5385H27.4615C27.8084 23.5385 28.141 23.6762 28.3862 23.9215C28.6315 24.1667 28.7692 24.4993 28.7692 24.8462C28.7692 25.193 28.6315 25.5256 28.3862 25.7708C28.141 26.0161 27.8084 26.1538 27.4615 26.1538H14.3846C14.0378 26.1538 13.7052 26.0161 13.4599 25.7708C13.2147 25.5256 13.0769 25.193 13.0769 24.8462C13.0769 24.4993 13.2147 24.1667 13.4599 23.9215C13.7052 23.6762 14.0378 23.5385 14.3846 23.5385ZM13.0769 17C13.0769 16.6532 13.2147 16.3206 13.4599 16.0753C13.7052 15.8301 14.0378 15.6923 14.3846 15.6923H27.4615C27.8084 15.6923 28.141 15.8301 28.3862 16.0753C28.6315 16.3206 28.7692 16.6532 28.7692 17C28.7692 17.3468 28.6315 17.6794 28.3862 17.9247C28.141 18.1699 27.8084 18.3077 27.4615 18.3077H14.3846C14.0378 18.3077 13.7052 18.1699 13.4599 17.9247C13.2147 17.6794 13.0769 17.3468 13.0769 17ZM27.4615 10.4615H14.3846C14.0378 10.4615 13.7052 10.3238 13.4599 10.0785C13.2147 9.83328 13.0769 9.50067 13.0769 9.15385C13.0769 8.80702 13.2147 8.47441 13.4599 8.22917C13.7052 7.98393 14.0378 7.84615 14.3846 7.84615H27.4615C27.8084 7.84615 28.141 7.98393 28.3862 8.22917C28.6315 8.47441 28.7692 8.80702 28.7692 9.15385C28.7692 9.50067 28.6315 9.83328 28.3862 10.0785C28.141 10.3238 27.8084 10.4615 27.4615 10.4615Z" fill="white"/>
</svg>
