<svg width="35" height="34" viewBox="0 0 35 34" fill="none" xmlns="http://www.w3.org/2000/svg">
<path d="M24.656 15.2633C19.4783 15.2633 15.2633 19.4783 15.2633 24.656C15.7813 37.1165 33.5327 37.1128 34.0488 24.656C34.0488 19.4783 29.8338 15.2633 24.656 15.2633ZM29.8514 20.8578L24.7265 29.0765C24.5418 29.3928 24.0816 29.4439 23.8224 29.188L19.5546 25.0787C19.003 24.5459 19.8127 23.7046 20.3648 24.2334L24.116 27.8378L28.8535 20.2356C29.2614 19.5867 30.2552 20.2011 29.8514 20.8578Z" fill="white"/>
<path d="M14.0892 24.656C13.9524 16.9682 22.5485 11.6384 29.3524 15.1987V2.93524C29.3524 1.31499 28.0374 0 26.4172 0H18.7855C18.7856 0.271275 18.7855 9.35497 18.7855 9.97982C18.8045 10.4605 18.1842 10.7524 17.8228 10.4318L14.6762 7.80774L11.5296 10.4318C11.1671 10.7543 10.5487 10.4604 10.5669 9.97982C10.5665 9.33542 10.5671 0.291822 10.5669 0H2.93524C1.31499 0 0 1.31499 0 2.93524V26.4172C0 28.0374 1.31499 29.3524 2.93524 29.3524H15.1987C14.4622 27.9 14.0951 26.3298 14.0892 24.656ZM9.97982 24.069C9.97982 25.0376 9.18731 25.8301 8.21868 25.8301H5.28344C4.31481 25.8301 3.52229 25.0376 3.52229 24.069V21.1337C3.52229 20.1651 4.31481 19.3726 5.28344 19.3726H8.21868C9.18731 19.3726 9.97982 20.1651 9.97982 21.1337V24.069Z" fill="white"/>
<path d="M14.6762 6.45753C14.8112 6.45753 14.9404 6.5045 15.0519 6.59255L17.6115 8.72941C17.6115 7.95345 17.6115 0.531044 17.6115 0H11.741V8.72941L14.3005 6.59255C14.412 6.5045 14.5412 6.45753 14.6762 6.45753Z" fill="white"/>
<path d="M8.21868 20.5467H5.28344C4.96056 20.5467 4.69639 20.8109 4.69639 21.1337V24.069C4.69639 24.3919 4.96056 24.656 5.28344 24.656H8.21868C8.54155 24.656 8.80573 24.3919 8.80573 24.069V21.1337C8.80573 20.8109 8.54155 20.5467 8.21868 20.5467Z" fill="white"/>
</svg>
