<svg width="24" height="24" viewBox="0 0 24 24" fill="none" xmlns="http://www.w3.org/2000/svg">
<g id="Group 33710">
<g id="Group 33705">
<circle id="Ellipse 344" cx="12" cy="12" r="11.35" stroke="#EA4335" stroke-width="1.3"/>
<path id="Vector" d="M6.96252 13.35H8.03126C8.1838 13.35 8.32396 13.3973 8.42754 13.4929C8.5322 13.5895 8.58751 13.7246 8.58751 13.875C8.58751 14.0254 8.5322 14.1605 8.42754 14.2571C8.32396 14.3527 8.1838 14.4 8.03126 14.4H6.40627C6.25374 14.4 6.11358 14.3527 6.01 14.2571C5.90533 14.1605 5.85002 14.0254 5.85002 13.875V11.2504V11.25H6.00002C5.99799 10.8769 6.14672 10.5164 6.41715 10.239C6.64519 10.0051 6.94597 9.8445 7.27584 9.77752L6.96252 13.35ZM6.96252 13.35V11.25C6.96252 11.0629 7.02908 10.9167 7.1377 10.8165C7.2474 10.7152 7.41192 10.65 7.62502 10.65H9.25001C9.93255 10.65 10.5893 10.3998 11.0753 9.95121C11.5617 9.50222 11.8375 8.89057 11.8375 8.25C11.8375 7.60943 11.5617 6.99778 11.0753 6.54879C10.5893 6.10017 9.93255 5.85 9.25001 5.85C8.56747 5.85 7.9107 6.10017 7.4247 6.54879C6.9383 6.99778 6.66252 7.60943 6.66252 8.25C6.66252 8.7874 6.84561 9.27041 7.16095 9.64984C6.83602 9.73162 6.53978 9.89839 6.30975 10.1343L6.96252 13.35ZM14.5891 13.3998C14.9044 13.0204 15.0875 12.5374 15.0875 12C15.0875 11.3594 14.8117 10.7478 14.3253 10.2988C13.8393 9.85017 13.1825 9.6 12.5 9.6C11.8175 9.6 11.1607 9.85017 10.6747 10.2988C10.1883 10.7478 9.91251 11.3594 9.91251 12C9.91251 12.5374 10.0956 13.0204 10.4109 13.3998C10.086 13.4816 9.78977 13.6484 9.55973 13.8843C9.26307 14.1886 9.09788 14.5863 9.10001 15.0004M14.5891 13.3998L9.10001 15.0004M14.5891 13.3998C14.914 13.4816 15.2102 13.6484 15.4403 13.8843C15.7369 14.1886 15.9021 14.5864 15.9 15.0005M14.5891 13.3998L9.10001 15.0004M9.10001 15.0004V15H9.25001L9.10001 15.0008C9.10001 15.0007 9.10001 15.0005 9.10001 15.0004ZM9.10001 15.0004V17.625C9.10001 17.7754 9.15532 17.9105 9.25999 18.0071C9.36357 18.1027 9.50373 18.15 9.65626 18.15H15.3437C15.4963 18.15 15.6364 18.1027 15.74 18.0071C15.8447 17.9105 15.9 17.7754 15.9 17.625V15.0005M15.9 15.0005C15.9 15.0006 15.9 15.0007 15.9 15.0008L15.75 15H15.9V15.0005ZM9.25001 6.9C9.6449 6.9 10.0214 7.04492 10.2973 7.29956C10.5728 7.55383 10.725 7.89601 10.725 8.25C10.725 8.60399 10.5728 8.94617 10.2973 9.20044C10.0214 9.45508 9.6449 9.6 9.25001 9.6C8.85511 9.6 8.47857 9.45508 8.20271 9.20044C7.92725 8.94617 7.77502 8.60399 7.77502 8.25C7.77502 7.51892 8.42758 6.9 9.25001 6.9ZM17.839 9.64985C18.1544 9.27041 18.3375 8.7874 18.3375 8.25C18.3375 7.60943 18.0617 6.99778 17.5753 6.54879C17.0893 6.10017 16.4325 5.85 15.75 5.85C15.0674 5.85 14.4107 6.10017 13.9247 6.54879C13.4383 6.99778 13.1625 7.60943 13.1625 8.25C13.1625 8.89057 13.4383 9.50222 13.9247 9.95121C14.4107 10.3998 15.0674 10.65 15.75 10.65H17.375C17.5881 10.65 17.7526 10.7152 17.8623 10.8165C17.9709 10.9167 18.0375 11.0629 18.0375 11.25V13.35H16.9687C16.8162 13.35 16.676 13.3973 16.5725 13.4929C16.4678 13.5895 16.4125 13.7246 16.4125 13.875C16.4125 14.0254 16.4678 14.1605 16.5725 14.2571C16.676 14.3527 16.8162 14.4 16.9687 14.4H18.5937C18.7463 14.4 18.8864 14.3527 18.99 14.2571C19.0947 14.1605 19.15 14.0254 19.15 13.875V11.2505V11.25H19C19.002 10.8769 18.8533 10.5164 18.5829 10.239C18.3548 10.0051 18.054 9.8445 17.7242 9.77751L17.839 9.64985ZM14.7027 7.29956C14.9786 7.04492 15.3551 6.9 15.75 6.9C16.1449 6.9 16.5214 7.04492 16.7973 7.29956C17.0728 7.55383 17.225 7.89601 17.225 8.25C17.225 8.60399 17.0728 8.94617 16.7973 9.20044C16.5214 9.45508 16.1449 9.6 15.75 9.6C14.9276 9.6 14.275 8.98108 14.275 8.25C14.275 7.89601 14.4272 7.55383 14.7027 7.29956ZM13.5473 11.0496C13.8228 11.3038 13.975 11.646 13.975 12C13.975 12.354 13.8228 12.6962 13.5473 12.9504C13.2714 13.2051 12.8949 13.35 12.5 13.35C11.6776 13.35 11.025 12.7311 11.025 12C11.025 11.646 11.1772 11.3038 11.4527 11.0496C11.7286 10.7949 12.1051 10.65 12.5 10.65C12.8949 10.65 13.2714 10.7949 13.5473 11.0496ZM10.2125 15C10.2125 14.8129 10.2791 14.6667 10.3877 14.5665C10.4974 14.4652 10.6619 14.4 10.875 14.4H14.125C14.3381 14.4 14.5026 14.4652 14.6123 14.5665C14.7209 14.6667 14.7875 14.8129 14.7875 15V17.1H10.2125V15Z" fill="#EA4335" stroke="#EA4335" stroke-width="0.3"/>
<line id="Line 53" x1="3.49622" y1="4.43762" x2="20.4962" y2="19.4376" stroke="#EA4335" stroke-width="1.5"/>
</g>
</g>
</svg>
