<svg width="20" height="15" viewBox="0 0 20 15" fill="none" xmlns="http://www.w3.org/2000/svg">
<path id="Vector" d="M18.1818 0H1.81816C0.814023 0 0 0.814023 0 1.8182V12.7273C0 13.7314 0.814023 14.5455 1.81816 14.5455H18.1818C19.1859 14.5455 20 13.7314 20 12.7273V1.8182C20 0.814023 19.186 0 18.1818 0ZM1.81816 0.909102H18.1818C18.2857 0.909766 18.3887 0.928203 18.4863 0.963633L10.6182 8.83184C10.2802 9.17199 9.73055 9.17379 9.39039 8.83586L1.51363 0.963633C1.61129 0.928203 1.7143 0.909727 1.81816 0.909102ZM0.909102 12.7273V1.8182C0.904453 1.76527 0.904453 1.71203 0.909102 1.6591L6.53637 7.27273L0.909102 12.8864C0.904453 12.8334 0.904453 12.7802 0.909102 12.7273ZM18.1818 13.6364H1.81816C1.7143 13.6357 1.61129 13.6173 1.51363 13.5818L7.1818 7.91367L8.7409 9.47277C9.43367 10.1682 10.5589 10.1703 11.2543 9.4775C11.2559 9.47594 11.2575 9.47434 11.2591 9.47277L12.8182 7.91367L18.4863 13.5818C18.3887 13.6173 18.2857 13.6357 18.1818 13.6364ZM19.0909 12.8864L13.4636 7.27273L19.0909 1.6591C19.0955 1.71203 19.0955 1.76527 19.0909 1.8182V12.7273C19.0955 12.7802 19.0955 12.8334 19.0909 12.8864Z" fill="black"/>
</svg>
