<svg width="20" height="20" viewBox="0 0 20 20" fill="none" xmlns="http://www.w3.org/2000/svg">
<g id="messages 1" clip-path="url(#clip0_94_6478)">
<g id="Group" opacity="0.08">
<path id="Vector" d="M5.04104 20C2.13088 20 0.175415 18.0446 0.175415 15.1344V5.21648C0.175415 2.30633 2.13084 0.350859 5.04104 0.350859H14.9589C17.8691 0.350859 19.8246 2.30629 19.8246 5.21648V15.1344C19.8246 18.0445 17.8691 20 14.9589 20H5.04104Z" fill="black"/>
</g>
<path id="Vector_2" d="M5.04104 19.6491C2.13088 19.6491 0.175415 17.6937 0.175415 14.7835V4.86562C0.175415 1.95543 2.13084 0 5.04104 0H14.9589C17.8691 0 19.8246 1.95543 19.8246 4.86562V14.7835C19.8246 17.6937 17.8691 19.6491 14.9589 19.6491H5.04104Z" fill="url(#paint0_linear_94_6478)"/>
<g id="Group_2" opacity="0.16">
<path id="Vector_3" d="M14.9589 0H5.04104C2.13084 0 0.175415 1.95543 0.175415 4.86562V14.7835C0.175415 17.6937 2.13084 19.6491 5.04104 19.6491H14.9589C17.8691 19.6491 19.8246 17.6937 19.8246 14.7835V4.86562C19.8246 1.95543 17.8691 0 14.9589 0ZM19.1228 14.7835C19.1228 17.313 17.4884 18.9474 14.9589 18.9474H5.04104C2.51155 18.9474 0.877173 17.313 0.877173 14.7835V4.86562C0.877173 2.33613 2.51155 0.701758 5.04104 0.701758H14.9589C17.4884 0.701758 19.1228 2.33613 19.1228 4.86562V14.7835Z" fill="url(#paint1_linear_94_6478)"/>
</g>
<g id="Group_3" opacity="0.16">
<path id="Vector_4" d="M14.9589 0H5.04104C2.13084 0 0.175415 1.95543 0.175415 4.86562V14.7835C0.175415 17.6937 2.13084 19.6491 5.04104 19.6491H14.9589C17.8691 19.6491 19.8246 17.6937 19.8246 14.7835V4.86562C19.8246 1.95543 17.8691 0 14.9589 0ZM19.4737 14.7835C19.4737 17.4839 17.6593 19.2982 14.9589 19.2982H5.04104C2.34069 19.2982 0.526313 17.4839 0.526313 14.7835V4.86562C0.526313 2.16527 2.34069 0.350898 5.04104 0.350898H14.9589C17.6593 0.350898 19.4737 2.16527 19.4737 4.86562V14.7835Z" fill="black"/>
</g>
<path id="Vector_5" d="M10 3.15789C5.93054 3.15789 2.63159 5.90703 2.63159 9.29824C2.63159 11.2418 3.73827 13.0144 5.40948 14.0968C5.5628 14.1961 5.79964 14.373 5.91194 14.553C6.02491 14.7316 6.03722 14.9445 5.96108 15.1604C5.88671 15.3758 5.75058 15.5821 5.60214 15.7772C5.45163 15.9723 5.28495 16.1586 5.11335 16.3411C5.09405 16.3604 5.08284 16.3898 5.08772 16.4189C5.09581 16.4663 5.14105 16.4982 5.18843 16.4898C5.79019 16.3954 6.37265 16.2242 6.92562 15.9579C7.25124 15.7982 7.57159 15.5954 7.84386 15.3351C7.92983 15.2526 8.04667 15.2151 8.1628 15.2404C8.75089 15.3674 9.36491 15.4386 9.99999 15.4386C14.0695 15.4386 17.3684 12.6895 17.3684 9.29824C17.3684 5.90703 14.0695 3.15789 10 3.15789Z" fill="url(#paint2_linear_94_6478)"/>
</g>
<defs>
<linearGradient id="paint0_linear_94_6478" x1="9.99997" y1="19.6481" x2="9.99997" y2="-0.00109389" gradientUnits="userSpaceOnUse">
<stop stop-color="#3FBD2D"/>
<stop offset="1" stop-color="#87EA4A"/>
</linearGradient>
<linearGradient id="paint1_linear_94_6478" x1="9.99997" y1="19.6481" x2="9.99997" y2="-0.00109389" gradientUnits="userSpaceOnUse">
<stop/>
<stop offset="0.06" stop-opacity="0"/>
</linearGradient>
<linearGradient id="paint2_linear_94_6478" x1="10" y1="16.4901" x2="10" y2="3.15682" gradientUnits="userSpaceOnUse">
<stop stop-color="#E5F6E2"/>
<stop offset="1" stop-color="white"/>
</linearGradient>
<clipPath id="clip0_94_6478">
<rect width="20" height="20" fill="white"/>
</clipPath>
</defs>
</svg>
