<svg width="24" height="24" viewBox="0 0 24 24" fill="none" xmlns="http://www.w3.org/2000/svg">
<g id="Group 33709">
<circle id="Ellipse 344" cx="12" cy="12" r="11.35" stroke="#EA4335" stroke-width="1.3"/>
<g id="Vector">
<mask id="path-2-outside-1_1332_3096" maskUnits="userSpaceOnUse" x="5" y="4" width="15" height="15" fill="black">
<rect fill="white" x="5" y="4" width="15" height="15"/>
<path d="M6 14.6993V16.0136C6 16.2195 6.09752 16.4017 6.2473 16.5243V17.3978C6.2473 17.7298 6.52272 18 6.86123 18H7.69598C8.03449 18 8.30991 17.7298 8.30991 17.3978V16.6818H12.8979V17.3978C12.8979 17.7298 13.1733 18 13.5118 18H14.3465C14.6852 18 14.9606 17.7298 14.9606 17.3978V16.6101C15.185 16.5006 15.3409 16.2757 15.3409 16.0136V14.6993C15.3409 14.6544 15.3258 14.6108 15.2979 14.5753C14.4251 13.4789 14.5711 13.6296 14.4934 13.5723L13.9169 12.0165C13.7083 11.4562 13.1604 11.0798 12.5535 11.0798H8.88676C8.30175 11.0798 7.7777 11.4217 7.55192 11.9505C6.78171 13.7496 6.81593 13.6504 6.80801 13.6977L6.04973 14.5673C6.01757 14.6041 6 14.6509 6 14.6993ZM7.89578 17.3978C7.89578 17.5059 7.80619 17.5938 7.69598 17.5938H6.86123C6.75102 17.5938 6.66143 17.5059 6.66143 17.3978V16.6817H6.68025C6.68059 16.6817 6.68091 16.6818 6.68126 16.6818H7.89578V17.3978ZM14.3466 17.5937H13.5118C13.4016 17.5937 13.312 17.5059 13.312 17.3977V16.6817H14.5464V17.3977C14.5464 17.5059 14.4568 17.5937 14.3466 17.5937ZM7.93371 12.1078C8.09508 11.7301 8.46919 11.486 8.88676 11.486H12.5535C12.9873 11.486 13.3788 11.7552 13.5278 12.1555L14.0362 13.5273H13.3074C13.2827 12.9547 12.8039 12.4955 12.2143 12.4955C11.6246 12.4955 11.1458 12.9547 11.1212 13.5273H7.32402L7.93371 12.1078ZM12.8932 13.5273H11.5353C11.5594 13.1788 11.853 12.9017 12.2142 12.9017C12.5755 12.9018 12.8691 13.1788 12.8932 13.5273ZM6.41413 14.7743L7.14728 13.9335H14.2701L14.9268 14.7686V16.0136C14.9268 16.1578 14.8073 16.2752 14.6603 16.2754C12.2861 16.2754 15.0323 16.2756 6.68078 16.2754C6.53372 16.2752 6.41416 16.1578 6.41416 16.0136L6.41413 14.7743Z"/>
<path d="M7.73259 15.7894H8.51033C8.77411 15.7894 8.98868 15.5789 8.98868 15.3202V14.9693C8.98868 14.7105 8.77411 14.5 8.51033 14.5H7.73259C7.4688 14.5 7.25423 14.7105 7.25423 14.9693V15.3202C7.25426 15.579 7.4688 15.7894 7.73259 15.7894ZM7.66839 14.9693C7.66839 14.9334 7.69598 14.9063 7.73259 14.9063H8.51033C8.54693 14.9063 8.57452 14.9334 8.57452 14.9693V15.3202C8.57452 15.3561 8.54693 15.3832 8.51033 15.3832H7.73259C7.69598 15.3832 7.66839 15.3561 7.66839 15.3202V14.9693Z"/>
<path d="M12.8314 15.7894H13.6092C13.873 15.7894 14.0875 15.5789 14.0875 15.3202V14.9693C14.0875 14.7105 13.873 14.5 13.6092 14.5H12.8314C12.5676 14.5 12.3531 14.7105 12.3531 14.9693V15.3202C12.3531 15.579 12.5676 15.7894 12.8314 15.7894ZM12.7672 14.9693C12.7672 14.9334 12.7948 14.9063 12.8314 14.9063H13.6092C13.6452 14.9063 13.6734 14.934 13.6734 14.9693V15.3202C13.6734 15.3561 13.6458 15.3832 13.6092 15.3832H12.8314C12.7948 15.3832 12.7672 15.3561 12.7672 15.3202V14.9693Z"/>
<path d="M10.166 15.3476H11.1758C11.2901 15.3476 11.3828 15.2566 11.3828 15.1444C11.3828 15.0323 11.2901 14.9413 11.1758 14.9413H10.166C10.0516 14.9413 9.95893 15.0323 9.95893 15.1444C9.95893 15.2566 10.0516 15.3476 10.166 15.3476Z"/>
<path d="M16.5488 7.89809C16.8678 7.89809 17.1274 7.64349 17.1274 7.33057V6.74977C17.1274 6.43685 16.8678 6.18225 16.5488 6.18225H15.5852C15.4709 6.18225 15.3782 6.2732 15.3782 6.38537V9.00448C15.3782 9.11664 15.4709 9.20759 15.5852 9.20759C15.6996 9.20759 15.7923 9.11664 15.7923 9.00448V7.89809H16.5488ZM16.7132 6.74977V7.33057C16.7132 7.41955 16.6395 7.49186 16.5488 7.49186H15.7923V6.58851H16.5488C16.6395 6.58851 16.7132 6.6608 16.7132 6.74977Z"/>
<path d="M16.2528 18C16.3671 18 16.4598 17.909 16.4598 17.7969V10.3898H18.1221C18.6062 10.3898 19 10.0034 19 9.52855V5.8613C19 5.38642 18.6062 5 18.1221 5H14.3835C13.8994 5 13.5055 5.38642 13.5055 5.8613V9.52855C13.5055 10.0034 13.8994 10.3898 14.3835 10.3898H16.0457V17.7969C16.0457 17.909 16.1384 18 16.2528 18ZM13.9197 9.52855V5.8613C13.9197 5.61037 14.1278 5.40626 14.3835 5.40626H18.1221C18.3778 5.40626 18.5858 5.61037 18.5858 5.8613V9.52855C18.5858 9.77948 18.3778 9.98358 18.1221 9.98358H14.3835C14.1278 9.98361 13.9197 9.77948 13.9197 9.52855Z"/>
</mask>
<path d="M6 14.6993V16.0136C6 16.2195 6.09752 16.4017 6.2473 16.5243V17.3978C6.2473 17.7298 6.52272 18 6.86123 18H7.69598C8.03449 18 8.30991 17.7298 8.30991 17.3978V16.6818H12.8979V17.3978C12.8979 17.7298 13.1733 18 13.5118 18H14.3465C14.6852 18 14.9606 17.7298 14.9606 17.3978V16.6101C15.185 16.5006 15.3409 16.2757 15.3409 16.0136V14.6993C15.3409 14.6544 15.3258 14.6108 15.2979 14.5753C14.4251 13.4789 14.5711 13.6296 14.4934 13.5723L13.9169 12.0165C13.7083 11.4562 13.1604 11.0798 12.5535 11.0798H8.88676C8.30175 11.0798 7.7777 11.4217 7.55192 11.9505C6.78171 13.7496 6.81593 13.6504 6.80801 13.6977L6.04973 14.5673C6.01757 14.6041 6 14.6509 6 14.6993ZM7.89578 17.3978C7.89578 17.5059 7.80619 17.5938 7.69598 17.5938H6.86123C6.75102 17.5938 6.66143 17.5059 6.66143 17.3978V16.6817H6.68025C6.68059 16.6817 6.68091 16.6818 6.68126 16.6818H7.89578V17.3978ZM14.3466 17.5937H13.5118C13.4016 17.5937 13.312 17.5059 13.312 17.3977V16.6817H14.5464V17.3977C14.5464 17.5059 14.4568 17.5937 14.3466 17.5937ZM7.93371 12.1078C8.09508 11.7301 8.46919 11.486 8.88676 11.486H12.5535C12.9873 11.486 13.3788 11.7552 13.5278 12.1555L14.0362 13.5273H13.3074C13.2827 12.9547 12.8039 12.4955 12.2143 12.4955C11.6246 12.4955 11.1458 12.9547 11.1212 13.5273H7.32402L7.93371 12.1078ZM12.8932 13.5273H11.5353C11.5594 13.1788 11.853 12.9017 12.2142 12.9017C12.5755 12.9018 12.8691 13.1788 12.8932 13.5273ZM6.41413 14.7743L7.14728 13.9335H14.2701L14.9268 14.7686V16.0136C14.9268 16.1578 14.8073 16.2752 14.6603 16.2754C12.2861 16.2754 15.0323 16.2756 6.68078 16.2754C6.53372 16.2752 6.41416 16.1578 6.41416 16.0136L6.41413 14.7743Z" fill="#EA4335"/>
<path d="M7.73259 15.7894H8.51033C8.77411 15.7894 8.98868 15.5789 8.98868 15.3202V14.9693C8.98868 14.7105 8.77411 14.5 8.51033 14.5H7.73259C7.4688 14.5 7.25423 14.7105 7.25423 14.9693V15.3202C7.25426 15.579 7.4688 15.7894 7.73259 15.7894ZM7.66839 14.9693C7.66839 14.9334 7.69598 14.9063 7.73259 14.9063H8.51033C8.54693 14.9063 8.57452 14.9334 8.57452 14.9693V15.3202C8.57452 15.3561 8.54693 15.3832 8.51033 15.3832H7.73259C7.69598 15.3832 7.66839 15.3561 7.66839 15.3202V14.9693Z" fill="#EA4335"/>
<path d="M12.8314 15.7894H13.6092C13.873 15.7894 14.0875 15.5789 14.0875 15.3202V14.9693C14.0875 14.7105 13.873 14.5 13.6092 14.5H12.8314C12.5676 14.5 12.3531 14.7105 12.3531 14.9693V15.3202C12.3531 15.579 12.5676 15.7894 12.8314 15.7894ZM12.7672 14.9693C12.7672 14.9334 12.7948 14.9063 12.8314 14.9063H13.6092C13.6452 14.9063 13.6734 14.934 13.6734 14.9693V15.3202C13.6734 15.3561 13.6458 15.3832 13.6092 15.3832H12.8314C12.7948 15.3832 12.7672 15.3561 12.7672 15.3202V14.9693Z" fill="#EA4335"/>
<path d="M10.166 15.3476H11.1758C11.2901 15.3476 11.3828 15.2566 11.3828 15.1444C11.3828 15.0323 11.2901 14.9413 11.1758 14.9413H10.166C10.0516 14.9413 9.95893 15.0323 9.95893 15.1444C9.95893 15.2566 10.0516 15.3476 10.166 15.3476Z" fill="#EA4335"/>
<path d="M16.5488 7.89809C16.8678 7.89809 17.1274 7.64349 17.1274 7.33057V6.74977C17.1274 6.43685 16.8678 6.18225 16.5488 6.18225H15.5852C15.4709 6.18225 15.3782 6.2732 15.3782 6.38537V9.00448C15.3782 9.11664 15.4709 9.20759 15.5852 9.20759C15.6996 9.20759 15.7923 9.11664 15.7923 9.00448V7.89809H16.5488ZM16.7132 6.74977V7.33057C16.7132 7.41955 16.6395 7.49186 16.5488 7.49186H15.7923V6.58851H16.5488C16.6395 6.58851 16.7132 6.6608 16.7132 6.74977Z" fill="#EA4335"/>
<path d="M16.2528 18C16.3671 18 16.4598 17.909 16.4598 17.7969V10.3898H18.1221C18.6062 10.3898 19 10.0034 19 9.52855V5.8613C19 5.38642 18.6062 5 18.1221 5H14.3835C13.8994 5 13.5055 5.38642 13.5055 5.8613V9.52855C13.5055 10.0034 13.8994 10.3898 14.3835 10.3898H16.0457V17.7969C16.0457 17.909 16.1384 18 16.2528 18ZM13.9197 9.52855V5.8613C13.9197 5.61037 14.1278 5.40626 14.3835 5.40626H18.1221C18.3778 5.40626 18.5858 5.61037 18.5858 5.8613V9.52855C18.5858 9.77948 18.3778 9.98358 18.1221 9.98358H14.3835C14.1278 9.98361 13.9197 9.77948 13.9197 9.52855Z" fill="#EA4335"/>
<path d="M6 14.6993V16.0136C6 16.2195 6.09752 16.4017 6.2473 16.5243V17.3978C6.2473 17.7298 6.52272 18 6.86123 18H7.69598C8.03449 18 8.30991 17.7298 8.30991 17.3978V16.6818H12.8979V17.3978C12.8979 17.7298 13.1733 18 13.5118 18H14.3465C14.6852 18 14.9606 17.7298 14.9606 17.3978V16.6101C15.185 16.5006 15.3409 16.2757 15.3409 16.0136V14.6993C15.3409 14.6544 15.3258 14.6108 15.2979 14.5753C14.4251 13.4789 14.5711 13.6296 14.4934 13.5723L13.9169 12.0165C13.7083 11.4562 13.1604 11.0798 12.5535 11.0798H8.88676C8.30175 11.0798 7.7777 11.4217 7.55192 11.9505C6.78171 13.7496 6.81593 13.6504 6.80801 13.6977L6.04973 14.5673C6.01757 14.6041 6 14.6509 6 14.6993ZM7.89578 17.3978C7.89578 17.5059 7.80619 17.5938 7.69598 17.5938H6.86123C6.75102 17.5938 6.66143 17.5059 6.66143 17.3978V16.6817H6.68025C6.68059 16.6817 6.68091 16.6818 6.68126 16.6818H7.89578V17.3978ZM14.3466 17.5937H13.5118C13.4016 17.5937 13.312 17.5059 13.312 17.3977V16.6817H14.5464V17.3977C14.5464 17.5059 14.4568 17.5937 14.3466 17.5937ZM7.93371 12.1078C8.09508 11.7301 8.46919 11.486 8.88676 11.486H12.5535C12.9873 11.486 13.3788 11.7552 13.5278 12.1555L14.0362 13.5273H13.3074C13.2827 12.9547 12.8039 12.4955 12.2143 12.4955C11.6246 12.4955 11.1458 12.9547 11.1212 13.5273H7.32402L7.93371 12.1078ZM12.8932 13.5273H11.5353C11.5594 13.1788 11.853 12.9017 12.2142 12.9017C12.5755 12.9018 12.8691 13.1788 12.8932 13.5273ZM6.41413 14.7743L7.14728 13.9335H14.2701L14.9268 14.7686V16.0136C14.9268 16.1578 14.8073 16.2752 14.6603 16.2754C12.2861 16.2754 15.0323 16.2756 6.68078 16.2754C6.53372 16.2752 6.41416 16.1578 6.41416 16.0136L6.41413 14.7743Z" stroke="#EA4335" stroke-width="0.4" mask="url(#path-2-outside-1_1332_3096)"/>
<path d="M7.73259 15.7894H8.51033C8.77411 15.7894 8.98868 15.5789 8.98868 15.3202V14.9693C8.98868 14.7105 8.77411 14.5 8.51033 14.5H7.73259C7.4688 14.5 7.25423 14.7105 7.25423 14.9693V15.3202C7.25426 15.579 7.4688 15.7894 7.73259 15.7894ZM7.66839 14.9693C7.66839 14.9334 7.69598 14.9063 7.73259 14.9063H8.51033C8.54693 14.9063 8.57452 14.9334 8.57452 14.9693V15.3202C8.57452 15.3561 8.54693 15.3832 8.51033 15.3832H7.73259C7.69598 15.3832 7.66839 15.3561 7.66839 15.3202V14.9693Z" stroke="#EA4335" stroke-width="0.4" mask="url(#path-2-outside-1_1332_3096)"/>
<path d="M12.8314 15.7894H13.6092C13.873 15.7894 14.0875 15.5789 14.0875 15.3202V14.9693C14.0875 14.7105 13.873 14.5 13.6092 14.5H12.8314C12.5676 14.5 12.3531 14.7105 12.3531 14.9693V15.3202C12.3531 15.579 12.5676 15.7894 12.8314 15.7894ZM12.7672 14.9693C12.7672 14.9334 12.7948 14.9063 12.8314 14.9063H13.6092C13.6452 14.9063 13.6734 14.934 13.6734 14.9693V15.3202C13.6734 15.3561 13.6458 15.3832 13.6092 15.3832H12.8314C12.7948 15.3832 12.7672 15.3561 12.7672 15.3202V14.9693Z" stroke="#EA4335" stroke-width="0.4" mask="url(#path-2-outside-1_1332_3096)"/>
<path d="M10.166 15.3476H11.1758C11.2901 15.3476 11.3828 15.2566 11.3828 15.1444C11.3828 15.0323 11.2901 14.9413 11.1758 14.9413H10.166C10.0516 14.9413 9.95893 15.0323 9.95893 15.1444C9.95893 15.2566 10.0516 15.3476 10.166 15.3476Z" stroke="#EA4335" stroke-width="0.4" mask="url(#path-2-outside-1_1332_3096)"/>
<path d="M16.5488 7.89809C16.8678 7.89809 17.1274 7.64349 17.1274 7.33057V6.74977C17.1274 6.43685 16.8678 6.18225 16.5488 6.18225H15.5852C15.4709 6.18225 15.3782 6.2732 15.3782 6.38537V9.00448C15.3782 9.11664 15.4709 9.20759 15.5852 9.20759C15.6996 9.20759 15.7923 9.11664 15.7923 9.00448V7.89809H16.5488ZM16.7132 6.74977V7.33057C16.7132 7.41955 16.6395 7.49186 16.5488 7.49186H15.7923V6.58851H16.5488C16.6395 6.58851 16.7132 6.6608 16.7132 6.74977Z" stroke="#EA4335" stroke-width="0.4" mask="url(#path-2-outside-1_1332_3096)"/>
<path d="M16.2528 18C16.3671 18 16.4598 17.909 16.4598 17.7969V10.3898H18.1221C18.6062 10.3898 19 10.0034 19 9.52855V5.8613C19 5.38642 18.6062 5 18.1221 5H14.3835C13.8994 5 13.5055 5.38642 13.5055 5.8613V9.52855C13.5055 10.0034 13.8994 10.3898 14.3835 10.3898H16.0457V17.7969C16.0457 17.909 16.1384 18 16.2528 18ZM13.9197 9.52855V5.8613C13.9197 5.61037 14.1278 5.40626 14.3835 5.40626H18.1221C18.3778 5.40626 18.5858 5.61037 18.5858 5.8613V9.52855C18.5858 9.77948 18.3778 9.98358 18.1221 9.98358H14.3835C14.1278 9.98361 13.9197 9.77948 13.9197 9.52855Z" stroke="#EA4335" stroke-width="0.4" mask="url(#path-2-outside-1_1332_3096)"/>
</g>
<line id="Line 53" x1="3.49622" y1="4.43762" x2="20.4962" y2="19.4376" stroke="#EA4335" stroke-width="1.5"/>
</g>
</svg>
