<svg width="12" height="12" viewBox="0 0 12 12" fill="none" xmlns="http://www.w3.org/2000/svg">
<g id="Vector">
<path d="M9.5 2C9.5 1.46957 9.28929 0.960859 8.91421 0.585786C8.53914 0.210714 8.03043 0 7.5 0H4.5C3.96957 0 3.46086 0.210714 3.08579 0.585786C2.71071 0.960859 2.5 1.46957 2.5 2V2.5H9.5V2Z" fill="#434141"/>
<path d="M8 7.5H4C3.17157 7.5 2.5 8.17157 2.5 9V10.5C2.5 11.3284 3.17157 12 4 12H8C8.82843 12 9.5 11.3284 9.5 10.5V9C9.5 8.17157 8.82843 7.5 8 7.5Z" fill="#434141"/>
<path d="M9.5 3.5H2.5C1.8372 3.50079 1.20178 3.76444 0.73311 4.23311C0.264441 4.70178 0.000793929 5.3372 0 6V8C0.000639188 8.48588 0.142853 8.96105 0.40925 9.36739C0.675646 9.77374 1.05468 10.0936 1.5 10.288V9C1.50079 8.3372 1.76444 7.70178 2.23311 7.23311C2.70178 6.76444 3.3372 6.50079 4 6.5H8C8.6628 6.50079 9.29822 6.76444 9.76689 7.23311C10.2356 7.70178 10.4992 8.3372 10.5 9V10.288C10.9453 10.0936 11.3244 9.77374 11.5908 9.36739C11.8571 8.96105 11.9994 8.48588 12 8V6C11.9992 5.3372 11.7356 4.70178 11.2669 4.23311C10.7982 3.76444 10.1628 3.50079 9.5 3.5ZM9 5.5H8C7.86739 5.5 7.74022 5.44732 7.64645 5.35355C7.55268 5.25979 7.5 5.13261 7.5 5C7.5 4.86739 7.55268 4.74021 7.64645 4.64645C7.74022 4.55268 7.86739 4.5 8 4.5H9C9.13261 4.5 9.25979 4.55268 9.35355 4.64645C9.44732 4.74021 9.5 4.86739 9.5 5C9.5 5.13261 9.44732 5.25979 9.35355 5.35355C9.25979 5.44732 9.13261 5.5 9 5.5Z" fill="#434141"/>
</g>
</svg>
