<svg width="11" height="11" viewBox="0 0 11 11" fill="none" xmlns="http://www.w3.org/2000/svg">
<g id="Vector">
<path d="M0.537206 11C0.430962 11 0.327099 10.9685 0.238754 10.9095C0.150409 10.8505 0.0815511 10.7666 0.0408906 10.6684C0.000230078 10.5703 -0.0104066 10.4623 0.0103261 10.3581C0.0310587 10.2539 0.0822292 10.1582 0.157365 10.0831L10.0831 0.157335C10.1838 0.0565953 10.3205 0 10.4629 0C10.6054 0 10.742 0.0565953 10.8428 0.157335C10.9435 0.258076 11.0001 0.394709 11.0001 0.537177C11.0001 0.679645 10.9435 0.816278 10.8428 0.917018L0.917048 10.8427C0.867212 10.8927 0.808002 10.9323 0.742817 10.9593C0.677632 10.9863 0.607757 11.0001 0.537206 11Z" fill="#EA4335"/>
<path d="M10.4629 11C10.3924 11.0001 10.3225 10.9863 10.2573 10.9593C10.1921 10.9323 10.1329 10.8927 10.0831 10.8427L0.157365 0.917018C0.0566249 0.816278 2.95873e-05 0.679645 2.95873e-05 0.537177C2.95873e-05 0.394709 0.0566249 0.258076 0.157365 0.157335C0.258105 0.0565953 0.394738 0 0.537206 0C0.679675 0 0.816308 0.0565953 0.917048 0.157335L10.8428 10.0831C10.9179 10.1582 10.9691 10.2539 10.9898 10.3581C11.0105 10.4623 10.9999 10.5703 10.9592 10.6684C10.9186 10.7666 10.8497 10.8505 10.7614 10.9095C10.673 10.9685 10.5692 11 10.4629 11Z" fill="#EA4335"/>
</g>
</svg>
