<svg width="42" height="42" viewBox="0 0 42 42" fill="none" xmlns="http://www.w3.org/2000/svg">
<g id="Group 93">
<circle id="Ellipse 158" cx="21" cy="21" r="20.5" fill="white" stroke="#EAEAEA"/>
<path id="Vector" d="M23.994 21.4717L28.4905 16.9747C28.7825 16.6432 28.9371 16.213 28.923 15.7717C28.9089 15.3304 28.7271 14.911 28.4146 14.5987C28.1021 14.2865 27.6823 14.1049 27.2406 14.0908C26.7988 14.0767 26.3683 14.2312 26.0365 14.5229L21.5353 19.0153L17.0259 14.509C16.8644 14.3476 16.6727 14.2196 16.4616 14.1323C16.2506 14.0449 16.0244 14 15.796 14C15.5676 14 15.3414 14.0449 15.1304 14.1323C14.9193 14.2196 14.7276 14.3476 14.5661 14.509C14.4046 14.6703 14.2764 14.8619 14.189 15.0728C14.1016 15.2836 14.0566 15.5096 14.0566 15.7378C14.0566 15.966 14.1016 16.1919 14.189 16.4028C14.2764 16.6136 14.4046 16.8052 14.5661 16.9666L19.0766 21.4717L14.58 25.9676C14.4036 26.1251 14.2613 26.3169 14.1617 26.5312C14.0621 26.7456 14.0073 26.978 14.0007 27.2142C13.9941 27.4504 14.0358 27.6855 14.1232 27.9051C14.2107 28.1246 14.342 28.3241 14.5093 28.4912C14.6765 28.6583 14.8762 28.7895 15.0959 28.8769C15.3157 28.9643 15.551 29.0059 15.7875 28.9993C16.0239 28.9927 16.2565 28.938 16.4711 28.8385C16.6856 28.7389 16.8776 28.5967 17.0352 28.4206L21.5353 23.9281L26.0307 28.4206C26.3569 28.7465 26.7993 28.9295 27.2606 28.9295C27.7219 28.9295 28.1644 28.7465 28.4905 28.4206C28.8167 28.0947 29 27.6527 29 27.1918C29 26.7309 28.8167 26.2889 28.4905 25.963L23.994 21.4717Z" fill="#EA4335"/>
</g>
</svg>
