<svg width="13" height="12" viewBox="0 0 13 12" fill="none" xmlns="http://www.w3.org/2000/svg">
<path id="Vector" d="M8.75242 0C8.1894 0.00875747 7.63865 0.165927 7.1558 0.455636C6.67295 0.745345 6.2751 1.15733 6.00242 1.65C5.72974 1.15733 5.33189 0.745345 4.84904 0.455636C4.36619 0.165927 3.81545 0.00875747 3.25242 0C2.35489 0.0389954 1.50927 0.431627 0.900312 1.09212C0.29135 1.75261 -0.0314547 2.62726 0.00242055 3.525C0.00242055 6.9125 5.48042 10.825 5.71342 10.991L6.00242 11.1955L6.29142 10.991C6.52442 10.826 12.0024 6.9125 12.0024 3.525C12.0363 2.62726 11.7135 1.75261 11.1045 1.09212C10.4956 0.431627 9.64995 0.0389954 8.75242 0Z" fill="#EA4335"/>
</svg>
