<svg width="12" height="12" viewBox="0 0 12 12" fill="none" xmlns="http://www.w3.org/2000/svg">
<path id="Vector" d="M6 0C2.6915 0 0 2.6915 0 6C0 9.3085 2.6915 12 6 12C9.3085 12 12 9.3085 12 6C12 2.6915 9.3085 0 6 0ZM6 11C3.243 11 1 8.757 1 6C1 3.243 3.243 1 6 1C8.757 1 11 3.243 11 6C11 8.757 8.757 11 6 11ZM8.884 5.724C9.0385 5.8765 9.0385 6.1235 8.884 6.276L6.675 8.4565C6.426 8.7025 6 8.528 6 8.1805V6.5H3.5C3.224 6.5 3 6.276 3 6C3 5.724 3.224 5.5 3.5 5.5H6V3.8195C6 3.472 6.426 3.2975 6.675 3.5435L8.884 5.724Z" fill="#4A4A4A"/>
</svg>
