<svg width="22" height="22" viewBox="0 0 22 22" fill="none" xmlns="http://www.w3.org/2000/svg">
<g id="vuesax/outline/search-normal">
<g id="vuesax/outline/search-normal_2">
<g id="search-normal">
<path id="Vector" d="M8.25 17.5625C4.215 17.5625 0.9375 14.285 0.9375 10.25C0.9375 6.21497 4.215 2.93747 8.25 2.93747C12.285 2.93747 15.5625 6.21497 15.5625 10.25C15.5625 14.285 12.285 17.5625 8.25 17.5625ZM8.25 4.06247C4.8375 4.06247 2.0625 6.83747 2.0625 10.25C2.0625 13.6625 4.8375 16.4375 8.25 16.4375C11.6625 16.4375 14.4375 13.6625 14.4375 10.25C14.4375 6.83747 11.6625 4.06247 8.25 4.06247Z" fill="#1A1E25"/>
<path id="Vector_2" d="M15.1198 19.0925C15.0598 19.0925 14.9998 19.085 14.9473 19.0775C14.5948 19.0325 13.9573 18.7925 13.5973 17.72C13.4098 17.1575 13.4773 16.595 13.7848 16.1675C14.0923 15.74 14.6098 15.5 15.2023 15.5C15.9673 15.5 16.5673 15.7925 16.8373 16.31C17.1073 16.8275 17.0323 17.4875 16.6048 18.125C16.0723 18.9275 15.4948 19.0925 15.1198 19.0925ZM14.6698 17.3675C14.7973 17.7575 14.9773 17.9525 15.0973 17.9675C15.2173 17.9825 15.4423 17.84 15.6748 17.5025C15.8923 17.18 15.9073 16.9475 15.8548 16.8425C15.8023 16.7375 15.5923 16.625 15.2023 16.625C14.9698 16.625 14.7973 16.7 14.6998 16.8275C14.6098 16.955 14.5948 17.15 14.6698 17.3675Z" fill="#1A1E25"/>
</g>
</g>
</g>
</svg>
