<svg width="11" height="12" viewBox="0 0 11 12" fill="none" xmlns="http://www.w3.org/2000/svg">
<path id="Vector" d="M8.9375 7.78125C8.25823 7.78125 7.65964 8.12299 7.28367 8.6427L4.0331 6.94041C4.08707 6.75227 4.125 6.5573 4.125 6.35156C4.125 6.07252 4.06906 5.80723 3.97242 5.56322L7.37429 3.46959C7.75287 3.924 8.30933 4.21875 8.9375 4.21875C10.0748 4.21875 11 3.27255 11 2.10938C11 0.946195 10.0748 0 8.9375 0C7.80017 0 6.875 0.946195 6.875 2.10938C6.875 2.37743 6.92897 2.6317 7.0185 2.86777L3.60651 4.96753C3.22825 4.52663 2.67981 4.24219 2.0625 4.24219C0.925169 4.24219 0 5.18838 0 6.35156C0 7.51474 0.925169 8.46094 2.0625 8.46094C2.75298 8.46094 3.36167 8.10916 3.73622 7.57486L6.97609 9.27162C6.91641 9.46863 6.875 9.67383 6.875 9.89062C6.875 11.0538 7.80017 12 8.9375 12C10.0748 12 11 11.0538 11 9.89062C11 8.72745 10.0748 7.78125 8.9375 7.78125Z" fill="#434141"/>
</svg>
