<svg width="80" height="80" viewBox="0 0 80 80" fill="none" xmlns="http://www.w3.org/2000/svg">
<g id="Group 36">
<rect id="Rectangle 28" x="0.491699" y="0.940918" width="78.6787" height="78.6787" rx="24" fill="#EA4335"/>
<g id="simplifiedbookings">
<path id="Vector" d="M56.6726 33.0623V29.4533C56.6726 28.4961 56.2924 27.5783 55.6157 26.9013C54.9388 26.2246 54.021 25.8444 53.0637 25.8444H48.2518V24.6414C48.2518 24.2115 48.0225 23.8144 47.6503 23.5996C47.2781 23.3848 46.8195 23.3848 46.4473 23.5996C46.0752 23.8144 45.8458 24.2115 45.8458 24.6414V25.8444H33.8161V24.6414C33.8161 24.2115 33.5867 23.8144 33.2146 23.5996C32.8424 23.3848 32.3838 23.3848 32.0116 23.5996C31.6394 23.8144 31.4101 24.2115 31.4101 24.6414V25.8444H26.5982C25.6409 25.8444 24.7231 26.2246 24.0462 26.9013C23.3695 27.5783 22.9893 28.4961 22.9893 29.4533V33.0623H56.6726Z" fill="#FFFBFB"/>
<path id="Vector_2" d="M22.9893 35.4683V53.5129C22.9893 54.4702 23.3695 55.388 24.0462 56.065C24.7231 56.7416 25.6409 57.1219 26.5982 57.1219H53.0637C54.021 57.1219 54.9388 56.7416 55.6157 56.065C56.2924 55.388 56.6726 54.4702 56.6726 53.5129V35.4683H22.9893ZM46.6281 42.396L38.2073 49.6139C37.9771 49.8107 37.6812 49.9136 37.3786 49.9018C37.076 49.8899 36.7889 49.7643 36.5749 49.5503L32.966 45.9413C32.6709 45.6358 32.5587 45.1973 32.6709 44.7875C32.7834 44.3777 33.1035 44.0577 33.513 43.9454C33.9227 43.8332 34.3612 43.9452 34.6668 44.2403L37.489 47.0624L45.0678 40.5664C45.3089 40.3491 45.6273 40.2385 45.9509 40.2594C46.2748 40.2804 46.5763 40.4313 46.7874 40.6778C46.9982 40.9243 47.1008 41.2455 47.0715 41.5685C47.0422 41.8918 46.8835 42.1893 46.6316 42.3937L46.6281 42.396Z" fill="#FFFBFB"/>
</g>
</g>
</svg>
