<svg width="138" height="24" viewBox="0 0 138 24" fill="none" xmlns="http://www.w3.org/2000/svg">
<path d="M17.876 16.688C17.876 8.93296 6.425 10.748 6.425 6.72196C6.425 5.26996 7.448 4.57696 8.801 4.60996C10.319 4.64296 11.375 5.53396 11.474 7.01896H17.579C17.348 2.59696 13.949 0.0889605 8.9 0.0889605C4.049 0.0889605 0.452 2.53096 0.452 6.91996C0.386 15.137 11.969 12.827 11.969 17.117C11.969 18.47 10.913 19.295 9.263 19.295C7.679 19.295 6.557 18.437 6.392 16.655H0.386C0.551 21.341 4.445 23.816 9.428 23.816C14.84 23.816 17.876 20.582 17.876 16.688ZM26.9917 10.781V4.97296H30.0607C32.3047 4.97296 33.2617 6.09496 33.2617 7.87696C33.2617 9.65896 32.3047 10.781 30.0607 10.781H26.9917ZM39.0037 7.87696C39.0037 3.61996 36.1657 0.41896 30.4897 0.41896H21.3487V23.585H26.9917V15.269H30.4897C36.3967 15.269 39.0037 11.705 39.0037 7.87696ZM64.7445 11.936C64.7445 4.97296 59.4975 0.0889605 52.8975 0.0889605C46.3305 0.0889605 40.9845 4.97296 40.9845 11.936C40.9845 18.899 46.3305 23.816 52.8975 23.816C59.4645 23.816 64.7445 18.899 64.7445 11.936ZM46.7595 11.936C46.7595 7.81096 49.1355 5.20396 52.8975 5.20396C56.5935 5.20396 59.0025 7.81096 59.0025 11.936C59.0025 15.995 56.5935 18.668 52.8975 18.668C49.1355 18.668 46.7595 15.995 46.7595 11.936ZM66.6299 4.93996H72.7679V23.585H78.4109V4.93996H84.5489V0.41896H66.6299V4.93996Z" fill="#EA4335"/>
<path d="M87.381 0.41896V23.585H100.416V19.229H93.024V0.41896H87.381ZM117.298 0.41896H103.108V23.585H117.298V19.064H108.751V13.982H116.308V9.62596H108.751V4.93996H117.298V0.41896ZM119.707 4.93996H125.845V23.585H131.488V4.93996H137.626V0.41896H119.707V4.93996Z" fill="white"/>
</svg>
