<svg width="24" height="24" viewBox="0 0 24 24" fill="none" xmlns="http://www.w3.org/2000/svg">
<g id="Group 33708">
<circle id="Ellipse 344" cx="12" cy="12" r="11.35" stroke="#EA4335" stroke-width="1.3"/>
<g id="Vector">
<mask id="path-2-outside-1_1332_3095" maskUnits="userSpaceOnUse" x="5" y="4" width="14" height="14" fill="black">
<rect fill="white" x="5" y="4" width="14" height="14"/>
<path d="M13.8621 12.8621H10.1379C9.91844 12.8621 9.70794 12.9493 9.55274 13.1045C9.39753 13.2597 9.31034 13.4702 9.31034 13.6897C9.31034 13.9091 9.39753 14.1196 9.55274 14.2748C9.70794 14.43 9.91844 14.5172 10.1379 14.5172H13.8621C14.0815 14.5172 14.292 14.43 14.4473 14.2748C14.6025 14.1196 14.6896 13.9091 14.6896 13.6897C14.6896 13.4702 14.6025 13.2597 14.4473 13.1045C14.292 12.9493 14.0815 12.8621 13.8621 12.8621ZM13.8621 14.1034H10.1379C10.0282 14.1034 9.92293 14.0599 9.84533 13.9823C9.76773 13.9047 9.72413 13.7994 9.72413 13.6897C9.72413 13.5799 9.76773 13.4747 9.84533 13.3971C9.92293 13.3195 10.0282 13.2759 10.1379 13.2759H13.8621C13.9718 13.2759 14.0771 13.3195 14.1547 13.3971C14.2323 13.4747 14.2759 13.5799 14.2759 13.6897C14.2759 13.7994 14.2323 13.9047 14.1547 13.9823C14.0771 14.0599 13.9718 14.1034 13.8621 14.1034Z"/>
<path d="M18 11C18.0005 10.9593 17.9882 10.9195 17.9648 10.8862C17.9345 10.8409 17.8875 10.8093 17.834 10.7985C17.7805 10.7876 17.7249 10.7983 17.6793 10.8283L16.6448 11.5172L15.7241 9.34483C15.6434 9.15978 15.5102 9.00241 15.3411 8.89212C15.172 8.78183 14.9743 8.72343 14.7724 8.72414H14.4827V5.62069C14.4827 5.45607 14.4174 5.2982 14.301 5.1818C14.1846 5.06539 14.0267 5 13.8621 5H10.1379C9.97331 5 9.81543 5.06539 9.69903 5.1818C9.58263 5.2982 9.51724 5.45607 9.51724 5.62069V8.72414H9.24207C9.04052 8.72384 8.84327 8.78242 8.67456 8.89269C8.50585 9.00296 8.37303 9.16011 8.29241 9.34483L7.35724 11.5172L6.32276 10.8283C6.27714 10.7983 6.22155 10.7876 6.16807 10.7985C6.1146 10.8093 6.06758 10.8409 6.03724 10.8862C6.01317 10.9193 6.00014 10.9591 6 11C6.00018 11.0341 6.00877 11.0676 6.02501 11.0975C6.04125 11.1275 6.06464 11.153 6.0931 11.1717L7.10276 11.8462L6.28552 12.5269C6.19162 12.6055 6.12306 12.71 6.08845 12.8275C6.05385 12.9449 6.05475 13.07 6.09103 13.1869L6.41379 14.2379V16.3793C6.41379 16.5439 6.47919 16.7018 6.59559 16.8182C6.71199 16.9346 6.86986 17 7.03448 17H8.68965C8.85427 17 9.01214 16.9346 9.12855 16.8182C9.24495 16.7018 9.31034 16.5439 9.31034 16.3793V15.7586H14.6896V16.3793C14.6896 16.5439 14.755 16.7018 14.8714 16.8182C14.9878 16.9346 15.1457 17 15.3103 17H16.9655C17.1301 17 17.288 16.9346 17.4044 16.8182C17.5208 16.7018 17.5862 16.5439 17.5862 16.3793V14.2379L17.909 13.1869C17.9452 13.07 17.9461 12.9449 17.9115 12.8275C17.8769 12.71 17.8084 12.6055 17.7145 12.5269L16.8972 11.8462L17.9069 11.1717C17.9353 11.153 17.9587 11.1275 17.975 11.0975C17.9912 11.0676 17.9998 11.0341 18 11ZM9.93103 5.62069C9.93103 5.56582 9.95283 5.51319 9.99163 5.47439C10.0304 5.43559 10.0831 5.41379 10.1379 5.41379H13.8621C13.9169 5.41379 13.9696 5.43559 14.0084 5.47439C14.0472 5.51319 14.069 5.56582 14.069 5.62069V9.34483C14.069 9.3997 14.0472 9.45233 14.0084 9.49113C13.9696 9.52993 13.9169 9.55172 13.8621 9.55172H10.1379C10.0831 9.55172 10.0304 9.52993 9.99163 9.49113C9.95283 9.45233 9.93103 9.3997 9.93103 9.34483V5.62069ZM8.6731 9.51241C8.7211 9.40132 8.80054 9.30669 8.90163 9.24015C9.00271 9.17362 9.12105 9.13809 9.24207 9.13793H9.51724V9.34483C9.51724 9.50944 9.58263 9.66732 9.69903 9.78372C9.81543 9.90012 9.97331 9.96552 10.1379 9.96552H13.8621C14.0267 9.96552 14.1846 9.90012 14.301 9.78372C14.4174 9.66732 14.4827 9.50944 14.4827 9.34483V9.13793H14.7724C14.894 9.13786 15.013 9.17351 15.1145 9.24045C15.216 9.30739 15.2956 9.40268 15.3434 9.51448L16.2393 11.6207H7.75655L8.6731 9.51241ZM8.89655 16.3793C8.89655 16.4342 8.87475 16.4868 8.83595 16.5256C8.79715 16.5644 8.74452 16.5862 8.68965 16.5862H7.03448C6.97961 16.5862 6.92698 16.5644 6.88818 16.5256C6.84938 16.4868 6.82759 16.4342 6.82759 16.3793V15.3448C6.92394 15.4733 7.04889 15.5776 7.19254 15.6494C7.33618 15.7212 7.49457 15.7586 7.65517 15.7586H8.89655V16.3793ZM16.9655 16.5862H15.3103C15.2555 16.5862 15.2028 16.5644 15.164 16.5256C15.1252 16.4868 15.1034 16.4342 15.1034 16.3793V15.7586H16.3448C16.5054 15.7586 16.6638 15.7212 16.8075 15.6494C16.9511 15.5776 17.076 15.4733 17.1724 15.3448V16.3793C17.1724 16.4342 17.1506 16.4868 17.1118 16.5256C17.073 16.5644 17.0204 16.5862 16.9655 16.5862ZM17.5138 13.069L16.9469 14.9103C16.9073 15.0363 16.8286 15.1463 16.7221 15.2244C16.6157 15.3026 16.4872 15.3447 16.3552 15.3448H7.65517C7.52263 15.3445 7.39369 15.3017 7.28721 15.2228C7.18074 15.1439 7.10232 15.0329 7.06345 14.9062L6.48621 13.069C6.47418 13.0302 6.47385 12.9887 6.48525 12.9497C6.49666 12.9107 6.5193 12.8759 6.55034 12.8497L7.52276 12.0345H16.4772L17.4496 12.8455C17.4815 12.8721 17.5046 12.9075 17.5161 12.9474C17.5275 12.9872 17.5267 13.0296 17.5138 13.069Z"/>
<path d="M8.06896 13.069C7.9462 13.069 7.8262 13.1054 7.72413 13.1736C7.62206 13.2418 7.5425 13.3387 7.49552 13.4521C7.44854 13.5655 7.43625 13.6903 7.4602 13.8107C7.48415 13.9311 7.54326 14.0417 7.63007 14.1285C7.71687 14.2154 7.82747 14.2745 7.94787 14.2984C8.06827 14.3224 8.19307 14.3101 8.30649 14.2631C8.41991 14.2161 8.51684 14.1366 8.58505 14.0345C8.65325 13.9324 8.68965 13.8124 8.68965 13.6897C8.68965 13.525 8.62426 13.3672 8.50786 13.2508C8.39146 13.1344 8.23358 13.069 8.06896 13.069ZM8.06896 13.8966C8.02804 13.8966 7.98804 13.8844 7.95402 13.8617C7.91999 13.839 7.89348 13.8066 7.87782 13.7688C7.86216 13.731 7.85806 13.6894 7.86604 13.6493C7.87403 13.6092 7.89373 13.5723 7.92267 13.5434C7.9516 13.5144 7.98847 13.4947 8.0286 13.4867C8.06873 13.4788 8.11033 13.4828 8.14814 13.4985C8.18594 13.5142 8.21826 13.5407 8.24099 13.5747C8.26373 13.6087 8.27586 13.6487 8.27586 13.6897C8.27586 13.7445 8.25406 13.7972 8.21526 13.836C8.17646 13.8748 8.12384 13.8966 8.06896 13.8966Z"/>
<path d="M15.931 13.069C15.8083 13.069 15.6883 13.1054 15.5862 13.1736C15.4841 13.2418 15.4046 13.3387 15.3576 13.4521C15.3106 13.5655 15.2983 13.6903 15.3223 13.8107C15.3462 13.9311 15.4053 14.0417 15.4921 14.1285C15.5789 14.2154 15.6895 14.2745 15.8099 14.2984C15.9303 14.3224 16.0551 14.3101 16.1686 14.2631C16.282 14.2161 16.3789 14.1366 16.4471 14.0345C16.5153 13.9324 16.5517 13.8124 16.5517 13.6897C16.5517 13.525 16.4863 13.3672 16.3699 13.2508C16.2535 13.1344 16.0956 13.069 15.931 13.069ZM15.931 13.8966C15.8901 13.8966 15.8501 13.8844 15.8161 13.8617C15.7821 13.839 15.7555 13.8066 15.7399 13.7688C15.7242 13.731 15.7201 13.6894 15.7281 13.6493C15.7361 13.6092 15.7558 13.5723 15.7847 13.5434C15.8137 13.5144 15.8505 13.4947 15.8907 13.4867C15.9308 13.4788 15.9724 13.4828 16.0102 13.4985C16.048 13.5142 16.0803 13.5407 16.1031 13.5747C16.1258 13.6087 16.1379 13.6487 16.1379 13.6897C16.1379 13.7445 16.1161 13.7972 16.0773 13.836C16.0385 13.8748 15.9859 13.8966 15.931 13.8966Z"/>
<path d="M11.3793 8.72414C11.4342 8.72414 11.4868 8.70234 11.5256 8.66354C11.5644 8.62474 11.5862 8.57211 11.5862 8.51724V7.89655H12C12.2195 7.89655 12.43 7.80936 12.5852 7.65416C12.7404 7.49896 12.8276 7.28846 12.8276 7.06897C12.8276 6.84948 12.7404 6.63898 12.5852 6.48377C12.43 6.32857 12.2195 6.24138 12 6.24138H11.3793C11.3244 6.24138 11.2718 6.26318 11.233 6.30198C11.1942 6.34078 11.1724 6.3934 11.1724 6.44828V8.51724C11.1724 8.57211 11.1942 8.62474 11.233 8.66354C11.2718 8.70234 11.3244 8.72414 11.3793 8.72414ZM12.4138 7.06897C12.4138 7.17871 12.3702 7.28396 12.2926 7.36156C12.215 7.43916 12.1097 7.48276 12 7.48276H11.5862V6.65517H12C12.1097 6.65517 12.215 6.69877 12.2926 6.77637C12.3702 6.85397 12.4138 6.95922 12.4138 7.06897Z"/>
</mask>
<path d="M13.8621 12.8621H10.1379C9.91844 12.8621 9.70794 12.9493 9.55274 13.1045C9.39753 13.2597 9.31034 13.4702 9.31034 13.6897C9.31034 13.9091 9.39753 14.1196 9.55274 14.2748C9.70794 14.43 9.91844 14.5172 10.1379 14.5172H13.8621C14.0815 14.5172 14.292 14.43 14.4473 14.2748C14.6025 14.1196 14.6896 13.9091 14.6896 13.6897C14.6896 13.4702 14.6025 13.2597 14.4473 13.1045C14.292 12.9493 14.0815 12.8621 13.8621 12.8621ZM13.8621 14.1034H10.1379C10.0282 14.1034 9.92293 14.0599 9.84533 13.9823C9.76773 13.9047 9.72413 13.7994 9.72413 13.6897C9.72413 13.5799 9.76773 13.4747 9.84533 13.3971C9.92293 13.3195 10.0282 13.2759 10.1379 13.2759H13.8621C13.9718 13.2759 14.0771 13.3195 14.1547 13.3971C14.2323 13.4747 14.2759 13.5799 14.2759 13.6897C14.2759 13.7994 14.2323 13.9047 14.1547 13.9823C14.0771 14.0599 13.9718 14.1034 13.8621 14.1034Z" fill="#EA4335"/>
<path d="M18 11C18.0005 10.9593 17.9882 10.9195 17.9648 10.8862C17.9345 10.8409 17.8875 10.8093 17.834 10.7985C17.7805 10.7876 17.7249 10.7983 17.6793 10.8283L16.6448 11.5172L15.7241 9.34483C15.6434 9.15978 15.5102 9.00241 15.3411 8.89212C15.172 8.78183 14.9743 8.72343 14.7724 8.72414H14.4827V5.62069C14.4827 5.45607 14.4174 5.2982 14.301 5.1818C14.1846 5.06539 14.0267 5 13.8621 5H10.1379C9.97331 5 9.81543 5.06539 9.69903 5.1818C9.58263 5.2982 9.51724 5.45607 9.51724 5.62069V8.72414H9.24207C9.04052 8.72384 8.84327 8.78242 8.67456 8.89269C8.50585 9.00296 8.37303 9.16011 8.29241 9.34483L7.35724 11.5172L6.32276 10.8283C6.27714 10.7983 6.22155 10.7876 6.16807 10.7985C6.1146 10.8093 6.06758 10.8409 6.03724 10.8862C6.01317 10.9193 6.00014 10.9591 6 11C6.00018 11.0341 6.00877 11.0676 6.02501 11.0975C6.04125 11.1275 6.06464 11.153 6.0931 11.1717L7.10276 11.8462L6.28552 12.5269C6.19162 12.6055 6.12306 12.71 6.08845 12.8275C6.05385 12.9449 6.05475 13.07 6.09103 13.1869L6.41379 14.2379V16.3793C6.41379 16.5439 6.47919 16.7018 6.59559 16.8182C6.71199 16.9346 6.86986 17 7.03448 17H8.68965C8.85427 17 9.01214 16.9346 9.12855 16.8182C9.24495 16.7018 9.31034 16.5439 9.31034 16.3793V15.7586H14.6896V16.3793C14.6896 16.5439 14.755 16.7018 14.8714 16.8182C14.9878 16.9346 15.1457 17 15.3103 17H16.9655C17.1301 17 17.288 16.9346 17.4044 16.8182C17.5208 16.7018 17.5862 16.5439 17.5862 16.3793V14.2379L17.909 13.1869C17.9452 13.07 17.9461 12.9449 17.9115 12.8275C17.8769 12.71 17.8084 12.6055 17.7145 12.5269L16.8972 11.8462L17.9069 11.1717C17.9353 11.153 17.9587 11.1275 17.975 11.0975C17.9912 11.0676 17.9998 11.0341 18 11ZM9.93103 5.62069C9.93103 5.56582 9.95283 5.51319 9.99163 5.47439C10.0304 5.43559 10.0831 5.41379 10.1379 5.41379H13.8621C13.9169 5.41379 13.9696 5.43559 14.0084 5.47439C14.0472 5.51319 14.069 5.56582 14.069 5.62069V9.34483C14.069 9.3997 14.0472 9.45233 14.0084 9.49113C13.9696 9.52993 13.9169 9.55172 13.8621 9.55172H10.1379C10.0831 9.55172 10.0304 9.52993 9.99163 9.49113C9.95283 9.45233 9.93103 9.3997 9.93103 9.34483V5.62069ZM8.6731 9.51241C8.7211 9.40132 8.80054 9.30669 8.90163 9.24015C9.00271 9.17362 9.12105 9.13809 9.24207 9.13793H9.51724V9.34483C9.51724 9.50944 9.58263 9.66732 9.69903 9.78372C9.81543 9.90012 9.97331 9.96552 10.1379 9.96552H13.8621C14.0267 9.96552 14.1846 9.90012 14.301 9.78372C14.4174 9.66732 14.4827 9.50944 14.4827 9.34483V9.13793H14.7724C14.894 9.13786 15.013 9.17351 15.1145 9.24045C15.216 9.30739 15.2956 9.40268 15.3434 9.51448L16.2393 11.6207H7.75655L8.6731 9.51241ZM8.89655 16.3793C8.89655 16.4342 8.87475 16.4868 8.83595 16.5256C8.79715 16.5644 8.74452 16.5862 8.68965 16.5862H7.03448C6.97961 16.5862 6.92698 16.5644 6.88818 16.5256C6.84938 16.4868 6.82759 16.4342 6.82759 16.3793V15.3448C6.92394 15.4733 7.04889 15.5776 7.19254 15.6494C7.33618 15.7212 7.49457 15.7586 7.65517 15.7586H8.89655V16.3793ZM16.9655 16.5862H15.3103C15.2555 16.5862 15.2028 16.5644 15.164 16.5256C15.1252 16.4868 15.1034 16.4342 15.1034 16.3793V15.7586H16.3448C16.5054 15.7586 16.6638 15.7212 16.8075 15.6494C16.9511 15.5776 17.076 15.4733 17.1724 15.3448V16.3793C17.1724 16.4342 17.1506 16.4868 17.1118 16.5256C17.073 16.5644 17.0204 16.5862 16.9655 16.5862ZM17.5138 13.069L16.9469 14.9103C16.9073 15.0363 16.8286 15.1463 16.7221 15.2244C16.6157 15.3026 16.4872 15.3447 16.3552 15.3448H7.65517C7.52263 15.3445 7.39369 15.3017 7.28721 15.2228C7.18074 15.1439 7.10232 15.0329 7.06345 14.9062L6.48621 13.069C6.47418 13.0302 6.47385 12.9887 6.48525 12.9497C6.49666 12.9107 6.5193 12.8759 6.55034 12.8497L7.52276 12.0345H16.4772L17.4496 12.8455C17.4815 12.8721 17.5046 12.9075 17.5161 12.9474C17.5275 12.9872 17.5267 13.0296 17.5138 13.069Z" fill="#EA4335"/>
<path d="M8.06896 13.069C7.9462 13.069 7.8262 13.1054 7.72413 13.1736C7.62206 13.2418 7.5425 13.3387 7.49552 13.4521C7.44854 13.5655 7.43625 13.6903 7.4602 13.8107C7.48415 13.9311 7.54326 14.0417 7.63007 14.1285C7.71687 14.2154 7.82747 14.2745 7.94787 14.2984C8.06827 14.3224 8.19307 14.3101 8.30649 14.2631C8.41991 14.2161 8.51684 14.1366 8.58505 14.0345C8.65325 13.9324 8.68965 13.8124 8.68965 13.6897C8.68965 13.525 8.62426 13.3672 8.50786 13.2508C8.39146 13.1344 8.23358 13.069 8.06896 13.069ZM8.06896 13.8966C8.02804 13.8966 7.98804 13.8844 7.95402 13.8617C7.91999 13.839 7.89348 13.8066 7.87782 13.7688C7.86216 13.731 7.85806 13.6894 7.86604 13.6493C7.87403 13.6092 7.89373 13.5723 7.92267 13.5434C7.9516 13.5144 7.98847 13.4947 8.0286 13.4867C8.06873 13.4788 8.11033 13.4828 8.14814 13.4985C8.18594 13.5142 8.21826 13.5407 8.24099 13.5747C8.26373 13.6087 8.27586 13.6487 8.27586 13.6897C8.27586 13.7445 8.25406 13.7972 8.21526 13.836C8.17646 13.8748 8.12384 13.8966 8.06896 13.8966Z" fill="#EA4335"/>
<path d="M15.931 13.069C15.8083 13.069 15.6883 13.1054 15.5862 13.1736C15.4841 13.2418 15.4046 13.3387 15.3576 13.4521C15.3106 13.5655 15.2983 13.6903 15.3223 13.8107C15.3462 13.9311 15.4053 14.0417 15.4921 14.1285C15.5789 14.2154 15.6895 14.2745 15.8099 14.2984C15.9303 14.3224 16.0551 14.3101 16.1686 14.2631C16.282 14.2161 16.3789 14.1366 16.4471 14.0345C16.5153 13.9324 16.5517 13.8124 16.5517 13.6897C16.5517 13.525 16.4863 13.3672 16.3699 13.2508C16.2535 13.1344 16.0956 13.069 15.931 13.069ZM15.931 13.8966C15.8901 13.8966 15.8501 13.8844 15.8161 13.8617C15.7821 13.839 15.7555 13.8066 15.7399 13.7688C15.7242 13.731 15.7201 13.6894 15.7281 13.6493C15.7361 13.6092 15.7558 13.5723 15.7847 13.5434C15.8137 13.5144 15.8505 13.4947 15.8907 13.4867C15.9308 13.4788 15.9724 13.4828 16.0102 13.4985C16.048 13.5142 16.0803 13.5407 16.1031 13.5747C16.1258 13.6087 16.1379 13.6487 16.1379 13.6897C16.1379 13.7445 16.1161 13.7972 16.0773 13.836C16.0385 13.8748 15.9859 13.8966 15.931 13.8966Z" fill="#EA4335"/>
<path d="M11.3793 8.72414C11.4342 8.72414 11.4868 8.70234 11.5256 8.66354C11.5644 8.62474 11.5862 8.57211 11.5862 8.51724V7.89655H12C12.2195 7.89655 12.43 7.80936 12.5852 7.65416C12.7404 7.49896 12.8276 7.28846 12.8276 7.06897C12.8276 6.84948 12.7404 6.63898 12.5852 6.48377C12.43 6.32857 12.2195 6.24138 12 6.24138H11.3793C11.3244 6.24138 11.2718 6.26318 11.233 6.30198C11.1942 6.34078 11.1724 6.3934 11.1724 6.44828V8.51724C11.1724 8.57211 11.1942 8.62474 11.233 8.66354C11.2718 8.70234 11.3244 8.72414 11.3793 8.72414ZM12.4138 7.06897C12.4138 7.17871 12.3702 7.28396 12.2926 7.36156C12.215 7.43916 12.1097 7.48276 12 7.48276H11.5862V6.65517H12C12.1097 6.65517 12.215 6.69877 12.2926 6.77637C12.3702 6.85397 12.4138 6.95922 12.4138 7.06897Z" fill="#EA4335"/>
<path d="M13.8621 12.8621H10.1379C9.91844 12.8621 9.70794 12.9493 9.55274 13.1045C9.39753 13.2597 9.31034 13.4702 9.31034 13.6897C9.31034 13.9091 9.39753 14.1196 9.55274 14.2748C9.70794 14.43 9.91844 14.5172 10.1379 14.5172H13.8621C14.0815 14.5172 14.292 14.43 14.4473 14.2748C14.6025 14.1196 14.6896 13.9091 14.6896 13.6897C14.6896 13.4702 14.6025 13.2597 14.4473 13.1045C14.292 12.9493 14.0815 12.8621 13.8621 12.8621ZM13.8621 14.1034H10.1379C10.0282 14.1034 9.92293 14.0599 9.84533 13.9823C9.76773 13.9047 9.72413 13.7994 9.72413 13.6897C9.72413 13.5799 9.76773 13.4747 9.84533 13.3971C9.92293 13.3195 10.0282 13.2759 10.1379 13.2759H13.8621C13.9718 13.2759 14.0771 13.3195 14.1547 13.3971C14.2323 13.4747 14.2759 13.5799 14.2759 13.6897C14.2759 13.7994 14.2323 13.9047 14.1547 13.9823C14.0771 14.0599 13.9718 14.1034 13.8621 14.1034Z" stroke="#EA4335" stroke-width="0.4" mask="url(#path-2-outside-1_1332_3095)"/>
<path d="M18 11C18.0005 10.9593 17.9882 10.9195 17.9648 10.8862C17.9345 10.8409 17.8875 10.8093 17.834 10.7985C17.7805 10.7876 17.7249 10.7983 17.6793 10.8283L16.6448 11.5172L15.7241 9.34483C15.6434 9.15978 15.5102 9.00241 15.3411 8.89212C15.172 8.78183 14.9743 8.72343 14.7724 8.72414H14.4827V5.62069C14.4827 5.45607 14.4174 5.2982 14.301 5.1818C14.1846 5.06539 14.0267 5 13.8621 5H10.1379C9.97331 5 9.81543 5.06539 9.69903 5.1818C9.58263 5.2982 9.51724 5.45607 9.51724 5.62069V8.72414H9.24207C9.04052 8.72384 8.84327 8.78242 8.67456 8.89269C8.50585 9.00296 8.37303 9.16011 8.29241 9.34483L7.35724 11.5172L6.32276 10.8283C6.27714 10.7983 6.22155 10.7876 6.16807 10.7985C6.1146 10.8093 6.06758 10.8409 6.03724 10.8862C6.01317 10.9193 6.00014 10.9591 6 11C6.00018 11.0341 6.00877 11.0676 6.02501 11.0975C6.04125 11.1275 6.06464 11.153 6.0931 11.1717L7.10276 11.8462L6.28552 12.5269C6.19162 12.6055 6.12306 12.71 6.08845 12.8275C6.05385 12.9449 6.05475 13.07 6.09103 13.1869L6.41379 14.2379V16.3793C6.41379 16.5439 6.47919 16.7018 6.59559 16.8182C6.71199 16.9346 6.86986 17 7.03448 17H8.68965C8.85427 17 9.01214 16.9346 9.12855 16.8182C9.24495 16.7018 9.31034 16.5439 9.31034 16.3793V15.7586H14.6896V16.3793C14.6896 16.5439 14.755 16.7018 14.8714 16.8182C14.9878 16.9346 15.1457 17 15.3103 17H16.9655C17.1301 17 17.288 16.9346 17.4044 16.8182C17.5208 16.7018 17.5862 16.5439 17.5862 16.3793V14.2379L17.909 13.1869C17.9452 13.07 17.9461 12.9449 17.9115 12.8275C17.8769 12.71 17.8084 12.6055 17.7145 12.5269L16.8972 11.8462L17.9069 11.1717C17.9353 11.153 17.9587 11.1275 17.975 11.0975C17.9912 11.0676 17.9998 11.0341 18 11ZM9.93103 5.62069C9.93103 5.56582 9.95283 5.51319 9.99163 5.47439C10.0304 5.43559 10.0831 5.41379 10.1379 5.41379H13.8621C13.9169 5.41379 13.9696 5.43559 14.0084 5.47439C14.0472 5.51319 14.069 5.56582 14.069 5.62069V9.34483C14.069 9.3997 14.0472 9.45233 14.0084 9.49113C13.9696 9.52993 13.9169 9.55172 13.8621 9.55172H10.1379C10.0831 9.55172 10.0304 9.52993 9.99163 9.49113C9.95283 9.45233 9.93103 9.3997 9.93103 9.34483V5.62069ZM8.6731 9.51241C8.7211 9.40132 8.80054 9.30669 8.90163 9.24015C9.00271 9.17362 9.12105 9.13809 9.24207 9.13793H9.51724V9.34483C9.51724 9.50944 9.58263 9.66732 9.69903 9.78372C9.81543 9.90012 9.97331 9.96552 10.1379 9.96552H13.8621C14.0267 9.96552 14.1846 9.90012 14.301 9.78372C14.4174 9.66732 14.4827 9.50944 14.4827 9.34483V9.13793H14.7724C14.894 9.13786 15.013 9.17351 15.1145 9.24045C15.216 9.30739 15.2956 9.40268 15.3434 9.51448L16.2393 11.6207H7.75655L8.6731 9.51241ZM8.89655 16.3793C8.89655 16.4342 8.87475 16.4868 8.83595 16.5256C8.79715 16.5644 8.74452 16.5862 8.68965 16.5862H7.03448C6.97961 16.5862 6.92698 16.5644 6.88818 16.5256C6.84938 16.4868 6.82759 16.4342 6.82759 16.3793V15.3448C6.92394 15.4733 7.04889 15.5776 7.19254 15.6494C7.33618 15.7212 7.49457 15.7586 7.65517 15.7586H8.89655V16.3793ZM16.9655 16.5862H15.3103C15.2555 16.5862 15.2028 16.5644 15.164 16.5256C15.1252 16.4868 15.1034 16.4342 15.1034 16.3793V15.7586H16.3448C16.5054 15.7586 16.6638 15.7212 16.8075 15.6494C16.9511 15.5776 17.076 15.4733 17.1724 15.3448V16.3793C17.1724 16.4342 17.1506 16.4868 17.1118 16.5256C17.073 16.5644 17.0204 16.5862 16.9655 16.5862ZM17.5138 13.069L16.9469 14.9103C16.9073 15.0363 16.8286 15.1463 16.7221 15.2244C16.6157 15.3026 16.4872 15.3447 16.3552 15.3448H7.65517C7.52263 15.3445 7.39369 15.3017 7.28721 15.2228C7.18074 15.1439 7.10232 15.0329 7.06345 14.9062L6.48621 13.069C6.47418 13.0302 6.47385 12.9887 6.48525 12.9497C6.49666 12.9107 6.5193 12.8759 6.55034 12.8497L7.52276 12.0345H16.4772L17.4496 12.8455C17.4815 12.8721 17.5046 12.9075 17.5161 12.9474C17.5275 12.9872 17.5267 13.0296 17.5138 13.069Z" stroke="#EA4335" stroke-width="0.4" mask="url(#path-2-outside-1_1332_3095)"/>
<path d="M8.06896 13.069C7.9462 13.069 7.8262 13.1054 7.72413 13.1736C7.62206 13.2418 7.5425 13.3387 7.49552 13.4521C7.44854 13.5655 7.43625 13.6903 7.4602 13.8107C7.48415 13.9311 7.54326 14.0417 7.63007 14.1285C7.71687 14.2154 7.82747 14.2745 7.94787 14.2984C8.06827 14.3224 8.19307 14.3101 8.30649 14.2631C8.41991 14.2161 8.51684 14.1366 8.58505 14.0345C8.65325 13.9324 8.68965 13.8124 8.68965 13.6897C8.68965 13.525 8.62426 13.3672 8.50786 13.2508C8.39146 13.1344 8.23358 13.069 8.06896 13.069ZM8.06896 13.8966C8.02804 13.8966 7.98804 13.8844 7.95402 13.8617C7.91999 13.839 7.89348 13.8066 7.87782 13.7688C7.86216 13.731 7.85806 13.6894 7.86604 13.6493C7.87403 13.6092 7.89373 13.5723 7.92267 13.5434C7.9516 13.5144 7.98847 13.4947 8.0286 13.4867C8.06873 13.4788 8.11033 13.4828 8.14814 13.4985C8.18594 13.5142 8.21826 13.5407 8.24099 13.5747C8.26373 13.6087 8.27586 13.6487 8.27586 13.6897C8.27586 13.7445 8.25406 13.7972 8.21526 13.836C8.17646 13.8748 8.12384 13.8966 8.06896 13.8966Z" stroke="#EA4335" stroke-width="0.4" mask="url(#path-2-outside-1_1332_3095)"/>
<path d="M15.931 13.069C15.8083 13.069 15.6883 13.1054 15.5862 13.1736C15.4841 13.2418 15.4046 13.3387 15.3576 13.4521C15.3106 13.5655 15.2983 13.6903 15.3223 13.8107C15.3462 13.9311 15.4053 14.0417 15.4921 14.1285C15.5789 14.2154 15.6895 14.2745 15.8099 14.2984C15.9303 14.3224 16.0551 14.3101 16.1686 14.2631C16.282 14.2161 16.3789 14.1366 16.4471 14.0345C16.5153 13.9324 16.5517 13.8124 16.5517 13.6897C16.5517 13.525 16.4863 13.3672 16.3699 13.2508C16.2535 13.1344 16.0956 13.069 15.931 13.069ZM15.931 13.8966C15.8901 13.8966 15.8501 13.8844 15.8161 13.8617C15.7821 13.839 15.7555 13.8066 15.7399 13.7688C15.7242 13.731 15.7201 13.6894 15.7281 13.6493C15.7361 13.6092 15.7558 13.5723 15.7847 13.5434C15.8137 13.5144 15.8505 13.4947 15.8907 13.4867C15.9308 13.4788 15.9724 13.4828 16.0102 13.4985C16.048 13.5142 16.0803 13.5407 16.1031 13.5747C16.1258 13.6087 16.1379 13.6487 16.1379 13.6897C16.1379 13.7445 16.1161 13.7972 16.0773 13.836C16.0385 13.8748 15.9859 13.8966 15.931 13.8966Z" stroke="#EA4335" stroke-width="0.4" mask="url(#path-2-outside-1_1332_3095)"/>
<path d="M11.3793 8.72414C11.4342 8.72414 11.4868 8.70234 11.5256 8.66354C11.5644 8.62474 11.5862 8.57211 11.5862 8.51724V7.89655H12C12.2195 7.89655 12.43 7.80936 12.5852 7.65416C12.7404 7.49896 12.8276 7.28846 12.8276 7.06897C12.8276 6.84948 12.7404 6.63898 12.5852 6.48377C12.43 6.32857 12.2195 6.24138 12 6.24138H11.3793C11.3244 6.24138 11.2718 6.26318 11.233 6.30198C11.1942 6.34078 11.1724 6.3934 11.1724 6.44828V8.51724C11.1724 8.57211 11.1942 8.62474 11.233 8.66354C11.2718 8.70234 11.3244 8.72414 11.3793 8.72414ZM12.4138 7.06897C12.4138 7.17871 12.3702 7.28396 12.2926 7.36156C12.215 7.43916 12.1097 7.48276 12 7.48276H11.5862V6.65517H12C12.1097 6.65517 12.215 6.69877 12.2926 6.77637C12.3702 6.85397 12.4138 6.95922 12.4138 7.06897Z" stroke="#EA4335" stroke-width="0.4" mask="url(#path-2-outside-1_1332_3095)"/>
</g>
<line id="Line 53" x1="3.49622" y1="4.43762" x2="20.4962" y2="19.4376" stroke="#EA4335" stroke-width="1.5"/>
</g>
</svg>
