<svg width="15" height="15" viewBox="0 0 15 15" fill="none" xmlns="http://www.w3.org/2000/svg">
<path id="Vector" d="M15 7.5C15 9.48912 14.2098 11.3968 12.8033 12.8033C11.3968 14.2098 9.48912 15 7.5 15C5.51088 15 3.60322 14.2098 2.1967 12.8033C0.790176 11.3968 0 9.48912 0 7.5C0 7.27063 0.010625 7.04313 0.030625 6.81875L1.27562 6.93188C1.25854 7.11896 1.25 7.30833 1.25 7.5C1.25 8.73613 1.61656 9.94451 2.30331 10.9723C2.99007 12.0001 3.96619 12.8012 5.10823 13.2742C6.25027 13.7473 7.50693 13.8711 8.71931 13.6299C9.9317 13.3888 11.0453 12.7935 11.9194 11.9194C12.7935 11.0453 13.3888 9.9317 13.6299 8.71931C13.8711 7.50693 13.7473 6.25027 13.2742 5.10823C12.8012 3.96619 12.0001 2.99007 10.9723 2.30331C9.94451 1.61656 8.73613 1.25 7.5 1.25C7.30833 1.25 7.11896 1.25854 6.93188 1.27562L6.81875 0.030625C7.04313 0.010625 7.27063 0 7.5 0C9.48846 0.00215068 11.3949 0.793018 12.8009 2.19907C14.207 3.60513 14.9978 5.51154 15 7.5ZM3.53938 2.66438L2.74688 1.69813C2.36325 2.0135 2.01156 2.36582 1.69687 2.75L2.66375 3.54063C2.92632 3.22066 3.2196 2.92718 3.53938 2.66438ZM5.71375 1.50937L5.35688 0.3125C4.88103 0.45397 4.42043 0.642397 3.98188 0.875L4.56875 1.97875C4.93386 1.78462 5.31743 1.62738 5.71375 1.50937ZM1.9775 4.57188L0.875 3.98438C0.642505 4.42299 0.454083 4.88357 0.3125 5.35938L1.51063 5.71625C1.62784 5.31983 1.78424 4.93606 1.9775 4.57063V4.57188ZM6.875 3.75V6.42313C6.68777 6.53205 6.53205 6.68777 6.42313 6.875H4.375V8.125H6.42313C6.51857 8.29077 6.6509 8.43234 6.80985 8.53875C6.9688 8.64516 7.15012 8.71355 7.33975 8.73863C7.52938 8.76371 7.72224 8.7448 7.90339 8.68337C8.08454 8.62193 8.24911 8.51963 8.38437 8.38437C8.51963 8.24911 8.62193 8.08454 8.68337 7.90339C8.7448 7.72224 8.76371 7.52938 8.73863 7.33975C8.71355 7.15012 8.64516 6.9688 8.53875 6.80985C8.43234 6.6509 8.29077 6.51857 8.125 6.42313V3.75H6.875Z" fill="#6A6A6A"/>
</svg>
