<svg width="80" height="79" viewBox="0 0 80 79" fill="none" xmlns="http://www.w3.org/2000/svg">
<g id="Group 34">
<rect id="Rectangle 27" x="0.491699" y="0.312988" width="78.6787" height="78.6787" rx="24" fill="#EA4335"/>
<path id="Transparent Prices" d="M56.1588 36.6717L54.7326 35.0262C54.111 34.2949 53.7087 33.3807 53.6355 32.3933L53.4526 30.2358C53.2697 28.0052 51.4781 26.2132 49.2474 26.0306L47.09 25.8478C46.1393 25.7745 45.1884 25.409 44.4571 24.7506L42.8116 23.3245C41.0929 21.8619 38.5696 21.8619 36.8509 23.3245L35.2054 24.7506C34.4741 25.3723 33.5599 25.7745 32.5725 25.8478L30.415 26.0306C28.1844 26.2135 26.3924 28.0052 26.2098 30.2358L26.027 32.3933C25.9537 33.344 25.5882 34.2949 24.9298 35.0262L23.5037 36.6717C22.0411 38.3904 22.0411 40.9137 23.5037 42.6324L24.9298 44.2779C25.5515 45.0092 25.9537 45.9234 26.027 46.9108L26.2098 49.0682C26.3927 51.2989 28.1844 53.0909 30.415 53.2734L32.5725 53.4563C33.5232 53.5295 34.4741 53.8951 35.2054 54.5534L36.8509 55.9796C38.5696 57.4422 41.0929 57.4422 42.8116 55.9796L44.4571 54.5534C45.1884 53.9318 46.1026 53.5295 47.09 53.4563L49.2474 53.2734C51.4781 53.0906 53.2701 51.2989 53.4526 49.0682L53.6355 46.9108C53.7087 45.9601 54.0743 45.0092 54.7326 44.2779L56.1588 42.6324C57.6217 40.9137 57.6217 38.3537 56.1588 36.6717ZM41.0927 46.6914V48.4833C41.0927 48.6662 40.9466 48.8123 40.7637 48.8123H39.0085C38.8256 48.8123 38.6794 48.6662 38.6794 48.4833V46.7281C36.8875 46.6184 35.4614 45.2287 35.2787 43.4735C35.2422 43.2906 35.4249 43.1077 35.6078 43.1077H37.363C37.5091 43.1077 37.6556 43.2174 37.692 43.3638C37.8017 43.9122 38.2772 44.3145 38.8623 44.3145H40.3982C41.3124 44.3145 42.1534 43.6564 42.2266 42.7422C42.3363 41.7183 41.5317 40.8406 40.5079 40.8406H39.3744C37.1801 40.8406 35.2421 39.2683 35.0227 37.0741C34.8033 34.7703 36.4488 32.8321 38.6063 32.5396V30.7844C38.6063 30.6015 38.7525 30.4553 38.9354 30.4553H40.6906C40.8734 30.4553 41.0196 30.6015 41.0196 30.7844V32.5396C42.8115 32.6493 44.2377 34.039 44.4203 35.7942C44.4568 35.9771 44.2742 36.1599 44.0913 36.1599H42.3361C42.1899 36.1599 42.0435 36.0503 42.007 35.9038C41.8973 35.3554 41.4219 34.9531 40.8367 34.9531H39.3008C38.3866 34.9531 37.5456 35.6112 37.4724 36.5254C37.3627 37.5493 38.1673 38.4635 39.1911 38.4635H40.5076C42.9576 38.4635 44.8957 40.5481 44.6398 43.0346C44.4934 44.9362 42.9576 46.3623 41.0927 46.6914Z" fill="#FFFBFB"/>
</g>
</svg>
