<svg width="8" height="11" viewBox="0 0 8 11" fill="none" xmlns="http://www.w3.org/2000/svg">
<g id="Vector">
<path d="M0.392773 4.32144H7.46419C7.54188 4.32142 7.61782 4.29837 7.68241 4.2552C7.747 4.21203 7.79734 4.15068 7.82707 4.07891C7.85679 4.00713 7.86457 3.92816 7.84942 3.85196C7.83427 3.77577 7.79687 3.70577 7.74194 3.65083L4.20623 0.115121C4.16977 0.0786252 4.12647 0.0496734 4.07881 0.0299203C4.03116 0.0101672 3.98007 0 3.92848 0C3.87689 0 3.82581 0.0101672 3.77815 0.0299203C3.73049 0.0496734 3.6872 0.0786252 3.65073 0.115121L0.115023 3.65083C0.0600984 3.70577 0.0226957 3.77577 0.00754419 3.85196C-0.00760733 3.92816 0.000172512 4.00713 0.0299 4.07891C0.0596275 4.15068 0.109968 4.21203 0.174557 4.2552C0.239147 4.29837 0.315086 4.32142 0.392773 4.32144Z" fill="#565656"/>
<path d="M7.46419 6.67858H0.392773C0.315086 6.67859 0.239147 6.70164 0.174557 6.74481C0.109968 6.78798 0.0596275 6.84933 0.0299 6.92111C0.000172512 6.99288 -0.00760733 7.07186 0.00754419 7.14805C0.0226957 7.22425 0.0600984 7.29424 0.115023 7.34918L3.65073 10.8849C3.6872 10.9214 3.7305 10.9503 3.77816 10.9701C3.82581 10.9898 3.8769 11 3.92848 11C3.98007 11 4.03115 10.9898 4.07881 10.9701C4.12647 10.9503 4.16977 10.9214 4.20623 10.8849L7.74194 7.34918C7.79687 7.29424 7.83427 7.22425 7.84942 7.14805C7.86457 7.07186 7.85679 6.99288 7.82707 6.92111C7.79734 6.84933 7.747 6.78798 7.68241 6.74481C7.61782 6.70164 7.54188 6.67859 7.46419 6.67858Z" fill="#565656"/>
</g>
</svg>
