<svg width="19" height="17" viewBox="0 0 19 17" fill="none" xmlns="http://www.w3.org/2000/svg">
<path id="Vector" d="M18.2666 7.37911L14.9808 1.22637C14.5774 0.46984 13.7938 0 12.936 0H5.62803C4.77258 0 3.98977 0.468294 3.58484 1.22251L0.282831 7.37833C-0.094277 8.08232 -0.094277 8.92309 0.282831 9.62785L3.5833 15.7775C3.98745 16.5317 4.77026 17 5.62648 17H12.9345C13.7923 17 14.5758 16.5302 14.9792 15.7736L18.265 9.62089C18.6398 8.91922 18.6398 8.08078 18.265 7.37911H18.2666ZM9.2036 11.1425C8.90531 11.4415 8.5112 11.5907 8.11632 11.5907C7.72144 11.5907 7.32424 11.44 7.02209 11.1386L4.87227 9.05523L5.94795 7.94477L8.10628 10.0366L12.5953 5.63112L13.6802 6.73231L9.2036 11.1425Z" fill="#EA4335"/>
</svg>
