<svg width="24" height="24" viewBox="0 0 24 24" fill="none" xmlns="http://www.w3.org/2000/svg">
<g id="Group">
<path id="Vector" d="M11.6606 0.0495472C10.9673 0.199703 10.3806 0.48064 9.89576 0.906889C9.66788 1.10064 9.58061 1.13939 9.1103 1.26048C8.40242 1.44455 7.47636 1.77876 6.88485 2.06454C6.60848 2.20017 6.24485 2.33095 6.03636 2.37454C5.16848 2.55376 4.46061 3.11564 4.10182 3.91485C3.88364 4.39438 3.85455 4.67048 3.85455 6.26407V7.73172H3.08364H2.31273L2.29333 7.20376C2.27879 6.63219 2.23515 6.52079 1.94424 6.30766C1.82303 6.21563 1.74061 6.20595 1.13939 6.20595C0.407273 6.20595 0.329697 6.23016 0.101818 6.54016C0 6.67094 0 6.72423 0 9.28172C0 11.8392 0 11.8925 0.101818 12.0233C0.329697 12.3333 0.407273 12.3575 1.13939 12.3575C1.74061 12.3575 1.82303 12.3478 1.94424 12.2558C2.23515 12.0427 2.27879 11.9312 2.29333 11.3597L2.31273 10.8317H3.08364H3.85455V11.878C3.85455 12.5609 3.87394 12.9969 3.91273 13.1277C3.9903 13.3941 4.39273 13.7961 4.65939 13.8736C4.8 13.9123 5.39152 13.9317 6.68606 13.9317H8.50909V14.4742V15.0167L6.95273 19.0661C5.56606 22.6747 5.40121 23.1348 5.42061 23.3237C5.44485 23.5514 5.55152 23.7258 5.76485 23.8808C5.88121 23.9679 5.98303 23.9825 6.58424 23.997C6.99152 24.0067 7.34545 23.9922 7.45212 23.9631C7.78182 23.8614 7.86909 23.6967 8.38303 22.2145C8.64485 21.454 8.94545 20.587 9.05212 20.2867L9.24606 19.7442H10.0412H10.8315L10.8461 21.6284C10.8606 23.4497 10.8655 23.5223 10.9624 23.6483C11.1903 23.9583 11.2679 23.9825 12 23.9825C12.7321 23.9825 12.8097 23.9583 13.0376 23.6483C13.1345 23.5223 13.1394 23.4497 13.1539 21.6284L13.1685 19.7442H13.9588H14.7539L14.88 20.093C14.9479 20.2867 15.2533 21.1634 15.5588 22.0353C16.1503 23.7403 16.2133 23.8614 16.5576 23.9631C16.6545 23.9922 17.0182 24.0067 17.4158 23.997C18.017 23.9825 18.1188 23.9679 18.2352 23.8808C18.4485 23.7258 18.5552 23.5514 18.5794 23.3237C18.6036 23.1348 18.4388 22.6795 17.0473 19.0661L15.4909 15.0216V14.4742V13.9317H15.7624C16.1842 13.9317 16.4073 13.8445 16.6788 13.5684C16.9552 13.2972 17.0424 13.0744 17.0424 12.653V12.3817H17.9055C18.5745 12.3817 18.7927 12.3672 18.9042 12.3091C18.9818 12.2655 19.0497 12.2412 19.0545 12.2461C19.0642 12.2558 19.1127 12.3478 19.1661 12.4592C19.2194 12.5658 19.3455 12.7353 19.4473 12.8322C19.7333 13.1083 19.9418 13.1567 20.8776 13.1567H21.6873L21.7164 13.3262C21.76 13.5539 22.0024 13.8203 22.2255 13.8881C22.3273 13.9172 22.6424 13.9317 22.9673 13.922C23.5782 13.9075 23.68 13.8687 23.8982 13.5733C24 13.4425 24 13.3989 24 10.0567C24 6.71454 24 6.67094 23.8982 6.54016C23.68 6.2447 23.5782 6.20595 22.9673 6.19141C22.6424 6.18173 22.3273 6.19626 22.2255 6.22532C22.0024 6.29313 21.76 6.55954 21.7164 6.7872L21.6873 6.95673H20.8776C19.9418 6.95673 19.7333 7.00516 19.4473 7.28126C19.3455 7.37813 19.2194 7.54766 19.1661 7.65422C19.1127 7.76563 19.0642 7.85766 19.0545 7.86735C19.0497 7.87219 18.9818 7.84797 18.9042 7.80438C18.7927 7.74626 18.5745 7.73172 17.9055 7.73172H17.0424V7.46047C17.0424 7.03907 16.9552 6.81626 16.6788 6.54501C16.4073 6.26891 16.1842 6.18173 15.7673 6.18173H15.4958L15.6848 5.87657C16.4606 4.64142 16.4412 2.98486 15.6412 1.76423C15.0933 0.926264 14.3127 0.369234 13.3091 0.0931416C12.9309 -0.00857735 12.0485 -0.0327969 11.6606 0.0495472ZM12.1212 0.877827C11.9661 1.03283 11.9612 1.25564 12.1164 1.40579L12.2279 1.52205L11.9564 1.57533C11.6364 1.63829 11.1661 1.85142 10.9527 2.03064L10.8024 2.15657L10.8267 2.04033C10.8655 1.8272 10.7927 1.67704 10.6182 1.59954C10.5261 1.56564 10.4194 1.54626 10.3806 1.56079C10.0752 1.67704 10.7588 1.19751 11.1515 1.0183C11.4036 0.902046 11.9127 0.76642 12.1309 0.761578C12.2376 0.756733 12.2376 0.756733 12.1212 0.877827ZM13.3333 0.906889C13.4933 0.955326 13.76 1.07642 13.92 1.17814C14.2739 1.39611 14.5358 1.59954 14.4097 1.56079C14.3612 1.54626 14.2497 1.56564 14.1576 1.59954C13.983 1.67704 13.9103 1.8272 13.9491 2.04033L13.9733 2.15657L13.823 2.03064C13.6097 1.85142 13.1394 1.63829 12.8194 1.57533L12.5479 1.52205L12.6594 1.40579C12.8145 1.25564 12.8097 1.03283 12.6497 0.872984L12.5285 0.747046L12.7855 0.780952C12.9261 0.800327 13.1733 0.858452 13.3333 0.906889ZM10.0994 1.90954C10.0897 2.19048 10.2836 2.35032 10.5697 2.29704L10.6861 2.27283L10.56 2.42298C10.3806 2.63611 10.1673 3.10595 10.1042 3.42564L10.0509 3.69689L9.93455 3.58548C9.78424 3.43048 9.56121 3.43532 9.40606 3.59032C9.30424 3.6872 9.28485 3.69204 9.28485 3.62423C9.2897 3.43048 9.43515 2.85892 9.54667 2.62157C9.65818 2.37939 10.0412 1.77392 10.0848 1.77392C10.0945 1.77392 10.0994 1.83689 10.0994 1.90954ZM15.0691 2.32611C15.2679 2.64579 15.4085 3.05751 15.4667 3.45954L15.5006 3.71626L15.3745 3.59517C15.2145 3.43532 14.9915 3.43048 14.8412 3.58548L14.7248 3.69689L14.6715 3.42564C14.6085 3.10595 14.3952 2.63611 14.2158 2.42298L14.0897 2.27283L14.2061 2.29704C14.497 2.35032 14.6861 2.19048 14.6764 1.89501L14.6715 1.7497L14.7782 1.89017C14.8364 1.96283 14.9673 2.16142 15.0691 2.32611ZM8.74182 2.59735C8.65939 2.84923 8.58182 3.08657 8.57212 3.12532C8.56242 3.16892 8.48485 3.12532 8.34424 2.99454C8.22788 2.88798 8.04364 2.75236 7.93697 2.68939C7.82545 2.62642 7.73333 2.56345 7.73333 2.54892C7.73333 2.51986 8.86303 2.11298 8.88242 2.13236C8.88727 2.1372 8.82424 2.34548 8.74182 2.59735ZM13.12 2.50533C13.4448 2.6797 13.5952 2.8347 13.7842 3.19798C13.8909 3.40626 13.9103 3.50798 13.9103 3.85673C13.9152 4.23454 13.9006 4.29267 13.7503 4.5736C13.5661 4.91267 13.4109 5.05798 13.0473 5.25173C12.8388 5.35829 12.737 5.37766 12.3879 5.37766C12.0388 5.37766 11.937 5.35829 11.7285 5.25173C11.3648 5.05798 11.2097 4.91267 11.0255 4.5736C10.8752 4.29267 10.8606 4.23454 10.8655 3.85673C10.8655 3.37235 10.9818 3.08173 11.297 2.76689C11.7818 2.28251 12.5042 2.18079 13.12 2.50533ZM6.30303 3.20282C6.14303 3.35782 6.14303 3.58064 6.29818 3.73564L6.41939 3.85673L6.21576 3.91485C5.94424 3.9972 5.54667 4.39439 5.46424 4.66563L5.40606 4.86907L5.28485 4.74798C5.1297 4.59298 4.90667 4.59298 4.74667 4.75282L4.62545 4.87392L4.65939 4.68985C4.70788 4.39923 4.94545 3.92938 5.15879 3.69689C5.37212 3.46439 5.81333 3.20767 6.11394 3.13501C6.4097 3.0672 6.42909 3.07204 6.30303 3.20282ZM7.37939 3.27548C7.79636 3.46923 8.08727 3.75017 8.28606 4.16673C8.37818 4.35563 8.46546 4.59298 8.48485 4.68985L8.51394 4.87392L8.39273 4.75282C8.23273 4.59298 8.0097 4.59298 7.85455 4.74798L7.73333 4.86907L7.67515 4.67048C7.58788 4.37985 7.24849 4.02626 6.96242 3.92938L6.72485 3.85188L6.84121 3.73564C6.99636 3.58064 6.99636 3.35782 6.83636 3.19798L6.71515 3.07689L6.89939 3.11079C6.99636 3.12532 7.21455 3.20282 7.37939 3.27548ZM9.67273 4.24423C9.76485 4.24423 9.86667 4.20063 9.93455 4.12798L10.0509 4.01657L10.1042 4.28782C10.1673 4.60751 10.3806 5.07735 10.56 5.29048L10.6861 5.44063L10.5697 5.41641C10.2788 5.36313 10.0897 5.52298 10.0994 5.81845L10.1042 5.96376L9.99758 5.82329C9.6097 5.31954 9.38182 4.80126 9.30909 4.25392L9.27515 3.9972L9.40121 4.11829C9.47879 4.20063 9.57576 4.24423 9.67273 4.24423ZM15.103 4.24423C15.2 4.24423 15.297 4.20063 15.3745 4.11829L15.5006 3.9972L15.4667 4.25392C15.3988 4.76251 15.1273 5.3922 14.7879 5.8136L14.6715 5.95891L14.6764 5.8136C14.6861 5.52298 14.497 5.36313 14.2061 5.41641L14.0897 5.44063L14.2158 5.29048C14.3952 5.07735 14.6085 4.60751 14.6715 4.28782L14.7248 4.01657L14.8412 4.12798C14.9091 4.20063 15.0109 4.24423 15.103 4.24423ZM6.83636 4.75282C7.07879 4.99017 6.90909 5.40673 6.5697 5.40673C6.37091 5.40673 6.18182 5.21782 6.18182 5.01923C6.18182 4.82063 6.37091 4.63173 6.5697 4.63173C6.66182 4.63173 6.76364 4.67532 6.83636 4.75282ZM5.01818 5.40673C5.1103 5.40673 5.21212 5.36313 5.28485 5.29048L5.40606 5.16938L5.46424 5.37282C5.54667 5.64407 5.94424 6.04126 6.21576 6.1236L6.41939 6.18173L6.29818 6.30282C6.14303 6.45782 6.14303 6.68063 6.30303 6.84048L6.42424 6.96157L6.24 6.93251C5.92485 6.87922 5.38667 6.5886 5.16848 6.34641C4.94545 6.10907 4.70788 5.63923 4.65939 5.3486L4.62545 5.16454L4.74667 5.28563C4.82424 5.36313 4.92121 5.40673 5.01818 5.40673ZM8.12121 5.40673C8.21818 5.40673 8.31515 5.36313 8.39273 5.28563L8.51394 5.16454L8.48 5.3486C8.43151 5.63923 8.19394 6.10907 7.97091 6.34641C7.75273 6.5886 7.21455 6.87922 6.89939 6.93251L6.71515 6.96157L6.83636 6.84048C6.99636 6.68063 6.99636 6.45782 6.84121 6.30282L6.72 6.18173L6.92364 6.1236C7.05455 6.08485 7.21455 5.97345 7.3697 5.81845C7.52485 5.66345 7.63636 5.5036 7.67515 5.37282L7.73333 5.16938L7.85455 5.29048C7.92727 5.36313 8.02909 5.40673 8.12121 5.40673ZM11.3939 5.94923C11.5539 6.02188 11.8061 6.10907 11.9564 6.13813L12.2279 6.19141L12.1164 6.30766C11.9612 6.45782 11.9661 6.68063 12.1261 6.84048L12.2473 6.96641L11.9903 6.93251C11.5879 6.87438 11.1758 6.73391 10.8558 6.53532C10.5018 6.31735 10.24 6.11391 10.3661 6.15266C10.4145 6.16719 10.5261 6.14782 10.6182 6.11391C10.7927 6.03642 10.8655 5.88626 10.8267 5.67313L10.8024 5.55688L10.9527 5.68282C11.0352 5.75063 11.2339 5.87173 11.3939 5.94923ZM13.9491 5.67313C13.9103 5.88626 13.9782 6.03642 14.1576 6.11391C14.2497 6.14782 14.3612 6.16719 14.4097 6.15266C14.5358 6.10907 14.2497 6.34157 13.9539 6.52079C13.6533 6.70485 13.1345 6.88891 12.7855 6.93251L12.5285 6.96641L12.6497 6.84048C12.8097 6.68063 12.8145 6.45782 12.6594 6.30766L12.5479 6.19141L12.8291 6.13813C13.1442 6.07516 13.7309 5.79907 13.8667 5.64891C13.9782 5.52782 13.9782 5.52782 13.9491 5.67313ZM9.27515 6.15266C9.33818 6.23985 9.53697 6.45782 9.72121 6.63704L10.0509 6.95673H9.28C8.85818 6.95673 8.50909 6.94704 8.50909 6.93735C8.50909 6.92766 8.58182 6.83079 8.66909 6.72423C8.75636 6.62251 8.89212 6.40938 8.97455 6.25923C9.05212 6.10907 9.12485 5.98798 9.13939 5.98798C9.15394 5.98798 9.21212 6.06063 9.27515 6.15266ZM1.52727 9.28172V11.6067H1.13939H0.751515V9.28172V6.95673H1.13939H1.52727V9.28172ZM4.9503 7.18438C5.18303 7.37329 5.59515 7.56704 5.93455 7.64938L6.17697 7.70751L6.19151 9.8C6.20606 11.8247 6.21091 11.8925 6.30788 12.0233C6.36121 12.0959 6.46788 12.2025 6.54061 12.2558C6.67151 12.3575 6.7103 12.3575 10.4485 12.3575C14.1867 12.3575 14.2255 12.3575 14.3564 12.2558C14.4291 12.2025 14.5358 12.0959 14.5891 12.0233C14.6861 11.8925 14.6909 11.8295 14.7055 9.42219L14.72 6.95673H15.3745C16.0048 6.95673 16.0339 6.96157 16.1455 7.07782L16.2667 7.19407V10.0567V12.9194L16.1455 13.0356L16.0291 13.1567H10.4485H4.86788L4.75152 13.0356L4.6303 12.9194V9.93563C4.6303 7.56219 4.64485 6.95673 4.69333 6.98579C4.72242 7.00516 4.83879 7.09235 4.9503 7.18438ZM23.2485 10.0567V13.1567H22.8606H22.4727V10.0567V6.95673H22.8606H23.2485V10.0567ZM13.9394 9.49969V11.6067H10.4485H6.95758V9.66922V7.73172H7.73333H8.50909V9.38344C8.50909 10.3183 8.52849 11.0255 8.55273 11.0158C8.93091 10.8753 12.5333 9.30594 12.5333 9.28172C12.5333 9.26235 11.7479 8.9136 10.783 8.50188L9.03273 7.75594L11.0352 7.72688C13.12 7.70266 13.2558 7.68813 13.7552 7.47016C13.8424 7.43141 13.92 7.39751 13.9297 7.39751C13.9345 7.39266 13.9394 8.34204 13.9394 9.49969ZM21.697 10.0567V12.3817H20.9164C20.4703 12.3817 20.097 12.3623 20.0436 12.3333C19.9903 12.3042 19.8206 12.0184 19.6606 11.7036L19.3697 11.1223V10.0567V8.9911L19.6606 8.40985C19.8206 8.09501 19.9903 7.81407 20.0339 7.78501C20.0824 7.75594 20.4558 7.73172 20.9115 7.73172H21.697V10.0567ZM3.85455 9.28172V10.0567H3.07879H2.30303V9.28172V8.50672H3.07879H3.85455V9.28172ZM18.5939 10.0567V11.6067H17.8182H17.0424V10.0567V8.50672H17.8182H18.5939V10.0567ZM10.337 9.15094C10.4776 9.20907 10.5939 9.26719 10.5939 9.28172C10.5939 9.29625 10.4776 9.35438 10.337 9.4125C10.2012 9.46578 9.90545 9.59172 9.68727 9.6886L9.28485 9.85813V9.28172V8.70532L9.68727 8.87485C9.90545 8.97172 10.2012 9.09766 10.337 9.15094ZM14.7152 14.3192V14.7067H12H9.28485V14.3192V13.9317H12H14.7152V14.3192ZM9.74061 15.9516C9.64849 16.2131 9.04242 17.952 8.39273 19.8169L7.21455 23.2075L6.72485 23.222C6.34667 23.2317 6.2303 23.222 6.2303 23.1736C6.2303 23.1397 6.8897 21.3959 7.69455 19.2937L9.16364 15.4817H9.53212H9.90545L9.74061 15.9516ZM10.8364 17.2255V18.9692H10.1818C9.82303 18.9692 9.52727 18.9595 9.52727 18.9498C9.52727 18.9111 10.6909 15.5689 10.72 15.5253C10.817 15.3655 10.8364 15.6319 10.8364 17.2255ZM12.3879 19.3567V23.2317H12H11.6121V19.3567V15.4817H12H12.3879V19.3567ZM13.8764 17.2061C14.2012 18.1361 14.4679 18.9111 14.4679 18.9305C14.4727 18.9547 14.177 18.9692 13.8182 18.9692H13.1636V17.2206C13.1636 15.845 13.1782 15.4769 13.2267 15.4914C13.2558 15.5059 13.5515 16.2761 13.8764 17.2061ZM16.3006 19.2744C17.1055 21.3572 17.7794 23.1009 17.7988 23.1494C17.8279 23.2269 17.7939 23.2317 17.3091 23.222L16.7855 23.2075L15.6315 19.8895C14.9964 18.0634 14.3903 16.3245 14.2836 16.0242L14.0897 15.4817H14.463H14.8364L16.3006 19.2744Z" fill="black"/>
</g>
</svg>
