<svg width="20" height="20" viewBox="0 0 20 20" fill="none" xmlns="http://www.w3.org/2000/svg">
<g id="whatsapp 1" clip-path="url(#clip0_94_6546)">
<g id="Layer 2">
<g id="whatsapp">
<path id="background" d="M17.2727 0H2.72727C1.22104 0 0 1.22104 0 2.72727V17.2727C0 18.779 1.22104 20 2.72727 20H17.2727C18.779 20 20 18.779 20 17.2727V2.72727C20 1.22104 18.779 0 17.2727 0Z" fill="#29A71A"/>
<g id="icon">
<path id="Vector" d="M14.4091 5.59091C13.3687 4.54011 11.987 3.89569 10.5133 3.77389C9.03962 3.65209 7.5709 4.06092 6.37208 4.92664C5.17326 5.79236 4.32327 7.05798 3.97542 8.49521C3.62756 9.93245 3.80475 11.4467 4.47502 12.7648L3.81707 15.9591C3.81024 15.9909 3.81005 16.0237 3.8165 16.0556C3.82295 16.0875 3.83591 16.1177 3.85457 16.1443C3.8819 16.1847 3.92091 16.2159 3.96639 16.2335C4.01188 16.2512 4.06167 16.2546 4.10912 16.2432L7.2398 15.5011C8.55419 16.1544 10.0577 16.3202 11.4829 15.969C12.908 15.6178 14.1624 14.7724 15.0227 13.5831C15.883 12.3939 16.2935 10.938 16.1812 9.47453C16.0688 8.01104 15.4409 6.63488 14.4091 5.59091ZM13.433 13.3818C12.7131 14.0997 11.7862 14.5735 10.7827 14.7366C9.77927 14.8997 8.74995 14.7438 7.8398 14.2909L7.40343 14.075L5.48412 14.5295L5.4898 14.5057L5.88753 12.5739L5.67389 12.1523C5.20884 11.2389 5.04479 10.2019 5.20524 9.18959C5.36568 8.17732 5.84239 7.2418 6.56707 6.51705C7.47764 5.60675 8.71248 5.09538 10 5.09538C11.2876 5.09538 12.5224 5.60675 13.433 6.51705C13.4407 6.52594 13.4491 6.53429 13.458 6.54205C14.3573 7.45468 14.8593 8.68583 14.8546 9.96708C14.8499 11.2483 14.3389 12.4758 13.433 13.3818Z" fill="white"/>
<path id="Vector_2" d="M13.2625 11.9648C13.0273 12.3352 12.6557 12.7886 12.1887 12.9011C11.3705 13.0989 10.1148 12.908 8.5523 11.4511L8.53298 11.4341C7.15912 10.1602 6.8023 9.1 6.88866 8.25909C6.93639 7.78182 7.33412 7.35 7.66934 7.06818C7.72234 7.02295 7.78519 6.99074 7.85286 6.97414C7.92053 6.95754 7.99115 6.95701 8.05906 6.97258C8.12698 6.98815 8.19031 7.01939 8.24399 7.06382C8.29767 7.10824 8.34021 7.16461 8.36821 7.22841L8.87389 8.36477C8.90675 8.43845 8.91893 8.51969 8.90912 8.59977C8.89931 8.67985 8.86788 8.75575 8.81821 8.81932L8.56253 9.15114C8.50766 9.21965 8.47456 9.30301 8.46747 9.3905C8.46038 9.47799 8.47964 9.56559 8.52275 9.64205C8.66594 9.89318 9.00912 10.2625 9.3898 10.6045C9.81707 10.9909 10.2909 11.3443 10.5909 11.4648C10.6712 11.4976 10.7595 11.5056 10.8443 11.4877C10.9292 11.4699 11.0068 11.4271 11.0671 11.3648L11.3637 11.0659C11.4209 11.0095 11.4921 10.9692 11.5699 10.9493C11.6478 10.9293 11.7295 10.9303 11.8068 10.9523L13.008 11.2932C13.0742 11.3135 13.135 11.3487 13.1855 11.3961C13.2361 11.4435 13.2752 11.5018 13.2997 11.5666C13.3243 11.6314 13.3337 11.701 13.3273 11.77C13.3208 11.839 13.2987 11.9056 13.2625 11.9648Z" fill="white"/>
</g>
</g>
</g>
</g>
<defs>
<clipPath id="clip0_94_6546">
<rect width="20" height="20" fill="white"/>
</clipPath>
</defs>
</svg>
