<svg width="20" height="18" viewBox="0 0 20 18" fill="none" xmlns="http://www.w3.org/2000/svg">
<path d="M9.89729 17.7594L1.92396 9.33043C0.638031 7.99918 0.121526 6.04361 0.569239 4.20057C1.0168 2.35749 2.36058 0.906936 4.09422 0.395258C5.82789 -0.116421 7.68814 0.388604 8.97414 1.71985C9.31868 2.06891 9.61463 2.46764 9.85334 2.90442L9.88906 2.97095L9.92477 2.90442H9.92462C10.6602 1.59975 11.8879 0.689518 13.2987 0.402506C14.7093 0.11549 16.169 0.479095 17.3101 1.40186C18.4511 2.32465 19.1651 3.71871 19.2721 5.23319C19.3792 6.74763 18.8693 8.23842 17.8708 9.33043L9.89729 17.7594ZM5.49098 1.49166C4.46733 1.4915 3.48565 1.92134 2.76176 2.6866C2.03801 3.45186 1.63155 4.48976 1.63185 5.57194C1.63214 6.65407 2.03917 7.69185 2.76337 8.45663L9.89741 15.9849L17.0314 8.44317C17.9427 7.40836 18.2823 5.94866 17.9286 4.58526C17.5752 3.22181 16.579 2.14894 15.296 1.75023C14.013 1.35136 12.6261 1.68308 11.6307 2.62723C11.3628 2.89444 11.1326 3.20066 10.9466 3.53671L9.89744 5.47541L8.84832 3.53671C8.50847 2.91349 8.01918 2.39638 7.42964 2.03728C6.84026 1.67816 6.17152 1.48987 5.49109 1.49158L5.49098 1.49166Z" fill="white"/>
</svg>
