<svg width="20" height="18" viewBox="0 0 20 18" fill="none" xmlns="http://www.w3.org/2000/svg">
<path id="Vector" d="M17.4215 2.21931L17.4222 2.2194C18.4644 2.34307 19.2135 3.28169 19.1025 4.32518L19.1024 4.3262L18.0989 13.1803L18.0989 13.1805C18.0417 13.6774 17.7966 14.1336 17.4139 14.4557L17.4031 14.4648L17.4027 14.4643C17.1707 14.6251 16.9117 14.7422 16.6384 14.8103V15.0388C16.6384 16.0953 15.6839 16.8898 14.656 16.8898H2.6813C2.65768 16.8901 2.63393 16.89 2.61013 16.8894C2.61013 16.8894 2.61012 16.8894 2.61012 16.8894L2.61409 16.7394C1.69878 16.7153 0.976415 15.9538 1.00059 15.0388L17.4215 2.21931ZM17.4215 2.21931L5.51322 0.867481C5.01035 0.796624 4.50105 0.94318 4.11282 1.27046C3.72597 1.57144 3.47791 2.01665 3.42562 2.50399L3.22372 4.15931H2.68027C1.62341 4.15931 0.850589 5.09191 0.850589 6.11937V15.0369L17.4215 2.21931ZM15.4659 14.8888H15.4658V15.0388C15.4658 15.2252 15.3732 15.3924 15.2209 15.517C15.0676 15.6423 14.8612 15.7175 14.656 15.7175H2.68027V15.7175L2.67586 15.7176C2.32512 15.7279 2.0325 15.452 2.0222 15.1014L2.0222 15.1013C2.02166 15.0833 2.02189 15.0653 2.02291 15.0472L2.02314 15.0472V15.0388V13.5009L5.34315 11.0598L5.34317 11.0598L5.34562 11.0579C5.69361 10.7908 6.18377 10.8146 6.50437 11.114L6.50432 11.114L6.50762 11.1169L8.88533 13.2105L8.8853 13.2105L8.88801 13.2128C9.27551 13.5381 9.76327 13.7199 10.2692 13.7277L10.2697 13.7277C10.6657 13.7325 11.0552 13.6272 11.3947 13.4234L15.4659 11.0681V14.8888ZM15.4658 6.1244V9.69687L10.7849 12.4231L10.784 12.4237C10.4311 12.6327 9.98446 12.5951 9.67146 12.3302L7.27308 10.2158L7.27308 10.2158L7.27162 10.2145C6.53097 9.57825 5.44852 9.53908 4.66383 10.1201C4.66364 10.1202 4.66344 10.1204 4.66324 10.1205L2.02314 12.0401V6.11937C2.02314 5.69187 2.31077 5.33163 2.68027 5.33163H14.6528C15.086 5.35108 15.4356 5.69224 15.4658 6.1244ZM16.6659 13.537C16.6591 13.5438 16.6499 13.5507 16.6383 13.558V6.11937H16.6384L16.6382 6.11417C16.601 5.04118 15.7329 4.18365 14.6594 4.15935L14.6594 4.15931H14.656H4.39736L4.5737 2.63138C4.6102 2.44889 4.70537 2.28338 4.84471 2.15998C5.00545 2.05117 5.19856 2.00037 5.39225 2.01607L17.2783 3.38968L17.2783 3.38972L17.2814 3.39C17.6786 3.42772 17.97 3.78026 17.9323 4.17738L17.9319 4.18139L17.9318 4.18263L17.9317 4.18297L18.0807 4.20024L17.9317 4.18299L16.9065 13.037L16.9054 13.0462L16.9055 13.0554C16.9069 13.2386 16.8234 13.412 16.6793 13.5251L16.6722 13.5307L16.6659 13.537ZM10.0969 6.40553C9.00215 6.40553 8.11455 7.29279 8.11455 8.38741C8.11455 9.48199 9.0021 10.3693 10.0969 10.3693C11.1917 10.3693 12.0793 9.48204 12.0793 8.38741C12.0793 7.29279 11.1917 6.40553 10.0969 6.40553ZM10.0969 9.19694C9.64963 9.19694 9.2871 8.83445 9.2871 8.38737C9.2871 7.9403 9.64963 7.57781 10.0969 7.57781C10.5442 7.57781 10.9067 7.9403 10.9067 8.38737C10.9067 8.83445 10.5442 9.19694 10.0969 9.19694Z" fill="white" stroke="white" stroke-width="0.3"/>
</svg>
