<svg width="21" height="16" viewBox="0 0 21 16" fill="none" xmlns="http://www.w3.org/2000/svg">
<path id="Vector" d="M17.1697 8.00653H17.1659V8.05653C17.1659 11.582 14.2955 14.4524 10.77 14.4524C7.24454 14.4524 4.37409 11.582 4.37409 8.05653V6.46166H6.86582L6.86752 6.46166C6.88106 6.46167 6.90026 6.46168 6.92037 6.45715C7.03611 6.4427 7.13637 6.36726 7.18875 6.26687L7.18908 6.26621C7.50968 5.6288 7.97715 5.10116 8.54224 4.72443L8.54241 4.72432C9.1868 4.29096 9.95564 4.04969 10.77 4.04969C11.5881 4.04969 12.3606 4.2947 13.0088 4.73562L13.009 4.73571C13.5666 5.11247 14.0303 5.63637 14.3509 6.27002C14.4034 6.37488 14.5002 6.4466 14.6158 6.46097C14.6359 6.4655 14.6551 6.46549 14.6687 6.46548L14.6704 6.46548H17.1697V8.00653ZM13.2774 4.06433L13.2773 4.06426C12.5252 3.58981 11.6572 3.33907 10.77 3.33907C9.88278 3.33907 9.01484 3.58981 8.26266 4.06426L8.26256 4.06433C7.59597 4.48714 7.046 5.06794 6.66095 5.75104H2.22888C1.91684 5.75104 1.66063 5.49483 1.66063 5.18278V2.22888C1.66063 1.91684 1.91684 1.66062 2.22888 1.66062H19.3111C19.6232 1.66062 19.8794 1.91684 19.8794 2.22888V5.18278C19.8794 5.49483 19.6232 5.75104 19.3111 5.75104H14.8791C14.494 5.06418 13.944 4.48709 13.2774 4.06433ZM19.3111 0.95H2.22888C1.52195 0.95 0.95 1.52195 0.95 2.22888V5.18278C0.95 5.88971 1.52195 6.46166 2.22888 6.46166H3.66347V8.05653C3.66347 9.94757 4.40537 11.7311 5.75042 13.0761C7.09547 14.4212 8.87897 15.1631 10.77 15.1631C12.661 15.1631 14.4445 14.4212 15.7896 13.0761C17.1346 11.7311 17.8765 9.94757 17.8765 8.05653V6.46166H19.3111C20.0181 6.46166 20.59 5.88971 20.59 5.18278V2.22888C20.59 1.52195 20.0181 0.95 19.3111 0.95ZM10.77 6.91504C8.72729 6.91504 7.0677 8.57852 7.0677 10.6173C7.0677 12.6562 8.73114 14.3196 10.77 14.3196C12.8089 14.3196 14.4723 12.6562 14.4723 10.6173C14.4723 8.57852 12.8127 6.91504 10.77 6.91504ZM10.77 13.609C9.11844 13.609 7.77832 12.2652 7.77832 10.6173C7.77832 8.96955 9.12221 7.62567 10.77 7.62567C12.4178 7.62567 13.7617 8.96955 13.7617 10.6173C13.7617 12.2652 12.4216 13.609 10.77 13.609ZM10.77 8.90339C9.63181 8.90339 8.70875 9.82645 8.70875 10.9646C8.70875 12.1028 9.63181 13.0259 10.77 13.0259C11.9082 13.0259 12.8312 12.1028 12.8312 10.9646C12.8312 9.82645 11.9082 8.90339 10.77 8.90339ZM10.77 12.3153C10.0267 12.3153 9.41938 11.7079 9.41938 10.9646C9.41938 10.2213 10.0267 9.61401 10.77 9.61401C11.5133 9.61401 12.1206 10.2213 12.1206 10.9646C12.1206 11.7079 11.5133 12.3153 10.77 12.3153ZM15.6359 9.16749C16.2055 9.16749 16.6667 8.70622 16.6667 8.13668C16.6667 7.56713 16.2055 7.10586 15.6359 7.10586C15.0664 7.10586 14.6051 7.56713 14.6051 8.13668C14.6051 8.70228 15.0662 9.16749 15.6359 9.16749ZM15.6359 7.81649C15.8109 7.81649 15.9561 7.95854 15.9561 8.13668C15.9561 8.31167 15.8141 8.45687 15.6359 8.45687C15.4574 8.45687 15.3157 8.31515 15.3157 8.13668C15.3157 7.95854 15.4609 7.81649 15.6359 7.81649Z" fill="#333333" stroke="#333333" stroke-width="0.1"/>
</svg>
