<svg width="16" height="16" viewBox="0 0 16 16" fill="none" xmlns="http://www.w3.org/2000/svg">
<g id="download 1" clip-path="url(#clip0_38_584)">
<path id="Vector" fill-rule="evenodd" clip-rule="evenodd" d="M0 0.5C0 0.2 0.2 0 0.5 0H2.5C2.8 0 3 0.2 3 0.5V1H13V0.5C13 0.2 13.2 0 13.5 0H15.5C15.8 0 16 0.2 16 0.5V2.5C16 2.8 15.8 3 15.5 3H15V13H15.5C15.8 13 16 13.2 16 13.5V15.5C16 15.8 15.8 16 15.5 16H13.5C13.3674 16 13.2402 15.9473 13.1464 15.8536C13.0527 15.7598 13 15.6326 13 15.5V15H3V15.5C3 15.8 2.8 16 2.5 16H0.5C0.367392 16 0.240215 15.9473 0.146447 15.8536C0.0526784 15.7598 0 15.6326 0 15.5V13.5C0 13.2 0.2 13 0.5 13H1V3H0.5C0.367392 3 0.240215 2.94732 0.146447 2.85355C0.0526784 2.75979 0 2.63261 0 2.5V0.5ZM2 3V13H2.5C2.8 13 3 13.2 3 13.5V14H13V13.5C13 13.2 13.2 13 13.5 13H14V3H13.5C13.3674 3 13.2402 2.94732 13.1464 2.85355C13.0527 2.75979 13 2.63261 13 2.5V2H3V2.5C3 2.8 2.8 3 2.5 3H2ZM2 1V2H1V1H2ZM14 2V1H15V2H14ZM14 14H15V15H14V14ZM1 14H2V15H1V14Z" fill="#333333"/>
</g>
<defs>
<clipPath id="clip0_38_584">
<rect width="16" height="16" fill="white"/>
</clipPath>
</defs>
</svg>
