<svg width="17" height="16" viewBox="0 0 17 16" fill="none" xmlns="http://www.w3.org/2000/svg">
<g id="download (2) 1">
<path id="Vector" fill-rule="evenodd" clip-rule="evenodd" d="M8.3001 0C8.1001 0 7.8001 0.2 7.8001 0.5V3.5C7.8001 3.63261 7.85278 3.75979 7.94655 3.85355C8.04032 3.94732 8.1675 4 8.3001 4C8.43271 4 8.55989 3.94732 8.65366 3.85355C8.74743 3.75979 8.8001 3.63261 8.8001 3.5V1C10.3909 1.1104 11.8964 1.76066 13.0674 2.84318C14.2383 3.9257 15.0045 5.37558 15.2393 6.95288C15.474 8.53018 15.1631 10.1404 14.3581 11.5169C13.5531 12.8935 12.3022 13.9539 10.8124 14.5227C9.32265 15.0916 7.68332 15.1347 6.16571 14.6449C4.64811 14.1552 3.34321 13.1619 2.46697 11.8296C1.59073 10.4972 1.19567 8.90562 1.34717 7.31816C1.49868 5.73071 2.18766 4.24256 3.3001 3.1C3.37232 3.00371 3.40738 2.88461 3.39885 2.76456C3.39031 2.6445 3.33876 2.53155 3.25366 2.44645C3.16855 2.36134 3.0556 2.30979 2.93555 2.30126C2.81549 2.29273 2.69639 2.32779 2.6001 2.4C1.49808 3.52429 0.752269 4.94874 0.456088 6.49495C0.159906 8.04116 0.326518 9.64038 0.935057 11.0923C1.5436 12.5443 2.56701 13.7844 3.87712 14.6574C5.18722 15.5304 6.72579 15.9974 8.3001 16C10.4218 16 12.4567 15.1571 13.957 13.6569C15.4572 12.1566 16.3001 10.1217 16.3001 8C16.3001 5.87827 15.4572 3.84344 13.957 2.34315C12.4567 0.842855 10.4218 0 8.3001 0ZM5.7001 4.6C5.64757 4.55404 5.58651 4.51887 5.52039 4.49651C5.45427 4.47415 5.38439 4.46503 5.31475 4.46967C5.2451 4.47431 5.17706 4.49263 5.11449 4.52357C5.05193 4.55451 4.99607 4.59747 4.9501 4.65C4.90414 4.70253 4.86898 4.7636 4.84661 4.82972C4.82425 4.89583 4.81513 4.96571 4.81977 5.03536C4.82915 5.17601 4.89402 5.30717 5.0001 5.4L7.4001 7.7C7.34915 7.91807 7.37287 8.14694 7.46747 8.34992C7.56206 8.55291 7.72206 8.71827 7.92181 8.81951C8.12157 8.92074 8.34953 8.952 8.56916 8.90827C8.78879 8.86453 8.98739 8.74834 9.13313 8.57831C9.27888 8.40828 9.36333 8.19425 9.37295 7.97051C9.38258 7.74677 9.31683 7.52628 9.18623 7.34435C9.05563 7.16243 8.86775 7.02961 8.65268 6.96717C8.43762 6.90474 8.20782 6.9163 8.0001 7L5.7001 4.6Z" fill="#333333"/>
</g>
</svg>
