<svg width="17" height="16" viewBox="0 0 17 16" fill="none" xmlns="http://www.w3.org/2000/svg">
<g id="download (3) 1" clip-path="url(#clip0_38_590)">
<path id="Vector" fill-rule="evenodd" clip-rule="evenodd" d="M3.19998 10H1.69998V7C1.69998 6.4 2.09998 6 2.69998 6H4.69998C5.49563 6 6.25869 5.68393 6.8213 5.12132C7.38391 4.55871 7.69998 3.79565 7.69998 3C7.69998 2.20435 7.38391 1.44129 6.8213 0.87868C6.25869 0.31607 5.49563 0 4.69998 0C3.90433 0 3.14126 0.31607 2.57866 0.87868C2.01605 1.44129 1.69998 2.20435 1.69998 3C1.69998 3.8 1.99998 4.5 2.49998 5C2.00493 5.04975 1.5462 5.28223 1.21336 5.65205C0.880526 6.02187 0.697483 6.50247 0.699976 7V10.5C0.699976 10.8 0.899976 11 1.19998 11H3.19998C3.49998 11 3.69998 10.8 3.69998 10.5C3.69998 10.2 3.49998 10 3.19998 10ZM4.69998 1C5.23041 1 5.73912 1.21071 6.11419 1.58579C6.48926 1.96086 6.69998 2.46957 6.69998 3C6.69998 3.53043 6.48926 4.03914 6.11419 4.41421C5.73912 4.78929 5.23041 5 4.69998 5C4.16954 5 3.66084 4.78929 3.28576 4.41421C2.91069 4.03914 2.69998 3.53043 2.69998 3C2.69998 1.9 3.59998 1 4.69998 1ZM14.2 10H15.7V7C15.7 6.4 15.3 6 14.7 6H12.7C11.9043 6 11.1413 5.68393 10.5787 5.12132C10.016 4.55871 9.69998 3.79565 9.69998 3C9.69998 2.20435 10.016 1.44129 10.5787 0.87868C11.1413 0.31607 11.9043 0 12.7 0C13.4956 0 14.2587 0.31607 14.8213 0.87868C15.3839 1.44129 15.7 2.20435 15.7 3C15.7 3.8 15.4 4.5 14.9 5C15.395 5.04975 15.8538 5.28223 16.1866 5.65205C16.5194 6.02187 16.7025 6.50247 16.7 7V10.5C16.7 10.8 16.5 11 16.2 11H14.2C13.9 11 13.7 10.8 13.7 10.5C13.7 10.2 13.9 10 14.2 10ZM12.7 1C12.1695 1 11.6608 1.21071 11.2858 1.58579C10.9107 1.96086 10.7 2.46957 10.7 3C10.7 4.1 11.6 5 12.7 5C13.2304 5 13.7391 4.78929 14.1142 4.41421C14.4893 4.03914 14.7 3.53043 14.7 3C14.7 2.46957 14.4893 1.96086 14.1142 1.58579C13.7391 1.21071 13.2304 1 12.7 1ZM11.7 8C11.7 8.8 11.4 9.5 10.9 10C11.395 10.0497 11.8538 10.2822 12.1866 10.652C12.5194 11.0219 12.7025 11.5025 12.7 12V15.5C12.7 15.8 12.5 16 12.2 16H5.19998C4.89998 16 4.69998 15.8 4.69998 15.5V12C4.69748 11.5025 4.88053 11.0219 5.21336 10.652C5.5462 10.2822 6.00493 10.0497 6.49998 10C5.99998 9.5 5.69998 8.8 5.69998 8C5.69998 7.20435 6.01605 6.44129 6.57866 5.87868C7.14126 5.31607 7.90433 5 8.69998 5C9.49563 5 10.2587 5.31607 10.8213 5.87868C11.3839 6.44129 11.7 7.20435 11.7 8ZM10.7 8C10.7 7.46957 10.4893 6.96086 10.1142 6.58579C9.73912 6.21071 9.23041 6 8.69998 6C8.16954 6 7.66084 6.21071 7.28576 6.58579C6.91069 6.96086 6.69998 7.46957 6.69998 8C6.69998 9.1 7.59998 10 8.69998 10C9.23041 10 9.73912 9.78929 10.1142 9.41421C10.4893 9.03914 10.7 8.53043 10.7 8ZM6.69998 11C6.09998 11 5.69998 11.4 5.69998 12V15H11.7V12C11.7 11.4 11.3 11 10.7 11H6.69998Z" fill="#333333"/>
</g>
<defs>
<clipPath id="clip0_38_590">
<rect width="17" height="16" fill="white"/>
</clipPath>
</defs>
</svg>
