<svg width="17" height="16" viewBox="0 0 17 16" fill="none" xmlns="http://www.w3.org/2000/svg">
<g id="download (1) 1" clip-path="url(#clip0_38_586)">
<path id="Vector" fill-rule="evenodd" clip-rule="evenodd" d="M10.3299 1.00001C9.93594 1.00001 9.54583 1.07761 9.18186 1.22837C8.81788 1.37914 8.48716 1.60012 8.20859 1.87869C7.93001 2.15727 7.70903 2.48799 7.55827 2.85196C7.40751 3.21594 7.32991 3.60605 7.32991 4.00001C7.32991 4.39398 7.40751 4.78409 7.55827 5.14806C7.70903 5.51204 7.93001 5.84276 8.20859 6.12133C8.48716 6.39991 8.81788 6.62089 9.18186 6.77165C9.54583 6.92242 9.93594 7.00001 10.3299 7.00001C11.1256 7.00001 11.8886 6.68394 12.4512 6.12133C13.0138 5.55872 13.3299 4.79566 13.3299 4.00001C13.3299 3.20436 13.0138 2.4413 12.4512 1.87869C11.8886 1.31608 11.1256 1.00001 10.3299 1.00001ZM12.6599 7.25001C13.1642 6.89186 13.5785 6.42166 13.8703 5.87635C14.1622 5.33104 14.3236 4.72547 14.3419 4.10725C14.3602 3.48902 14.2349 2.87497 13.9758 2.31335C13.7167 1.75173 13.3309 1.25784 12.8488 0.870493C12.3666 0.483142 11.8011 0.212883 11.1969 0.0809522C10.5926 -0.0509786 9.96599 -0.0409864 9.36624 0.110143C8.76649 0.261273 8.20996 0.549423 7.74038 0.951951C7.27079 1.35448 6.90095 1.86042 6.65991 2.43001C6.33913 1.99428 5.9217 1.63885 5.4404 1.39164C4.9591 1.14443 4.42704 1.01218 3.886 1.00527C3.34497 0.998357 2.80971 1.11698 2.32225 1.35182C1.83479 1.58665 1.40842 1.93131 1.07662 2.35871C0.744819 2.78611 0.516631 3.28462 0.409977 3.81508C0.303323 4.34554 0.321108 4.8935 0.461935 5.41593C0.602761 5.93836 0.862795 6.42102 1.22161 6.82601C1.58042 7.231 2.02825 7.54728 2.52991 7.75001C2.40991 7.97001 2.32991 8.23001 2.32991 8.50001V14.5C2.32991 15.33 2.99991 16 3.82991 16H11.8299C12.6599 16 13.3299 15.33 13.3299 14.5V14.07L15.5099 15.88C15.5826 15.9406 15.6711 15.9793 15.765 15.9916C15.8588 16.0039 15.9543 15.9893 16.0402 15.9495C16.1261 15.9097 16.1989 15.8463 16.2502 15.7667C16.3015 15.6872 16.3291 15.5947 16.3299 15.5V7.50001C16.3291 7.40535 16.3015 7.31285 16.2502 7.23328C16.1989 7.15371 16.1261 7.09034 16.0402 7.05053C15.9543 7.01073 15.8588 6.99612 15.765 7.00842C15.6711 7.02072 15.5826 7.05942 15.5099 7.12001L13.3299 8.93001V8.50001C13.3299 7.98001 13.0699 7.52001 12.6599 7.25001ZM6.27991 7.00001C6.54991 6.74001 6.76991 6.45001 6.93991 6.12001C7.13991 6.45001 7.39991 6.74001 7.68991 7.00001H6.28991H6.27991ZM3.82991 8.00001C3.6973 8.00001 3.57012 8.05269 3.47636 8.14646C3.38259 8.24023 3.32991 8.3674 3.32991 8.50001V14.5C3.32991 14.78 3.55991 15 3.82991 15H11.8299C11.9625 15 12.0897 14.9473 12.1835 14.8536C12.2772 14.7598 12.3299 14.6326 12.3299 14.5V13C12.3307 12.9053 12.3583 12.8128 12.4096 12.7333C12.4609 12.6537 12.5338 12.5903 12.6197 12.5505C12.7056 12.5107 12.801 12.4961 12.8949 12.5084C12.9887 12.5207 13.0772 12.5594 13.1499 12.62L15.3299 14.43V8.57001L13.1499 10.38C13.0772 10.4406 12.9887 10.4793 12.8949 10.4916C12.801 10.5039 12.7056 10.4893 12.6197 10.4495C12.5338 10.4097 12.4609 10.3463 12.4096 10.2667C12.3583 10.1872 12.3307 10.0947 12.3299 10V8.50001C12.3299 8.3674 12.2772 8.24023 12.1835 8.14646C12.0897 8.05269 11.9625 8.00001 11.8299 8.00001H3.82991ZM3.82991 7.00001C4.49295 7.00001 5.12883 6.73662 5.59768 6.26778C6.06652 5.79894 6.32991 5.16305 6.32991 4.50001C6.32991 3.83697 6.06652 3.20109 5.59768 2.73225C5.12883 2.26341 4.49295 2.00001 3.82991 2.00001C3.16687 2.00001 2.53098 2.26341 2.06214 2.73225C1.5933 3.20109 1.32991 3.83697 1.32991 4.50001C1.32991 5.16305 1.5933 5.79894 2.06214 6.26778C2.53098 6.73662 3.16687 7.00001 3.82991 7.00001Z" fill="#333333"/>
</g>
<defs>
<clipPath id="clip0_38_586">
<rect width="17" height="16" fill="white"/>
</clipPath>
</defs>
</svg>
