<svg width="21" height="22" viewBox="0 0 21 22" fill="none" xmlns="http://www.w3.org/2000/svg">
<g id="Vector">
<mask id="path-1-outside-1_568_2392" maskUnits="userSpaceOnUse" x="0" y="0" width="21" height="22" fill="black">
<rect fill="white" width="21" height="22"/>
<path d="M1 15.922V17.944C1 18.2608 1.14716 18.541 1.37321 18.7297V20.0735C1.37321 20.5843 1.78886 21 2.29972 21H3.55947C4.07033 21 4.48598 20.5843 4.48598 20.0735V18.9719H11.4098V20.0735C11.4098 20.5843 11.8255 21 12.3363 21H13.5961C14.1071 21 14.5227 20.5843 14.5227 20.0735V18.8616C14.8614 18.6933 15.0968 18.3472 15.0968 17.944V15.9221C15.0968 15.8529 15.0739 15.7858 15.0318 15.7312C13.7147 14.0445 13.935 14.2764 13.8178 14.1881L12.9477 11.7945C12.6329 10.9326 11.8061 10.3535 10.8901 10.3535H5.35652C4.47366 10.3535 3.6828 10.8795 3.34207 11.6931C2.17971 14.4609 2.23135 14.3083 2.21939 14.3811L1.07504 15.7189C1.02652 15.7755 1 15.8476 1 15.922ZM3.861 20.0735C3.861 20.2398 3.7258 20.375 3.55947 20.375H2.29972C2.13339 20.375 1.99819 20.2398 1.99819 20.0735V18.9718H2.02659C2.02711 18.9718 2.02759 18.972 2.02811 18.972H3.861V20.0735ZM13.5961 20.375H12.3364C12.17 20.375 12.0348 20.2398 12.0348 20.0735V18.9719H13.8978V20.0735C13.8978 20.2398 13.7624 20.375 13.5961 20.375ZM3.91824 11.9351C4.16177 11.354 4.72634 10.9785 5.35652 10.9785H10.8901C11.5447 10.9785 12.1357 11.3926 12.3604 12.0084L13.1277 14.1189H12.0278C11.9906 13.2381 11.268 12.5315 10.3782 12.5315C9.48836 12.5315 8.76578 13.2381 8.72854 14.1189H2.99814L3.91824 11.9351ZM11.4028 14.1189H9.35351C9.38992 13.5828 9.83305 13.1565 10.3781 13.1565C10.9233 13.1565 11.3664 13.5828 11.4028 14.1189ZM1.62498 16.0374L2.73141 14.7439H13.4808L14.4718 16.0285V17.944C14.4718 18.1659 14.2914 18.3464 14.0696 18.3468C10.4866 18.3468 14.6309 18.347 2.02739 18.3468C1.80546 18.3464 1.62502 18.1659 1.62502 17.944L1.62498 16.0374Z"/>
<path d="M3.61471 17.5991H4.78843C5.18652 17.5991 5.51033 17.2753 5.51033 16.8772V16.3373C5.51033 15.9393 5.18652 15.6154 4.78843 15.6154H3.61471C3.21662 15.6154 2.89281 15.9393 2.89281 16.3373V16.8772C2.89285 17.2753 3.21662 17.5991 3.61471 17.5991ZM3.51783 16.3373C3.51783 16.2821 3.55947 16.2405 3.61471 16.2405H4.78843C4.84367 16.2405 4.88531 16.2821 4.88531 16.3373V16.8772C4.88531 16.9324 4.84367 16.9741 4.78843 16.9741H3.61471C3.55947 16.9741 3.51783 16.9324 3.51783 16.8772V16.3373Z"/>
<path d="M11.3096 17.5991H12.4833C12.8814 17.5991 13.2052 17.2753 13.2052 16.8772V16.3373C13.2052 15.9393 12.8814 15.6154 12.4833 15.6154H11.3096C10.9115 15.6154 10.5877 15.9393 10.5877 16.3373V16.8772C10.5877 17.2753 10.9115 17.5991 11.3096 17.5991ZM11.2127 16.3373C11.2127 16.2821 11.2543 16.2405 11.3096 16.2405H12.4833C12.5376 16.2405 12.5802 16.283 12.5802 16.3373V16.8772C12.5802 16.9324 12.5385 16.9741 12.4833 16.9741H11.3096C11.2543 16.9741 11.2127 16.9324 11.2127 16.8772V16.3373Z"/>
<path d="M7.28706 16.9193H8.81094C8.9835 16.9193 9.12343 16.7794 9.12343 16.6068C9.12343 16.4343 8.9835 16.2943 8.81094 16.2943H7.28706C7.11449 16.2943 6.97457 16.4343 6.97457 16.6068C6.97457 16.7794 7.11449 16.9193 7.28706 16.9193Z"/>
<path d="M16.9196 5.4586C17.401 5.4586 17.7927 5.06691 17.7927 4.5855V3.69196C17.7927 3.21054 17.401 2.81885 16.9196 2.81885H15.4654C15.2929 2.81885 15.153 2.95877 15.153 3.13134V7.16073C15.153 7.3333 15.2929 7.47322 15.4654 7.47322C15.638 7.47322 15.7779 7.3333 15.7779 7.16073V5.4586H16.9196ZM17.1677 3.69196V4.5855C17.1677 4.72238 17.0565 4.83363 16.9196 4.83363H15.7779V3.44387H16.9196C17.0565 3.44387 17.1677 3.55507 17.1677 3.69196Z"/>
<path d="M16.4728 21C16.6454 21 16.7853 20.8601 16.7853 20.6875V9.29207H19.2939C20.0245 9.29207 20.6188 8.69757 20.6188 7.96699V2.32508C20.6188 1.5945 20.0245 1 19.2939 1H13.6518C12.9212 1 12.3269 1.5945 12.3269 2.32508V7.96699C12.3269 8.69757 12.9212 9.29207 13.6518 9.29207H16.1603V20.6875C16.1603 20.8601 16.3003 21 16.4728 21ZM12.9519 7.96699V2.32508C12.9519 1.93903 13.2659 1.62502 13.6518 1.62502H19.2939C19.6798 1.62502 19.9938 1.93903 19.9938 2.32508V7.96699C19.9938 8.35304 19.6798 8.66705 19.2939 8.66705H13.6518C13.2659 8.66709 12.9519 8.35304 12.9519 7.96699Z"/>
</mask>
<path d="M1 15.922V17.944C1 18.2608 1.14716 18.541 1.37321 18.7297V20.0735C1.37321 20.5843 1.78886 21 2.29972 21H3.55947C4.07033 21 4.48598 20.5843 4.48598 20.0735V18.9719H11.4098V20.0735C11.4098 20.5843 11.8255 21 12.3363 21H13.5961C14.1071 21 14.5227 20.5843 14.5227 20.0735V18.8616C14.8614 18.6933 15.0968 18.3472 15.0968 17.944V15.9221C15.0968 15.8529 15.0739 15.7858 15.0318 15.7312C13.7147 14.0445 13.935 14.2764 13.8178 14.1881L12.9477 11.7945C12.6329 10.9326 11.8061 10.3535 10.8901 10.3535H5.35652C4.47366 10.3535 3.6828 10.8795 3.34207 11.6931C2.17971 14.4609 2.23135 14.3083 2.21939 14.3811L1.07504 15.7189C1.02652 15.7755 1 15.8476 1 15.922ZM3.861 20.0735C3.861 20.2398 3.7258 20.375 3.55947 20.375H2.29972C2.13339 20.375 1.99819 20.2398 1.99819 20.0735V18.9718H2.02659C2.02711 18.9718 2.02759 18.972 2.02811 18.972H3.861V20.0735ZM13.5961 20.375H12.3364C12.17 20.375 12.0348 20.2398 12.0348 20.0735V18.9719H13.8978V20.0735C13.8978 20.2398 13.7624 20.375 13.5961 20.375ZM3.91824 11.9351C4.16177 11.354 4.72634 10.9785 5.35652 10.9785H10.8901C11.5447 10.9785 12.1357 11.3926 12.3604 12.0084L13.1277 14.1189H12.0278C11.9906 13.2381 11.268 12.5315 10.3782 12.5315C9.48836 12.5315 8.76578 13.2381 8.72854 14.1189H2.99814L3.91824 11.9351ZM11.4028 14.1189H9.35351C9.38992 13.5828 9.83305 13.1565 10.3781 13.1565C10.9233 13.1565 11.3664 13.5828 11.4028 14.1189ZM1.62498 16.0374L2.73141 14.7439H13.4808L14.4718 16.0285V17.944C14.4718 18.1659 14.2914 18.3464 14.0696 18.3468C10.4866 18.3468 14.6309 18.347 2.02739 18.3468C1.80546 18.3464 1.62502 18.1659 1.62502 17.944L1.62498 16.0374Z" fill="#333333"/>
<path d="M3.61471 17.5991H4.78843C5.18652 17.5991 5.51033 17.2753 5.51033 16.8772V16.3373C5.51033 15.9393 5.18652 15.6154 4.78843 15.6154H3.61471C3.21662 15.6154 2.89281 15.9393 2.89281 16.3373V16.8772C2.89285 17.2753 3.21662 17.5991 3.61471 17.5991ZM3.51783 16.3373C3.51783 16.2821 3.55947 16.2405 3.61471 16.2405H4.78843C4.84367 16.2405 4.88531 16.2821 4.88531 16.3373V16.8772C4.88531 16.9324 4.84367 16.9741 4.78843 16.9741H3.61471C3.55947 16.9741 3.51783 16.9324 3.51783 16.8772V16.3373Z" fill="#333333"/>
<path d="M11.3096 17.5991H12.4833C12.8814 17.5991 13.2052 17.2753 13.2052 16.8772V16.3373C13.2052 15.9393 12.8814 15.6154 12.4833 15.6154H11.3096C10.9115 15.6154 10.5877 15.9393 10.5877 16.3373V16.8772C10.5877 17.2753 10.9115 17.5991 11.3096 17.5991ZM11.2127 16.3373C11.2127 16.2821 11.2543 16.2405 11.3096 16.2405H12.4833C12.5376 16.2405 12.5802 16.283 12.5802 16.3373V16.8772C12.5802 16.9324 12.5385 16.9741 12.4833 16.9741H11.3096C11.2543 16.9741 11.2127 16.9324 11.2127 16.8772V16.3373Z" fill="#333333"/>
<path d="M7.28706 16.9193H8.81094C8.9835 16.9193 9.12343 16.7794 9.12343 16.6068C9.12343 16.4343 8.9835 16.2943 8.81094 16.2943H7.28706C7.11449 16.2943 6.97457 16.4343 6.97457 16.6068C6.97457 16.7794 7.11449 16.9193 7.28706 16.9193Z" fill="#333333"/>
<path d="M16.9196 5.4586C17.401 5.4586 17.7927 5.06691 17.7927 4.5855V3.69196C17.7927 3.21054 17.401 2.81885 16.9196 2.81885H15.4654C15.2929 2.81885 15.153 2.95877 15.153 3.13134V7.16073C15.153 7.3333 15.2929 7.47322 15.4654 7.47322C15.638 7.47322 15.7779 7.3333 15.7779 7.16073V5.4586H16.9196ZM17.1677 3.69196V4.5855C17.1677 4.72238 17.0565 4.83363 16.9196 4.83363H15.7779V3.44387H16.9196C17.0565 3.44387 17.1677 3.55507 17.1677 3.69196Z" fill="#333333"/>
<path d="M16.4728 21C16.6454 21 16.7853 20.8601 16.7853 20.6875V9.29207H19.2939C20.0245 9.29207 20.6188 8.69757 20.6188 7.96699V2.32508C20.6188 1.5945 20.0245 1 19.2939 1H13.6518C12.9212 1 12.3269 1.5945 12.3269 2.32508V7.96699C12.3269 8.69757 12.9212 9.29207 13.6518 9.29207H16.1603V20.6875C16.1603 20.8601 16.3003 21 16.4728 21ZM12.9519 7.96699V2.32508C12.9519 1.93903 13.2659 1.62502 13.6518 1.62502H19.2939C19.6798 1.62502 19.9938 1.93903 19.9938 2.32508V7.96699C19.9938 8.35304 19.6798 8.66705 19.2939 8.66705H13.6518C13.2659 8.66709 12.9519 8.35304 12.9519 7.96699Z" fill="#333333"/>
<path d="M1 15.922V17.944C1 18.2608 1.14716 18.541 1.37321 18.7297V20.0735C1.37321 20.5843 1.78886 21 2.29972 21H3.55947C4.07033 21 4.48598 20.5843 4.48598 20.0735V18.9719H11.4098V20.0735C11.4098 20.5843 11.8255 21 12.3363 21H13.5961C14.1071 21 14.5227 20.5843 14.5227 20.0735V18.8616C14.8614 18.6933 15.0968 18.3472 15.0968 17.944V15.9221C15.0968 15.8529 15.0739 15.7858 15.0318 15.7312C13.7147 14.0445 13.935 14.2764 13.8178 14.1881L12.9477 11.7945C12.6329 10.9326 11.8061 10.3535 10.8901 10.3535H5.35652C4.47366 10.3535 3.6828 10.8795 3.34207 11.6931C2.17971 14.4609 2.23135 14.3083 2.21939 14.3811L1.07504 15.7189C1.02652 15.7755 1 15.8476 1 15.922ZM3.861 20.0735C3.861 20.2398 3.7258 20.375 3.55947 20.375H2.29972C2.13339 20.375 1.99819 20.2398 1.99819 20.0735V18.9718H2.02659C2.02711 18.9718 2.02759 18.972 2.02811 18.972H3.861V20.0735ZM13.5961 20.375H12.3364C12.17 20.375 12.0348 20.2398 12.0348 20.0735V18.9719H13.8978V20.0735C13.8978 20.2398 13.7624 20.375 13.5961 20.375ZM3.91824 11.9351C4.16177 11.354 4.72634 10.9785 5.35652 10.9785H10.8901C11.5447 10.9785 12.1357 11.3926 12.3604 12.0084L13.1277 14.1189H12.0278C11.9906 13.2381 11.268 12.5315 10.3782 12.5315C9.48836 12.5315 8.76578 13.2381 8.72854 14.1189H2.99814L3.91824 11.9351ZM11.4028 14.1189H9.35351C9.38992 13.5828 9.83305 13.1565 10.3781 13.1565C10.9233 13.1565 11.3664 13.5828 11.4028 14.1189ZM1.62498 16.0374L2.73141 14.7439H13.4808L14.4718 16.0285V17.944C14.4718 18.1659 14.2914 18.3464 14.0696 18.3468C10.4866 18.3468 14.6309 18.347 2.02739 18.3468C1.80546 18.3464 1.62502 18.1659 1.62502 17.944L1.62498 16.0374Z" stroke="#333333" stroke-width="0.2" mask="url(#path-1-outside-1_568_2392)"/>
<path d="M3.61471 17.5991H4.78843C5.18652 17.5991 5.51033 17.2753 5.51033 16.8772V16.3373C5.51033 15.9393 5.18652 15.6154 4.78843 15.6154H3.61471C3.21662 15.6154 2.89281 15.9393 2.89281 16.3373V16.8772C2.89285 17.2753 3.21662 17.5991 3.61471 17.5991ZM3.51783 16.3373C3.51783 16.2821 3.55947 16.2405 3.61471 16.2405H4.78843C4.84367 16.2405 4.88531 16.2821 4.88531 16.3373V16.8772C4.88531 16.9324 4.84367 16.9741 4.78843 16.9741H3.61471C3.55947 16.9741 3.51783 16.9324 3.51783 16.8772V16.3373Z" stroke="#333333" stroke-width="0.2" mask="url(#path-1-outside-1_568_2392)"/>
<path d="M11.3096 17.5991H12.4833C12.8814 17.5991 13.2052 17.2753 13.2052 16.8772V16.3373C13.2052 15.9393 12.8814 15.6154 12.4833 15.6154H11.3096C10.9115 15.6154 10.5877 15.9393 10.5877 16.3373V16.8772C10.5877 17.2753 10.9115 17.5991 11.3096 17.5991ZM11.2127 16.3373C11.2127 16.2821 11.2543 16.2405 11.3096 16.2405H12.4833C12.5376 16.2405 12.5802 16.283 12.5802 16.3373V16.8772C12.5802 16.9324 12.5385 16.9741 12.4833 16.9741H11.3096C11.2543 16.9741 11.2127 16.9324 11.2127 16.8772V16.3373Z" stroke="#333333" stroke-width="0.2" mask="url(#path-1-outside-1_568_2392)"/>
<path d="M7.28706 16.9193H8.81094C8.9835 16.9193 9.12343 16.7794 9.12343 16.6068C9.12343 16.4343 8.9835 16.2943 8.81094 16.2943H7.28706C7.11449 16.2943 6.97457 16.4343 6.97457 16.6068C6.97457 16.7794 7.11449 16.9193 7.28706 16.9193Z" stroke="#333333" stroke-width="0.2" mask="url(#path-1-outside-1_568_2392)"/>
<path d="M16.9196 5.4586C17.401 5.4586 17.7927 5.06691 17.7927 4.5855V3.69196C17.7927 3.21054 17.401 2.81885 16.9196 2.81885H15.4654C15.2929 2.81885 15.153 2.95877 15.153 3.13134V7.16073C15.153 7.3333 15.2929 7.47322 15.4654 7.47322C15.638 7.47322 15.7779 7.3333 15.7779 7.16073V5.4586H16.9196ZM17.1677 3.69196V4.5855C17.1677 4.72238 17.0565 4.83363 16.9196 4.83363H15.7779V3.44387H16.9196C17.0565 3.44387 17.1677 3.55507 17.1677 3.69196Z" stroke="#333333" stroke-width="0.2" mask="url(#path-1-outside-1_568_2392)"/>
<path d="M16.4728 21C16.6454 21 16.7853 20.8601 16.7853 20.6875V9.29207H19.2939C20.0245 9.29207 20.6188 8.69757 20.6188 7.96699V2.32508C20.6188 1.5945 20.0245 1 19.2939 1H13.6518C12.9212 1 12.3269 1.5945 12.3269 2.32508V7.96699C12.3269 8.69757 12.9212 9.29207 13.6518 9.29207H16.1603V20.6875C16.1603 20.8601 16.3003 21 16.4728 21ZM12.9519 7.96699V2.32508C12.9519 1.93903 13.2659 1.62502 13.6518 1.62502H19.2939C19.6798 1.62502 19.9938 1.93903 19.9938 2.32508V7.96699C19.9938 8.35304 19.6798 8.66705 19.2939 8.66705H13.6518C13.2659 8.66709 12.9519 8.35304 12.9519 7.96699Z" stroke="#333333" stroke-width="0.2" mask="url(#path-1-outside-1_568_2392)"/>
</g>
</svg>
