<svg width="20" height="20" viewBox="0 0 20 20" fill="none" xmlns="http://www.w3.org/2000/svg">
<g id="Vector">
<mask id="path-1-outside-1_568_2400" maskUnits="userSpaceOnUse" x="0" y="0" width="20" height="20" fill="black">
<rect fill="white" width="20" height="20"/>
<path d="M12.7931 12.7931H7.2069C6.87766 12.7931 6.56191 12.9239 6.32911 13.1567C6.0963 13.3895 5.96552 13.7052 5.96552 14.0345C5.96552 14.3637 6.0963 14.6795 6.32911 14.9123C6.56191 15.1451 6.87766 15.2759 7.2069 15.2759H12.7931C13.1223 15.2759 13.4381 15.1451 13.6709 14.9123C13.9037 14.6795 14.0345 14.3637 14.0345 14.0345C14.0345 13.7052 13.9037 13.3895 13.6709 13.1567C13.4381 12.9239 13.1223 12.7931 12.7931 12.7931ZM12.7931 14.6552H7.2069C7.04228 14.6552 6.8844 14.5898 6.768 14.4734C6.6516 14.357 6.58621 14.1991 6.58621 14.0345C6.58621 13.8699 6.6516 13.712 6.768 13.5956C6.8844 13.4792 7.04228 13.4138 7.2069 13.4138H12.7931C12.9577 13.4138 13.1156 13.4792 13.232 13.5956C13.3484 13.712 13.4138 13.8699 13.4138 14.0345C13.4138 14.1991 13.3484 14.357 13.232 14.4734C13.1156 14.5898 12.9577 14.6552 12.7931 14.6552Z"/>
<path d="M19 10C19.0007 9.93899 18.9822 9.87929 18.9472 9.82931C18.9017 9.76128 18.8312 9.71398 18.751 9.6977C18.6708 9.68143 18.5874 9.6975 18.519 9.74241L16.9672 10.7759L15.5862 7.51724C15.4651 7.23967 15.2654 7.00362 15.0117 6.83818C14.758 6.67274 14.4615 6.58515 14.1586 6.58621H13.7241V1.93103C13.7241 1.68411 13.626 1.4473 13.4514 1.27269C13.2768 1.09809 13.04 1 12.7931 1H7.2069C6.95997 1 6.72316 1.09809 6.54856 1.27269C6.37395 1.4473 6.27586 1.68411 6.27586 1.93103V6.58621H5.8631C5.56078 6.58576 5.26491 6.67363 5.01185 6.83903C4.75879 7.00444 4.55955 7.24016 4.43862 7.51724L3.03586 10.7759L1.48414 9.74241C1.41572 9.6975 1.33232 9.68143 1.25211 9.6977C1.1719 9.71398 1.10137 9.76128 1.05586 9.82931C1.01975 9.87892 1.00021 9.93864 1 10C1.00026 10.0511 1.01315 10.1014 1.03751 10.1463C1.06188 10.1912 1.09696 10.2295 1.13966 10.2576L2.65414 11.2693L1.42828 12.2903C1.28743 12.4082 1.18459 12.5651 1.13268 12.7412C1.08077 12.9174 1.08212 13.105 1.13655 13.2803L1.62069 14.8569V18.069C1.62069 18.3159 1.71878 18.5527 1.89338 18.7273C2.06799 18.9019 2.3048 19 2.55172 19H5.03448C5.28141 19 5.51822 18.9019 5.69282 18.7273C5.86743 18.5527 5.96552 18.3159 5.96552 18.069V17.1379H14.0345V18.069C14.0345 18.3159 14.1326 18.5527 14.3072 18.7273C14.4818 18.9019 14.7186 19 14.9655 19H17.4483C17.6952 19 17.932 18.9019 18.1066 18.7273C18.2812 18.5527 18.3793 18.3159 18.3793 18.069V14.8569L18.8634 13.2803C18.9179 13.105 18.9192 12.9174 18.8673 12.7412C18.8154 12.5651 18.7126 12.4082 18.5717 12.2903L17.3459 11.2693L18.8603 10.2576C18.903 10.2295 18.9381 10.1912 18.9625 10.1463C18.9868 10.1014 18.9997 10.0511 19 10ZM6.89655 1.93103C6.89655 1.84873 6.92925 1.76979 6.98745 1.71159C7.04565 1.65339 7.12459 1.62069 7.2069 1.62069H12.7931C12.8754 1.62069 12.9543 1.65339 13.0126 1.71159C13.0708 1.76979 13.1034 1.84873 13.1034 1.93103V7.51724C13.1034 7.59955 13.0708 7.67849 13.0126 7.73669C12.9543 7.79489 12.8754 7.82759 12.7931 7.82759H7.2069C7.12459 7.82759 7.04565 7.79489 6.98745 7.73669C6.92925 7.67849 6.89655 7.59955 6.89655 7.51724V1.93103ZM5.00965 7.76862C5.08166 7.60198 5.20081 7.46003 5.35244 7.36023C5.50407 7.26043 5.68157 7.20713 5.8631 7.2069H6.27586V7.51724C6.27586 7.76417 6.37395 8.00098 6.54856 8.17558C6.72316 8.35018 6.95997 8.44828 7.2069 8.44828H12.7931C13.04 8.44828 13.2768 8.35018 13.4514 8.17558C13.626 8.00098 13.7241 7.76417 13.7241 7.51724V7.2069H14.1586C14.341 7.20679 14.5194 7.26026 14.6717 7.36067C14.824 7.46109 14.9434 7.60402 15.0152 7.77172L16.359 10.931H3.63483L5.00965 7.76862ZM5.34483 18.069C5.34483 18.1513 5.31213 18.2302 5.25393 18.2884C5.19573 18.3466 5.11679 18.3793 5.03448 18.3793H2.55172C2.46942 18.3793 2.39048 18.3466 2.33228 18.2884C2.27408 18.2302 2.24138 18.1513 2.24138 18.069V16.5172C2.38592 16.71 2.57334 16.8664 2.78881 16.9741C3.00427 17.0818 3.24186 17.1379 3.48276 17.1379H5.34483V18.069ZM17.4483 18.3793H14.9655C14.8832 18.3793 14.8043 18.3466 14.7461 18.2884C14.6879 18.2302 14.6552 18.1513 14.6552 18.069V17.1379H16.5172C16.7581 17.1379 16.9957 17.0818 17.2112 16.9741C17.4267 16.8664 17.6141 16.71 17.7586 16.5172V18.069C17.7586 18.1513 17.7259 18.2302 17.6677 18.2884C17.6095 18.3466 17.5306 18.3793 17.4483 18.3793ZM18.2707 13.1034L17.4203 15.8655C17.3609 16.0544 17.2428 16.2195 17.0832 16.3367C16.9236 16.4539 16.7308 16.5171 16.5328 16.5172H3.48276C3.28395 16.5167 3.09054 16.4526 2.93082 16.3342C2.77111 16.2158 2.65349 16.0494 2.59517 15.8593L1.72931 13.1034C1.71127 13.0452 1.71077 12.983 1.72788 12.9245C1.74499 12.866 1.77895 12.8138 1.82552 12.7745L3.28414 11.5517H16.7159L18.1745 12.7683C18.2222 12.8081 18.257 12.8613 18.2741 12.9211C18.2913 12.9808 18.2901 13.0444 18.2707 13.1034Z"/>
<path d="M4.10345 13.1034C3.91931 13.1034 3.7393 13.1581 3.58619 13.2604C3.43309 13.3627 3.31375 13.5081 3.24328 13.6782C3.17282 13.8483 3.15438 14.0355 3.1903 14.2161C3.22623 14.3967 3.3149 14.5626 3.44511 14.6928C3.57531 14.823 3.74121 14.9117 3.92181 14.9476C4.10242 14.9836 4.28962 14.9651 4.45974 14.8946C4.62986 14.8242 4.77527 14.7048 4.87757 14.5517C4.97988 14.3986 5.03448 14.2186 5.03448 14.0345C5.03448 13.7876 4.93639 13.5507 4.76179 13.3761C4.58719 13.2015 4.35037 13.1034 4.10345 13.1034ZM4.10345 14.3448C4.04207 14.3448 3.98207 14.3266 3.93103 14.2925C3.87999 14.2584 3.84022 14.21 3.81673 14.1532C3.79324 14.0965 3.78709 14.0341 3.79907 13.9739C3.81104 13.9137 3.8406 13.8584 3.884 13.815C3.9274 13.7716 3.9827 13.7421 4.0429 13.7301C4.1031 13.7181 4.1655 13.7243 4.22221 13.7478C4.27892 13.7713 4.32739 13.811 4.36149 13.8621C4.39559 13.9131 4.41379 13.9731 4.41379 14.0345C4.41379 14.1168 4.3811 14.1957 4.3229 14.2539C4.26469 14.3121 4.18576 14.3448 4.10345 14.3448Z"/>
<path d="M15.8966 13.1034C15.7124 13.1034 15.5324 13.1581 15.3793 13.2604C15.2262 13.3627 15.1069 13.5081 15.0364 13.6782C14.9659 13.8483 14.9475 14.0355 14.9834 14.2161C15.0193 14.3967 15.108 14.5626 15.2382 14.6928C15.3684 14.823 15.5343 14.9117 15.7149 14.9476C15.8955 14.9836 16.0827 14.9651 16.2528 14.8946C16.423 14.8242 16.5684 14.7048 16.6707 14.5517C16.773 14.3986 16.8276 14.2186 16.8276 14.0345C16.8276 13.7876 16.7295 13.5507 16.5549 13.3761C16.3803 13.2015 16.1435 13.1034 15.8966 13.1034ZM15.8966 14.3448C15.8352 14.3448 15.7752 14.3266 15.7241 14.2925C15.6731 14.2584 15.6333 14.21 15.6098 14.1532C15.5863 14.0965 15.5802 14.0341 15.5922 13.9739C15.6041 13.9137 15.6337 13.8584 15.6771 13.815C15.7205 13.7716 15.7758 13.7421 15.836 13.7301C15.8962 13.7181 15.9586 13.7243 16.0153 13.7478C16.072 13.7713 16.1205 13.811 16.1546 13.8621C16.1887 13.9131 16.2069 13.9731 16.2069 14.0345C16.2069 14.1168 16.1742 14.1957 16.116 14.2539C16.0578 14.3121 15.9789 14.3448 15.8966 14.3448Z"/>
<path d="M9.06896 6.58621C9.15127 6.58621 9.23021 6.55351 9.28841 6.49531C9.34661 6.43711 9.37931 6.35817 9.37931 6.27586V5.34483H10C10.3292 5.34483 10.645 5.21404 10.8778 4.98124C11.1106 4.74843 11.2414 4.43268 11.2414 4.10345C11.2414 3.77421 11.1106 3.45846 10.8778 3.22566C10.645 2.99286 10.3292 2.86207 10 2.86207H9.06896C8.98666 2.86207 8.90772 2.89477 8.84952 2.95297C8.79132 3.01117 8.75862 3.09011 8.75862 3.17241V6.27586C8.75862 6.35817 8.79132 6.43711 8.84952 6.49531C8.90772 6.55351 8.98666 6.58621 9.06896 6.58621ZM10.6207 4.10345C10.6207 4.26807 10.5553 4.42594 10.4389 4.54234C10.3225 4.65874 10.1646 4.72414 10 4.72414H9.37931V3.48276H10C10.1646 3.48276 10.3225 3.54815 10.4389 3.66455C10.5553 3.78096 10.6207 3.93883 10.6207 4.10345Z"/>
</mask>
<path d="M12.7931 12.7931H7.2069C6.87766 12.7931 6.56191 12.9239 6.32911 13.1567C6.0963 13.3895 5.96552 13.7052 5.96552 14.0345C5.96552 14.3637 6.0963 14.6795 6.32911 14.9123C6.56191 15.1451 6.87766 15.2759 7.2069 15.2759H12.7931C13.1223 15.2759 13.4381 15.1451 13.6709 14.9123C13.9037 14.6795 14.0345 14.3637 14.0345 14.0345C14.0345 13.7052 13.9037 13.3895 13.6709 13.1567C13.4381 12.9239 13.1223 12.7931 12.7931 12.7931ZM12.7931 14.6552H7.2069C7.04228 14.6552 6.8844 14.5898 6.768 14.4734C6.6516 14.357 6.58621 14.1991 6.58621 14.0345C6.58621 13.8699 6.6516 13.712 6.768 13.5956C6.8844 13.4792 7.04228 13.4138 7.2069 13.4138H12.7931C12.9577 13.4138 13.1156 13.4792 13.232 13.5956C13.3484 13.712 13.4138 13.8699 13.4138 14.0345C13.4138 14.1991 13.3484 14.357 13.232 14.4734C13.1156 14.5898 12.9577 14.6552 12.7931 14.6552Z" fill="#333333"/>
<path d="M19 10C19.0007 9.93899 18.9822 9.87929 18.9472 9.82931C18.9017 9.76128 18.8312 9.71398 18.751 9.6977C18.6708 9.68143 18.5874 9.6975 18.519 9.74241L16.9672 10.7759L15.5862 7.51724C15.4651 7.23967 15.2654 7.00362 15.0117 6.83818C14.758 6.67274 14.4615 6.58515 14.1586 6.58621H13.7241V1.93103C13.7241 1.68411 13.626 1.4473 13.4514 1.27269C13.2768 1.09809 13.04 1 12.7931 1H7.2069C6.95997 1 6.72316 1.09809 6.54856 1.27269C6.37395 1.4473 6.27586 1.68411 6.27586 1.93103V6.58621H5.8631C5.56078 6.58576 5.26491 6.67363 5.01185 6.83903C4.75879 7.00444 4.55955 7.24016 4.43862 7.51724L3.03586 10.7759L1.48414 9.74241C1.41572 9.6975 1.33232 9.68143 1.25211 9.6977C1.1719 9.71398 1.10137 9.76128 1.05586 9.82931C1.01975 9.87892 1.00021 9.93864 1 10C1.00026 10.0511 1.01315 10.1014 1.03751 10.1463C1.06188 10.1912 1.09696 10.2295 1.13966 10.2576L2.65414 11.2693L1.42828 12.2903C1.28743 12.4082 1.18459 12.5651 1.13268 12.7412C1.08077 12.9174 1.08212 13.105 1.13655 13.2803L1.62069 14.8569V18.069C1.62069 18.3159 1.71878 18.5527 1.89338 18.7273C2.06799 18.9019 2.3048 19 2.55172 19H5.03448C5.28141 19 5.51822 18.9019 5.69282 18.7273C5.86743 18.5527 5.96552 18.3159 5.96552 18.069V17.1379H14.0345V18.069C14.0345 18.3159 14.1326 18.5527 14.3072 18.7273C14.4818 18.9019 14.7186 19 14.9655 19H17.4483C17.6952 19 17.932 18.9019 18.1066 18.7273C18.2812 18.5527 18.3793 18.3159 18.3793 18.069V14.8569L18.8634 13.2803C18.9179 13.105 18.9192 12.9174 18.8673 12.7412C18.8154 12.5651 18.7126 12.4082 18.5717 12.2903L17.3459 11.2693L18.8603 10.2576C18.903 10.2295 18.9381 10.1912 18.9625 10.1463C18.9868 10.1014 18.9997 10.0511 19 10ZM6.89655 1.93103C6.89655 1.84873 6.92925 1.76979 6.98745 1.71159C7.04565 1.65339 7.12459 1.62069 7.2069 1.62069H12.7931C12.8754 1.62069 12.9543 1.65339 13.0126 1.71159C13.0708 1.76979 13.1034 1.84873 13.1034 1.93103V7.51724C13.1034 7.59955 13.0708 7.67849 13.0126 7.73669C12.9543 7.79489 12.8754 7.82759 12.7931 7.82759H7.2069C7.12459 7.82759 7.04565 7.79489 6.98745 7.73669C6.92925 7.67849 6.89655 7.59955 6.89655 7.51724V1.93103ZM5.00965 7.76862C5.08166 7.60198 5.20081 7.46003 5.35244 7.36023C5.50407 7.26043 5.68157 7.20713 5.8631 7.2069H6.27586V7.51724C6.27586 7.76417 6.37395 8.00098 6.54856 8.17558C6.72316 8.35018 6.95997 8.44828 7.2069 8.44828H12.7931C13.04 8.44828 13.2768 8.35018 13.4514 8.17558C13.626 8.00098 13.7241 7.76417 13.7241 7.51724V7.2069H14.1586C14.341 7.20679 14.5194 7.26026 14.6717 7.36067C14.824 7.46109 14.9434 7.60402 15.0152 7.77172L16.359 10.931H3.63483L5.00965 7.76862ZM5.34483 18.069C5.34483 18.1513 5.31213 18.2302 5.25393 18.2884C5.19573 18.3466 5.11679 18.3793 5.03448 18.3793H2.55172C2.46942 18.3793 2.39048 18.3466 2.33228 18.2884C2.27408 18.2302 2.24138 18.1513 2.24138 18.069V16.5172C2.38592 16.71 2.57334 16.8664 2.78881 16.9741C3.00427 17.0818 3.24186 17.1379 3.48276 17.1379H5.34483V18.069ZM17.4483 18.3793H14.9655C14.8832 18.3793 14.8043 18.3466 14.7461 18.2884C14.6879 18.2302 14.6552 18.1513 14.6552 18.069V17.1379H16.5172C16.7581 17.1379 16.9957 17.0818 17.2112 16.9741C17.4267 16.8664 17.6141 16.71 17.7586 16.5172V18.069C17.7586 18.1513 17.7259 18.2302 17.6677 18.2884C17.6095 18.3466 17.5306 18.3793 17.4483 18.3793ZM18.2707 13.1034L17.4203 15.8655C17.3609 16.0544 17.2428 16.2195 17.0832 16.3367C16.9236 16.4539 16.7308 16.5171 16.5328 16.5172H3.48276C3.28395 16.5167 3.09054 16.4526 2.93082 16.3342C2.77111 16.2158 2.65349 16.0494 2.59517 15.8593L1.72931 13.1034C1.71127 13.0452 1.71077 12.983 1.72788 12.9245C1.74499 12.866 1.77895 12.8138 1.82552 12.7745L3.28414 11.5517H16.7159L18.1745 12.7683C18.2222 12.8081 18.257 12.8613 18.2741 12.9211C18.2913 12.9808 18.2901 13.0444 18.2707 13.1034Z" fill="#333333"/>
<path d="M4.10345 13.1034C3.91931 13.1034 3.7393 13.1581 3.58619 13.2604C3.43309 13.3627 3.31375 13.5081 3.24328 13.6782C3.17282 13.8483 3.15438 14.0355 3.1903 14.2161C3.22623 14.3967 3.3149 14.5626 3.44511 14.6928C3.57531 14.823 3.74121 14.9117 3.92181 14.9476C4.10242 14.9836 4.28962 14.9651 4.45974 14.8946C4.62986 14.8242 4.77527 14.7048 4.87757 14.5517C4.97988 14.3986 5.03448 14.2186 5.03448 14.0345C5.03448 13.7876 4.93639 13.5507 4.76179 13.3761C4.58719 13.2015 4.35037 13.1034 4.10345 13.1034ZM4.10345 14.3448C4.04207 14.3448 3.98207 14.3266 3.93103 14.2925C3.87999 14.2584 3.84022 14.21 3.81673 14.1532C3.79324 14.0965 3.78709 14.0341 3.79907 13.9739C3.81104 13.9137 3.8406 13.8584 3.884 13.815C3.9274 13.7716 3.9827 13.7421 4.0429 13.7301C4.1031 13.7181 4.1655 13.7243 4.22221 13.7478C4.27892 13.7713 4.32739 13.811 4.36149 13.8621C4.39559 13.9131 4.41379 13.9731 4.41379 14.0345C4.41379 14.1168 4.3811 14.1957 4.3229 14.2539C4.26469 14.3121 4.18576 14.3448 4.10345 14.3448Z" fill="#333333"/>
<path d="M15.8966 13.1034C15.7124 13.1034 15.5324 13.1581 15.3793 13.2604C15.2262 13.3627 15.1069 13.5081 15.0364 13.6782C14.9659 13.8483 14.9475 14.0355 14.9834 14.2161C15.0193 14.3967 15.108 14.5626 15.2382 14.6928C15.3684 14.823 15.5343 14.9117 15.7149 14.9476C15.8955 14.9836 16.0827 14.9651 16.2528 14.8946C16.423 14.8242 16.5684 14.7048 16.6707 14.5517C16.773 14.3986 16.8276 14.2186 16.8276 14.0345C16.8276 13.7876 16.7295 13.5507 16.5549 13.3761C16.3803 13.2015 16.1435 13.1034 15.8966 13.1034ZM15.8966 14.3448C15.8352 14.3448 15.7752 14.3266 15.7241 14.2925C15.6731 14.2584 15.6333 14.21 15.6098 14.1532C15.5863 14.0965 15.5802 14.0341 15.5922 13.9739C15.6041 13.9137 15.6337 13.8584 15.6771 13.815C15.7205 13.7716 15.7758 13.7421 15.836 13.7301C15.8962 13.7181 15.9586 13.7243 16.0153 13.7478C16.072 13.7713 16.1205 13.811 16.1546 13.8621C16.1887 13.9131 16.2069 13.9731 16.2069 14.0345C16.2069 14.1168 16.1742 14.1957 16.116 14.2539C16.0578 14.3121 15.9789 14.3448 15.8966 14.3448Z" fill="#333333"/>
<path d="M9.06896 6.58621C9.15127 6.58621 9.23021 6.55351 9.28841 6.49531C9.34661 6.43711 9.37931 6.35817 9.37931 6.27586V5.34483H10C10.3292 5.34483 10.645 5.21404 10.8778 4.98124C11.1106 4.74843 11.2414 4.43268 11.2414 4.10345C11.2414 3.77421 11.1106 3.45846 10.8778 3.22566C10.645 2.99286 10.3292 2.86207 10 2.86207H9.06896C8.98666 2.86207 8.90772 2.89477 8.84952 2.95297C8.79132 3.01117 8.75862 3.09011 8.75862 3.17241V6.27586C8.75862 6.35817 8.79132 6.43711 8.84952 6.49531C8.90772 6.55351 8.98666 6.58621 9.06896 6.58621ZM10.6207 4.10345C10.6207 4.26807 10.5553 4.42594 10.4389 4.54234C10.3225 4.65874 10.1646 4.72414 10 4.72414H9.37931V3.48276H10C10.1646 3.48276 10.3225 3.54815 10.4389 3.66455C10.5553 3.78096 10.6207 3.93883 10.6207 4.10345Z" fill="#333333"/>
<path d="M12.7931 12.7931H7.2069C6.87766 12.7931 6.56191 12.9239 6.32911 13.1567C6.0963 13.3895 5.96552 13.7052 5.96552 14.0345C5.96552 14.3637 6.0963 14.6795 6.32911 14.9123C6.56191 15.1451 6.87766 15.2759 7.2069 15.2759H12.7931C13.1223 15.2759 13.4381 15.1451 13.6709 14.9123C13.9037 14.6795 14.0345 14.3637 14.0345 14.0345C14.0345 13.7052 13.9037 13.3895 13.6709 13.1567C13.4381 12.9239 13.1223 12.7931 12.7931 12.7931ZM12.7931 14.6552H7.2069C7.04228 14.6552 6.8844 14.5898 6.768 14.4734C6.6516 14.357 6.58621 14.1991 6.58621 14.0345C6.58621 13.8699 6.6516 13.712 6.768 13.5956C6.8844 13.4792 7.04228 13.4138 7.2069 13.4138H12.7931C12.9577 13.4138 13.1156 13.4792 13.232 13.5956C13.3484 13.712 13.4138 13.8699 13.4138 14.0345C13.4138 14.1991 13.3484 14.357 13.232 14.4734C13.1156 14.5898 12.9577 14.6552 12.7931 14.6552Z" stroke="#333333" stroke-width="0.2" mask="url(#path-1-outside-1_568_2400)"/>
<path d="M19 10C19.0007 9.93899 18.9822 9.87929 18.9472 9.82931C18.9017 9.76128 18.8312 9.71398 18.751 9.6977C18.6708 9.68143 18.5874 9.6975 18.519 9.74241L16.9672 10.7759L15.5862 7.51724C15.4651 7.23967 15.2654 7.00362 15.0117 6.83818C14.758 6.67274 14.4615 6.58515 14.1586 6.58621H13.7241V1.93103C13.7241 1.68411 13.626 1.4473 13.4514 1.27269C13.2768 1.09809 13.04 1 12.7931 1H7.2069C6.95997 1 6.72316 1.09809 6.54856 1.27269C6.37395 1.4473 6.27586 1.68411 6.27586 1.93103V6.58621H5.8631C5.56078 6.58576 5.26491 6.67363 5.01185 6.83903C4.75879 7.00444 4.55955 7.24016 4.43862 7.51724L3.03586 10.7759L1.48414 9.74241C1.41572 9.6975 1.33232 9.68143 1.25211 9.6977C1.1719 9.71398 1.10137 9.76128 1.05586 9.82931C1.01975 9.87892 1.00021 9.93864 1 10C1.00026 10.0511 1.01315 10.1014 1.03751 10.1463C1.06188 10.1912 1.09696 10.2295 1.13966 10.2576L2.65414 11.2693L1.42828 12.2903C1.28743 12.4082 1.18459 12.5651 1.13268 12.7412C1.08077 12.9174 1.08212 13.105 1.13655 13.2803L1.62069 14.8569V18.069C1.62069 18.3159 1.71878 18.5527 1.89338 18.7273C2.06799 18.9019 2.3048 19 2.55172 19H5.03448C5.28141 19 5.51822 18.9019 5.69282 18.7273C5.86743 18.5527 5.96552 18.3159 5.96552 18.069V17.1379H14.0345V18.069C14.0345 18.3159 14.1326 18.5527 14.3072 18.7273C14.4818 18.9019 14.7186 19 14.9655 19H17.4483C17.6952 19 17.932 18.9019 18.1066 18.7273C18.2812 18.5527 18.3793 18.3159 18.3793 18.069V14.8569L18.8634 13.2803C18.9179 13.105 18.9192 12.9174 18.8673 12.7412C18.8154 12.5651 18.7126 12.4082 18.5717 12.2903L17.3459 11.2693L18.8603 10.2576C18.903 10.2295 18.9381 10.1912 18.9625 10.1463C18.9868 10.1014 18.9997 10.0511 19 10ZM6.89655 1.93103C6.89655 1.84873 6.92925 1.76979 6.98745 1.71159C7.04565 1.65339 7.12459 1.62069 7.2069 1.62069H12.7931C12.8754 1.62069 12.9543 1.65339 13.0126 1.71159C13.0708 1.76979 13.1034 1.84873 13.1034 1.93103V7.51724C13.1034 7.59955 13.0708 7.67849 13.0126 7.73669C12.9543 7.79489 12.8754 7.82759 12.7931 7.82759H7.2069C7.12459 7.82759 7.04565 7.79489 6.98745 7.73669C6.92925 7.67849 6.89655 7.59955 6.89655 7.51724V1.93103ZM5.00965 7.76862C5.08166 7.60198 5.20081 7.46003 5.35244 7.36023C5.50407 7.26043 5.68157 7.20713 5.8631 7.2069H6.27586V7.51724C6.27586 7.76417 6.37395 8.00098 6.54856 8.17558C6.72316 8.35018 6.95997 8.44828 7.2069 8.44828H12.7931C13.04 8.44828 13.2768 8.35018 13.4514 8.17558C13.626 8.00098 13.7241 7.76417 13.7241 7.51724V7.2069H14.1586C14.341 7.20679 14.5194 7.26026 14.6717 7.36067C14.824 7.46109 14.9434 7.60402 15.0152 7.77172L16.359 10.931H3.63483L5.00965 7.76862ZM5.34483 18.069C5.34483 18.1513 5.31213 18.2302 5.25393 18.2884C5.19573 18.3466 5.11679 18.3793 5.03448 18.3793H2.55172C2.46942 18.3793 2.39048 18.3466 2.33228 18.2884C2.27408 18.2302 2.24138 18.1513 2.24138 18.069V16.5172C2.38592 16.71 2.57334 16.8664 2.78881 16.9741C3.00427 17.0818 3.24186 17.1379 3.48276 17.1379H5.34483V18.069ZM17.4483 18.3793H14.9655C14.8832 18.3793 14.8043 18.3466 14.7461 18.2884C14.6879 18.2302 14.6552 18.1513 14.6552 18.069V17.1379H16.5172C16.7581 17.1379 16.9957 17.0818 17.2112 16.9741C17.4267 16.8664 17.6141 16.71 17.7586 16.5172V18.069C17.7586 18.1513 17.7259 18.2302 17.6677 18.2884C17.6095 18.3466 17.5306 18.3793 17.4483 18.3793ZM18.2707 13.1034L17.4203 15.8655C17.3609 16.0544 17.2428 16.2195 17.0832 16.3367C16.9236 16.4539 16.7308 16.5171 16.5328 16.5172H3.48276C3.28395 16.5167 3.09054 16.4526 2.93082 16.3342C2.77111 16.2158 2.65349 16.0494 2.59517 15.8593L1.72931 13.1034C1.71127 13.0452 1.71077 12.983 1.72788 12.9245C1.74499 12.866 1.77895 12.8138 1.82552 12.7745L3.28414 11.5517H16.7159L18.1745 12.7683C18.2222 12.8081 18.257 12.8613 18.2741 12.9211C18.2913 12.9808 18.2901 13.0444 18.2707 13.1034Z" stroke="#333333" stroke-width="0.2" mask="url(#path-1-outside-1_568_2400)"/>
<path d="M4.10345 13.1034C3.91931 13.1034 3.7393 13.1581 3.58619 13.2604C3.43309 13.3627 3.31375 13.5081 3.24328 13.6782C3.17282 13.8483 3.15438 14.0355 3.1903 14.2161C3.22623 14.3967 3.3149 14.5626 3.44511 14.6928C3.57531 14.823 3.74121 14.9117 3.92181 14.9476C4.10242 14.9836 4.28962 14.9651 4.45974 14.8946C4.62986 14.8242 4.77527 14.7048 4.87757 14.5517C4.97988 14.3986 5.03448 14.2186 5.03448 14.0345C5.03448 13.7876 4.93639 13.5507 4.76179 13.3761C4.58719 13.2015 4.35037 13.1034 4.10345 13.1034ZM4.10345 14.3448C4.04207 14.3448 3.98207 14.3266 3.93103 14.2925C3.87999 14.2584 3.84022 14.21 3.81673 14.1532C3.79324 14.0965 3.78709 14.0341 3.79907 13.9739C3.81104 13.9137 3.8406 13.8584 3.884 13.815C3.9274 13.7716 3.9827 13.7421 4.0429 13.7301C4.1031 13.7181 4.1655 13.7243 4.22221 13.7478C4.27892 13.7713 4.32739 13.811 4.36149 13.8621C4.39559 13.9131 4.41379 13.9731 4.41379 14.0345C4.41379 14.1168 4.3811 14.1957 4.3229 14.2539C4.26469 14.3121 4.18576 14.3448 4.10345 14.3448Z" stroke="#333333" stroke-width="0.2" mask="url(#path-1-outside-1_568_2400)"/>
<path d="M15.8966 13.1034C15.7124 13.1034 15.5324 13.1581 15.3793 13.2604C15.2262 13.3627 15.1069 13.5081 15.0364 13.6782C14.9659 13.8483 14.9475 14.0355 14.9834 14.2161C15.0193 14.3967 15.108 14.5626 15.2382 14.6928C15.3684 14.823 15.5343 14.9117 15.7149 14.9476C15.8955 14.9836 16.0827 14.9651 16.2528 14.8946C16.423 14.8242 16.5684 14.7048 16.6707 14.5517C16.773 14.3986 16.8276 14.2186 16.8276 14.0345C16.8276 13.7876 16.7295 13.5507 16.5549 13.3761C16.3803 13.2015 16.1435 13.1034 15.8966 13.1034ZM15.8966 14.3448C15.8352 14.3448 15.7752 14.3266 15.7241 14.2925C15.6731 14.2584 15.6333 14.21 15.6098 14.1532C15.5863 14.0965 15.5802 14.0341 15.5922 13.9739C15.6041 13.9137 15.6337 13.8584 15.6771 13.815C15.7205 13.7716 15.7758 13.7421 15.836 13.7301C15.8962 13.7181 15.9586 13.7243 16.0153 13.7478C16.072 13.7713 16.1205 13.811 16.1546 13.8621C16.1887 13.9131 16.2069 13.9731 16.2069 14.0345C16.2069 14.1168 16.1742 14.1957 16.116 14.2539C16.0578 14.3121 15.9789 14.3448 15.8966 14.3448Z" stroke="#333333" stroke-width="0.2" mask="url(#path-1-outside-1_568_2400)"/>
<path d="M9.06896 6.58621C9.15127 6.58621 9.23021 6.55351 9.28841 6.49531C9.34661 6.43711 9.37931 6.35817 9.37931 6.27586V5.34483H10C10.3292 5.34483 10.645 5.21404 10.8778 4.98124C11.1106 4.74843 11.2414 4.43268 11.2414 4.10345C11.2414 3.77421 11.1106 3.45846 10.8778 3.22566C10.645 2.99286 10.3292 2.86207 10 2.86207H9.06896C8.98666 2.86207 8.90772 2.89477 8.84952 2.95297C8.79132 3.01117 8.75862 3.09011 8.75862 3.17241V6.27586C8.75862 6.35817 8.79132 6.43711 8.84952 6.49531C8.90772 6.55351 8.98666 6.58621 9.06896 6.58621ZM10.6207 4.10345C10.6207 4.26807 10.5553 4.42594 10.4389 4.54234C10.3225 4.65874 10.1646 4.72414 10 4.72414H9.37931V3.48276H10C10.1646 3.48276 10.3225 3.54815 10.4389 3.66455C10.5553 3.78096 10.6207 3.93883 10.6207 4.10345Z" stroke="#333333" stroke-width="0.2" mask="url(#path-1-outside-1_568_2400)"/>
</g>
</svg>
