<svg width="17" height="17" viewBox="0 0 17 17" fill="none" xmlns="http://www.w3.org/2000/svg">
<path id="Vector" d="M12.3958 3.54167C13.3733 3.54167 14.1667 2.74833 14.1667 1.77083C14.1667 0.793333 13.3733 0 12.3958 0C11.4183 0 10.625 0.793333 10.625 1.77083C10.625 2.74833 11.4183 3.54167 12.3958 3.54167ZM12.3958 0.708333C12.9838 0.708333 13.4583 1.18292 13.4583 1.77083C13.4583 2.35875 12.9838 2.83333 12.3958 2.83333C11.8079 2.83333 11.3333 2.35875 11.3333 1.77083C11.3333 1.18292 11.8079 0.708333 12.3958 0.708333ZM16.2704 12.1479L15.0946 6.45292C14.8325 5.17792 13.6992 4.25 12.3958 4.25C11.0925 4.25 9.95917 5.17792 9.69708 6.45292L8.51417 12.1763C8.45042 12.6792 8.60625 13.1892 8.94625 13.5646C9.27917 13.9471 9.76792 14.1667 10.2708 14.1667H10.625V16.6458C10.625 16.8442 10.7808 17 10.9792 17C11.1775 17 11.3333 16.8442 11.3333 16.6458V14.1667H13.4583V16.6458C13.4583 16.8442 13.6142 17 13.8125 17C14.0108 17 14.1667 16.8442 14.1667 16.6458V14.1667H14.5208C15.0308 14.1667 15.5125 13.9471 15.8454 13.5646C16.1783 13.1821 16.3412 12.6792 16.2704 12.1479ZM15.3142 13.0971C15.1088 13.3238 14.8183 13.4583 14.5208 13.4583H10.2708C9.96625 13.4583 9.67583 13.3308 9.4775 13.0971C9.27917 12.8704 9.18 12.5658 9.21542 12.2896L10.3913 6.59458C10.5896 5.64542 11.4325 4.95833 12.3958 4.95833C13.3592 4.95833 14.2092 5.64542 14.4004 6.59458L15.5692 12.2612C15.6046 12.5658 15.5125 12.8704 15.3142 13.0971ZM3.1875 3.54167C4.165 3.54167 4.95833 2.74833 4.95833 1.77083C4.95833 0.793333 4.165 0 3.1875 0C2.21 0 1.41667 0.793333 1.41667 1.77083C1.41667 2.74833 2.21 3.54167 3.1875 3.54167ZM3.1875 0.708333C3.77542 0.708333 4.25 1.18292 4.25 1.77083C4.25 2.35875 3.77542 2.83333 3.1875 2.83333C2.59958 2.83333 2.125 2.35875 2.125 1.77083C2.125 1.18292 2.59958 0.708333 3.1875 0.708333ZM3.89583 4.25H2.47917C1.11208 4.25 0 5.36208 0 6.72917V9.5625C0 10.5471 0.580833 11.4042 1.41667 11.8008V16.6458C1.41667 16.8442 1.5725 17 1.77083 17C1.96917 17 2.125 16.8442 2.125 16.6458V12.0133C2.23833 12.0275 2.35875 12.0417 2.47917 12.0417H3.89583C4.01625 12.0417 4.13667 12.0346 4.25 12.0133V16.6458C4.25 16.8442 4.40583 17 4.60417 17C4.8025 17 4.95833 16.8442 4.95833 16.6458V11.8008C5.79417 11.4042 6.375 10.5471 6.375 9.5625V6.72917C6.375 5.36208 5.26292 4.25 3.89583 4.25ZM5.66667 9.5625C5.66667 10.54 4.87333 11.3333 3.89583 11.3333H2.47917C1.50167 11.3333 0.708333 10.54 0.708333 9.5625V6.72917C0.708333 5.75167 1.50167 4.95833 2.47917 4.95833H3.89583C4.87333 4.95833 5.66667 5.75167 5.66667 6.72917V9.5625Z" fill="#333333"/>
</svg>
