<svg width="19" height="19" viewBox="0 0 19 19" fill="none" xmlns="http://www.w3.org/2000/svg">
<path id="Vector" d="M9.96467 10.2728L9.93385 10.3122L7.80889 8.64903L9.96467 10.2728ZM9.96467 10.2728L9.93386 10.3122C10.5274 10.7766 10.8667 11.4739 10.8667 12.2257M9.96467 10.2728L10.8667 12.2257M10.8667 12.2257V15.1667C10.8667 16.3106 9.93564 17.2417 8.79167 17.2417H3.83333C2.68936 17.2417 1.75833 16.3106 1.75833 15.1667V12.2257C1.75833 11.4739 2.09832 10.7766 2.69116 10.3122C2.69116 10.3122 2.69116 10.3122 2.69117 10.3122L4.81537 8.64905L10.8667 12.2257ZM2.19247 9.67596L2.19247 9.67597C1.40334 10.2939 0.95 11.2236 0.95 12.2257V15.1667C0.95 16.7569 2.24314 18.05 3.83333 18.05H8.79167C10.3819 18.05 11.675 16.7569 11.675 15.1667V12.2757H11.6757V12.2257C11.6757 11.2236 11.2224 10.2939 10.4332 9.67597L10.4332 9.67595L8.30753 8.0128C8.30753 8.0128 8.30752 8.01279 8.30752 8.01279C7.13411 7.09407 5.49228 7.0941 4.31749 8.01278L4.31748 8.01279L2.19247 9.67596ZM14.1042 10.1583C13.8811 10.1583 13.7 10.3394 13.7 10.5625C13.7 10.7856 13.8811 10.9667 14.1042 10.9667H14.8125C15.0356 10.9667 15.2167 10.7856 15.2167 10.5625C15.2167 10.3394 15.0356 10.1583 14.8125 10.1583H14.1042ZM14.1042 13.8H14.8125C15.0356 13.8 15.2167 13.6189 15.2167 13.3958C15.2167 13.1727 15.0356 12.9917 14.8125 12.9917H14.1042C13.8811 12.9917 13.7 13.1727 13.7 13.3958C13.7 13.6189 13.8811 13.8 14.1042 13.8ZM11.2708 5.3H11.9792C12.2023 5.3 12.3833 5.11895 12.3833 4.89583C12.3833 4.67272 12.2023 4.49167 11.9792 4.49167H11.2708C11.0477 4.49167 10.8667 4.67272 10.8667 4.89583C10.8667 5.11895 11.0477 5.3 11.2708 5.3ZM14.1042 5.3H14.8125C15.0356 5.3 15.2167 5.11895 15.2167 4.89583C15.2167 4.67272 15.0356 4.49167 14.8125 4.49167H14.1042C13.8811 4.49167 13.7 4.67272 13.7 4.89583C13.7 5.11895 13.8811 5.3 14.1042 5.3ZM14.1042 8.13333H14.8125C15.0356 8.13333 15.2167 7.95228 15.2167 7.72917C15.2167 7.50605 15.0356 7.325 14.8125 7.325H14.1042C13.8811 7.325 13.7 7.50605 13.7 7.72917C13.7 7.95228 13.8811 8.13333 14.1042 8.13333ZM11.9792 7.325H11.2708C11.0477 7.325 10.8667 7.50605 10.8667 7.72917C10.8667 7.95228 11.0477 8.13333 11.2708 8.13333H11.9792C12.2023 8.13333 12.3833 7.95228 12.3833 7.72917C12.3833 7.50605 12.2023 7.325 11.9792 7.325ZM14.8125 0.95H11.2708C9.48584 0.95 8.03333 2.40251 8.03333 4.1875V6.3125C8.03333 6.53561 8.21439 6.71667 8.4375 6.71667C8.66061 6.71667 8.84167 6.53561 8.84167 6.3125V4.1875C8.84167 2.84803 9.93137 1.75833 11.2708 1.75833H14.8125C16.152 1.75833 17.2417 2.84803 17.2417 4.1875V14.8125C17.2417 16.152 16.152 17.2417 14.8125 17.2417H12.6875C12.4644 17.2417 12.2833 17.4227 12.2833 17.6458C12.2833 17.8689 12.4644 18.05 12.6875 18.05H14.8125C16.5975 18.05 18.05 16.5975 18.05 14.8125V4.1875C18.05 2.40251 16.5975 0.95 14.8125 0.95ZM6.3125 8.13192C6.83989 8.13192 7.36803 8.30469 7.80885 8.649L4.81545 8.64899C5.25699 8.30467 5.78513 8.13192 6.3125 8.13192ZM8.13333 14.1042V12.6875C8.13333 12.0741 7.63424 11.575 7.02083 11.575H5.60417C4.99076 11.575 4.49167 12.0741 4.49167 12.6875V14.1042C4.49167 14.7176 4.99076 15.2167 5.60417 15.2167H7.02083C7.63424 15.2167 8.13333 14.7176 8.13333 14.1042ZM7.02083 12.3833C7.18801 12.3833 7.325 12.5203 7.325 12.6875V14.1042C7.325 14.2713 7.18801 14.4083 7.02083 14.4083H5.60417C5.43699 14.4083 5.3 14.2713 5.3 14.1042V12.6875C5.3 12.5203 5.43699 12.3833 5.60417 12.3833H7.02083Z" fill="#333333" stroke="#333333" stroke-width="0.1"/>
</svg>
