<svg width="110" height="110" viewBox="0 0 110 110" fill="none" xmlns="http://www.w3.org/2000/svg">
<g id="Group 2460">
<g id="Ellipse 329" filter="url(#filter0_d_301_390)">
<circle cx="55" cy="51" r="11" fill="white"/>
<circle cx="55" cy="51" r="10.5" stroke="#EBEBEB"/>
</g>
<g id="Vector">
<path d="M59.95 47.15H50.05C49.9041 47.15 49.7642 47.2079 49.6611 47.3111C49.5579 47.4142 49.5 47.5541 49.5 47.7C49.5 47.8459 49.5579 47.9858 49.6611 48.0889C49.7642 48.1921 49.9041 48.25 50.05 48.25H51.15V54.85C51.1501 55.2876 51.324 55.7072 51.6334 56.0166C51.9428 56.326 52.3624 56.4999 52.8 56.5H57.2C57.6376 56.4999 58.0572 56.326 58.3666 56.0166C58.676 55.7072 58.8499 55.2876 58.85 54.85V48.25H59.95C60.0959 48.25 60.2358 48.1921 60.3389 48.0889C60.4421 47.9858 60.5 47.8459 60.5 47.7C60.5 47.5541 60.4421 47.4142 60.3389 47.3111C60.2358 47.2079 60.0959 47.15 59.95 47.15ZM54.45 53.2C54.45 53.3459 54.3921 53.4858 54.2889 53.5889C54.1858 53.6921 54.0459 53.75 53.9 53.75C53.7541 53.75 53.6142 53.6921 53.5111 53.5889C53.4079 53.4858 53.35 53.3459 53.35 53.2V50.45C53.35 50.3041 53.4079 50.1642 53.5111 50.0611C53.6142 49.9579 53.7541 49.9 53.9 49.9C54.0459 49.9 54.1858 49.9579 54.2889 50.0611C54.3921 50.1642 54.45 50.3041 54.45 50.45V53.2ZM56.65 53.2C56.65 53.3459 56.5921 53.4858 56.4889 53.5889C56.3858 53.6921 56.2459 53.75 56.1 53.75C55.9541 53.75 55.8142 53.6921 55.7111 53.5889C55.6079 53.4858 55.55 53.3459 55.55 53.2V50.45C55.55 50.3041 55.6079 50.1642 55.7111 50.0611C55.8142 49.9579 55.9541 49.9 56.1 49.9C56.2459 49.9 56.3858 49.9579 56.4889 50.0611C56.5921 50.1642 56.65 50.3041 56.65 50.45V53.2Z" fill="#D61313"/>
<path d="M53.9 46.6H56.1C56.2459 46.6 56.3858 46.5421 56.4889 46.4389C56.5921 46.3358 56.65 46.1959 56.65 46.05C56.65 45.9041 56.5921 45.7642 56.4889 45.6611C56.3858 45.5579 56.2459 45.5 56.1 45.5H53.9C53.7541 45.5 53.6142 45.5579 53.5111 45.6611C53.4079 45.7642 53.35 45.9041 53.35 46.05C53.35 46.1959 53.4079 46.3358 53.5111 46.4389C53.6142 46.5421 53.7541 46.6 53.9 46.6Z" fill="#D61313"/>
</g>
</g>
<defs>
<filter id="filter0_d_301_390" x="0" y="0" width="110" height="110" filterUnits="userSpaceOnUse" color-interpolation-filters="sRGB">
<feFlood flood-opacity="0" result="BackgroundImageFix"/>
<feColorMatrix in="SourceAlpha" type="matrix" values="0 0 0 0 0 0 0 0 0 0 0 0 0 0 0 0 0 0 127 0" result="hardAlpha"/>
<feOffset dy="4"/>
<feGaussianBlur stdDeviation="22"/>
<feComposite in2="hardAlpha" operator="out"/>
<feColorMatrix type="matrix" values="0 0 0 0 0 0 0 0 0 0 0 0 0 0 0 0 0 0 0.12 0"/>
<feBlend mode="normal" in2="BackgroundImageFix" result="effect1_dropShadow_301_390"/>
<feBlend mode="normal" in="SourceGraphic" in2="effect1_dropShadow_301_390" result="shape"/>
</filter>
</defs>
</svg>
