<svg width="22" height="22" viewBox="0 0 22 22" fill="none" xmlns="http://www.w3.org/2000/svg">
<g id="Group 54">
<circle id="Ellipse 154" cx="11" cy="11" r="11" fill="#EA4335"/>
<path id="Vector" d="M10.6071 5.5C9.46142 5.50124 8.36305 5.94912 7.55291 6.74539C6.74277 7.54166 6.28702 8.62129 6.28564 9.74743C6.28564 10.8412 7.14725 12.553 8.84664 14.835C9.04894 15.1074 9.31383 15.3291 9.61974 15.4819C9.92565 15.6346 10.2639 15.7143 10.6071 15.7143C10.9502 15.7143 11.2885 15.6346 11.5944 15.4819C11.9003 15.3291 12.1652 15.1074 12.3675 14.835C14.0669 12.553 14.9285 10.8412 14.9285 9.74743C14.9271 8.62129 14.4714 7.54166 13.6612 6.74539C12.8511 5.94912 11.7527 5.50124 10.6071 5.5ZM10.6071 11.4404C10.2645 11.4404 9.92971 11.3406 9.6449 11.1535C9.3601 10.9665 9.13812 10.7006 9.00704 10.3895C8.87596 10.0785 8.84166 9.73618 8.90849 9.40595C8.97531 9.07572 9.14026 8.77239 9.38246 8.53431C9.62467 8.29623 9.93326 8.13409 10.2692 8.0684C10.6052 8.00272 10.9534 8.03643 11.2698 8.16528C11.5863 8.29413 11.8568 8.51233 12.0471 8.79228C12.2374 9.07223 12.3389 9.40137 12.3389 9.73807C12.3389 10.1896 12.1565 10.6226 11.8317 10.9418C11.5069 11.2611 11.0664 11.4404 10.6071 11.4404Z" fill="white"/>
</g>
</svg>
