<svg width="16" height="15" viewBox="0 0 16 15" fill="none" xmlns="http://www.w3.org/2000/svg">
<g id="Vector">
<path d="M15.3306 2.90688L9.94304 8.2944C9.34232 8.8936 8.52848 9.2301 7.68 9.2301C6.83152 9.2301 6.01768 8.8936 5.41696 8.2944L0.02944 2.90688C0.02048 3.008 0 3.09952 0 3.2V10.88C0.00101623 11.7284 0.338484 12.5417 0.938381 13.1416C1.53828 13.7415 2.35162 14.079 3.2 14.08H12.16C13.0084 14.079 13.8217 13.7415 14.4216 13.1416C15.0215 12.5417 15.359 11.7284 15.36 10.88V3.2C15.36 3.09952 15.3395 3.008 15.3306 2.90688Z" fill="#363636"/>
<path d="M9.03808 7.38944L14.8838 1.54304C14.6007 1.07348 14.2012 0.684824 13.7241 0.414547C13.247 0.144271 12.7083 0.00149803 12.16 0H3.2C2.65166 0.00149803 2.11296 0.144271 1.63586 0.414547C1.15875 0.684824 0.759346 1.07348 0.47616 1.54304L6.32192 7.38944C6.68261 7.74868 7.17093 7.95038 7.68 7.95038C8.18907 7.95038 8.67739 7.74868 9.03808 7.38944Z" fill="#363636"/>
</g>
</svg>
